<svg width="28" height="39" viewBox="0 0 28 39" fill="none" xmlns="http://www.w3.org/2000/svg">
<path d="M4.31125 1.66893e-05C4.2257 -0.0011394 4.15575 0.104636 4.15517 0.233545L4.15112 1.76717C4.15112 1.89608 4.21933 2.00187 4.30662 2.00187L6.9906 2.00939C7.07615 2.01055 7.14611 1.90533 7.14611 1.77527L7.15188 0.243382C7.15188 0.112738 7.08136 0.00752473 6.99465 0.00752473L4.31125 1.66893e-05Z" fill="#223D4E"/>
<path d="M4.25122 0.30752C4.03155 0.30463 3.85062 0.48268 3.84888 0.702925C3.84773 0.92317 4.02403 1.10411 4.24427 1.107L7.12133 1.13416C7.34158 1.13648 7.52137 0.959595 7.52368 0.738772C7.52657 0.518528 7.34852 0.337579 7.1277 0.335845L4.25122 0.30752Z" fill="#38607B"/>
<path d="M5.48831 0.422544C5.07095 0.397109 4.36281 0.241041 3.99805 0.491924C4.22407 0.959004 5.46636 0.705228 5.88777 0.70465C6.20975 0.70465 6.54387 0.712169 6.86528 0.694827C6.95084 0.689624 7.23294 0.716209 7.28554 0.616203C7.36705 0.46128 7.1312 0.431218 7.01559 0.454919L7.04102 0.442203C6.53289 0.476309 5.99297 0.453182 5.48831 0.422544Z" fill="#5B8597"/>
<path d="M0.316895 19.8423H27.2827V2.57668H0.316895V19.8423Z" fill="#F7CB0A"/>
<path d="M18.9106 19.5197C17.9429 19.5093 16.974 19.496 16.0063 19.481C16.3624 14.335 16.3717 9.13985 16.4179 4.00716C17.3561 4.12509 18.288 4.254 19.2123 4.38696C19.2297 5.62865 19.2395 6.87092 19.2389 8.11262C19.2389 11.9186 19.1464 15.7212 18.9106 19.5197Z" fill="#F2B70C"/>
<path d="M25.6163 19.5347C25.4111 16.5033 25.3001 13.4667 25.3128 10.4307C25.2509 8.83291 25.2029 7.23397 25.1648 5.63503C25.8926 5.87609 26.603 6.15761 27.2828 6.49V19.5168C26.7279 19.5243 26.1718 19.5301 25.6163 19.5347Z" fill="#EEA70F"/>
<path d="M23.1728 19.5439C21.7524 19.5439 20.3321 19.5347 18.9106 19.5197C19.1465 15.7212 19.239 11.9186 19.239 8.1126C19.2396 6.87091 19.2297 5.62864 19.2124 4.38694C19.5997 4.44244 19.9859 4.49908 20.3703 4.55574C21.9663 4.79043 23.6063 5.11936 25.1648 5.635C25.2029 7.23394 25.2509 8.83289 25.3128 10.4307C25.3001 13.4667 25.411 16.5033 25.6163 19.5347C24.8018 19.5405 23.9878 19.5439 23.1728 19.5439Z" fill="#EB9812"/>
<path d="M1.96328 2.57702C1.93265 6.96573 3.01769 11.1567 2.62229 15.6067C2.4957 17.0282 2.31649 18.4393 2.0974 19.8423H11.7529C10.9881 14.08 11.0297 8.16927 12.2402 2.57702H1.96328Z" fill="#F9DC09"/>
<path d="M3.4714 2.57702C3.46736 2.75102 3.46736 2.92502 3.46216 3.09902C4.97092 8.54733 4.51367 14.2292 3.76507 19.8423H7.97688C7.26643 14.1483 7.83005 8.10742 8.459 2.57702H3.4714Z" fill="#F8ED1A"/>
<path d="M16.4177 4.00717C14.9673 3.82566 13.5042 3.66958 12.0388 3.56437C12.0943 3.27476 12.1527 2.98573 12.214 2.69785H16.4304C16.4258 3.13371 16.4217 3.57073 16.4177 4.00717Z" fill="#E3A612"/>
<path d="M19.2124 4.38696C18.288 4.25401 17.3562 4.12509 16.418 4.00717C16.422 3.57072 16.4261 3.13371 16.4307 2.69784H19.1835C19.1944 3.26088 19.2043 3.82392 19.2124 4.38696Z" fill="#DF9A14"/>
<path d="M0.316895 3.73489V2.62384C0.377014 2.65506 0.4435 2.67529 0.512868 2.68397V2.69784H1.96266C1.96208 2.93543 1.96498 3.1736 1.97018 3.4106C1.4135 3.49442 0.862015 3.60136 0.316895 3.73489Z" fill="#E3A612"/>
<path d="M27.2826 6.48999C26.6028 6.1576 25.8924 5.87608 25.1646 5.63502C25.1415 4.65635 25.1224 3.67709 25.1062 2.69784H27.2826V6.48999Z" fill="#DD8F16"/>
<path d="M25.1646 5.63501C23.6062 5.11937 21.9662 4.79044 20.3701 4.55574C19.9857 4.49909 19.5996 4.44245 19.2123 4.38695C19.2042 3.82391 19.1943 3.26087 19.1833 2.69783H25.1063C25.1224 3.67708 25.1415 4.65634 25.1646 5.63501Z" fill="#DA8418"/>
<path d="M12.0391 3.56436C11.4142 3.51985 10.7887 3.48401 10.1638 3.46031C9.57013 3.39094 8.97529 3.33081 8.37988 3.28283C8.40127 3.08745 8.42324 2.89264 8.44579 2.69783H12.2142C12.1529 2.98571 12.0946 3.27475 12.0391 3.56436ZM1.97024 3.4106C1.96504 3.17359 1.96214 2.93542 1.96272 2.69783H3.46917C3.46744 2.83137 3.46571 2.96548 3.46224 3.09901C3.47496 3.14526 3.48767 3.19093 3.49981 3.23718C2.98649 3.27764 2.47605 3.33429 1.97024 3.4106Z" fill="#E4B110"/>
<path d="M8.37979 3.28284C7.42829 3.20653 6.47736 3.16087 5.53222 3.16087C4.85067 3.16087 4.1726 3.18458 3.49973 3.23718C3.48759 3.19094 3.47488 3.14526 3.46216 3.09901C3.46563 2.96548 3.46735 2.83137 3.46909 2.69784H8.4457C8.42316 2.89265 8.40118 3.08745 8.37979 3.28284Z" fill="#E3BD10"/>
<path d="M0.316895 19.7972V19.1746C0.942945 19.1838 1.56842 19.1937 2.19447 19.2052C2.16903 19.3775 2.14303 19.5503 2.11643 19.7226H0.512868V19.7371C0.4435 19.7463 0.377014 19.7665 0.316895 19.7972ZM15.9895 19.7226H11.7367C11.7228 19.6157 11.7089 19.5076 11.6956 19.4006C13.1327 19.4301 14.5698 19.4579 16.0063 19.481C16.0011 19.5613 15.9953 19.6417 15.9895 19.7226Z" fill="#E3A612"/>
<path d="M18.8978 19.7226H15.9895C15.9953 19.6417 16.0011 19.5613 16.0063 19.481C16.974 19.496 17.9428 19.5093 18.9105 19.5197C18.9064 19.5873 18.9024 19.655 18.8978 19.7226Z" fill="#DF9A14"/>
<path d="M27.2828 19.7226H25.6295C25.6249 19.6596 25.6208 19.5972 25.6162 19.5347C26.1717 19.5301 26.7278 19.5243 27.2828 19.5168V19.7226Z" fill="#DD8F16"/>
<path d="M25.6296 19.7226H18.8979C18.9026 19.655 18.9066 19.5873 18.9107 19.5197C20.3322 19.5347 21.7525 19.544 23.1728 19.544C23.9879 19.544 24.8018 19.5405 25.6163 19.5347C25.6209 19.5972 25.625 19.6596 25.6296 19.7226Z" fill="#DA8418"/>
<path d="M11.7365 19.7226H7.96223C7.94604 19.5885 7.93043 19.4544 7.9154 19.3203C9.1756 19.3474 10.4352 19.3746 11.6954 19.4006C11.7087 19.5075 11.7226 19.6157 11.7365 19.7226ZM3.78104 19.7226H2.11621C2.1428 19.5503 2.16881 19.3775 2.19424 19.2052C2.74399 19.2145 3.29431 19.2249 3.84464 19.2359C3.82383 19.3977 3.80243 19.5602 3.78104 19.7226Z" fill="#E4B110"/>
<path d="M7.96244 19.7226H3.78125C3.80264 19.5602 3.82403 19.3977 3.84484 19.2359C5.20157 19.2619 6.55888 19.2908 7.91561 19.3203C7.93064 19.4544 7.94625 19.5885 7.96244 19.7226Z" fill="#E3BD10"/>
<path d="M0.389648 37.8058H27.3582V20.5405H0.389648V37.8058Z" fill="#F7CB0A"/>
<path d="M16.1362 36.5994C16.4316 31.8442 16.4484 27.052 16.4894 22.3112C17.4461 22.4384 18.3849 22.5823 19.2919 22.7448C19.3058 23.8558 19.3139 24.9657 19.3139 26.0762C19.3133 29.5822 19.2353 33.0853 19.0387 36.5849C18.6768 36.582 18.3156 36.5803 17.9537 36.5803C17.3479 36.5803 16.7415 36.5855 16.1362 36.5994Z" fill="#F2B70C"/>
<path d="M25.6334 36.6179C25.4658 33.8795 25.3762 31.136 25.3866 28.3948C25.334 27.0387 25.2918 25.6831 25.2571 24.3275C26.1253 24.6807 26.841 25.0692 27.3584 25.4929V36.5537C26.7838 36.5843 26.2092 36.6051 25.6334 36.6179Z" fill="#EEA70F"/>
<path d="M23.8582 36.6364C22.8743 36.6364 21.8899 36.6219 20.9054 36.608C20.2834 36.5994 19.6608 36.5907 19.0388 36.5849C19.2354 33.0853 19.3134 29.5821 19.314 26.0762C19.314 24.9657 19.3059 23.8558 19.292 22.7447C21.5945 23.1569 23.6772 23.6841 25.2571 24.3275C25.2918 25.6831 25.334 27.0386 25.3866 28.3948C25.3762 31.136 25.4658 33.8795 25.6334 36.6179C25.0421 36.6311 24.4501 36.6364 23.8582 36.6364Z" fill="#EB9812"/>
<path d="M2.0385 20.5406C2.00729 24.9299 3.09176 29.1209 2.69636 33.5703C2.57034 34.9923 2.39113 36.4028 2.17204 37.8058H11.8264C11.0633 32.0442 11.1044 26.1334 12.3143 20.5406H2.0385Z" fill="#F9DC09"/>
<path d="M3.54725 20.5406C3.54379 20.7146 3.54204 20.888 3.53857 21.0626C5.04503 26.5109 4.58777 32.1928 3.83975 37.8058H8.05157C7.3417 32.1118 7.90533 26.071 8.53369 20.5406H3.54725Z" fill="#F8ED1A"/>
<path d="M16.4895 22.3112C15.0287 22.1175 13.5281 21.9655 12.0522 21.8539C12.1106 21.536 12.1725 21.2186 12.2378 20.9024H16.5028C16.4976 21.3712 16.4936 21.8412 16.4895 22.3112Z" fill="#E3A612"/>
<path d="M19.292 22.7448C18.385 22.5823 17.4462 22.4384 16.4895 22.3112C16.4935 21.8412 16.4976 21.3712 16.5028 20.9024H19.2625C19.2741 21.5163 19.2839 22.1308 19.292 22.7448Z" fill="#DF9A14"/>
<path d="M0.389648 22.0863V20.8591C0.428957 20.8729 0.470586 20.8828 0.512785 20.888V20.9024H2.03831C2.04004 21.2071 2.04698 21.5117 2.05854 21.8152C1.40417 21.8857 0.840543 21.9765 0.389648 22.0863Z" fill="#E3A612"/>
<path d="M27.3585 25.4929C26.8411 25.0692 26.1255 24.6807 25.2572 24.3275C25.2283 23.1858 25.2052 22.0441 25.1855 20.9024H27.3585V25.4929Z" fill="#DD8F16"/>
<path d="M25.2573 24.3275C23.6774 23.6841 21.5946 23.1569 19.2922 22.7447C19.2841 22.1308 19.2743 21.5163 19.2627 20.9024H25.1856C25.2053 22.0441 25.2284 23.1858 25.2573 24.3275Z" fill="#DA8418"/>
<path d="M12.0522 21.8539C10.8088 21.7603 9.58214 21.6956 8.40866 21.6597C8.43641 21.4065 8.46415 21.1539 8.49248 20.9024H12.2378C12.1725 21.2186 12.1106 21.536 12.0522 21.8539ZM2.05857 21.8152C2.04701 21.5117 2.04006 21.2071 2.03833 20.9024H3.54131C3.54016 20.9556 3.53958 21.0088 3.53842 21.0626C3.59565 21.2707 3.65057 21.4794 3.7026 21.688C3.10834 21.7187 2.55629 21.7615 2.05857 21.8152Z" fill="#E4B110"/>
<path d="M3.70275 21.688C3.65072 21.4794 3.5958 21.2707 3.53857 21.0626C3.53973 21.0088 3.54031 20.9556 3.54147 20.9024H8.49263C8.46431 21.1539 8.43656 21.4065 8.40882 21.6597C7.67871 21.6372 6.97001 21.6262 6.29077 21.6262C5.36586 21.6262 4.49529 21.647 3.70275 21.688Z" fill="#E3BD10"/>
<path d="M0.389648 37.489V37.0416C1.01743 37.0803 1.6458 37.1046 2.2759 37.1173C2.26029 37.2266 2.2441 37.3364 2.22734 37.4457H0.512785V37.4601C0.470586 37.4653 0.428957 37.4751 0.389648 37.489Z" fill="#E3A612"/>
<path d="M16.081 37.4456H11.7801C11.7524 37.2271 11.7258 37.0086 11.7009 36.7901C12.9189 36.7242 14.1739 36.6624 15.4775 36.6178C15.6971 36.6103 15.9168 36.6045 16.1365 36.5993C16.1191 36.882 16.1006 37.1635 16.081 37.4456Z" fill="#E3A612"/>
<path d="M18.9879 37.4456H16.0808C16.1005 37.1635 16.119 36.882 16.1363 36.5993C16.7416 36.5855 17.3479 36.5803 17.9538 36.5803C18.3156 36.5803 18.6769 36.582 19.0388 36.5849C19.0226 36.8722 19.0058 37.1589 18.9879 37.4456Z" fill="#DF9A14"/>
<path d="M27.3583 37.4456H25.6865C25.668 37.1699 25.6506 36.8942 25.6333 36.6178C26.2091 36.6051 26.7837 36.5843 27.3583 36.5537V37.4456Z" fill="#DD8F16"/>
<path d="M25.6867 37.4456H18.988C19.006 37.1589 19.0227 36.8722 19.0389 36.5849C19.6609 36.5907 20.2835 36.5994 20.9055 36.608C21.89 36.6219 22.8744 36.6363 23.8583 36.6363C24.4502 36.6363 25.0422 36.6311 25.6335 36.6178C25.6509 36.8942 25.6682 37.1699 25.6867 37.4456Z" fill="#DA8418"/>
<path d="M11.7802 37.4456H8.00824C7.9909 37.2948 7.97471 37.1439 7.9591 36.9924C9.17305 36.9323 10.4165 36.8589 11.7009 36.7901C11.7258 37.0086 11.7524 37.2271 11.7802 37.4456ZM3.88718 37.4456H2.22754C2.2443 37.3364 2.26049 37.2265 2.2761 37.1173C2.63855 37.1242 3.00099 37.1277 3.36518 37.1277C3.55247 37.1277 3.74092 37.1271 3.9288 37.1254C3.91492 37.2323 3.90163 37.3387 3.88718 37.4456Z" fill="#E4B110"/>
<path d="M8.00803 37.4456H3.88696C3.90141 37.3387 3.91471 37.2323 3.92858 37.1254C5.24774 37.1133 6.58481 37.0612 7.95889 36.9924C7.9745 37.1439 7.99069 37.2948 8.00803 37.4456Z" fill="#E3BD10"/>
<path d="M0.512755 1.51917V1.53304C0.225454 1.56888 0 1.80762 0 2.1088C0 2.40997 0.225454 2.64813 0.512755 2.68397V2.69785H27.4797V2.68571C27.7705 2.65449 28 2.41286 28 2.1088C28 1.80531 27.7705 1.5631 27.4797 1.53188V1.51917H0.512755Z" fill="#F7CB0A"/>
<path d="M27.4797 2.69785H0.512755V2.68397C0.225454 2.64813 0 2.40997 0 2.1088L1.23303 2.4036L28 2.1088C28 2.41286 27.7705 2.65449 27.4797 2.68571V2.69785Z" fill="#EEA70F"/>
<path d="M9.52152 1.77292C7.8798 1.77292 6.17393 1.83131 4.55996 1.73246C3.82927 1.68852 0.968393 1.57117 0.791504 2.01339C1.18401 2.21167 3.11998 2.06889 3.58879 2.09317C4.7721 2.15503 16.3624 2.08219 16.6538 1.97466C15.7265 1.69488 10.8424 1.77292 9.52152 1.77292Z" fill="#F8F34B"/>
<path d="M0.512755 19.7226V19.7371C0.225454 19.7735 0 20.0116 0 20.3134C0 20.614 0.225454 20.8527 0.512755 20.888V20.9024H27.4797V20.8903C27.7705 20.8579 28 20.6163 28 20.3134C28 20.0082 27.7705 19.7671 27.4797 19.7353V19.7226H0.512755Z" fill="#F7CB0A"/>
<path d="M27.4797 20.9024H0.512755V20.888C0.225454 20.8527 0 20.614 0 20.3134L1.23303 20.607L28 20.3134C28 20.6163 27.7705 20.8579 27.4797 20.8903V20.9024Z" fill="#EEA70F"/>
<path d="M9.52152 19.9769C7.8798 19.9769 6.17393 20.0353 4.56053 19.9371C3.82927 19.892 0.968393 19.7752 0.791504 20.2174C1.18401 20.4151 3.11998 20.2729 3.58879 20.2972C4.7721 20.3596 16.3624 20.2856 16.6538 20.1787C15.7265 19.8989 10.8424 19.9769 9.52152 19.9769Z" fill="#F8F34B"/>
<path d="M0.512755 37.4457V37.4601C0.225454 37.4965 0 37.7347 0 38.0364C0 38.337 0.225454 38.5758 0.512755 38.611V38.6255H27.4797V38.6134C27.7705 38.581 28 38.3393 28 38.0364C28 37.7312 27.7705 37.4907 27.4797 37.4584V37.4457H0.512755Z" fill="#F7CB0A"/>
<path d="M27.4797 38.6255H0.512755V38.611C0.225454 38.5758 0 38.337 0 38.0364L1.23303 38.3301L28 38.0364C28 38.3393 27.7705 38.581 27.4797 38.6134V38.6255Z" fill="#EEA70F"/>
<path d="M9.52152 37.6994C7.8798 37.6994 6.17393 37.7584 4.55996 37.6595C3.82927 37.6156 0.968393 37.4982 0.791504 37.9405C1.18401 38.1387 3.11998 37.996 3.58879 38.0208C4.7721 38.0821 16.3624 38.0093 16.6538 37.9017C15.7265 37.622 10.8424 37.6994 9.52152 37.6994Z" fill="#F8F34B"/>
<path d="M13.4402 6.66977C13.4061 6.87093 13.357 7.06863 13.2888 7.26287C12.7777 9.77111 9.99432 12.6534 10.6811 14.9685C11.5326 17.8404 16.0901 17.3554 16.1207 14.0639C16.1415 11.7481 14.0738 9.71388 13.4402 6.66977Z" fill="#191716"/>
<path d="M13.2288 7.52936C12.6351 9.79424 10.3853 12.332 10.5859 14.4685C10.9073 14.9234 11.2553 15.3691 11.6934 15.4686C12.5334 15.6582 13.3554 15.0379 13.519 14.2286C13.7687 12.9915 13.5213 11.5863 13.4669 10.3342C13.4276 9.41271 13.2785 8.46583 13.2288 7.52936Z" fill="#413F41"/>
<path d="M13.4403 6.66861C13.4155 6.81891 13.3808 6.96689 13.338 7.11314C13.3276 7.77561 13.4993 8.45484 13.656 9.08089C13.8646 9.9191 14.1323 10.7203 14.4046 11.5389C14.8647 12.9193 14.8266 14.583 13.601 15.5079C13.0259 15.9426 12.2172 15.9975 11.5836 15.6218C10.9136 15.2246 10.7223 14.5807 10.5951 13.8355C10.5529 14.2246 10.5725 14.6038 10.6812 14.9685C11.5327 17.8404 16.0902 17.3554 16.1209 14.0639C16.1417 11.7481 14.0739 9.7133 13.4403 6.66861Z" fill="#100F0D"/>
<path d="M13.3367 16.6952C12.6719 16.6952 12.0095 16.4253 11.521 15.9304C11.5615 15.9362 12.1603 16.3328 12.9696 16.3328C13.3726 16.3328 13.8281 16.2345 14.2928 15.9403C14.6807 15.7287 15.0004 15.3691 15.1871 14.8026C15.7137 13.2071 15.1212 11.6458 14.5252 10.1382C14.5356 10.1983 14.546 10.2596 14.557 10.322C14.4905 10.1098 14.4148 9.90059 14.3281 9.69595L14.2645 9.55259L14.2414 9.47744C14.0899 8.97568 13.9154 8.44558 13.7778 7.91144L13.8333 8.0392C14.1998 9.05082 14.683 9.95434 15.112 10.8128C15.3975 11.5226 15.6594 12.395 15.7288 13.1719C15.8421 14.4298 15.7247 15.5761 14.6674 16.2906C14.261 16.5652 13.7986 16.6952 13.3367 16.6952Z" fill="#201F1E"/>
<path d="M13.1802 16.1935C13.0906 16.1935 13.0004 16.19 12.9097 16.1831C12.9785 16.1443 14.5676 15.8964 14.852 13.9124C15.0034 12.8615 14.7468 11.4227 14.5572 10.322C14.6832 10.7255 14.7751 11.1412 14.8398 11.5608C14.9289 11.9215 16.0497 14.809 14.3115 15.9281C14.3051 15.9322 14.2993 15.9362 14.293 15.9403C13.9594 16.1218 13.575 16.1935 13.1802 16.1935Z" fill="#100F0D"/>
<path d="M14.293 15.9403C14.2993 15.9362 14.3051 15.9322 14.3115 15.9281C16.0497 14.809 14.9288 11.9215 14.8398 11.5608C14.7751 11.1411 14.6832 10.7255 14.5572 10.322C14.5462 10.2596 14.5358 10.1983 14.5254 10.1382C15.1213 11.6458 15.7139 13.2071 15.1872 14.8026C15.0005 15.3691 14.6809 15.7287 14.293 15.9403Z" fill="#161413"/>
<path d="M11.9588 14.9633C11.7888 14.9633 11.6281 14.8674 11.483 14.6315C11.2414 14.2402 11.183 13.8436 11.2622 13.4043C11.2471 13.6847 11.2714 13.9835 11.3628 14.224C11.3732 14.2731 11.3946 14.3211 11.4327 14.3685C11.5553 14.5772 11.8414 14.9477 12.0692 14.9477C12.0732 14.9477 12.0778 14.9477 12.0819 14.9472C12.0403 14.9576 11.9992 14.9633 11.9588 14.9633ZM12.1709 14.9183C12.1813 14.9119 12.1911 14.9044 12.2004 14.8957C12.505 14.6194 11.9848 13.6974 11.968 13.6974C11.9674 13.6974 11.9674 13.6991 11.9692 13.7032C11.9275 13.5875 11.598 12.9592 11.4079 12.9592C11.3922 12.9592 11.3778 12.9632 11.3639 12.9725C11.4587 12.643 11.5871 12.3158 11.7293 11.9909C11.7148 12.1765 11.735 12.3383 11.783 12.4823C11.7923 12.6054 11.8345 12.7048 11.9252 12.7638C12.0715 12.9748 12.2877 13.1419 12.5374 13.295C12.8253 12.9944 12.7091 11.6163 12.7108 11.5498C12.7322 11.0238 13.2068 10.0769 12.6871 9.70291C12.8056 9.28728 12.8675 8.98321 12.9097 8.98321C12.9183 8.98321 12.9264 8.99593 12.934 9.0231C13.0842 9.57862 13.2207 10.9776 13.1825 11.614C13.1201 12.6303 13.364 13.9939 12.5027 14.7078C12.3911 14.8003 12.2802 14.8743 12.1709 14.9183Z" fill="#4E4D4E"/>
<path d="M11.7292 11.9909C11.7379 11.8753 11.7605 11.7498 11.798 11.614C11.9882 10.9255 12.3848 10.3145 12.5929 9.64625C12.627 9.66359 12.6588 9.68209 12.6871 9.7029C12.6039 9.9954 12.4923 10.3423 12.3403 10.6775C12.1443 11.1105 11.9235 11.5481 11.7292 11.9909Z" fill="#5A5A5C"/>
<path d="M12.5373 13.295C12.2876 13.1419 12.0714 12.9748 11.9252 12.7638C11.9835 12.8019 12.0627 12.8233 12.1662 12.8233C12.213 12.8233 12.2645 12.8187 12.3217 12.81C12.3928 12.5909 12.5096 11.1169 12.2697 11.1169C12.2309 11.1169 12.183 11.1544 12.1246 11.2417C11.991 11.5961 11.7564 12.1343 11.7829 12.4823C11.735 12.3383 11.7147 12.1765 11.7292 11.9909C11.9234 11.5481 12.1442 11.1105 12.3402 10.6775C12.4922 10.3423 12.6038 9.99541 12.687 9.70291C13.2067 10.0769 12.7321 11.0238 12.7108 11.5498C12.709 11.6163 12.8252 12.9944 12.5373 13.295Z" fill="#5F5F61"/>
<path d="M12.0817 14.9471C12.1111 14.9402 12.1412 14.9304 12.1707 14.9182C12.1429 14.9362 12.1129 14.9454 12.0817 14.9471ZM11.262 13.4043C11.2683 13.28 11.2822 13.1592 11.3018 13.0488V13.0783C11.3175 13.0233 11.3388 12.9898 11.3637 12.9725C11.3256 13.1066 11.2926 13.2407 11.2672 13.3754C11.2654 13.3852 11.2631 13.3944 11.262 13.4043Z" fill="#5A5A5C"/>
<path d="M12.0692 14.9477C11.8414 14.9477 11.5553 14.5772 11.4327 14.3685C11.4345 14.3702 11.4362 14.3725 11.4379 14.3743C11.531 14.4847 11.6466 14.5448 11.7501 14.5448C11.8414 14.5448 11.9235 14.498 11.9721 14.3968C12.0594 14.2142 12.0171 13.8592 11.9177 13.6927C11.853 13.5864 11.7056 13.4956 11.5923 13.4956C11.4992 13.4956 11.4287 13.5569 11.4472 13.7211C11.42 13.8951 11.3304 14.0633 11.3628 14.224C11.2714 13.9835 11.2472 13.6846 11.2622 13.4043C11.2633 13.3945 11.2656 13.3852 11.2674 13.3754C11.2928 13.2407 11.3258 13.1066 11.3639 12.9725C11.3778 12.9632 11.3923 12.9592 11.4079 12.9592C11.5981 12.9592 11.9275 13.5875 11.9692 13.7031C11.9674 13.6991 11.9674 13.6974 11.968 13.6974C11.9848 13.6974 12.505 14.6194 12.2004 14.8957C12.1911 14.9044 12.1813 14.9119 12.1709 14.9182C12.1414 14.9304 12.1114 14.9402 12.0819 14.9471C12.0778 14.9477 12.0732 14.9477 12.0692 14.9477Z" fill="#5F5F61"/>
<path d="M11.9252 12.7638C11.8344 12.7048 11.7922 12.6054 11.783 12.4823C11.8171 12.5846 11.865 12.6776 11.9252 12.7638Z" fill="#696A6C"/>
<path d="M12.1661 12.8233C12.0626 12.8233 11.9834 12.8019 11.925 12.7638C11.8649 12.6776 11.8169 12.5846 11.7828 12.4822C11.7563 12.1342 11.9909 11.5961 12.1245 11.2417C12.1829 11.1544 12.2308 11.1168 12.2696 11.1168C12.5095 11.1168 12.3927 12.5909 12.3216 12.81C12.2644 12.8187 12.2129 12.8233 12.1661 12.8233Z" fill="#707273"/>
<path d="M11.4325 14.3685C11.3943 14.3211 11.373 14.2731 11.3625 14.224C11.3701 14.2431 11.3776 14.2621 11.3862 14.2806C11.3966 14.3043 11.4123 14.3338 11.4325 14.3685Z" fill="#696A6C"/>
<path d="M11.7497 14.5448C11.6463 14.5448 11.5306 14.4847 11.4376 14.3743C11.4358 14.3726 11.4341 14.3703 11.4324 14.3685C11.4121 14.3338 11.3965 14.3043 11.3861 14.2806C11.3775 14.2621 11.3699 14.2431 11.3624 14.224C11.3301 14.0633 11.4197 13.8951 11.4468 13.7211C11.4283 13.5569 11.4988 13.4956 11.5919 13.4956C11.7052 13.4956 11.8526 13.5864 11.9174 13.6928C12.0168 13.8592 12.059 14.2142 11.9717 14.3968C11.9232 14.498 11.8411 14.5448 11.7497 14.5448Z" fill="#707273"/>
</svg>
