<svg width="147" height="113" viewBox="0 0 147 113" fill="none" xmlns="http://www.w3.org/2000/svg">
<path d="M137.795 49.7814L104.901 30.7894C104.185 30.3774 103.025 30.3774 102.309 30.7894L101.086 31.496L102.436 32.2747L103.605 31.6001L136.393 50.5294L135.223 51.204L136.573 51.984L137.795 51.2774C138.154 51.0694 138.333 50.7974 138.331 50.5254C138.33 50.256 138.151 49.9867 137.795 49.7814Z" fill="#4B4647"/>
<path d="M101.086 31.4959V33.644L102.436 34.4226V32.2747L101.086 31.4959Z" fill="#373132"/>
<path d="M103.605 31.5999L102.436 32.2746V34.4226L103.605 33.7479L135.223 52.0026V51.2039L136.393 50.5292L103.605 31.5999Z" fill="#1B1817"/>
<path d="M135.223 51.204V53.3533L136.573 54.132V51.984L135.223 51.204Z" fill="#373132"/>
<path d="M137.795 51.2774L136.573 51.984V54.132L137.795 53.4253C138.153 53.22 138.331 52.948 138.331 52.6774C138.331 52.4067 138.331 50.5253 138.331 50.5253C138.333 50.7973 138.154 51.0694 137.795 51.2774Z" fill="#1B1817"/>
<path d="M39.7058 74.0466V79.0386L54.9615 87.8466V82.8545L39.7058 74.0466Z" fill="#262221"/>
<path d="M39.7058 74.0467L111.142 32.8027L126.398 41.6107L54.9615 82.8546L39.7058 74.0467Z" fill="#373132"/>
<path d="M54.9614 82.8545L126.398 41.6106V46.6026L54.9614 87.8466V82.8545Z" fill="#1B1817"/>
<path d="M124.87 50.1786L124.147 50.596L124.945 52.8453L132.455 57.1813L130.47 51.58C129.657 49.2773 127.406 48.7146 124.87 50.1786Z" fill="#100F0D"/>
<path d="M109.341 54.9467C110.658 52.6653 112.387 50.908 114.119 49.908C115.203 49.2813 116.287 48.9533 117.271 48.98C117.619 48.9893 117.967 48.9987 118.315 49.008H118.321C118.942 49.0253 119.527 49.176 120.05 49.4747L123.369 51.404C121.97 50.608 120.139 50.8626 118.313 51.9173C116.485 52.972 114.659 54.828 113.27 57.2346C110.49 62.0506 110.505 67.244 113.303 68.8387L109.985 66.9093C108.798 66.2266 108.229 64.8747 108.129 64.7107C106.814 62.54 107.217 58.6267 109.341 54.9467Z" fill="#1B1918"/>
<path d="M113.27 57.2345C114.659 54.8278 116.485 52.9719 118.313 51.9172C120.139 50.8625 121.97 50.6079 123.369 51.4039C124.309 51.9439 125.079 53.3559 125.375 54.6692C125.559 55.4879 116.353 69.0826 116.353 69.0826C115.299 69.3026 113.825 69.1412 113.303 68.8386C110.454 67.1826 110.49 62.0505 113.27 57.2345Z" fill="#100F0D"/>
<path d="M114.047 68.6999C116.69 70.2252 120.974 67.7506 123.617 63.1746C126.259 58.5972 126.259 53.6506 123.617 52.1252C120.974 50.5986 116.69 53.0719 114.047 57.6493C111.405 62.2266 111.405 67.1732 114.047 68.6999Z" fill="#100F0D"/>
<path d="M114.043 57.6614C115.361 55.3801 117.089 53.6227 118.822 52.6227C119.905 51.996 120.989 51.6681 121.974 51.6947C122.322 51.7041 122.67 51.7134 123.018 51.7227H123.022H123.023C123.645 51.74 124.229 51.8907 124.753 52.1894L128.071 54.12C126.671 53.3227 124.842 53.5774 123.014 54.632C121.187 55.6867 119.362 57.5427 117.973 59.9494C115.193 64.7654 115.207 69.9587 118.005 71.5534L114.687 69.624C113.501 68.9427 112.931 67.5894 112.831 67.4254C111.517 65.256 111.919 61.3414 114.043 57.6614Z" fill="#1B1918"/>
<path d="M117.973 59.9493C119.362 57.5426 121.187 55.6866 123.014 54.6319C124.842 53.5773 126.671 53.3226 128.071 54.1199C129.011 54.6586 129.782 56.0706 130.078 57.3839C130.262 58.2026 121.055 71.7973 121.055 71.7973C120.002 72.0173 118.526 71.8559 118.005 71.5533C115.157 69.8986 115.193 64.7653 117.973 59.9493Z" fill="#262424"/>
<path d="M118.75 71.4146C121.393 72.94 125.677 70.4666 128.319 65.8893C130.962 61.3133 130.962 56.3653 128.319 54.84C125.677 53.3146 121.393 55.7879 118.75 60.3653C116.107 64.9413 116.107 69.8893 118.75 71.4146Z" fill="#1B1918"/>
<path d="M120.539 68.3146C122.194 69.2693 124.875 67.7213 126.53 64.856C128.185 61.992 128.185 58.8933 126.53 57.9386C124.875 56.984 122.194 58.532 120.539 61.3973C118.885 64.2626 118.885 67.36 120.539 68.3146Z" fill="#100F0D"/>
<path d="M119.303 65.3414L121.285 64.9414C121.321 65.1254 121.375 65.292 121.453 65.4387L120.227 68.0933C119.565 67.5226 119.257 66.5267 119.303 65.3414ZM122.039 68.568L123.265 65.9134C123.443 65.8334 123.626 65.728 123.805 65.6L125.031 66.8414C124.069 67.8147 123.001 68.4307 122.039 68.568ZM126.842 64.2747L125.617 63.0347C125.694 62.7987 125.749 62.568 125.785 62.344L127.766 60.456C127.813 61.5867 127.505 62.9387 126.842 64.2747ZM127.075 58.396L125.091 60.284C124.957 60.2173 124.81 60.18 124.654 60.1694V57.7626C125.342 57.5826 125.99 57.628 126.53 57.9387C126.738 58.0587 126.919 58.2133 127.075 58.396ZM120.539 61.3973C121.079 60.4627 121.729 59.668 122.415 59.056V61.4626C122.261 61.652 122.113 61.8587 121.978 62.0827L119.994 62.4827C120.15 62.1214 120.331 61.7573 120.539 61.3973ZM120.305 68.7213C122.089 69.7506 124.981 68.0813 126.765 64.992C128.549 61.9027 128.549 58.5626 126.765 57.532C124.981 56.5027 122.089 58.172 120.305 61.2626C118.521 64.352 118.521 67.692 120.305 68.7213Z" fill="#D0CFB2"/>
<path d="M121.825 61.1213V59.6387C122.017 59.4294 122.214 59.2347 122.415 59.056V61.4627C122.261 61.652 122.113 61.8587 121.978 62.0827L119.994 62.484C120.067 62.3134 120.146 62.1441 120.23 61.9747L121.387 61.7414C121.522 61.5174 121.67 61.3107 121.825 61.1213Z" fill="#A9A891"/>
<path d="M120.83 65.0333L121.285 64.9413C121.321 65.1253 121.375 65.292 121.453 65.4387L120.227 68.0933C120.039 67.9306 119.879 67.7346 119.749 67.5093L120.862 65.0986L120.83 65.0333Z" fill="#A9A891"/>
<path d="M127.766 60.456C127.813 61.5867 127.505 62.9387 126.842 64.2747L126.335 63.7613C126.773 62.8347 127.041 61.9066 127.138 61.0546L127.766 60.456Z" fill="#A9A891"/>
<path d="M124.441 66.5001L123.653 65.7027L123.805 65.6001L125.031 66.8414C124.069 67.8147 123.001 68.4307 122.039 68.568L122.305 67.9907C123.019 67.7027 123.757 67.1921 124.441 66.5001Z" fill="#A9A891"/>
<path d="M126.221 57.7933L126.53 57.9387C126.738 58.0587 126.919 58.2133 127.075 58.3959L125.091 60.284C124.957 60.2173 124.809 60.18 124.654 60.1693V59.7973L126.485 58.0546L126.221 57.7933Z" fill="#A9A891"/>
<path d="M123.131 63.8253C123.354 63.9533 123.715 63.7453 123.938 63.36C124.161 62.9746 124.161 62.5573 123.938 62.4293C123.715 62.3 123.354 62.508 123.131 62.8947C122.909 63.28 122.909 63.696 123.131 63.8253Z" fill="#201F1E"/>
<path d="M123.302 61.8346C123.43 61.9079 123.639 61.7879 123.767 61.5652C123.895 61.3426 123.895 61.1026 123.767 61.0279C123.639 60.9533 123.43 61.0746 123.302 61.2959C123.174 61.5199 123.174 61.7599 123.302 61.8346Z" fill="#201F1E"/>
<path d="M124.45 63.5958C124.27 63.6665 124.102 63.9052 124.073 64.1292C124.045 64.3532 124.167 64.4772 124.346 64.4052C124.526 64.3346 124.694 64.0959 124.723 63.8719C124.751 63.6479 124.629 63.5252 124.45 63.5958Z" fill="#201F1E"/>
<path d="M122.997 64.7508C122.967 64.5601 122.799 64.5148 122.619 64.6521C122.441 64.7881 122.318 65.0535 122.346 65.2441C122.375 65.4361 122.543 65.4801 122.723 65.3441C122.902 65.2068 123.025 64.9414 122.997 64.7508Z" fill="#201F1E"/>
<path d="M122.287 63.6614C122.449 63.4734 122.514 63.2067 122.431 63.068C122.349 62.928 122.15 62.968 121.989 63.1573C121.826 63.3467 121.762 63.612 121.845 63.7507C121.927 63.8907 122.125 63.8507 122.287 63.6614Z" fill="#201F1E"/>
<path d="M124.638 61.7933C124.555 62.028 124.621 62.22 124.782 62.2213C124.945 62.2227 125.142 62.0347 125.225 61.8C125.307 61.5654 125.243 61.3734 125.081 61.3721C124.919 61.3694 124.721 61.5587 124.638 61.7933Z" fill="#201F1E"/>
<path d="M120.793 51.3372L124.87 48.9839C126.757 47.8932 128.511 47.7612 129.786 48.4985C129.786 48.4985 123.005 44.5772 122.259 44.1519C120.986 43.4266 119.239 43.5625 117.361 44.6479L113.283 47.0012C110.306 48.7199 107.659 52.4385 106.703 56.2479L104.98 63.1106C104.761 63.9839 105.147 64.8959 105.928 65.3466L110.981 68.2639C111.551 68.5932 112.279 68.2852 112.439 67.6466L114.213 60.5839C115.169 56.7745 117.815 53.0559 120.793 51.3372Z" fill="#414042"/>
<path d="M131.45 50.632C131.101 49.6413 130.523 48.924 129.787 48.4987C128.511 47.7613 126.758 47.8933 124.87 48.984L120.793 51.3373C117.815 53.056 115.169 56.7747 114.213 60.584L112.439 67.6467C112.279 68.2854 111.551 68.5934 110.981 68.264C112.287 69.0187 113.143 68.5507 113.303 67.912L115.193 60.4013C116.007 57.1587 118.258 53.996 120.793 52.532L124.87 50.1787C127.406 48.7147 129.657 49.2774 130.47 51.58L132.455 57.1813L133.543 56.552L131.45 50.632Z" fill="#262424"/>
<path d="M108.135 61.3867V56.0266L107.237 56.548V67.4093L108.135 66.8893V62.4813L110.285 63.7227V62.628L108.135 61.3867Z" fill="#414042"/>
<path d="M108.135 66.8893L107.237 67.4093L109.385 68.6493L110.285 68.1306L108.135 66.8893Z" fill="#262424"/>
<path d="M109.385 64.2414V63.1467L107.237 61.9054V56.548L106.153 57.172V67.108C106.153 67.5854 106.407 68.0253 106.819 68.2627L109.385 69.744V68.6494L107.237 67.4093V63.0013L109.385 64.2414Z" fill="#100F0D"/>
<path d="M92.7542 70.268V64.908L91.8552 65.428V76.2893L92.7542 75.7694V71.3626L94.9031 72.6027V71.508L92.7542 70.268Z" fill="#414042"/>
<path d="M92.7542 75.7692L91.8552 76.2892L94.0042 77.5292L94.9031 77.0106L92.7542 75.7692Z" fill="#262424"/>
<path d="M94.0042 73.1227V72.0267L91.8552 70.7867V65.4281L90.7714 66.0521V75.9894C90.7714 76.4654 91.026 76.9054 91.4386 77.1441L94.0042 78.6254V77.5294L91.8552 76.2894V71.8814L94.0042 73.1227Z" fill="#100F0D"/>
<path d="M87.5682 79.148L110.205 66.0747L111.049 66.5613L88.412 79.6346V82.6147L87.5682 82.128V79.148Z" fill="#B21D23"/>
<path d="M111.922 59.336L87.5682 73.4013V76.3813L88.412 76.868V73.8879L112.766 59.8226L111.922 59.336Z" fill="#B21D23"/>
<path d="M88.412 79.6346L111.049 66.5613L110.158 70.06L88.412 82.6147V79.6346Z" fill="#E11D25"/>
<path d="M112.766 59.8226L88.412 73.8879V76.868L111.879 63.3146L112.766 59.8226Z" fill="#E11D25"/>
<path d="M66.4917 89.4227L71.1177 92.0934C71.3869 92.248 71.6307 92.264 71.8084 92.1627C71.9869 92.0614 72.0979 91.8414 72.0979 91.5267V85.0587C72.0979 84.4334 71.6593 83.6734 71.1177 83.36L66.4917 80.6894C66.2188 80.5321 65.9713 80.5187 65.7937 80.624C65.6193 80.728 65.5115 80.9467 65.5115 81.2561V87.724C65.5115 88.3494 65.9505 89.1094 66.4917 89.4227Z" fill="#B1AE9E"/>
<path d="M84.0557 75.8906L79.4302 73.22C79.1593 73.0627 78.914 73.048 78.7369 73.1507C78.5593 73.2533 65.7937 80.624 65.7937 80.624C65.9713 80.5186 66.2188 80.532 66.4917 80.6893L71.1177 83.36C71.6593 83.6733 72.0978 84.4333 72.0978 85.0587V91.5266C72.0978 91.8413 71.9869 92.0613 71.8084 92.1626C71.8084 92.1626 84.5718 84.7933 84.7489 84.692C84.9265 84.5893 85.0364 84.3693 85.0364 84.0573V77.5893C85.0364 76.9627 84.5973 76.2026 84.0557 75.8906Z" fill="url(#paint0_linear_11_45313)"/>
<path d="M77.9234 84.2412C77.2265 83.9772 76.7593 83.1678 76.8792 82.4318C76.9401 82.0638 77.136 81.7852 77.4041 81.6305L76.7864 81.9865C76.5182 82.1412 76.3218 82.4212 76.2609 82.7892C76.1417 83.5252 76.6084 84.3332 77.3057 84.5985C77.6541 84.7292 77.9942 84.6986 78.2625 84.5439L78.8802 84.1865C78.6125 84.3412 78.2724 84.3719 77.9234 84.2412Z" fill="#1C1817"/>
<path d="M76.2609 82.7894L76.2917 82.6494C76.1677 82.7201 76.0041 82.8134 75.8005 82.928C75.4697 83.1014 75.1339 83.4321 74.8812 83.8694C74.4047 84.6947 74.4047 85.588 74.8812 85.8627C75.1469 86.016 75.5036 85.9454 75.8505 85.7107C76.3697 85.4027 77.1407 84.9054 77.5203 84.6587L77.3057 84.5987C76.6084 84.3333 76.1417 83.5254 76.2609 82.7894Z" fill="#BCB9A7"/>
<path d="M78.361 81.576C78.0126 81.4453 77.6724 81.476 77.4042 81.6307C77.136 81.7853 76.9402 82.064 76.8792 82.432C76.7594 83.168 77.2266 83.9774 77.9235 84.2414C78.2724 84.372 78.6126 84.3413 78.8803 84.1867C79.1484 84.032 79.3448 83.7534 79.4058 83.3854C79.5251 82.6494 79.0584 81.8413 78.361 81.576Z" fill="#2E2929"/>
<path d="M108.493 16.7254L46.673 52.4161L68.976 65.2934L130.794 29.6001L108.493 16.7254Z" fill="#FBBE19"/>
<path d="M33.4574 44.7867L32.1891 44.0533L108.493 0L109.761 0.731968L33.4574 44.7867Z" fill="#FAD013"/>
<path d="M108.493 1.46529L33.4573 44.7866V60.0467L108.493 16.7253V1.46529Z" fill="#F39810"/>
<path d="M32.1891 44.0533V59.3133L70.2448 81.2853V66.0253L32.1891 44.0533Z" fill="#F39810"/>
<path d="M63.9615 77.6586L63.238 77.2413V77.2399L63.962 77.6586H63.9615Z" fill="#262221"/>
<path d="M66.2088 78.956L63.9614 77.6586H63.962L66.2088 78.956Z" fill="#171513"/>
<path d="M66.2088 78.956L63.962 77.6586L63.238 77.2399C63.175 70.7013 63.0229 65.5493 62.8672 61.7666L66.2088 63.6959V78.956Z" fill="#F07B15"/>
<path d="M71.5131 65.2933L33.4574 43.3213L32.1891 44.0533L70.2448 66.0253L71.5131 65.2933Z" fill="#FAD013"/>
<path d="M145.279 21.2386L68.9761 65.2933L70.2443 66.0253L146.549 21.9706L145.279 21.2386Z" fill="#FAD013"/>
<path d="M146.549 21.9706L70.2449 66.0253V81.2853L146.549 37.2319V21.9706Z" fill="#F39810"/>
<path d="M72.8594 66.0253L143.934 24.9906V37.2319L143.07 36.7319V26.0533L72.8594 66.5893V66.0253Z" fill="#E57019"/>
<path d="M72.8593 66.0253L143.934 24.9906V37.2319L72.8593 78.2653V66.0253ZM70.2443 66.0253V81.2853L146.549 37.2319V21.9706L70.2443 66.0253Z" fill="#F3A90E"/>
<path d="M143.07 36.732L72.8594 77.268V78.2653L143.934 37.232L143.07 36.732Z" fill="#FAD013"/>
<path d="M146.549 21.9706L108.493 5.72205e-06L107.225 0.731972L145.241 22.6813L146.549 21.9706Z" fill="#FAD013"/>
<path d="M108.493 1.46532V16.7253L130.794 29.6L144.011 21.9707L108.493 1.46532Z" fill="#DE7A19"/>
<path d="M42.3865 41.7413L43.023 42.1093V48.5187L42.3865 48.8866V41.7413Z" fill="#C7C5B3"/>
<path d="M51.6719 47.1026L52.3084 47.4693V53.88L51.6719 54.248V47.1026Z" fill="#C7C5B3"/>
<path d="M69.3292 55.5079V56.2426L33.1011 35.3266L33.7369 34.9586L69.3292 55.5079Z" fill="#C7C5B3"/>
<path d="M69.3292 55.5079V56.2426L33.1011 35.3266L33.7369 34.9586L69.3292 55.5079Z" fill="#D6D3C1"/>
<path d="M60.9573 52.4641L61.5937 52.8374V59.2414L60.9573 59.6081V52.4641Z" fill="#C7C5B3"/>
<path d="M69.3292 56.2426L33.1006 35.3266V33.8253C33.1006 31.6293 34.6484 30.7359 36.55 31.8346L65.8803 48.7679C67.7818 49.8666 69.3292 52.5466 69.3292 54.7413V56.2426ZM69.3292 64.4413L60.9574 59.608V52.464L69.3292 57.2973V64.4413ZM50.7584 53.72L42.3864 48.8866V41.7413L50.7584 46.576V53.72ZM60.0438 59.0813L51.6719 54.248V47.1026L60.0438 51.936V59.0813ZM33.1006 36.3813L41.473 41.2146V48.3586L33.1006 43.5253V36.3813ZM65.8803 47.712L36.55 30.7786C35.3516 30.0866 34.2651 30.02 33.476 30.4693C32.6807 30.924 32.1875 31.9026 32.1875 33.2973V44.0533L70.2427 66.0253V55.2693C70.2427 52.492 68.286 49.1013 65.8803 47.712Z" fill="#F1EEE2"/>
<path d="M60.0437 58.3467L52.3084 53.88L51.6719 54.248L60.0437 59.0813V58.3467Z" fill="#D6D3C1"/>
<path d="M33.737 43.1587L33.1006 43.5253L41.473 48.3587V47.624L33.737 43.1587Z" fill="#D6D3C1"/>
<path d="M33.1006 36.3813V43.5253L33.737 43.1586V36.748L33.1006 36.3813Z" fill="#C7C5B3"/>
<path d="M50.7585 52.9854L43.023 48.5187L42.3865 48.8867L50.7585 53.72V52.9854Z" fill="#D6D3C1"/>
<path d="M33.1011 35.3266L33.7369 34.9586V33.4572C33.7369 32.5466 34.0041 31.8613 34.4516 31.4479C33.6312 31.7026 33.1011 32.5399 33.1011 33.8253V35.3266Z" fill="#C7C5B3"/>
<path d="M69.3291 63.708L61.5937 59.2413L60.9573 59.608L69.3291 64.4413V63.708Z" fill="#D6D3C1"/>
<path d="M66.5167 47.3453L37.1861 30.4107C35.9897 29.72 34.9042 29.6533 34.1151 30.1013C33.9209 30.2106 33.4761 30.4693 33.4761 30.4693C34.2651 30.02 35.3522 30.0866 36.5501 30.7786L65.8803 47.712C68.2861 49.1013 70.2427 52.492 70.2427 55.2693V66.0253L70.8793 65.6586V54.9013C70.8793 52.1239 68.9225 48.7346 66.5167 47.3453Z" fill="#D6D3C1"/>
<path d="M56.1506 58.996C56.138 58.6133 55.8443 58.472 55.5063 58.668C52.237 60.5546 46.7094 63.7466 43.4298 65.64C43.2604 65.7373 43.1255 65.932 43.0807 66.1266C41.8651 71.3946 40.5818 76.7027 39.2194 82.056C38.8959 83.3453 38.7188 84.616 38.7224 85.7933C38.726 87.2586 38.7194 88.728 38.7011 90.2053C38.6907 90.6 38.962 90.7546 39.2886 90.5653C40.3932 89.928 41.5094 89.284 42.614 88.6467C42.9183 88.4694 43.211 88.12 43.3907 87.7053C44.1864 85.856 44.9719 84.0027 45.7568 82.148C46.0375 81.4933 46.5214 80.9027 47.0396 80.6027C49.3052 79.2947 53.8183 76.6893 56.0844 75.3813C56.2984 75.2573 56.4667 74.9653 56.4662 74.72C56.4626 69.4147 56.3574 64.1693 56.1506 58.996Z" fill="#1B1817"/>
<path d="M6.13273 73.6266L6.00873 73.5933L3.33953 72.052C2.5978 71.624 2.0166 70.6173 2.0166 69.7613V67.9293C2.0166 67.792 2.127 67.6813 2.26393 67.6813C2.40153 67.6813 2.51193 67.792 2.51193 67.9293V69.7613C2.51193 70.4347 3.0046 71.2866 3.58687 71.6226L6.25673 73.164L6.34727 73.5027L6.13273 73.6266Z" fill="#262424"/>
<path d="M2.21933 69.5747L0.729199 68.7147C0.326533 68.4827 0 67.8587 0 67.3227V62.1587C0 61.6227 0.326533 61.376 0.729199 61.608L3.288 63.0854C3.69067 63.3174 4.0172 63.9413 4.0172 64.4787V68.216C4.0172 69.54 3.212 70.148 2.21933 69.5747Z" fill="#C8C7C0"/>
<path d="M4.01719 68.216V64.4787C4.01719 63.9413 3.69065 63.3174 3.28799 63.0854L0.729187 61.608C0.34012 61.384 0.0218536 61.6067 0.00158691 62.1067C0.0338536 61.2973 0.809854 60.6613 1.39012 60.6547L1.69065 60.7414L4.24999 62.2187C4.65265 62.452 4.97865 63.0747 4.97865 63.612V67.6614C4.97865 67.9414 4.94266 68.1893 4.87599 68.4013C4.53599 69.5013 3.48852 69.9213 2.77025 69.7787C3.49372 69.8867 4.01719 69.284 4.01719 68.216Z" fill="#8C8984"/>
<path d="M9.33175 65.144L13.3369 49.6533L11.9531 48.8546L6.85681 68.7666L8.82294 69.9013V68.8879C8.82294 67.7093 8.99375 66.4507 9.33175 65.144Z" fill="#100F0D"/>
<path d="M40.3734 65.2627L24.5135 56.208L24.2718 59.1414C24.2718 59.3854 24.0994 59.684 23.888 59.8054L17.115 63.7174C16.5937 64.0174 16.1136 64.5974 15.8317 65.2667L13.4994 70.8C13.3302 71.2027 13.0417 71.5507 12.7281 71.732L12.3604 71.944L35.277 85.1747L40.3734 65.2627Z" fill="#100F0D"/>
<path d="M17.8771 65.7986C18.0943 65.436 18.4407 65.2614 18.6516 65.3827L20.024 66.1774C20.3219 66.3494 20.726 66.3093 21.147 66.0653L25.4454 63.584C25.626 63.48 25.7896 63.4707 25.9074 63.54C26.0235 63.6093 26.0954 63.7533 26.0954 63.96C26.0954 64.3746 25.8042 64.8787 25.4454 65.0854L21.1151 67.5854C20.5599 67.9054 20.0271 67.9586 19.6344 67.732L17.8651 66.708C17.6484 66.584 17.6522 66.172 17.8771 65.7986Z" fill="#161413"/>
<path d="M19.1073 65.6481C19.4046 65.8201 19.8088 65.7801 20.2302 65.5361L24.5286 63.0561C24.7078 62.9521 24.8702 62.9414 24.9874 63.0094L25.9073 63.5401C25.7896 63.4707 25.626 63.4801 25.4453 63.5841L21.1469 66.0654C20.726 66.3094 20.3218 66.3494 20.024 66.1774L19.1073 65.6481Z" fill="#1E1B1A"/>
<path d="M16.9604 65.2692C17.1776 64.9079 17.524 64.7319 17.7349 64.8532L18.6516 65.3826C18.4406 65.2613 18.0942 65.4359 17.877 65.7985C17.6526 66.1719 17.6484 66.5826 17.8645 66.7079L16.9478 66.1786C16.7312 66.0532 16.7354 65.6426 16.9604 65.2692Z" fill="#1E1B1A"/>
<path d="M46.3751 81.6414C43.2396 83.4507 40.6979 87.8534 40.6979 91.4747V92.6547L51.8631 86.2094V78.4721L46.3751 81.6414Z" fill="#252020"/>
<path d="M46.3751 81.6414L51.8631 78.4721L27.9531 64.668L22.4656 67.8361C19.3303 69.6467 16.7886 74.0494 16.7886 77.6707V78.8507L40.6979 92.6547V91.4747C40.6979 87.8534 43.2396 83.4507 46.3751 81.6414Z" fill="#464142"/>
<path d="M34.612 70.9012L27.1746 75.1946C26.9683 75.3132 26.7818 75.3253 26.647 75.2466C26.512 75.1693 26.4287 75.0012 26.4287 74.7639V74.0399C26.4287 73.3106 26.8574 72.4225 27.4714 71.8959C28.7328 70.8159 29.9027 70.0999 31.1803 69.5786C32.5011 69.0386 34.1194 68.4612 35.4594 67.6866L34.612 70.9012Z" fill="#463D3F"/>
<path d="M26.4286 74.7641V74.04C26.4286 73.3107 26.8573 72.4227 27.4713 71.896C28.7328 70.816 29.9026 70.1 31.1802 69.5787C32.501 69.0387 34.1193 68.4614 35.4593 67.6867L28.9776 63.9454C27.6374 64.7187 26.0197 65.2961 24.6984 65.8361C23.4213 66.3574 22.2516 67.0747 20.9896 68.1547C20.376 68.68 19.9469 69.5681 19.9469 70.2974V71.0227C19.9469 71.26 20.0302 71.4267 20.1656 71.5054C20.3005 71.5827 26.6469 75.2467 26.6469 75.2467C26.512 75.1694 26.4286 75.0014 26.4286 74.7641Z" fill="#332D2D"/>
<path d="M26.6469 75.2467C26.6469 75.2467 22.3 72.7373 20.7251 71.828L20.7094 71.82C20.75 72.2467 20.8708 72.58 21.1088 72.7013V72.7L27.5907 76.4427L27.1745 75.1947C26.9683 75.3133 26.7817 75.3254 26.6469 75.2467Z" fill="#1E1B1A"/>
<path d="M36.8782 57.4786C36.385 57.6466 35.8787 58.1839 35.6099 58.8306C35.2829 59.6199 34.947 60.5319 34.6537 61.5386C34.235 62.9772 34.0194 64.2093 33.9085 65.1853C33.8307 65.8666 33.7099 66.5652 33.5386 67.2759L33.1755 68.7773C33.9579 68.4533 34.7479 68.0986 35.4594 67.6866L37.7813 58.8026C37.9459 58.1746 37.8137 57.6879 37.4949 57.5039C37.3323 57.4105 37.1219 57.3946 36.8782 57.4786Z" fill="#463D3F"/>
<path d="M33.9085 65.1853C34.0194 64.2093 34.235 62.9772 34.6537 61.5386C34.947 60.5319 35.2829 59.6199 35.6099 58.8306C35.8787 58.1839 36.385 57.6466 36.8782 57.4786C37.1219 57.3946 37.3323 57.4105 37.4949 57.5039C37.4949 57.5039 31.3329 53.9492 31.0167 53.7639C30.8542 53.6679 30.6422 53.6519 30.3965 53.7359C29.9031 53.9052 29.397 54.4412 29.1287 55.0879C28.8017 55.8772 28.4657 56.7892 28.1725 57.7959C27.7531 59.2359 27.5375 60.4666 27.4266 61.4426C27.3495 62.1239 27.2287 62.8226 27.0569 63.5332L26.6943 65.0345L33.1755 68.7773L33.5386 67.2759C33.7099 66.5652 33.8307 65.8666 33.9085 65.1853Z" fill="#2A2424"/>
<path d="M27.1746 75.1947C27.1746 75.7893 27.2875 76.2893 27.5902 76.4427H27.5907C28.5703 74.9467 29.8251 73.6654 31.1922 72.8747L27.1746 75.1947Z" fill="#252020"/>
<path d="M47.5671 78.3801L40.1297 82.6747C39.9239 82.7934 39.7374 82.8053 39.6026 82.7267C39.4671 82.648 39.3838 82.4814 39.3838 82.2441V81.52C39.3838 80.7907 39.813 79.9014 40.4265 79.376C41.6879 78.296 42.8583 77.58 44.1354 77.0587C45.4567 76.5174 47.0745 75.9414 48.4145 75.1667L47.5671 78.3801Z" fill="#463D3F"/>
<path d="M39.3839 82.2441V81.5201C39.3839 80.7907 39.8131 79.9014 40.4266 79.3761C41.688 78.2961 42.8584 77.5801 44.1355 77.0587C45.4568 76.5187 47.0746 75.9414 48.4146 75.1668L41.9334 71.4254C40.5927 72.1987 38.9751 72.7761 37.6542 73.3161C36.3766 73.8374 35.2068 74.5534 33.9454 75.6347C33.3312 76.1601 32.9027 77.0481 32.9027 77.7774V78.5014C32.9027 78.7401 32.986 78.9067 33.1208 78.9841C33.2558 79.0627 39.6027 82.7267 39.6027 82.7267C39.4672 82.648 39.3839 82.4814 39.3839 82.2441Z" fill="#332D2D"/>
<path d="M39.6027 82.7266C39.6027 82.7266 35.2557 80.2173 33.6803 79.308L33.6646 79.2986C33.7052 79.7253 33.826 80.06 34.064 80.18L40.5459 83.9226L40.1297 82.6747C39.924 82.7933 39.7375 82.8053 39.6027 82.7266Z" fill="#1E1B1A"/>
<path d="M49.8333 64.9586C49.3406 65.1266 48.8338 65.664 48.5656 66.3106C48.238 67.0986 47.9026 68.0119 47.6093 69.0173C47.1901 70.4573 46.9745 71.6892 46.8635 72.6652C46.7859 73.3466 46.665 74.0439 46.4937 74.7559L46.1306 76.2572C46.913 75.9332 47.703 75.5773 48.4145 75.1666L50.7369 66.2826C50.901 65.6546 50.7688 65.1679 50.45 64.9839C50.2874 64.8893 50.0776 64.8746 49.8333 64.9586Z" fill="#463D3F"/>
<path d="M46.8635 72.6652C46.9745 71.6892 47.1901 70.4573 47.6093 69.0173C47.9026 68.0119 48.2379 67.0986 48.5655 66.3106C48.8338 65.664 49.3406 65.1266 49.8333 64.9586C50.0775 64.8746 50.2874 64.8893 50.4499 64.9839C50.4499 64.9839 44.2885 61.4293 43.9718 61.244C43.8093 61.148 43.5973 61.132 43.3516 61.216C42.8588 61.384 42.3521 61.9212 42.0838 62.5679C41.7568 63.3572 41.4207 64.2693 41.1275 65.2759C40.7083 66.7146 40.4926 67.9466 40.3822 68.9226C40.3046 69.6039 40.1838 70.3026 40.0119 71.0133L39.6494 72.5146L46.1306 76.2572L46.4937 74.7559C46.665 74.0439 46.7859 73.3466 46.8635 72.6652Z" fill="#2A2424"/>
<path d="M40.1298 82.6747C40.1298 83.2693 40.2427 83.7693 40.5459 83.9226C41.526 82.4266 42.7803 81.1439 44.1479 80.3546L40.1298 82.6747Z" fill="#252020"/>
<path d="M28.5902 77.8626L28.1672 78.6306L29.997 79.6879L30.4198 78.9186L32.8022 80.1039L30.9719 79.0479L28.5902 77.8626Z" fill="#252020"/>
<path d="M30.4198 78.9188L29.9969 79.688L32.1333 81.3188L32.8021 80.104L30.4198 78.9188Z" fill="#1E1B1A"/>
<path d="M29.9812 87.4814L32.239 86.848C33.5609 83.092 32.5046 81.1347 30.912 80.2174L30.8942 80.2067C30.0125 79.704 28.9984 80.2574 28.701 81.228C27.974 83.6014 27.3604 85.968 27.3604 85.968L29.9812 87.4814Z" fill="#232020"/>
<path d="M30.8943 80.2066L30.912 80.2173C30.912 80.2173 27.6932 78.356 26.1011 77.4386L26.0834 77.4293C25.2011 76.9266 24.1875 77.4799 23.8902 78.4506C23.1626 80.8239 22.5474 83.1893 22.5474 83.1893L27.3604 85.9679C27.3604 85.9679 27.974 83.6013 28.7011 81.228C28.9984 80.2573 30.0126 79.7039 30.8943 80.2066Z" fill="#322E2E"/>
<path d="M31.0719 76.228L29.8183 78.508C29.8094 78.5187 29.9339 78.6013 30.1755 78.74C30.5662 78.9653 31.1183 79.2573 31.4058 79.3893L31.5761 79.4546L32.8313 77.1733L31.0719 76.228Z" fill="#5E5457"/>
<path d="M29.35 74.1267L29.5328 73.7854L29.5568 73.796L29.5781 73.8067C30.7656 74.356 33.0448 75.5587 34.6578 76.4907C35.6484 77.0627 36.1614 77.4014 36.1349 77.4494L36.0046 77.692L29.35 74.1267Z" fill="#473E40"/>
<path d="M33.7235 76.1521L33.7084 76.1801L33.5724 76.1014L33.7235 76.1521Z" fill="#100F0D"/>
<path d="M34.536 76.7532L34.423 76.9626L28.8522 73.8919L29.0251 73.5706L34.536 76.7532Z" fill="#595052"/>
<path d="M29.0208 73.5693L28.874 73.5426L28.8522 73.584L28.9771 73.6599L29.0251 73.572L29.0208 73.5693Z" fill="#352F2F"/>
<path d="M33.2277 75.8294C33.7271 76.1187 33.8641 76.2294 33.5725 76.1014L35.5209 77.2267L35.4298 77.1854L35.4079 77.1748L35.3834 77.1641L35.3574 77.1521L35.3079 77.1281C35.0803 77.0214 34.8198 76.8947 34.5361 76.7534L29.0251 73.5707C29.1345 73.6094 29.3011 73.6801 29.5303 73.7841L29.5537 73.7961L29.5782 73.8067L29.6755 73.8521L31.6246 74.9774C32.0422 75.1774 32.7282 75.5414 33.2277 75.8294Z" fill="#2F2828"/>
<path d="M37.2697 78.0599L36.7516 79.0239C36.7297 79.0653 36.4276 78.956 35.826 78.6773C34.2672 77.9586 31.2765 76.3773 29.1588 75.156C27.8588 74.404 27.1855 73.9599 27.2203 73.8959L27.7385 72.9319C27.7041 72.9959 28.3771 73.4413 29.6771 74.1906C31.7948 75.4133 34.786 76.9933 36.3448 77.7133C36.9464 77.992 37.2479 78.1013 37.2697 78.0599Z" fill="#574D4F"/>
<path d="M29.8557 75.5533C30.9245 76.156 32.1317 76.8093 33.2396 77.3866L33.7494 76.4187C32.6412 75.84 31.4338 75.1866 30.3656 74.584L29.8557 75.5533Z" fill="#928B8C"/>
<path d="M35.4047 77.1733L35.4297 77.1854C36.6177 77.7334 36.2708 77.4213 34.6579 76.4907C33.0448 75.5587 30.7656 74.356 29.5781 73.8067L29.5568 73.796L29.5328 73.7854C28.4005 73.2681 28.7593 73.584 30.3505 74.5013C31.9093 75.4027 34.0901 76.556 35.3068 77.128L35.3568 77.1507L35.3797 77.1627L35.4047 77.1733ZM35.3312 76.8013C37.4489 78.024 37.9036 78.4334 36.3448 77.7134C34.786 76.9934 31.7948 75.4133 29.6771 74.1907C27.5599 72.9693 27.1052 72.56 28.664 73.2787C30.2229 73.9987 33.2136 75.5787 35.3312 76.8013Z" fill="#2F2828"/>
<path d="M56.1506 58.9959C56.138 58.6132 55.8443 58.4719 55.5063 58.6679C52.237 60.5546 46.7094 63.7466 43.4298 65.6399C43.2604 65.7372 43.1255 65.9319 43.0807 66.1265C41.8651 71.3946 40.5818 76.7026 39.2194 82.0559C38.8959 83.3452 38.7188 84.6159 38.7224 85.7932C38.726 87.2586 38.7194 88.7279 38.7011 90.2053C38.6907 90.5999 38.962 90.7546 39.2886 90.5652C40.3932 89.9279 41.5094 89.2839 42.614 88.6466C42.9183 88.4693 43.211 88.1199 43.3907 87.7053C44.1864 85.8559 44.9719 84.0026 45.7568 82.1479C46.0375 81.4932 46.5214 80.9026 47.0396 80.6026C49.3052 79.2946 53.8183 76.6892 56.0844 75.3812C56.2984 75.2572 56.4667 74.9652 56.4662 74.7199C56.4626 69.4146 56.3574 64.1692 56.1506 58.9959ZM62.4271 53.8946C62.4271 53.8946 63.2694 63.7346 63.2694 83.7399L53.7584 89.2306C50.3167 91.2186 46.7938 95.2613 45.7418 99.6519L44.276 105.787L35.8422 110.656V86.9266C35.8422 85.9012 35.9922 84.7959 36.2864 83.6586L41.223 64.5693C41.4584 63.6573 42.0927 62.7719 42.8047 62.3599L59.9282 52.4532C60.4792 52.1346 61.0984 52.1719 61.5828 52.4466C62.0751 52.7239 62.3574 53.1519 62.4271 53.8946Z" fill="#C81E25"/>
<path d="M56.0844 75.3813C53.8183 76.6893 49.3052 79.2947 47.0396 80.6027C46.5214 80.9027 46.0375 81.4933 45.7568 82.148C44.9719 84.0026 44.1864 85.856 43.3907 87.7053C43.211 88.12 42.9183 88.4693 42.614 88.6467C41.5094 89.284 40.3932 89.9279 39.2886 90.5653C38.962 90.7546 38.6907 90.6 38.7011 90.2053C38.7194 88.728 38.726 87.2586 38.7224 85.7933C38.7188 84.6159 38.8959 83.3453 39.2194 82.056C40.5818 76.7026 41.8651 71.3946 43.0807 66.1266C43.1255 65.9319 43.2604 65.7373 43.4298 65.64C46.7094 63.7466 52.237 60.5546 55.5063 58.668L55.5255 58.656C55.8552 58.4653 56.1386 58.6213 56.1506 58.9959C56.3574 64.1693 56.4626 69.4146 56.4662 74.72C56.4667 74.9653 56.2984 75.2573 56.0844 75.3813ZM56.4547 58.7426C56.4422 58.36 56.1708 58.1666 55.9 58.168L55.573 58.2653C52.2136 60.2053 46.6074 63.4426 43.2479 65.3813C43.023 65.512 42.8312 65.7773 42.7646 66.0626C41.5604 71.3253 40.2766 76.632 38.9146 81.972C38.5798 83.308 38.414 84.584 38.4172 85.776C38.4104 87.336 38.4036 88.8973 38.3855 90.4653C38.3864 90.8399 38.647 91.04 38.9063 91.0467L39.2224 90.9546C40.4058 90.2706 41.5891 89.588 42.773 88.904C43.1339 88.696 43.4708 88.2933 43.673 87.8266C44.4694 85.9786 45.2547 84.124 46.0396 82.2693C46.2979 81.6667 46.7364 81.1413 47.2099 80.868C49.4307 79.5853 53.887 77.0133 56.0964 75.7373C56.4798 75.516 56.7828 74.9906 56.7818 74.5506C56.7667 69.2266 56.6615 63.956 56.4547 58.7426Z" fill="#262424"/>
<path d="M51.2959 78.1453L48.1136 76.308L48.4145 75.1666L50.7369 66.2827C50.9011 65.6547 50.7688 65.168 50.45 64.984C50.45 64.984 49.0229 64.16 47.5073 63.2853C50.3027 61.672 53.3812 59.8946 55.5063 58.6679C55.6084 58.608 55.7068 58.58 55.7948 58.58C55.9964 58.58 56.1417 58.7293 56.1505 58.9959C56.3573 64.1693 56.4625 69.4146 56.4661 74.72C56.4667 74.9653 56.2984 75.2573 56.0844 75.3813C54.8917 76.0693 53.0776 77.1173 51.2959 78.1453Z" fill="#39607C"/>
<path d="M40.8959 89.6374C41.5052 86.696 43.4547 83.6174 45.8317 81.984C45.8057 82.0387 45.7803 82.0934 45.7568 82.148C44.9719 84.0027 44.1864 85.8561 43.3907 87.7054C43.2109 88.1201 42.9183 88.4694 42.614 88.6467C42.0432 88.9747 41.4693 89.3067 40.8959 89.6374Z" fill="#406782"/>
<path d="M39.026 90.6453C38.8339 90.6453 38.7 90.4933 38.7006 90.2239C38.7006 90.2173 38.7006 90.2107 38.7011 90.2053C38.7156 89.0053 38.7235 87.8093 38.7235 86.6173C38.7235 86.344 38.723 86.0679 38.7224 85.7933C38.7224 85.7853 38.7224 85.776 38.7224 85.7666C38.7219 84.8946 38.8198 83.9733 39.0022 83.0306L40.4984 83.8946C40.5136 83.9053 40.5292 83.9146 40.5459 83.9226C41.526 82.4266 42.7803 81.1439 44.1479 80.3546L40.1298 82.6747C40.0099 82.744 39.897 82.776 39.7964 82.776C39.7246 82.776 39.6588 82.7599 39.6027 82.7266C39.6027 82.7266 39.6016 82.7266 39.5995 82.7253C39.6016 82.7266 39.6027 82.7266 39.6027 82.7266C39.4672 82.6479 39.3839 82.4813 39.3839 82.244C39.3839 82.4813 39.4672 82.6479 39.6027 82.7266C39.6588 82.7599 39.7246 82.776 39.7964 82.776C39.897 82.776 40.0099 82.744 40.1298 82.6747L47.5672 78.38L48.1136 76.308L51.2959 78.1453C49.6912 79.072 48.1131 79.9827 47.0396 80.6027C46.5646 80.8773 46.1188 81.396 45.8318 81.984C43.4547 83.6173 41.5052 86.696 40.8959 89.6373C40.3594 89.948 39.823 90.2573 39.2886 90.5653C39.1948 90.6199 39.1058 90.6453 39.026 90.6453ZM39.5974 82.7239C39.5959 82.7226 39.5943 82.7226 39.5927 82.7213C39.5943 82.7226 39.5959 82.7226 39.5974 82.7239ZM39.588 82.7187C39.5402 82.6907 39.374 82.5946 39.1246 82.4506C39.374 82.5946 39.5402 82.6907 39.588 82.7187Z" fill="#507B95"/>
<path d="M48.5657 66.3107C48.8298 65.6734 49.3246 65.144 49.8099 64.9667C49.3246 65.144 48.8298 65.6747 48.5657 66.3107ZM50.4365 64.976C50.4329 64.9747 50.4287 64.972 50.4246 64.9694C50.4287 64.972 50.4329 64.9747 50.4365 64.976ZM50.4115 64.9627C50.3313 64.9253 50.2413 64.904 50.1418 64.9027C50.2413 64.904 50.3313 64.9253 50.4115 64.9627ZM49.8334 64.9587C49.8413 64.956 49.8495 64.952 49.8574 64.9507C49.8495 64.952 49.8413 64.956 49.8334 64.9587ZM49.8818 64.9427C49.8861 64.9413 49.8897 64.94 49.8933 64.9387C49.8897 64.94 49.8861 64.9413 49.8818 64.9427ZM50.1318 64.9027C50.1329 64.9027 50.1345 64.9027 50.1361 64.9027C50.1345 64.9027 50.1329 64.9027 50.1318 64.9027Z" fill="#39607C"/>
<path d="M39.7963 82.776C39.7245 82.776 39.6587 82.76 39.6026 82.7267C39.4671 82.648 39.3838 82.4814 39.3838 82.2441V81.52C39.3838 81.4774 39.3854 81.4347 39.3879 81.392C39.4625 81.0987 39.5359 80.8067 39.6098 80.5147C39.7947 80.0827 40.0811 79.672 40.4265 79.376C41.6879 78.296 42.8583 77.58 44.1354 77.0587C45.2139 76.6174 46.4911 76.1507 47.6526 75.5734C47.6551 75.572 47.6573 75.572 47.6593 75.5707C47.6671 75.5667 47.675 75.5627 47.6827 75.5587C47.6874 75.556 47.6921 75.5534 47.6969 75.5521C47.7015 75.5494 47.7062 75.5467 47.7109 75.5441C47.7187 75.5414 47.727 75.536 47.7349 75.532C47.7354 75.532 47.7354 75.532 47.7359 75.532C47.9682 75.4147 48.1953 75.2934 48.4145 75.1667L48.1135 76.3081L47.5671 78.3801L40.1297 82.6747C40.0098 82.7441 39.8969 82.776 39.7963 82.776Z" fill="#507995"/>
<path d="M39.6026 82.7267C39.6026 82.7267 39.6016 82.7267 39.5994 82.7254C39.5984 82.7254 39.5978 82.724 39.5973 82.724C39.5958 82.7227 39.5942 82.7227 39.5926 82.7214C39.5912 82.72 39.5896 82.7201 39.588 82.7188C39.5401 82.6908 39.374 82.5947 39.1245 82.4507C39.1546 82.3201 39.1864 82.1881 39.2193 82.0561C39.2754 81.8347 39.3317 81.6134 39.388 81.3921C39.3854 81.4347 39.3838 81.4774 39.3838 81.5201V82.2441C39.3838 82.4814 39.4672 82.648 39.6026 82.7267ZM39.6098 80.5147C40.2021 78.1654 40.7792 75.8254 41.3421 73.4921L46.1306 76.2574C46.6432 76.0454 47.1584 75.8201 47.6526 75.5734C46.4912 76.1507 45.214 76.6174 44.1354 77.0587C42.8584 77.5801 41.688 78.2961 40.4265 79.3761C40.0812 79.6721 39.7948 80.0827 39.6098 80.5147ZM47.6593 75.5707C47.6672 75.5667 47.675 75.5627 47.6828 75.5587C47.675 75.5627 47.6672 75.5667 47.6593 75.5707ZM47.6969 75.5521C47.7016 75.5494 47.7062 75.5468 47.7109 75.5441C47.7062 75.5468 47.7016 75.5494 47.6969 75.5521ZM47.7349 75.5321C47.7354 75.5321 47.7354 75.5321 47.736 75.5321C47.7354 75.5321 47.7354 75.5321 47.7349 75.5321Z" fill="#476F8B"/>
<path d="M40.4985 83.8947L39.0022 83.0307C39.0397 82.8387 39.0803 82.6453 39.1246 82.4507C39.3741 82.5947 39.5402 82.6907 39.5881 82.7187C39.5897 82.72 39.5913 82.72 39.5927 82.7213C39.5943 82.7226 39.5959 82.7226 39.5974 82.724C39.5979 82.724 39.5985 82.7253 39.5995 82.7253C39.6017 82.7267 39.6027 82.7266 39.6027 82.7266C39.6589 82.76 39.7246 82.776 39.7965 82.776C39.897 82.776 40.0099 82.744 40.1298 82.6747C40.1298 83.2374 40.2307 83.7147 40.4985 83.8947Z" fill="#3B637E"/>
<path d="M46.1306 76.2572L46.4937 74.7559C46.665 74.0439 46.7859 73.3466 46.8635 72.6652C46.9745 71.6892 47.1901 70.4573 47.6093 69.0173C47.9026 68.0119 48.238 67.0986 48.5656 66.3106C48.8297 65.6746 49.3245 65.1439 49.8098 64.9666C49.8177 64.9626 49.8254 64.9599 49.8333 64.9586C49.8412 64.9559 49.8494 64.9519 49.8573 64.9506C49.8656 64.9466 49.8739 64.9453 49.8817 64.9426C49.8859 64.9413 49.8895 64.9399 49.8931 64.9386C49.977 64.9146 50.0567 64.9039 50.1317 64.9026C50.1327 64.9026 50.1344 64.9026 50.136 64.9026C50.138 64.9026 50.1395 64.9026 50.1417 64.9026C50.2411 64.9039 50.3312 64.9252 50.4114 64.9626C50.4156 64.9652 50.4197 64.9679 50.4239 64.9693C50.4245 64.9693 50.4245 64.9693 50.4245 64.9693C50.4286 64.9719 50.4328 64.9746 50.4364 64.9759C50.4412 64.9786 50.4453 64.9813 50.45 64.9839C50.7688 65.1679 50.901 65.6546 50.7369 66.2826L48.4145 75.1666C48.1953 75.2933 47.9682 75.4146 47.736 75.5319C47.7354 75.5319 47.7354 75.5319 47.7349 75.5319C47.727 75.5359 47.7187 75.5413 47.7109 75.544C47.7062 75.5466 47.7015 75.5493 47.6969 75.552C47.6921 75.5533 47.6874 75.5559 47.6827 75.5586C47.675 75.5626 47.6672 75.5666 47.6593 75.5706C47.6573 75.5719 47.6552 75.5719 47.6526 75.5732C47.1584 75.8199 46.6431 76.0452 46.1306 76.2572Z" fill="#507995"/>
<path d="M46.1307 76.2572L41.3422 73.4919C41.937 71.0279 42.5162 68.5732 43.0807 66.1266C43.1255 65.9319 43.2604 65.7372 43.4298 65.6399C44.5776 64.9772 46.0016 64.1546 47.5074 63.2853C49.023 64.16 50.45 64.9839 50.45 64.9839C50.4454 64.9813 50.4412 64.9786 50.4364 64.9759C50.4328 64.9746 50.4287 64.9719 50.4246 64.9693C50.4246 64.9693 50.4246 64.9693 50.424 64.9693C50.4198 64.9679 50.4156 64.9652 50.4115 64.9626C50.3312 64.9252 50.2412 64.9039 50.1418 64.9026C50.1396 64.9026 50.138 64.9026 50.136 64.9026C50.1344 64.9026 50.1328 64.9026 50.1318 64.9026C50.0568 64.9039 49.9771 64.9146 49.8932 64.9386C49.8896 64.9399 49.886 64.9413 49.8818 64.9426C49.874 64.9453 49.8656 64.9466 49.8574 64.9506C49.8495 64.9519 49.8412 64.9559 49.8334 64.9586C49.8255 64.9599 49.8178 64.9626 49.8099 64.9666C49.3246 65.1439 48.8298 65.6733 48.5656 66.3106C48.238 67.0986 47.9027 68.0119 47.6094 69.0173C47.1902 70.4573 46.9746 71.6892 46.8636 72.6652C46.786 73.3466 46.6651 74.0439 46.4938 74.7559L46.1307 76.2572Z" fill="#426A86"/>
<path d="M40.5459 83.9226C40.5292 83.9146 40.5136 83.9053 40.4984 83.8946C40.2307 83.7146 40.1298 83.2373 40.1298 82.6747L44.1479 80.3546C42.7803 81.1439 41.526 82.4266 40.5459 83.9226Z" fill="#406782"/>
<path d="M39.026 90.6453C39.0255 90.6453 39.0246 90.6453 39.024 90.6453C38.8328 90.644 38.7 90.4919 38.7006 90.2239C38.7 90.4933 38.8339 90.6453 39.026 90.6453C39.1058 90.6453 39.1948 90.6199 39.2886 90.5653C39.823 90.2573 40.3594 89.948 40.8959 89.6373C41.4694 89.3066 42.0432 88.9747 42.614 88.6467C42.9183 88.4693 43.211 88.12 43.3907 87.7053C44.1864 85.856 44.9719 84.0026 45.7568 82.148C45.7803 82.0933 45.8058 82.0386 45.8318 81.984C46.1188 81.396 46.5646 80.8773 47.0396 80.6027C48.1131 79.9827 49.6912 79.072 51.2959 78.1453C53.0776 77.1173 54.8918 76.0693 56.0844 75.3813C56.2984 75.2573 56.4667 74.9653 56.4662 74.72C56.4667 74.9653 56.2984 75.2573 56.0844 75.3813C53.8183 76.6893 49.3052 79.2947 47.0396 80.6027C46.5214 80.9027 46.0375 81.4933 45.7568 82.148C44.9719 84.0026 44.1864 85.856 43.3907 87.7053C43.211 88.12 42.9183 88.4693 42.614 88.6467C41.5094 89.284 40.3932 89.9279 39.2886 90.5653C39.2818 90.5693 39.2755 90.5733 39.2688 90.5773C39.185 90.6213 39.1052 90.644 39.0339 90.6453C39.0312 90.6453 39.0287 90.6453 39.026 90.6453ZM38.7235 86.6173C38.7235 86.344 38.723 86.0679 38.7224 85.7933C38.7224 85.7853 38.7224 85.776 38.7224 85.7666C38.7224 85.776 38.7224 85.7853 38.7224 85.7933C38.723 86.0679 38.7235 86.344 38.7235 86.6173Z" fill="#895679"/>
<path d="M37.5833 102.555C37.238 102.555 37.014 102.269 37.0286 101.783C37.2172 96.536 37.3041 91.3613 37.301 86.2386C37.2978 85.1373 37.4526 83.9586 37.765 82.7266C39.2166 77.0106 40.5781 71.3466 41.8604 65.728C41.9942 65.1586 42.388 64.5933 42.8385 64.3333C46.6145 62.1533 52.638 58.6759 56.4145 56.4959C56.588 56.3959 56.7546 56.348 56.9036 56.348C57.2593 56.348 57.5166 56.616 57.5338 57.0813C57.8849 65.4026 57.8202 73.884 57.8202 82.5C57.8202 83.3346 57.5136 83.9106 56.7306 84.3613C56.6062 84.4333 54.2349 85.8027 54.1 85.88C52.2286 86.96 50.427 88.6627 48.875 90.844C47.4693 92.796 45.9948 95.2173 45.2098 97.5C45.0156 98.0653 44.6145 98.6226 44.175 98.876C41.977 100.145 40.2672 101.132 38.0578 102.408C37.8849 102.508 37.724 102.555 37.5833 102.555ZM56.7724 56.7346C56.6666 56.7346 56.5489 56.768 56.4265 56.8386L42.851 64.6773C42.5354 64.8587 42.2541 65.2546 42.1536 65.676C40.8713 71.2946 39.4984 76.9653 38.0584 82.6746C37.7568 83.86 37.6021 85.0013 37.6052 86.0626C37.6084 91.1853 37.5213 96.3599 37.3328 101.607C37.326 101.952 37.4901 102.153 37.7364 102.153C37.8354 102.153 37.9484 102.121 38.0682 102.052C40.2776 100.776 41.9874 99.7893 44.1969 98.5133C44.512 98.3307 44.7885 97.936 44.9276 97.5333C45.803 94.9986 47.2432 92.6933 48.7052 90.656C50.3021 88.4106 52.1713 86.6439 54.1104 85.5239C54.2344 85.4533 56.6057 84.084 56.7297 84.012C57.1578 83.7653 57.5062 83.1613 57.5161 82.676C57.6724 74.0626 57.5806 65.5786 57.2297 57.2573C57.2125 56.9279 57.027 56.7346 56.7724 56.7346Z" fill="#89181D"/>
<path d="M35.277 85.1746L6.85673 68.7666L11.953 48.8545C16.3697 51.7199 21.0729 54.6133 26.0635 57.4919C30.9723 60.3239 35.7541 62.9066 40.3734 65.2626L35.277 85.1746ZM32.1234 35.4372C31.6327 35.1386 30.9917 35.0906 30.4234 35.4186L13.2999 45.3266C12.5879 45.7372 11.9535 46.6226 11.7177 47.5346L6.78167 66.6239C6.4874 67.7626 6.3374 68.8666 6.3374 69.8932V91.9839C6.3374 92.9972 6.87754 93.9332 7.7546 94.4399L35.8421 110.656V86.9266C35.8421 85.9012 35.9921 84.7959 36.2863 83.6586L41.2229 64.5693C41.4583 63.6573 42.0926 62.7719 42.8046 62.3599L59.9281 52.4532C60.4791 52.1346 61.0983 52.1719 61.5827 52.4466L32.1234 35.4372Z" fill="#E11D25"/>
<path d="M7.98388 68.9399L6.85681 68.7666C10.6979 71.5386 15.0145 74.3973 19.8145 77.2066C25.264 80.3973 30.474 83.0186 35.2823 85.1786L35.4625 84.4493C30.8385 82.1093 26.0328 79.5106 21.0921 76.6239C17.0303 74.2506 13.186 71.8626 9.55788 69.4933C9.07188 69.2133 8.53801 69.0253 7.98388 68.9399Z" fill="#161413"/>
<path d="M24.3369 51.9213C23.676 51.9213 23.1401 51.612 23.1401 51.2293C23.1401 50.848 23.676 50.5387 24.3369 50.5387C24.9979 50.5387 25.5339 50.848 25.5339 51.2293C25.5339 51.612 24.9979 51.9213 24.3369 51.9213Z" fill="#697983"/>
<path d="M24.3369 51.9213C23.676 51.9213 23.1401 51.6119 23.1401 51.2293V51.5239C23.1401 51.9053 23.676 52.2146 24.3369 52.2146C24.9979 52.2146 25.5339 51.9053 25.5339 51.5239V51.2293C25.5339 51.6119 24.9979 51.9213 24.3369 51.9213Z" fill="#3F444D"/>
<path d="M24.337 50.5387C23.9656 50.5387 23.6646 50.3654 23.6646 50.1507C23.6646 49.936 23.9656 49.7627 24.337 49.7627C24.7084 49.7627 25.0088 49.936 25.0088 50.1507C25.0088 50.3654 24.7084 50.5387 24.337 50.5387Z" fill="#FAD013"/>
<path d="M24.337 50.5386C23.9656 50.5386 23.6646 50.3653 23.6646 50.1506L23.4751 51.2292C23.4751 51.5052 23.861 51.7279 24.337 51.7279C24.8131 51.7279 25.1984 51.5052 25.1984 51.2292L25.0088 50.1506C25.0088 50.3653 24.7084 50.5386 24.337 50.5386Z" fill="#F89B0F"/>
<path d="M32.7552 56.7814C32.0937 56.7814 31.5583 56.472 31.5583 56.0907C31.5583 55.708 32.0937 55.3987 32.7552 55.3987C33.4161 55.3987 33.9521 55.708 33.9521 56.0907C33.9521 56.472 33.4161 56.7814 32.7552 56.7814Z" fill="#697983"/>
<path d="M32.7552 56.7813C32.0937 56.7813 31.5583 56.4719 31.5583 56.0906V56.384C31.5583 56.7666 32.0937 57.076 32.7552 57.076C33.4161 57.076 33.9521 56.7666 33.9521 56.384V56.0906C33.9521 56.4719 33.4161 56.7813 32.7552 56.7813Z" fill="#3F444D"/>
<path d="M32.7552 55.3986C32.3838 55.3986 32.0828 55.2253 32.0828 55.0106C32.0828 54.796 32.3838 54.6226 32.7552 54.6226C33.126 54.6226 33.427 54.796 33.427 55.0106C33.427 55.2253 33.126 55.3986 32.7552 55.3986Z" fill="#FAD013"/>
<path d="M32.7552 55.3987C32.3839 55.3987 32.0828 55.2254 32.0828 55.0108L31.8932 56.0907C31.8932 56.3654 32.2792 56.588 32.7552 56.588C33.2307 56.588 33.6167 56.3654 33.6167 56.0907L33.4271 55.0108C33.4271 55.2254 33.126 55.3987 32.7552 55.3987Z" fill="#F89B0F"/>
<path d="M28.5458 54.3507C27.8849 54.3507 27.3489 54.0414 27.3489 53.66C27.3489 53.2787 27.8849 52.9694 28.5458 52.9694C29.2067 52.9694 29.7426 53.2787 29.7426 53.66C29.7426 54.0414 29.2067 54.3507 28.5458 54.3507Z" fill="#697983"/>
<path d="M28.5458 54.3506C27.8849 54.3506 27.3489 54.0413 27.3489 53.6599V53.9546C27.3489 54.3359 27.8849 54.6453 28.5458 54.6453C29.2067 54.6453 29.7426 54.3359 29.7426 53.9546V53.6599C29.7426 54.0413 29.2067 54.3506 28.5458 54.3506Z" fill="#3F444D"/>
<path d="M28.5459 52.9694C28.1746 52.9694 27.874 52.796 27.874 52.5814C27.874 52.3667 28.1746 52.1933 28.5459 52.1933C28.9172 52.1933 29.2183 52.3667 29.2183 52.5814C29.2183 52.796 28.9172 52.9694 28.5459 52.9694Z" fill="#FAD013"/>
<path d="M28.5458 52.9694C28.1745 52.9694 27.8739 52.7961 27.8739 52.5814L27.6843 53.66C27.6843 53.9347 28.0697 54.1574 28.5458 54.1574C29.0218 54.1574 29.4078 53.9347 29.4078 53.66L29.2182 52.5814C29.2182 52.7961 28.9171 52.9694 28.5458 52.9694Z" fill="#F89B0F"/>
<path d="M5.55465 73.7107C5.95265 73.9414 6.64731 73.9121 7.10678 73.6467L8.11358 73.0653L6.67291 72.2347L5.66611 72.8147C5.41505 72.96 5.28638 73.1467 5.28638 73.3213C5.28598 73.468 5.37451 73.6067 5.55465 73.7107Z" fill="#373132"/>
<path d="M7.10683 73.6467C6.64737 73.9121 5.9527 73.9414 5.5547 73.7107C5.37457 73.6067 5.28603 73.468 5.28643 73.3213C5.28643 73.3213 5.28603 74.2947 5.28643 74.4707C5.28643 74.616 5.3751 74.756 5.5547 74.86C5.9527 75.0893 6.64737 75.06 7.10683 74.7947L8.11363 74.2134V73.0654L7.10683 73.6467Z" fill="#1B1817"/>
<path d="M33.0739 89.6001C32.8942 89.4961 32.8062 89.3574 32.8057 89.2121C32.8051 89.0347 32.9338 88.8494 33.1854 88.704L34.1921 88.1227L35.6322 88.9547L34.6259 89.5347C34.1666 89.8014 33.4718 89.8294 33.0739 89.6001Z" fill="#373132"/>
<path d="M34.626 89.5346C34.1667 89.8013 33.4719 89.8293 33.074 89.6C32.8943 89.496 32.8063 89.3573 32.8058 89.212C32.8058 89.212 32.8052 90.1826 32.8058 90.3586C32.8058 90.5053 32.8943 90.644 33.074 90.748C33.4719 90.9773 34.1667 90.948 34.626 90.6827L35.6323 90.1013V88.9546L34.626 89.5346Z" fill="#1B1817"/>
<path d="M37.2302 91.4359C37.0229 91.4359 36.7994 91.3693 36.5713 91.2386L34.7745 90.2173L34.6838 89.8786L35.0224 89.7879L36.8188 90.8093C37.0541 90.9453 37.2729 90.9759 37.4182 90.8932C37.563 90.8106 37.6453 90.6052 37.6453 90.3319V88.4986C37.6453 88.3626 37.7557 88.252 37.8926 88.252C38.0302 88.252 38.1406 88.3626 38.1406 88.4986V90.3319C38.1406 90.7932 37.9718 91.1453 37.6661 91.3226C37.5338 91.3986 37.3869 91.4359 37.2302 91.4359Z" fill="#262424"/>
<path d="M30.7093 99.4667L35.3254 102.132V98.0747L30.7093 95.4093C30.4734 95.2733 30.2578 95.2653 30.0921 95.36C29.8926 95.4746 29.7666 95.7427 29.7666 96.1227V97.6653C29.7666 98.3587 30.1885 99.1654 30.7093 99.4667Z" fill="#CCDED3"/>
<path d="M30.6084 95.0626C30.774 94.9666 30.9896 94.9746 31.2255 95.1119L35.8422 97.7773L35.3255 98.0746L30.7094 95.4093C30.4735 95.2733 30.2579 95.2652 30.0922 95.3599C30.0922 95.3599 30.4088 95.1772 30.6084 95.0626Z" fill="#DDEFE4"/>
<path d="M35.8421 97.7774V101.833L35.3254 102.132V98.0747L35.8421 97.7774Z" fill="#B0C0BB"/>
<path d="M33.9453 99.1333V98.0573L32.5759 97.268V98.344L33.9453 99.1333Z" fill="#F7D508"/>
<path d="M34.6505 100.963L33.9453 99.1333L32.576 98.3439L30.4412 98.5319L34.6505 100.963Z" fill="#F3FBF7"/>
<path d="M32.576 97.2679V98.3439L30.4412 98.5319V96.0346L32.576 97.2679Z" fill="#DDEFE4"/>
<path d="M33.9453 98.0572V99.1333L34.651 100.963V98.4652L33.9453 98.0572Z" fill="#DDEFE4"/>
<path d="M32.7047 97.3413L34.6506 98.4652L33.9454 98.2253V98.0572L32.7047 97.3413Z" fill="#B0C0BB"/>
<path d="M32.576 97.2679V97.4359L30.4412 96.0346L32.576 97.2679Z" fill="#B0C0BB"/>
<path d="M10.436 87.7613L5.81934 85.096V81.04L10.436 83.7054C10.9563 84.0054 11.3787 84.812 11.3787 85.5067V87.048C11.3787 87.428 11.2527 87.696 11.0527 87.8107C10.8875 87.9067 10.6719 87.8973 10.436 87.7613Z" fill="#CCDED3"/>
<path d="M11.3787 87.048V85.5067C11.3787 84.812 10.9563 84.0054 10.436 83.7054L5.81934 81.04L6.33547 80.7414L10.9521 83.4067C11.4729 83.708 11.8948 84.5134 11.8948 85.208V86.7507C11.8948 87.1293 11.7688 87.3974 11.5688 87.5134C11.4036 87.608 11.0527 87.8107 11.0527 87.8107C11.2527 87.696 11.3787 87.428 11.3787 87.048Z" fill="#DDEFE4"/>
<path d="M9.99782 85.308V84.232L8.62915 83.4413V84.5173L9.99782 85.308Z" fill="#F7D508"/>
<path d="M10.7031 87.136L9.99786 85.308L8.6292 84.5173L6.49426 84.7054L10.7031 87.136Z" fill="#F3FBF7"/>
<path d="M8.6292 83.4414V84.5173L6.49426 84.7054V82.2093L8.6292 83.4414Z" fill="#DDEFE4"/>
<path d="M9.99841 84.232V85.308L10.7036 87.136V84.6387L9.99841 84.232Z" fill="#DDEFE4"/>
<path d="M8.75732 83.5146L10.7031 84.6386L9.99786 84.3999V84.2319L8.75732 83.5146Z" fill="#B0C0BB"/>
<path d="M8.6292 83.4413V83.6093L6.49426 82.2093L8.6292 83.4413Z" fill="#B0C0BB"/>
<path d="M35.3254 102.132L30.7093 99.4667C30.1885 99.1654 29.7666 98.3587 29.7666 97.6653V96.1227C29.7666 95.7427 29.8926 95.4747 30.0921 95.36C30.1193 95.344 30.1478 95.332 30.1775 95.3213C30.2265 95.3053 30.2797 95.296 30.3349 95.296C30.4499 95.296 30.5765 95.3333 30.7093 95.4093L35.3254 98.0747V102.132ZM33.9453 98.2253V99.1334L34.651 100.963V98.4653L34.0458 98.116L32.7046 97.3414L33.9453 98.0573L32.5759 97.268L30.4411 96.0347V98.532L34.6505 100.963L33.9453 99.1334L32.5759 98.344L33.9453 99.1334V98.2253V98.0573V98.2253Z" fill="#E2ECE6"/>
<path d="M30.1776 95.3212C30.2265 95.3052 30.2797 95.2959 30.3349 95.2959C30.2797 95.2959 30.2265 95.3052 30.1776 95.3212Z" fill="#ECF6F1"/>
<path d="M33.9453 99.1333L32.5759 98.344V97.436L33.9453 98.2253V99.1333Z" fill="#F9E84A"/>
<path d="M33.9453 98.2253L32.5759 97.4359V97.2679L33.9453 98.0572V98.2253Z" fill="#EADB4C"/>
<path d="M34.6505 100.963L30.4412 98.5319L32.576 98.3439L33.9453 99.1333L34.6505 100.963Z" fill="#F9FDFC"/>
<path d="M30.4412 98.5319V96.0346L32.576 97.2679L30.4412 96.0346L32.576 97.4359V98.3439L30.4412 98.5319Z" fill="#ECF6F1"/>
<path d="M34.651 100.963L33.9453 99.1333V98.2253L34.6505 98.4652L34.0458 98.1159L34.651 98.4652V100.963Z" fill="#ECF6F1"/>
<path d="M34.6506 98.4652L33.9454 98.2253V98.0572L32.7047 97.3413L34.0459 98.116L34.6506 98.4652Z" fill="#D2DCD9"/>
<path d="M32.576 97.4359L30.4412 96.0346L32.576 97.2679V97.4359Z" fill="#D2DCD9"/>
<path d="M10.8099 87.8747C10.6953 87.8747 10.5688 87.8387 10.436 87.7613L5.81934 85.096V81.04L10.436 83.7053C10.9563 84.0053 11.3787 84.812 11.3787 85.5066V87.048C11.3787 87.0626 11.3787 87.0773 11.3781 87.092C11.3688 87.448 11.2448 87.7 11.0531 87.8107C11.0527 87.8107 11.0527 87.8107 11.0527 87.8107C11.0527 87.8107 11.0527 87.8107 11.0531 87.8107C11.0527 87.8107 11.0527 87.8107 11.0527 87.8107C10.9807 87.852 10.8989 87.8747 10.8099 87.8747ZM9.9984 84.4V85.308L10.7036 87.136V84.6387H10.7031L8.75733 83.5146L9.99787 84.232L8.6292 83.4413L6.49427 82.2093H6.49587H6.49427V84.7053L10.7031 87.136L9.99787 85.308V84.4V84.232V84.4H9.9984Z" fill="#E2ECE6"/>
<path d="M11.0527 87.8107C11.0527 87.8107 11.0527 87.8107 11.0531 87.8107C11.0527 87.8107 11.0527 87.8107 11.0527 87.8107ZM11.0531 87.8107C11.2449 87.7 11.3689 87.448 11.3782 87.092C11.3787 87.0773 11.3787 87.0627 11.3787 87.048V85.5067V87.048C11.3787 87.428 11.2527 87.696 11.0531 87.8107Z" fill="#ECF6F1"/>
<path d="M9.99782 85.308L8.62915 84.5173V83.6093L9.99782 84.4V85.308Z" fill="#F9E84A"/>
<path d="M9.99782 84.4001L8.62915 83.6094V83.4414L9.99782 84.232V84.4001Z" fill="#EADB4C"/>
<path d="M10.7031 87.136L6.49426 84.7054L8.6292 84.5173L9.99786 85.308L10.7031 87.136Z" fill="#F9FDFC"/>
<path d="M6.49426 84.7054V82.2093H6.49586L8.6292 83.6093V84.5173L6.49426 84.7054Z" fill="#ECF6F1"/>
<path d="M10.7036 87.136L9.99841 85.308V84.4L10.7031 84.6387H10.7036V87.136Z" fill="#ECF6F1"/>
<path d="M10.7031 84.6386L9.99839 84.3999H9.99786V84.2319L8.75732 83.5146L10.7031 84.6386Z" fill="#D2DCD9"/>
<path d="M8.6292 83.6093L6.49586 82.2093H6.49426L8.6292 83.4413V83.6093Z" fill="#D2DCD9"/>
<path d="M41.5754 57.8932L54.2708 50.5639C54.4713 50.4479 54.7958 50.4479 54.9969 50.5639L56.0224 51.1559L56.1724 51.3652L56.0224 51.5746L43.3265 58.9039C43.126 59.0199 42.8011 59.0199 42.6005 58.9039L41.5754 58.3133L41.425 58.1026L41.5754 57.8932Z" fill="#EA1C24"/>
<path d="M42.9636 59.2693C42.8322 59.2693 42.7011 59.24 42.6005 59.1827L41.575 58.5906L41.425 58.3813V58.1027L41.4875 58.1906L41.575 58.3133L42.6005 58.904C42.7011 58.9626 42.8322 58.992 42.9636 58.992C43.0948 58.992 43.2265 58.9626 43.3265 58.904L56.0224 51.5747L56.1724 51.3653V51.6426L56.0224 51.852L43.3265 59.1827C43.2265 59.24 43.0948 59.2693 42.9636 59.2693Z" fill="#D11E25"/>
<path d="M41.4875 58.1906L41.425 58.1026L41.4875 58.1906ZM56.0224 51.5746L56.1724 51.3653L56.0224 51.5746Z" fill="#E11D25"/>
<path d="M18.3823 44.5026L31.0782 37.1732C31.2782 37.0572 31.6031 37.0572 31.8036 37.1732L32.8292 37.7652L32.9798 37.9746L32.8292 38.1839L20.1339 45.5133C19.9334 45.6293 19.6084 45.6293 19.4079 45.5133L18.3823 44.9226L18.2323 44.7133L18.3823 44.5026Z" fill="#EA1C24"/>
<path d="M19.7708 45.8786C19.6396 45.8786 19.5079 45.8493 19.4079 45.7919L18.3823 45.1999L18.2323 44.9905V44.7133L18.3823 44.9226L19.4079 45.5133C19.5079 45.5719 19.6396 45.6012 19.7708 45.6012C19.9022 45.6012 20.0339 45.5719 20.1339 45.5133L32.8292 38.1839L32.9798 37.9746V38.2532L32.8292 38.4626L20.1339 45.7919C20.0339 45.8493 19.9022 45.8786 19.7708 45.8786Z" fill="#D11E25"/>
<path d="M23.0208 47.1813L35.7161 39.8506C35.9172 39.736 36.2421 39.736 36.4426 39.8506L37.4677 40.444L37.6182 40.6533L37.4677 40.8626L24.7724 48.192C24.5718 48.308 24.2469 48.308 24.0464 48.192L23.0208 47.6L22.8702 47.3906L23.0208 47.1813Z" fill="#EA1C24"/>
<path d="M24.4093 48.5573C24.2781 48.5573 24.1464 48.528 24.0464 48.4693L23.0208 47.8773L22.8702 47.668V47.3906L23.0208 47.6L24.0464 48.192C24.1464 48.2506 24.2781 48.2786 24.4093 48.2786C24.5406 48.2786 24.6724 48.2506 24.7724 48.192L37.4677 40.8626L37.6182 40.6533V40.9307L37.4677 41.14L24.7724 48.4693C24.6724 48.528 24.5406 48.5573 24.4093 48.5573Z" fill="#D11E25"/>
<path d="M27.6593 49.8588L40.3546 42.5294C40.5557 42.4134 40.8802 42.4134 41.0811 42.5294L42.1067 43.1214L42.2567 43.3308L42.1067 43.5414L29.4109 50.8694C29.2103 50.9868 28.8854 50.9868 28.6849 50.8694L27.6593 50.2787L27.5093 50.0694L27.6593 49.8588Z" fill="#EA1C24"/>
<path d="M29.0478 51.2346C28.9166 51.2346 28.7854 51.2053 28.6849 51.148L27.6593 50.556L27.5093 50.3467V50.0694L27.6593 50.2787L28.6849 50.8694C28.7854 50.928 28.9166 50.9573 29.0478 50.9573C29.1791 50.9573 29.3103 50.928 29.4109 50.8694L42.1067 43.5414L42.2567 43.332V43.6093L42.1067 43.8187L29.4109 51.148C29.3103 51.2053 29.1791 51.2346 29.0478 51.2346Z" fill="#D11E25"/>
<path d="M29.4109 50.8693L42.1068 43.5399L42.2568 43.3306V43.3319L42.1068 43.5413L29.4109 50.8693Z" fill="#E11D25"/>
<path d="M32.2979 52.5372L44.9933 45.2079C45.1938 45.0919 45.5194 45.0919 45.7198 45.2079L46.7449 45.7999L46.8954 46.0092L46.7449 46.2186L34.0495 53.5479C33.849 53.6639 33.5241 53.6639 33.3235 53.5479L32.2979 52.9559L32.1479 52.7466L32.2979 52.5372Z" fill="#EA1C24"/>
<path d="M33.6865 53.9134C33.5553 53.9134 33.4241 53.884 33.3235 53.8266L32.2979 53.2346L32.1479 53.0253V52.7467L32.2979 52.956L33.3235 53.548C33.4241 53.6067 33.5553 53.6346 33.6865 53.6346C33.8183 53.6346 33.9495 53.6067 34.0495 53.548L46.7449 46.2187L46.8954 46.0093V46.2867L46.7449 46.496L34.0495 53.8266C33.9495 53.884 33.8183 53.9134 33.6865 53.9134Z" fill="#D11E25"/>
<path d="M36.9364 55.2147L49.6317 47.8854C49.8323 47.7694 50.1579 47.7694 50.3584 47.8854L51.3833 48.4773L51.5339 48.6867L51.3833 48.896L38.688 56.2266C38.4875 56.3426 38.1625 56.3426 37.962 56.2266L36.9364 55.6346L36.786 55.4253L36.9364 55.2147Z" fill="#EA1C24"/>
<path d="M38.3251 56.5906C38.1937 56.5906 38.0625 56.5626 37.962 56.504L36.9364 55.912L36.786 55.7027V55.4253L36.9364 55.6346L37.962 56.2266C38.0625 56.2839 38.1937 56.3133 38.3251 56.3133C38.4563 56.3133 38.588 56.2839 38.688 56.2266L51.3833 48.8959L51.5339 48.6866V48.9653L51.3833 49.1747L38.688 56.504C38.588 56.5626 38.4568 56.5906 38.3251 56.5906Z" fill="#D11E25"/>
<path d="M38.3251 56.3134C38.1937 56.3134 38.0625 56.284 37.962 56.2267L36.9364 55.6347L37.962 56.2267C38.0625 56.284 38.1937 56.3134 38.3251 56.3134C38.4568 56.3134 38.588 56.284 38.688 56.2267C38.588 56.284 38.4563 56.3134 38.3251 56.3134Z" fill="#E11D25"/>
<path d="M66.5912 95.2947V94.7721C66.7751 89.3788 62.7735 86.5428 58.0516 88.9414C58.0766 89.2388 58.0896 89.5468 58.0896 89.8641V90.3761C58.0896 90.5921 58.2047 90.7907 58.3918 90.8987L66.8771 95.7961C66.7099 95.6974 66.5912 95.5174 66.5912 95.2947Z" fill="#100F0D"/>
<path d="M48.3812 95.5759C49.6984 93.2946 51.4271 91.5373 53.1593 90.5373C54.2432 89.9106 55.3271 89.5826 56.312 89.6093C56.6599 89.6186 57.0078 89.6279 57.3562 89.6373H57.3604H57.3615C57.9828 89.6546 58.5672 89.8053 59.0912 90.1039L62.4088 92.0346C61.0098 91.2373 59.1803 91.492 57.3527 92.5466C55.5251 93.6013 53.7 95.4573 52.3104 97.864C49.5302 102.68 49.5453 107.873 52.3432 109.468L49.0254 107.539C47.838 106.857 47.2693 105.504 47.1697 105.339C45.8547 103.169 46.2568 99.2559 48.3812 95.5759Z" fill="#1B1918"/>
<path d="M52.3104 97.864C53.7 95.4573 55.5251 93.6013 57.3527 92.5467C59.1803 91.492 61.0099 91.2373 62.4088 92.0346C63.349 92.5719 64.1203 93.9853 64.4162 95.2986C64.6 96.1173 55.3938 109.712 55.3938 109.712C54.3396 109.932 52.8646 109.771 52.3432 109.468C49.4943 107.813 49.5303 102.68 52.3104 97.864Z" fill="#262424"/>
<path d="M53.088 109.329C55.7307 110.855 60.0151 108.381 62.6574 103.804C65.3 99.2266 65.3 94.28 62.6574 92.7546C60.0151 91.228 55.7307 93.7026 53.088 98.2786C50.4459 102.856 50.4459 107.803 53.088 109.329Z" fill="#1B1918"/>
<path d="M54.8776 106.229C56.5317 107.184 59.2136 105.636 60.8682 102.771C62.5224 99.9053 62.5224 96.808 60.8682 95.8533C59.2136 94.8987 56.5317 96.4466 54.8776 99.312C53.2234 102.177 53.2234 105.275 54.8776 106.229Z" fill="#100F0D"/>
<path d="M53.6418 103.256L55.6235 102.856C55.6584 103.039 55.7136 103.207 55.7902 103.353L54.5656 106.008C53.9031 105.436 53.5948 104.441 53.6418 103.256ZM56.3766 106.483L57.6022 103.827C57.7818 103.748 57.9636 103.643 58.1432 103.515L59.3688 104.755C58.4068 105.729 57.3391 106.345 56.3766 106.483ZM61.1803 102.189L59.9552 100.949C60.0318 100.713 60.0875 100.481 60.1224 100.259L62.1042 98.3706C62.1506 99.5013 61.8427 100.853 61.1803 102.189ZM61.4131 96.3107L59.4298 98.1986C59.2943 98.1319 59.1474 98.0946 58.9927 98.084V95.6773C59.6798 95.4973 60.3287 95.5413 60.8683 95.8533C61.0755 95.9733 61.2574 96.1267 61.4131 96.3107ZM54.8776 99.312C55.4172 98.3773 56.0662 97.5827 56.7531 96.9693V99.3773C56.5979 99.5667 56.4511 99.7733 56.3156 99.9959L54.3328 100.397C54.488 100.035 54.6698 99.672 54.8776 99.312ZM54.6427 106.636C56.4266 107.665 59.3188 105.996 61.1027 102.907C62.8864 99.8173 62.8864 96.4773 61.1027 95.4467C59.3188 94.4173 56.4266 96.0867 54.6427 99.1773C52.8588 102.267 52.8588 105.605 54.6427 106.636Z" fill="#D0CFB2"/>
<path d="M56.1625 99.036V97.5534C56.3546 97.344 56.5521 97.1494 56.753 96.9694V99.3774C56.5978 99.5667 56.451 99.7733 56.3156 99.996L54.3328 100.397C54.4052 100.228 54.4838 100.059 54.5677 99.8894L55.725 99.656C55.8604 99.432 56.0073 99.2254 56.1625 99.036Z" fill="#A9A891"/>
<path d="M55.1677 102.948L55.6235 102.856C55.6584 103.039 55.7136 103.207 55.7901 103.353L54.5656 106.008C54.3771 105.845 54.2177 105.649 54.0869 105.424L55.1994 103.013L55.1677 102.948Z" fill="#A9A891"/>
<path d="M62.1041 98.3707C62.1505 99.5013 61.8426 100.853 61.1802 102.189L60.6729 101.675C61.1103 100.749 61.3781 99.8214 61.4759 98.9694L62.1041 98.3707Z" fill="#A9A891"/>
<path d="M58.7781 104.415L57.9911 103.617L58.1431 103.515L59.3687 104.755C58.4067 105.729 57.339 106.345 56.3765 106.483L56.6431 105.905C57.3578 105.617 58.0947 105.105 58.7781 104.415Z" fill="#A9A891"/>
<path d="M60.5584 95.708L60.8683 95.8533C61.0755 95.9733 61.2573 96.1267 61.4131 96.3107L59.4297 98.1986C59.2943 98.132 59.1473 98.0947 58.9927 98.084V97.712L60.8224 95.9693L60.5584 95.708Z" fill="#A9A891"/>
<path d="M57.4697 101.74C57.6921 101.868 58.053 101.66 58.276 101.275C58.4984 100.889 58.4984 100.472 58.276 100.344C58.053 100.215 57.6921 100.423 57.4697 100.808C57.2469 101.195 57.2469 101.611 57.4697 101.74Z" fill="#201F1E"/>
<path d="M57.6402 99.748C57.7689 99.8227 57.9771 99.7027 58.1058 99.48C58.2339 99.2574 58.2339 99.0173 58.1058 98.9427C57.9771 98.868 57.7689 98.9894 57.6402 99.2107C57.5115 99.4334 57.5115 99.6747 57.6402 99.748Z" fill="#201F1E"/>
<path d="M58.7875 101.511C58.6079 101.581 58.4397 101.82 58.411 102.044C58.3829 102.267 58.5053 102.391 58.685 102.32C58.8641 102.249 59.0329 102.011 59.061 101.787C59.0897 101.563 58.9673 101.439 58.7875 101.511Z" fill="#201F1E"/>
<path d="M57.3344 102.665C57.3063 102.475 57.1375 102.429 56.9579 102.567C56.7787 102.703 56.6563 102.968 56.6844 103.159C56.7131 103.351 56.8812 103.393 57.061 103.257C57.2407 103.121 57.3631 102.856 57.3344 102.665Z" fill="#201F1E"/>
<path d="M56.6255 101.576C56.787 101.388 56.8516 101.121 56.7694 100.981C56.6864 100.843 56.4886 100.883 56.3266 101.072C56.1646 101.26 56.1 101.527 56.1828 101.665C56.2651 101.805 56.4636 101.765 56.6255 101.576Z" fill="#201F1E"/>
<path d="M58.9765 99.708C58.8937 99.9427 58.9584 100.135 59.1202 100.136C59.2822 100.137 59.4802 99.948 59.563 99.7147C59.6453 99.48 59.5806 99.288 59.4193 99.2867C59.2573 99.284 59.0588 99.4733 58.9765 99.708Z" fill="#201F1E"/>
<path d="M46.177 106.781V105.828C46.177 103.004 46.9978 99.9253 48.3775 97.0373C50.3625 92.8839 53.5041 89.1266 57.0234 87.0946L57.7505 86.6747C61.2697 84.6427 64.4119 84.7719 66.3969 86.6346C67.7306 87.8853 68.5417 89.92 68.5942 92.6066C68.5359 88.6986 67.2484 86.456 65.7437 85.0453C63.5245 82.964 60.1551 82.98 56.5021 85.0893L55.775 85.508C52.1218 87.6173 48.753 91.492 46.5333 96.136C44.9932 99.3586 44.1797 102.652 44.1797 105.539C44.1797 108.427 46.2021 108.075 47.3098 107.436C46.6093 107.84 46.177 107.591 46.177 106.781Z" fill="#414042"/>
<path d="M66.3969 86.6347C64.4119 84.772 61.2697 84.6427 57.7505 86.6747L57.0234 87.0947C53.5041 89.1267 50.3625 92.884 48.3775 97.0373C46.9978 99.9253 46.177 103.004 46.177 105.828V106.781C46.177 107.591 46.6093 107.84 47.3098 107.436C47.5062 107.323 47.7265 107.052 47.8973 106.755C48.0645 106.463 48.1833 106.145 48.1833 105.923V105.4C48.1833 99.6454 52.3639 92.276 57.3869 89.284C62.4103 86.476 66.5911 89.0174 66.5911 94.772V95.2947C66.5911 95.5174 66.7098 95.6973 66.877 95.796C67.0473 95.8973 67.2682 95.9133 67.4639 95.7987C68.165 95.3947 68.5969 94.6467 68.5969 93.8373V92.884C68.5969 90.06 67.7759 87.928 66.3969 86.6347Z" fill="#262424"/>
<path d="M5.90304 87.348C5.82078 87.488 5.82651 87.6279 5.91878 87.7399L6.00625 87.8386L6.33745 88.1933V87.0146C6.33745 87.0146 5.98598 87.208 5.90304 87.348Z" fill="#100F0D"/>
<path d="M34.8912 109.359V107.571C34.8912 106.733 35.3167 105.705 36.0417 105.288L47.7208 98.5441C47.7208 98.5441 46.4703 98.7841 45.5448 98.4801L37.0803 103.365C36.4667 103.684 35.724 103.861 35.0016 103.891H35.0011C34.5505 103.911 34.1125 103.864 33.7109 103.768C29.5421 102.868 25.0807 100.439 19.388 97.1521C13.7599 93.9028 8.76452 90.8921 6.00626 87.8388L5.91879 87.7401C5.82653 87.6281 5.82079 87.4881 5.90306 87.3481C5.98599 87.2081 6.33746 87.0147 6.33746 87.0147V85.6787L4.91972 86.5014C3.88226 87.1001 3.03333 88.5707 3.03333 89.7681V91.7774C3.03333 92.9348 3.35466 93.8188 3.89479 94.3828L3.89212 94.3867C7.14479 98.0561 12.4473 101.444 19.2079 105.347C25.9693 109.251 31.6437 111.505 36.5959 112.573L36.6016 112.565C36.4251 112.515 36.2547 112.451 36.0984 112.363C35.2505 111.88 34.8912 110.839 34.8912 109.359Z" fill="#333232"/>
<path d="M48.9693 97.8239L36.0417 105.288C35.3167 105.705 34.724 106.733 34.724 107.571V109.359C34.724 110.839 35.2505 111.88 36.0984 112.363C36.8396 112.784 37.8255 112.78 38.9193 112.269C39.1328 112.169 47.3099 107.436 47.3099 107.436L48.9693 97.8239Z" fill="#262424"/>
<path d="M32.0938 106.535C32.0251 106.535 31.9522 106.521 31.8766 106.493C27.4844 104.869 23.0402 102.76 18.597 100.195C14.1536 97.6293 9.71203 94.6079 5.32509 91.1639C4.92603 90.8493 4.60416 90.2173 4.60523 89.7559C4.60629 89.4679 4.73229 89.3133 4.92349 89.3133C5.00576 89.3133 5.10056 89.3426 5.20269 89.4012L5.32976 89.4879C9.71669 92.9346 14.1584 95.9559 18.6016 98.5212C23.0448 101.087 27.4891 103.196 31.8812 104.817L32.0084 104.877C32.347 105.073 32.6027 105.508 32.6016 105.919C32.6006 106.293 32.387 106.535 32.0938 106.535Z" fill="#424143"/>
<path d="M23.0058 106.597L23.2558 106.453V103.74L14.2011 98.512L13.9517 98.656L23.0058 103.884V106.597Z" fill="#262424"/>
<path d="M13.9517 101.369L23.0058 106.597V103.884L13.9517 98.656V101.369Z" fill="#414042"/>
<path d="M22.7276 104.044L14.2292 99.1387V101.209L22.7276 106.115V104.044Z" fill="white"/>
<path d="M28.8697 97.1479C26.2839 95.9626 23.6849 94.6146 21.0864 93.1146C18.4912 91.6159 15.8964 89.9653 13.3151 88.1693C13.3869 88.6906 13.4593 89.2133 13.5312 89.7346C13.6849 90.8839 14.4005 92.1333 15.2287 92.6853C17.1751 93.9786 19.126 95.1906 21.0771 96.3173C23.0287 97.4439 24.9803 98.4853 26.9276 99.4399C27.7563 99.8439 28.4765 99.424 28.6453 98.4613C28.7203 98.0226 28.7948 97.5853 28.8697 97.1479Z" fill="#262221"/>
<path d="M29.489 93.5239C26.6989 92.2679 23.8978 90.8293 21.0973 89.212C18.2969 87.5946 15.4969 85.8013 12.7087 83.836C12.8041 84.5067 12.8978 85.1747 12.9917 85.844C15.6822 87.7307 18.3869 89.4586 21.0921 91.02C23.7983 92.5826 26.5051 93.9787 29.1983 95.2C29.1942 95.2333 29.3879 94.1173 29.489 93.5239Z" fill="#262221"/>
<path d="M29.1984 95.2C26.5052 93.9787 23.7984 92.5827 21.0922 91.02C18.387 89.4587 15.6823 87.7307 12.9918 85.844L12.9896 85.8413L13.3151 88.1693C15.8964 89.9653 18.4912 91.616 21.0864 93.1146C23.685 94.6146 26.2839 95.9626 28.8698 97.148L29.1984 95.2Z" fill="#E11D25"/>
<path d="M55.4677 80.4746L52.0797 82.4293C51.7297 82.6319 51.4453 82.4173 51.4453 81.9506V81.6746C51.4453 81.2066 51.7297 80.6639 52.0797 80.4626L55.4677 78.5066C55.8177 78.3039 56.1021 78.5187 56.1021 78.9853V79.2626C56.1021 79.7293 55.8177 80.272 55.4677 80.4746Z" fill="#262424"/>
<path d="M51.4453 81.9506V81.6746C51.4453 81.2066 51.7297 80.6639 52.0797 80.4626L55.4677 78.5053C55.6755 78.3866 55.8599 78.4133 55.9755 78.5533L55.9584 78.5306C55.8073 78.3799 55.6328 78.2719 55.4776 78.2719V78.2732L55.2151 78.3479C54.088 78.9986 52.9495 79.6559 51.8224 80.3079C51.462 80.5159 51.1807 81.0546 51.1823 81.5199L51.1719 81.7986C51.1724 82.0079 51.2303 82.1692 51.3255 82.2652H51.3251C51.4197 82.3599 51.5823 82.5053 51.8255 82.5053H51.8292C51.6036 82.5066 51.4453 82.2986 51.4453 81.9506Z" fill="#414042"/>
<path d="M54.6183 79.9801L52.9292 80.956C52.7022 81.0867 52.5183 81.4054 52.5183 81.668V82.1774L55.0292 80.7267V80.2174C55.0292 79.956 54.8454 79.8494 54.6183 79.9801Z" fill="#191716"/>
<path d="M45.6812 106.305L39.2022 110.045C38.8823 110.229 38.6438 110.023 38.7126 109.621C39.0443 107.677 40.5875 105.461 42.4418 104.391C44.2954 103.32 45.8391 103.755 46.1708 105.316C46.2391 105.636 46.0011 106.12 45.6812 106.305Z" fill="#100F0D"/>
<path d="M45.0042 105.513C44.0798 104.989 42.926 105 42.0484 105.599C40.5016 106.653 38.9766 108.073 38.7126 109.621C38.6438 110.023 38.8823 110.229 39.2022 110.045L45.6812 106.305L45.9547 106.051L45.0042 105.513Z" fill="#414042"/>
<path d="M12.8803 71.6293C12.1579 71.172 11.4432 70.7147 10.7364 70.2587C10.1224 69.664 9.52133 69.0613 8.91666 68.448C8.888 68.4173 8.86093 68.3867 8.83386 68.356C8.87706 67.3333 9.04426 66.256 9.33173 65.144L13.1328 50.444C16.8703 52.836 20.6333 55.1387 24.4193 57.352L24.2719 59.1413C24.2719 59.3853 24.0995 59.684 23.888 59.8053L17.1151 63.7173C16.5937 64.0173 16.1136 64.5973 15.8317 65.2667L13.4995 70.8C13.3579 71.136 13.1333 71.4346 12.8803 71.6293Z" fill="#B1DEF2"/>
<path d="M8.8338 68.356C8.2114 67.6267 8.0202 66.6453 8.32966 65.4387C9.5406 60.7133 10.9609 55.232 12.1687 50.5187C12.2286 50.284 12.3874 50.1453 12.5625 50.1453C12.6239 50.1453 12.6869 50.1626 12.7489 50.1986L12.7802 50.2187C12.8973 50.2934 13.015 50.3693 13.1327 50.444L9.33167 65.144C9.0442 66.256 8.877 67.3333 8.8338 68.356Z" fill="#2E546F"/>
<path d="M17.3792 74.4147C15.8464 73.4867 14.3469 72.5574 12.8802 71.6294C13.1333 71.4347 13.3579 71.1361 13.4995 70.8001L15.8317 65.2667C16.1136 64.5974 16.5937 64.0174 17.1151 63.7174L23.888 59.8054C24.0995 59.6841 24.2718 59.3854 24.2718 59.1414L24.4193 57.3521C24.9062 57.6361 25.3937 57.92 25.8817 58.2014C26.5167 58.568 27.1521 58.932 27.7885 59.2934C27.6088 60.104 27.4969 60.8254 27.4265 61.4427C27.3495 62.124 27.2286 62.8227 27.0568 63.5334L26.6943 65.0347H26.6948C26.003 65.3214 25.3183 65.5827 24.6984 65.8361C23.4213 66.3574 22.2516 67.0747 20.9896 68.1547C20.4754 68.5947 20.0912 69.2894 19.9802 69.932C18.8541 71.2174 17.9364 72.7987 17.3792 74.4147ZM17.8599 66.7054C17.8615 66.7067 17.8631 66.7081 17.8651 66.7081L19.6344 67.732C19.7953 67.8254 19.9792 67.8707 20.1786 67.8707C20.4672 67.8707 20.7869 67.7747 21.1151 67.5854L25.4453 65.0854C25.8041 64.8787 26.0953 64.3747 26.0953 63.96C26.0953 63.7534 26.0234 63.6094 25.9073 63.54C25.9057 63.5387 25.9041 63.5387 25.9026 63.5374L24.9875 63.0094C24.9385 62.9814 24.8817 62.9667 24.8188 62.9667C24.7317 62.9667 24.6328 62.9947 24.5286 63.056L20.2302 65.5361C19.9812 65.6801 19.7385 65.7534 19.5197 65.7534C19.3833 65.7534 19.2563 65.7254 19.1432 65.668L18.6516 65.3827L17.7349 64.8534C17.6901 64.828 17.6391 64.8147 17.5838 64.8147C17.3817 64.8147 17.1312 64.9841 16.9604 65.2694C16.7355 65.6427 16.7312 66.0534 16.9479 66.1787L17.8599 66.7054ZM38.363 70.6787L35.1584 68.8281L35.4593 67.6867L36.4177 64.02C37.3344 64.504 38.2516 64.9813 39.1702 65.4547L39.2031 65.4721C39.4484 65.6134 39.5713 65.9747 39.4901 66.2933C39.1297 67.7 38.75 69.1747 38.363 70.6787ZM20.4364 66.2827C20.4344 66.2827 20.4317 66.2827 20.4297 66.2827C20.4317 66.2827 20.4344 66.2827 20.4364 66.2827ZM20.4573 66.2827C20.664 66.2787 20.8921 66.2094 21.126 66.0774C20.8921 66.2094 20.664 66.2787 20.4573 66.2827ZM20.0625 66.1987C20.0494 66.192 20.0364 66.1841 20.024 66.1774C20.0364 66.1841 20.0494 66.192 20.0625 66.1987ZM17.8937 65.7707C17.8989 65.7627 17.9041 65.7547 17.9099 65.7467C17.9041 65.7547 17.8989 65.7627 17.8937 65.7707ZM17.9099 65.7467C17.912 65.7441 17.9136 65.7414 17.9156 65.7387C17.9136 65.7414 17.912 65.7441 17.9099 65.7467ZM17.9193 65.732C18.0734 65.508 18.2765 65.3694 18.4526 65.348C18.2765 65.3694 18.0734 65.508 17.9193 65.732ZM18.6437 65.3787C18.6421 65.3774 18.6406 65.3774 18.6391 65.376C18.6406 65.3774 18.6421 65.3774 18.6437 65.3787ZM18.5057 65.3441C18.5041 65.3441 18.5021 65.3441 18.5005 65.3441C18.5021 65.3441 18.5041 65.3441 18.5057 65.3441ZM25.4844 63.5627C25.5614 63.524 25.6349 63.5027 25.7021 63.4974C25.6349 63.5027 25.5614 63.524 25.4844 63.5627ZM25.9026 63.5374C25.8984 63.536 25.8948 63.5334 25.8906 63.532C25.8948 63.5334 25.8984 63.536 25.9026 63.5374ZM25.7417 63.496C25.7396 63.496 25.7374 63.496 25.7354 63.496C25.7374 63.496 25.7396 63.496 25.7417 63.496Z" fill="#2E546F"/>
<path d="M20.1787 67.8706C19.9792 67.8706 19.7954 67.8253 19.6344 67.732L17.8651 66.708C17.8631 66.708 17.8615 66.7067 17.8599 66.7053L17.8646 66.708C17.6484 66.5827 17.6527 66.172 17.8771 65.7986C17.8823 65.7893 17.888 65.78 17.8938 65.7706C17.899 65.7626 17.9042 65.7547 17.9099 65.7467C17.912 65.744 17.9136 65.7413 17.9156 65.7387C17.9167 65.736 17.9183 65.7346 17.9194 65.732C18.0735 65.508 18.2766 65.3693 18.4527 65.348C18.4688 65.3453 18.485 65.344 18.5006 65.344C18.5022 65.344 18.5042 65.344 18.5058 65.344C18.5536 65.3453 18.5984 65.356 18.6391 65.376C18.6407 65.3773 18.6422 65.3773 18.6438 65.3786C18.6464 65.38 18.649 65.3813 18.6516 65.3827L19.1432 65.668C19.1307 65.6613 19.1188 65.6546 19.1074 65.648L20.024 66.1773C20.0364 66.184 20.0495 66.192 20.0626 66.1986C20.173 66.2533 20.297 66.2813 20.4298 66.2827C20.4318 66.2827 20.4344 66.2827 20.4364 66.2827C20.4432 66.2827 20.4506 66.2827 20.4574 66.2827C20.664 66.2787 20.8922 66.2093 21.126 66.0773C21.1334 66.0733 21.1402 66.0693 21.147 66.0653L25.4454 63.584C25.4584 63.5773 25.4714 63.5693 25.4844 63.5626C25.5615 63.524 25.635 63.5027 25.7022 63.4973C25.7136 63.496 25.7246 63.496 25.7355 63.496C25.7375 63.496 25.7396 63.496 25.7418 63.496C25.7964 63.496 25.8464 63.508 25.8907 63.532C25.8948 63.5333 25.8984 63.536 25.9027 63.5373L25.9074 63.54C26.0235 63.6093 26.0954 63.7533 26.0954 63.96C26.0954 64.3746 25.8042 64.8787 25.4454 65.0853L21.1151 67.5853C20.787 67.7747 20.4672 67.8706 20.1787 67.8706Z" fill="#355C77"/>
<path d="M20.4364 66.2826C20.4344 66.2826 20.4317 66.2826 20.4297 66.2826C20.2969 66.2813 20.1729 66.2532 20.0625 66.1986C20.0494 66.1919 20.0364 66.184 20.024 66.1773L19.1073 65.6479C19.1188 65.6546 19.1306 65.6612 19.1432 65.6679C19.2562 65.7252 19.3833 65.7533 19.5197 65.7533C19.7385 65.7533 19.9812 65.6799 20.2302 65.5359L24.5286 63.0559C24.6328 62.9946 24.7317 62.9666 24.8188 62.9666C24.8817 62.9666 24.9385 62.9813 24.9874 63.0093L25.9026 63.5372C25.8984 63.5359 25.8948 63.5332 25.8906 63.5319C25.8464 63.5079 25.7964 63.4959 25.7417 63.4959C25.7396 63.4959 25.7374 63.4959 25.7354 63.4959C25.7245 63.4959 25.7136 63.4959 25.7021 63.4973C25.6349 63.5026 25.5614 63.5239 25.4844 63.5626C25.4713 63.5692 25.4584 63.5773 25.4453 63.5839L21.1469 66.0652C21.1401 66.0692 21.1333 66.0733 21.126 66.0773C20.8921 66.2093 20.664 66.2786 20.4573 66.2826C20.4505 66.2826 20.4432 66.2826 20.4364 66.2826ZM25.9073 63.5399L25.9026 63.5372C25.9041 63.5386 25.9057 63.5386 25.9073 63.5399Z" fill="#3B637E"/>
<path d="M17.8645 66.7079L17.8598 66.7052L16.9478 66.1786C16.7312 66.0532 16.7354 65.6426 16.9604 65.2692C17.1312 64.9839 17.3817 64.8146 17.5838 64.8146C17.639 64.8146 17.6901 64.8279 17.7349 64.8532L18.6516 65.3826C18.6489 65.3813 18.6464 65.3799 18.6437 65.3786C18.6421 65.3772 18.6406 65.3772 18.639 65.3759C18.5984 65.3559 18.5536 65.3453 18.5057 65.3439C18.5041 65.3439 18.5021 65.3439 18.5005 65.3439C18.4849 65.3439 18.4688 65.3452 18.4526 65.3479C18.2765 65.3692 18.0734 65.5079 17.9193 65.7319C17.9182 65.7345 17.9166 65.7359 17.9156 65.7386C17.9136 65.7412 17.912 65.7439 17.9098 65.7466C17.9041 65.7546 17.8989 65.7625 17.8937 65.7705C17.888 65.7799 17.8822 65.7892 17.877 65.7985C17.6526 66.1719 17.6484 66.5826 17.8645 66.7079Z" fill="#3B637E"/>
<path d="M34.1411 82.8813C34.0541 82.8813 33.9645 82.8719 33.8718 82.8559C33.5 82.7786 33.1084 82.6879 32.6989 82.5839C32.5776 82.0933 32.3822 81.6746 32.1338 81.3186L32.8021 80.1039L30.4197 78.9186L29.9969 79.6879H29.9973C29.874 79.6172 29.7411 79.5399 29.6015 79.4599L29.9969 79.6879L30.4197 78.9186L32.8021 80.1039L31.6005 79.4106L32.8312 77.1732C32.8776 77.1972 32.924 77.2226 32.9697 77.2466C32.926 77.4266 32.9026 77.6066 32.9026 77.7773V78.5012C32.9026 78.7399 32.986 78.9066 33.1208 78.9839C33.1442 78.9986 33.3521 79.1173 33.6797 79.3079L33.6645 79.2986C33.7052 79.7252 33.826 80.06 34.064 80.18L35.677 81.1106C35.6688 81.1453 35.6598 81.1786 35.6515 81.2133C35.3639 82.3346 34.8505 82.8813 34.1411 82.8813ZM35.8229 80.544C35.2125 80.192 34.6286 79.856 34.1604 79.5853C34.6286 79.8546 35.2125 80.192 35.8229 80.544ZM30.4625 80.044C30.3759 80.0266 30.289 80.0173 30.203 80.0173C30.289 80.0173 30.3759 80.0266 30.4625 80.044ZM30.1838 80.0173C30.189 80.0173 30.1942 80.0173 30.1994 80.0173C30.1942 80.0173 30.189 80.0173 30.1838 80.0173ZM28.6729 78.9226C27.7718 78.4026 26.7859 77.8333 26.101 77.4386L26.0833 77.4292C25.8557 77.2986 25.6193 77.2399 25.3885 77.2399C24.7817 77.2399 24.215 77.6506 23.9546 78.2719C23.0057 77.7333 22.0516 77.1839 21.0921 76.6239C19.8338 75.8892 18.5958 75.1519 17.3792 74.4146C17.9364 72.7986 18.8541 71.2172 19.9802 69.9319C19.9583 70.0572 19.9469 70.1799 19.9469 70.2973V71.0226C19.9469 71.2599 20.0302 71.4266 20.1656 71.5053C20.2969 71.5813 26.3297 75.0639 26.6354 75.2399C26.3838 75.0946 22.2521 72.7093 20.725 71.8279L20.7093 71.8199C20.75 72.2466 20.8708 72.5799 21.1088 72.7012V72.6999L27.5448 76.416C27.5593 76.4253 27.5745 76.4346 27.5901 76.4426H27.5906C27.9447 75.9026 28.3343 75.3893 28.7521 74.9186C28.8802 74.9933 29.0156 75.0719 29.1588 75.1559C29.7458 75.4933 30.4 75.8599 31.0718 76.2279L29.8328 78.4813L28.5901 77.8626L28.1672 78.6306L28.6729 78.9226ZM33.6942 75.88C32.3786 75.156 30.9666 74.4106 29.8364 73.8466C30.2708 73.472 30.725 73.1453 31.1921 72.8746L29.6614 73.7586L34.6119 70.9012L35.1583 68.8279L38.363 70.6786C38.1395 71.5466 37.9136 72.4239 37.6869 73.3026C37.676 73.3066 37.665 73.3106 37.6541 73.316C36.3765 73.8373 35.2067 74.5532 33.9453 75.6346C33.8573 75.7092 33.774 75.792 33.6942 75.88ZM26.8411 75.2959C26.7693 75.2959 26.7035 75.28 26.6469 75.2466C26.6469 75.2466 26.6464 75.2466 26.6437 75.2453C26.6464 75.2466 26.6469 75.2466 26.6469 75.2466C26.5119 75.1693 26.4286 75.0013 26.4286 74.7639C26.4286 75.0013 26.5119 75.1693 26.6469 75.2466C26.7035 75.28 26.7693 75.2959 26.8411 75.2959C26.9417 75.2959 27.0546 75.2639 27.1745 75.1946L28.212 74.5959L27.1745 75.1946C27.0546 75.2639 26.9417 75.2959 26.8411 75.2959ZM26.6426 75.244C26.6412 75.244 26.639 75.2426 26.6369 75.2413C26.639 75.2426 26.6412 75.244 26.6426 75.244Z" fill="#507B95"/>
<path d="M26.8412 75.2961C26.7694 75.2961 26.7036 75.2801 26.647 75.2468C26.512 75.1694 26.4287 75.0014 26.4287 74.7641V74.0401C26.4287 73.3107 26.8574 72.4227 27.4714 71.8961C28.7328 70.8161 29.9027 70.1001 31.1803 69.5787C32.1938 69.1641 33.3812 68.7281 34.485 68.1987C34.4896 68.1961 34.4938 68.1934 34.4984 68.1921C34.5042 68.1881 34.5104 68.1854 34.5167 68.1828C34.5251 68.1788 34.5334 68.1747 34.5418 68.1707C34.5432 68.1694 34.5459 68.1681 34.5474 68.1681C34.861 68.0161 35.1667 67.8561 35.4594 67.6867L35.1584 68.8281L34.612 70.9014L29.6615 73.7587C29.2896 73.5747 28.9522 73.4121 28.664 73.2787C28.1427 73.0387 27.847 72.924 27.7626 72.924C27.7422 72.924 27.7344 72.9308 27.7386 72.9441C27.737 72.9388 27.737 72.9347 27.7386 72.9321L27.2203 73.8961C27.1954 73.9427 27.536 74.1841 28.212 74.5961L27.1746 75.1947C27.0547 75.2641 26.9418 75.2961 26.8412 75.2961ZM29.5328 73.7867L29.5303 73.7841C29.3584 73.7067 29.2219 73.6468 29.1183 73.6054C29.2224 73.6468 29.3599 73.7068 29.5328 73.7854V73.7867ZM29.0251 73.5721L29.0208 73.5694L28.874 73.5427C28.876 73.5387 28.8823 73.5374 28.8922 73.5374C28.9151 73.5374 28.9594 73.5481 29.0251 73.5707V73.5721Z" fill="#507995"/>
<path d="M26.6469 75.2467C26.6469 75.2467 26.6464 75.2467 26.6437 75.2454C26.6437 75.2454 26.6432 75.2454 26.6426 75.2441C26.6412 75.2441 26.639 75.2427 26.6369 75.2414C26.6364 75.2414 26.636 75.24 26.6354 75.24C26.3297 75.064 20.2969 71.5814 20.1656 71.5054C20.0302 71.4267 19.9469 71.26 19.9469 71.0227V70.2974C19.9469 70.1801 19.9584 70.0574 19.9802 69.932C20.0912 69.2894 20.4754 68.5947 20.9896 68.1547C22.2516 67.0747 23.4213 66.3574 24.6984 65.8361C25.3182 65.5827 26.003 65.3214 26.6948 65.0347L33.1754 68.7774L33.5385 67.276L33.1754 68.7774C33.6145 68.5961 34.0562 68.404 34.4849 68.1987C33.3812 68.728 32.1937 69.164 31.1802 69.5787C29.9026 70.1 28.7328 70.816 27.4713 71.896C26.8573 72.4227 26.4286 73.3107 26.4286 74.04V74.7641C26.4286 75.0014 26.512 75.1694 26.6469 75.2467ZM34.4984 68.192C34.5041 68.188 34.5104 68.1854 34.5166 68.1827C34.5104 68.1854 34.5041 68.188 34.4984 68.192ZM34.5417 68.1707C34.5432 68.1694 34.5458 68.168 34.5473 68.168C34.5458 68.168 34.5432 68.1694 34.5417 68.1707Z" fill="#476F8B"/>
<path d="M27.5448 76.4159L21.1088 72.6999V72.7012C20.8708 72.5799 20.75 72.2466 20.7094 71.8199L20.7251 71.8279C22.2521 72.7092 26.3839 75.0945 26.6355 75.2399C26.636 75.2399 26.6364 75.2412 26.637 75.2412C26.6391 75.2426 26.6412 75.2439 26.6427 75.2439C26.6432 75.2453 26.6437 75.2452 26.6437 75.2452C26.6464 75.2466 26.6469 75.2466 26.6469 75.2466C26.7036 75.2799 26.7693 75.2959 26.8412 75.2959C26.9417 75.2959 27.0547 75.2639 27.1745 75.1946C27.1745 75.7586 27.276 76.2373 27.5448 76.4159Z" fill="#3B637E"/>
<path d="M33.1755 68.7773L33.5386 67.2759C33.7099 66.5652 33.8307 65.8666 33.9085 65.1853C33.9823 64.5319 34.1037 63.7625 34.3022 62.8932C35.0063 63.2719 35.7121 63.6479 36.4178 64.0199L35.4594 67.6866C35.1667 67.8559 34.861 68.0159 34.5474 68.1679C34.5459 68.1679 34.5433 68.1692 34.5418 68.1705C34.5334 68.1745 34.5251 68.1786 34.5167 68.1826C34.5105 68.1853 34.5042 68.1879 34.4985 68.1919C34.4938 68.1932 34.4897 68.1959 34.485 68.1985C34.0563 68.4039 33.6146 68.5959 33.1755 68.7773Z" fill="#507995"/>
<path d="M33.1755 68.7773L26.6949 65.0345H26.6943L27.0569 63.5332C27.2287 62.8226 27.3495 62.1239 27.4266 61.4426C27.497 60.8252 27.6089 60.1039 27.7886 59.2932C29.9522 60.5225 32.1235 61.7225 34.3022 62.8932C34.1037 63.7625 33.9823 64.5319 33.9085 65.1853C33.8307 65.8666 33.7099 66.5652 33.5386 67.2759L33.1755 68.7773Z" fill="#426A86"/>
<path d="M27.5902 76.4427C27.5746 76.4347 27.5594 76.4254 27.5448 76.416C27.276 76.2374 27.1746 75.7587 27.1746 75.1947L28.212 74.596C28.373 74.6933 28.5531 74.8014 28.7522 74.9187C28.3344 75.3894 27.9448 75.9027 27.5907 76.4427H27.5902ZM29.8364 73.8467C29.7771 73.816 29.7188 73.788 29.6615 73.7587L31.1922 72.8747C30.7251 73.1454 30.2708 73.472 29.8364 73.8467Z" fill="#406782"/>
<path d="M35.823 80.5441C35.2126 80.1921 34.6287 79.8548 34.1604 79.5854C33.9818 79.4814 33.8203 79.3881 33.6803 79.3081H33.6798C33.3522 79.1174 33.1443 78.9987 33.1208 78.9841C32.986 78.9067 32.9027 78.7401 32.9027 78.5014V77.7774C32.9027 77.6068 32.926 77.4268 32.9698 77.2468C34.076 77.8268 35.1047 78.3441 35.826 78.6774C35.9907 78.7534 36.1328 78.8174 36.2531 78.8681C36.1079 79.4347 35.964 79.9934 35.823 80.5441ZM36.5912 77.5534C36.276 77.3561 35.8547 77.1027 35.3312 76.8014C34.8251 76.5094 34.2688 76.1961 33.6943 75.8801C33.774 75.7921 33.8574 75.7094 33.9454 75.6347C35.2068 74.5534 36.3766 73.8374 37.6542 73.3161C37.6651 73.3108 37.676 73.3068 37.687 73.3028C37.3198 74.7268 36.9516 76.1547 36.5912 77.5534Z" fill="#476F8B"/>
<path d="M35.6771 81.1107L34.064 80.1801C33.826 80.0601 33.7052 79.7254 33.6646 79.2987L33.6797 79.3081H33.6803C33.8203 79.3881 33.9817 79.4814 34.1604 79.5854C34.6287 79.8561 35.2125 80.1921 35.8229 80.5441C35.774 80.7347 35.7255 80.9241 35.6771 81.1107Z" fill="#3B637E"/>
<path d="M32.8022 80.1039L30.4198 78.9186L29.997 79.6879L29.6016 79.4599C29.3156 79.2946 29 79.1119 28.673 78.9226L28.1672 78.6306L28.5902 77.8626L29.8328 78.4813L29.8183 78.5079C29.8094 78.5186 29.9339 78.6012 30.1755 78.7399C30.5662 78.9652 31.1183 79.2573 31.4058 79.3893L31.576 79.4546L31.6006 79.4106L32.8022 80.1039Z" fill="#406782"/>
<path d="M32.1339 81.3188C31.8041 80.8481 31.3812 80.4867 30.912 80.2174L30.8943 80.2067L30.912 80.2174C30.912 80.2174 30.5448 80.004 29.9974 79.688H29.9969L30.4198 78.9188L32.8021 80.104L32.1339 81.3188ZM30.8766 80.196C30.7407 80.1214 30.6016 80.0707 30.4625 80.0441C30.6016 80.0707 30.7407 80.1214 30.8766 80.196Z" fill="#3B637E"/>
<path d="M32.699 82.5839C32.1203 82.4372 31.5074 82.2652 30.8667 82.0679C30.1828 81.7052 29.4959 81.3372 28.8047 80.9625C29.0782 80.3959 29.612 80.0239 30.1839 80.0172C30.1891 80.0172 30.1943 80.0172 30.1995 80.0172C30.2006 80.0172 30.2022 80.0172 30.2031 80.0172C30.2891 80.0172 30.376 80.0266 30.4626 80.0439C30.6016 80.0706 30.7407 80.1212 30.8766 80.1959C30.8828 80.1999 30.8886 80.2025 30.8943 80.2065L30.912 80.2172C31.3812 80.4866 31.8042 80.8479 32.1339 81.3186C32.3823 81.6746 32.5776 82.0932 32.699 82.5839Z" fill="#3F6783"/>
<path d="M28.8047 80.9626C27.2052 80.0972 25.588 79.2013 23.9547 78.2719C24.2151 77.6506 24.7818 77.2399 25.3886 77.2399C25.6194 77.2399 25.8558 77.2986 26.0834 77.4292L26.1011 77.4386C26.786 77.8333 27.7719 78.4026 28.673 78.9226C29 79.1119 29.3156 79.2946 29.6016 79.4599C29.7412 79.5399 29.874 79.6172 29.9974 79.6879C30.5448 80.0039 30.912 80.2172 30.912 80.2172L30.8943 80.2066C30.8886 80.2026 30.8828 80.1999 30.8766 80.1959C30.7407 80.1212 30.6016 80.0706 30.4626 80.0439C30.376 80.0266 30.2891 80.0172 30.2031 80.0172C30.2022 80.0172 30.2006 80.0172 30.1995 80.0172C30.1943 80.0172 30.1891 80.0172 30.1839 80.0172C29.612 80.0239 29.0782 80.3959 28.8047 80.9626Z" fill="#46708B"/>
<path d="M31.5761 79.4546L31.4058 79.3893C31.1183 79.2573 30.5662 78.9653 30.1755 78.74C29.9339 78.6013 29.8094 78.5187 29.8183 78.508L29.8329 78.4813L31.0719 76.228C31.6558 76.548 32.2527 76.868 32.8313 77.1733L31.6006 79.4107L31.5761 79.4546Z" fill="#5C859F"/>
<path d="M36.1167 77.456C36.0579 77.456 35.8615 77.3813 35.5203 77.2266L33.7084 76.18L33.7235 76.1533C33.7364 76.1386 33.5646 76.0253 33.2276 75.8293C32.7282 75.5413 32.0422 75.1773 31.6246 74.9773L29.676 73.852C30.888 74.42 33.088 75.5839 34.6579 76.4906C35.7318 77.1106 36.2443 77.456 36.1167 77.456ZM35.514 77.2239C35.487 77.2119 35.4588 77.1987 35.4298 77.1853L35.4047 77.1733L35.3891 77.1666L35.4079 77.1746L35.4298 77.1853L35.514 77.2239ZM35.3427 77.1453L35.3068 77.128C35.1527 77.056 34.9823 76.9733 34.8006 76.884C34.9828 76.9733 35.1531 77.056 35.3079 77.128L35.3427 77.1453ZM29.6568 73.844L29.5782 73.8066C29.6036 73.8186 29.6303 73.8307 29.6568 73.844ZM29.5782 73.8066L29.5536 73.7959L29.5328 73.7866V73.7853L29.5568 73.7959L29.5782 73.8066Z" fill="#507A94"/>
<path d="M33.7084 76.1801L33.5724 76.1014C33.6531 76.1374 33.7011 76.1547 33.7177 76.1547C33.7203 76.1547 33.7224 76.1534 33.7235 76.1534L33.7084 76.1801Z" fill="#2E546F"/>
<path d="M34.5344 76.7521C33.297 76.1348 31.6183 75.2347 30.3506 74.5014C29.6418 74.0934 29.1776 73.8027 28.9807 73.6534L29.0251 73.5721V73.5707C29.0251 73.5721 29.0251 73.5721 29.0255 73.5721L34.5344 76.7521Z" fill="#59839D"/>
<path d="M28.9806 73.6532C28.9026 73.5946 28.8661 73.5572 28.874 73.5426L29.0208 73.5692L29.025 73.5719L28.9806 73.6532Z" fill="#47708C"/>
<path d="M35.5203 77.2267C35.5183 77.2254 35.5162 77.2254 35.514 77.224L35.4298 77.1854L35.4079 77.1748L35.3891 77.1668L35.3798 77.1627L35.3568 77.1507L35.3427 77.1454L35.3079 77.1281C35.1531 77.0561 34.9828 76.9734 34.8006 76.8841C34.7146 76.8414 34.6255 76.7988 34.5344 76.7521L29.0255 73.5721C29.0527 73.5814 29.0834 73.5921 29.1183 73.6054C29.2219 73.6468 29.3584 73.7067 29.5303 73.7841L29.5328 73.7867L29.5536 73.7961L29.5782 73.8067L29.6568 73.8441C29.6631 73.8468 29.6698 73.8494 29.676 73.8521L31.6246 74.9774C32.0422 75.1774 32.7282 75.5414 33.2276 75.8294C33.5646 76.0254 33.7364 76.1387 33.7235 76.1534C33.7224 76.1534 33.7203 76.1547 33.7178 76.1547C33.7011 76.1547 33.6531 76.1374 33.5724 76.1014L33.7084 76.1801L35.5203 77.2267Z" fill="#446D88"/>
<path d="M36.2531 78.868C36.1328 78.8173 35.9907 78.7533 35.826 78.6773C35.1047 78.344 34.076 77.8267 32.9697 77.2467C32.924 77.2227 32.8776 77.1973 32.8312 77.1733C32.2527 76.868 31.6557 76.548 31.0719 76.228C30.4 75.86 29.7459 75.4933 29.1588 75.156C29.0156 75.072 28.8803 74.9933 28.7521 74.9187C28.5531 74.8013 28.3729 74.6933 28.212 74.5959C27.536 74.1839 27.1953 73.9426 27.2203 73.8959L27.7385 72.9319C27.7369 72.9346 27.7369 72.9387 27.7385 72.944C27.7683 73.0387 28.438 73.4759 29.6771 74.1906C29.9219 74.3319 30.1787 74.4786 30.4427 74.628C30.4172 74.6133 30.3917 74.5986 30.3656 74.584L29.8557 75.5533C30.9245 76.156 32.1317 76.8093 33.2396 77.3866L33.7495 76.4187C34.7557 76.944 35.6803 77.4067 36.3448 77.7133C36.4093 77.744 36.4708 77.772 36.5287 77.7973C36.4364 78.156 36.3443 78.5133 36.2531 78.868Z" fill="#58819C"/>
<path d="M33.2396 77.3866C32.1317 76.8093 30.9245 76.156 29.8557 75.5533L30.3656 74.584C30.3917 74.5986 30.4172 74.6133 30.4426 74.628C31.4917 75.2186 32.6677 75.8547 33.7494 76.4187L33.2396 77.3866Z" fill="#75A1B8"/>
<path d="M36.5286 77.7973C36.4708 77.7719 36.4093 77.744 36.3448 77.7133C35.6802 77.4066 34.7557 76.944 33.7494 76.4186C32.6677 75.8546 31.4917 75.2186 30.4426 74.6279C30.1786 74.4786 29.9218 74.3319 29.677 74.1906C28.438 73.4759 27.7682 73.0386 27.7385 72.944C27.7344 72.9306 27.7421 72.9239 27.7625 72.9239C27.8469 72.9239 28.1426 73.0386 28.664 73.2786C28.9521 73.4119 29.2896 73.5746 29.6614 73.7586C29.7188 73.7879 29.777 73.816 29.8364 73.8466C30.9666 74.4106 32.3786 75.156 33.6942 75.88C34.2688 76.196 34.825 76.5092 35.3312 76.8012C35.8546 77.1026 36.276 77.3559 36.5912 77.5533C36.5702 77.6346 36.5494 77.7159 36.5286 77.7973ZM35.5202 77.2266C35.8614 77.3812 36.0578 77.4559 36.1166 77.4559C36.2442 77.4559 35.7317 77.1106 34.6578 76.4906C33.088 75.5839 30.888 74.42 29.676 73.852C29.6697 73.8493 29.663 73.8466 29.6568 73.844C29.6302 73.8306 29.6036 73.8186 29.5781 73.8066L29.5568 73.7959L29.5328 73.7853C29.3598 73.7066 29.2224 73.6466 29.1182 73.6053C29.0833 73.5919 29.0526 73.5813 29.0254 73.5719C29.025 73.5719 29.025 73.5719 29.025 73.5706C28.9593 73.5479 28.915 73.5372 28.8921 73.5372C28.8822 73.5372 28.876 73.5386 28.874 73.5426C28.8661 73.5573 28.9026 73.5946 28.9806 73.6533C29.1776 73.8026 29.6417 74.0932 30.3505 74.5012C31.6182 75.2346 33.2969 76.1346 34.5344 76.752C34.6254 76.7986 34.7145 76.8413 34.8005 76.8839C34.9822 76.9733 35.1526 77.0559 35.3068 77.1279L35.3426 77.1453L35.3568 77.1506L35.3797 77.1626L35.389 77.1666L35.4046 77.1732L35.4297 77.1853C35.4588 77.1986 35.4869 77.2119 35.514 77.2239C35.5161 77.2252 35.5182 77.2252 35.5202 77.2266Z" fill="#446D88"/>
<path d="M19.8145 77.2067C19.7339 77.16 19.6541 77.1134 19.5751 77.0667C19.6547 77.1134 19.7344 77.16 19.8145 77.2067Z" fill="#97517A"/>
<path d="M30.8666 82.068C27.6234 81.0707 23.689 79.4454 20.065 77.3521L19.8145 77.2067C19.7343 77.16 19.6546 77.1134 19.575 77.0667C15.7655 74.8174 13.1505 72.5974 10.7363 70.2587C11.4431 70.7147 12.1578 71.172 12.8802 71.6294C14.3469 72.5574 15.8463 73.4867 17.3791 74.4147C18.5958 75.152 19.8338 75.8893 21.0921 76.624C22.0515 77.184 23.0057 77.7334 23.9546 78.2721C25.5879 79.2014 27.2051 80.0974 28.8046 80.9627C29.4958 81.3374 30.1827 81.7054 30.8666 82.068Z" fill="#355C78"/>
<path d="M8.32967 65.4386C9.54061 60.7133 10.9609 55.2319 12.1682 50.5186C12.2499 50.2013 12.5114 50.0612 12.7489 50.1986L12.7802 50.2172C17.1145 52.9999 21.4822 55.6612 25.8817 58.2012C30.2806 60.7412 34.7109 63.1599 39.1702 65.4546L39.203 65.4719C39.4483 65.6133 39.5713 65.9746 39.4901 66.2932C38.2822 71.0066 36.8619 76.4879 35.6515 81.2133C35.3291 82.4706 34.7213 83.0053 33.8718 82.8559C30.3103 82.1133 24.9103 80.1506 20.065 77.3519L19.8145 77.2066C14.8926 74.3386 11.9469 71.5199 8.91661 68.4479C8.22861 67.7106 8.00727 66.6959 8.32967 65.4386ZM40.3926 65.2746C35.5827 62.8253 30.8046 60.2293 26.0635 57.4919C21.3218 54.7546 16.6171 51.8746 11.953 48.8546C10.3302 55.1892 8.48794 62.4013 6.85674 68.7666L6.84367 68.8253C6.55207 70.1613 7.69634 71.7639 8.82394 72.6853C12.1817 75.4293 16.3239 78.4679 21.0693 81.2079C25.8145 83.9479 29.201 85.3039 32.5802 86.5719C33.7114 86.9959 34.9469 86.4132 35.2822 85.1786C35.2822 85.1786 38.7349 71.7439 40.3926 65.2746Z" fill="#2D2C30"/>
<path d="M38.1714 89.612L39.6615 90.472C40.0641 90.704 40.3907 90.4573 40.3907 89.9213V84.7573C40.3907 84.2213 40.0641 83.5973 39.6615 83.3653L37.1027 81.8866C36.7001 81.6546 36.3735 81.9013 36.3735 82.4387V86.176C36.3735 87.5 37.1787 89.0386 38.1714 89.612Z" fill="#C8C7C0"/>
<path d="M40.3906 89.9212V84.7572C40.3906 84.2212 40.064 83.5972 39.6614 83.3652L37.1026 81.8866C36.7136 81.6626 36.3958 81.8853 36.3745 82.3853C36.4073 81.5773 37.1838 80.9412 37.7636 80.9346L38.064 81.0212L40.6234 82.4986C41.026 82.7306 41.3521 83.3546 41.3521 83.8919V89.3652C41.3521 89.4932 41.3339 89.6039 41.3005 89.6959C41.0697 90.4066 40.3578 90.6519 39.8806 90.5532C40.176 90.5999 40.3906 90.3559 40.3906 89.9212Z" fill="#8C8984"/>
<defs>
<linearGradient id="paint0_linear_11_45313" x1="73.5254" y1="76.16" x2="80.0257" y2="87.4189" gradientUnits="userSpaceOnUse">
<stop stop-color="#BDB9A7"/>
<stop offset="0.461052" stop-color="#F1EEE2"/>
<stop offset="0.915106" stop-color="#F1EEE2"/>
<stop offset="1" stop-color="#D4CFBD"/>
</linearGradient>
</defs>
</svg>
