<svg width="110" height="116" viewBox="0 0 110 116" fill="none" xmlns="http://www.w3.org/2000/svg">
<path d="M21.3174 115.473L17.5374 113.373L55.7348 91.8518L47.9201 87.4011L9.95213 108.79L5.31079 105.816L43.5415 84.8064L31.7321 78.1838L42.2135 72.4984L14.1201 56.3104L16.1961 54.9851L44.3974 71.2344L37.7188 66.1091L18.6201 47.8411C17.7481 47.0891 17.8828 45.6998 18.8828 45.1291L34.4628 36.2411C35.7548 35.5038 37.1921 35.1358 38.6295 35.1358C40.1215 35.1358 41.6121 35.5318 42.9374 36.3238L67.4921 48.4544C67.2601 52.1131 67.1868 56.1945 67.3374 60.7251C67.0401 63.9745 66.7228 67.3518 66.3814 70.8184C66.2161 72.4824 66.7094 74.1905 66.9281 75.9638L68.6788 76.9704C68.3721 74.5184 68.1095 72.1771 67.9135 69.9225C67.6188 66.6678 67.4321 63.6065 67.3374 60.7251C67.7188 56.5505 68.0681 52.5878 68.3974 48.9011L80.0655 54.6651L78.6761 55.3078L109.336 73.6038L81.2041 90.7158L79.5641 89.7691C80.4708 88.5745 81.1601 87.2038 81.5241 85.8371L83.3468 86.7585C84.9521 81.8011 84.6948 77.2251 83.3001 74.5011L83.7801 73.8331L82.6348 73.4518C82.2281 72.9358 81.7641 72.5371 81.2495 72.2744C80.7188 72.0038 80.1281 71.8945 79.5215 71.8945C79.1268 71.8945 78.7241 71.9398 78.3268 72.0184L76.7988 71.5104L66.2081 79.1758L63.9254 77.8611V84.2371L65.7881 82.1491C65.1295 83.5571 64.7788 85.0491 64.8628 86.4078C65.0095 88.7571 66.4188 90.1064 68.3508 90.1064C68.9134 90.1064 69.5215 89.9918 70.1548 89.7531C70.2481 91.0251 70.7161 91.9971 71.4374 92.6145L64.0135 96.5651L59.4695 93.9771L21.3174 115.473Z" fill="#D5D5D3"/>
<path fill-rule="evenodd" clip-rule="evenodd" d="M104.199 59.5451V69.1971L94.6082 76.4157C94.6082 76.4157 94.8548 62.1678 104.199 59.5451Z" fill="#AD731D"/>
<path fill-rule="evenodd" clip-rule="evenodd" d="M91.7481 69.9931C91.9574 73.3518 94.7455 74.6651 97.9548 72.9184C101.164 71.1718 103.611 67.0064 103.401 63.6491C103.192 60.2891 100.404 58.9758 97.1948 60.7225C93.9854 62.4705 91.5388 66.6344 91.7481 69.9931Z" fill="#252326"/>
<path fill-rule="evenodd" clip-rule="evenodd" d="M106.891 63.6399L101.607 60.3666L103.273 63.6265L106.891 63.6399Z" fill="#252326"/>
<path fill-rule="evenodd" clip-rule="evenodd" d="M98.6027 76.4131L93.2881 73.1157L97.7734 71.0251L98.3214 74.8304L98.6027 76.4131Z" fill="#252326"/>
<path fill-rule="evenodd" clip-rule="evenodd" d="M97.0347 73.2692C97.244 76.6278 100.032 77.9425 103.241 76.1958C106.451 74.4478 108.897 70.2838 108.688 66.9252C108.479 63.5665 105.691 62.2518 102.481 63.9985C99.272 65.7465 96.8254 69.9105 97.0347 73.2692Z" fill="#1A181B"/>
<path fill-rule="evenodd" clip-rule="evenodd" d="M98.6628 72.3825C98.8135 74.8025 100.823 75.7505 103.135 74.4918C105.448 73.2318 107.211 70.2318 107.06 67.8118C106.909 65.3918 104.9 64.4438 102.588 65.7038C100.276 66.9625 98.5121 69.9625 98.6628 72.3825Z" fill="#100F0D"/>
<path fill-rule="evenodd" clip-rule="evenodd" d="M97.0347 73.2692C97.244 76.6278 100.032 77.9425 103.241 76.1958C106.451 74.4478 108.897 70.2838 108.688 66.9252C108.479 63.5665 105.691 62.2518 102.481 63.9985C99.272 65.7465 96.8254 69.9105 97.0347 73.2692Z" fill="#2A282A"/>
<path fill-rule="evenodd" clip-rule="evenodd" d="M97.6002 72.9624C97.7882 75.9957 100.307 77.1824 103.204 75.6037C106.103 74.0264 108.312 70.2651 108.124 67.2317C107.935 64.1984 105.416 63.0117 102.519 64.5904C99.6202 66.1677 97.4108 69.9277 97.6002 72.9624Z" fill="#1C1A1C"/>
<path fill-rule="evenodd" clip-rule="evenodd" d="M98.9935 72.2038C99.1322 74.4332 100.983 75.3065 103.114 74.1465C105.244 72.9865 106.869 70.2211 106.731 67.9905C106.591 65.7611 104.74 64.8878 102.609 66.0478C100.479 67.2078 98.8535 69.9732 98.9935 72.2038Z" fill="#363535"/>
<path fill-rule="evenodd" clip-rule="evenodd" d="M99.2681 71.7692C99.3907 73.7372 101.024 74.5078 102.905 73.4838C104.787 72.4598 106.22 70.0185 106.099 68.0505C105.975 66.0811 104.341 65.3105 102.46 66.3345C100.579 67.3585 99.1454 69.7998 99.2681 71.7692Z" fill="#D18C21"/>
<path fill-rule="evenodd" clip-rule="evenodd" d="M99.3747 71.7104C99.4934 73.6171 101.076 74.3638 102.899 73.3718C104.72 72.3798 106.109 70.0145 105.991 68.1091C105.872 66.2011 104.289 65.4544 102.467 66.4464C100.645 67.4398 99.2561 69.8038 99.3747 71.7104Z" fill="#A3551E"/>
<path fill-rule="evenodd" clip-rule="evenodd" d="M99.58 71.5985C99.6906 73.3878 101.176 74.0878 102.885 73.1571C104.595 72.2265 105.897 70.0092 105.785 68.2198C105.675 66.4305 104.189 65.7305 102.48 66.6612C100.772 67.5918 99.468 69.8091 99.58 71.5985Z" fill="#D18C21"/>
<path fill-rule="evenodd" clip-rule="evenodd" d="M99.7654 71.5052C99.8708 73.1799 101.257 73.8372 102.881 72.9706C104.48 72.0812 105.72 70.0132 105.615 68.3159C105.512 66.6852 104.168 66.0092 102.607 66.8105L102.499 66.8492C101.047 67.6145 99.9201 69.3772 99.7974 70.9506C99.7641 71.1266 99.7548 71.3265 99.7654 71.5052Z" fill="#E8B80E"/>
<path fill-rule="evenodd" clip-rule="evenodd" d="M99.7974 70.9505C100.104 71.6132 100.887 71.7905 101.761 71.3051C102.893 70.7011 103.753 69.2572 103.679 68.0732C103.631 67.2918 103.205 66.8451 102.607 66.8105L102.499 66.8491C101.047 67.6145 99.92 69.3772 99.7974 70.9505Z" fill="#D18C21"/>
<path d="M66.6909 26.4372L76.6469 20.6919V36.5518L66.6909 42.3092V26.4372Z" fill="#EDC021"/>
<path d="M70.8735 23.9105L98.7362 40.6278L93.9069 43.5291L66.6909 26.4372L70.8735 23.9105Z" fill="#7D7F80"/>
<path d="M44.5267 55.1252L42.8 56.1225V55.1252H44.5267Z" fill="#EDC021"/>
<path fill-rule="evenodd" clip-rule="evenodd" d="M32.4573 67.7839C32.6667 71.1425 35.4546 72.4559 38.664 70.7092C41.8733 68.9625 44.32 64.7985 44.1106 61.4399C43.9013 58.0799 41.1133 56.7665 37.9039 58.5132C34.6946 60.2598 32.248 64.4252 32.4573 67.7839Z" fill="#252326"/>
<path fill-rule="evenodd" clip-rule="evenodd" d="M47.6001 61.4305L42.3162 58.1571L43.9828 61.4172L47.6001 61.4305Z" fill="#121111"/>
<path fill-rule="evenodd" clip-rule="evenodd" d="M39.3136 74.2038L33.9976 70.9065L38.4829 68.8158L39.0309 72.6225L39.3136 74.2038Z" fill="#252326"/>
<path fill-rule="evenodd" clip-rule="evenodd" d="M37.7439 71.0599C37.9533 74.4186 40.7412 75.7333 43.9506 73.9866C47.1599 72.2386 49.6066 68.0746 49.3973 64.7159C49.1879 61.3572 46.4 60.0426 43.1906 61.7893C39.9813 63.5373 37.5346 67.7012 37.7439 71.0599Z" fill="#1A181B"/>
<path fill-rule="evenodd" clip-rule="evenodd" d="M39.3734 70.1732C39.5241 72.5932 41.5321 73.5412 43.8441 72.2825C46.1574 71.0225 47.9201 68.0225 47.7694 65.6025C47.6188 63.1825 45.6094 62.2345 43.2974 63.4945C40.9854 64.7532 39.2214 67.7532 39.3734 70.1732Z" fill="#100F0D"/>
<path fill-rule="evenodd" clip-rule="evenodd" d="M37.7439 71.0599C37.9533 74.4186 40.7412 75.7333 43.9506 73.9866C47.1599 72.2386 49.6066 68.0746 49.3973 64.7159C49.1879 61.3572 46.4 60.0426 43.1906 61.7893C39.9813 63.5373 37.5346 67.7012 37.7439 71.0599Z" fill="#2A282A"/>
<path fill-rule="evenodd" clip-rule="evenodd" d="M38.3094 70.7532C38.4974 73.7852 41.0161 74.9732 43.9134 73.3945C46.8121 71.8172 49.0228 68.0558 48.8334 65.0225C48.6441 61.9892 46.1268 60.8025 43.2281 62.3812C40.3294 63.9585 38.1201 67.7198 38.3094 70.7532Z" fill="#1C1A1C"/>
<path fill-rule="evenodd" clip-rule="evenodd" d="M39.7026 69.9945C39.8413 72.2238 41.6919 73.0971 43.8226 71.9371C45.9532 70.7771 47.5786 68.0118 47.4399 65.7824C47.2999 63.5518 45.4493 62.6784 43.3186 63.8384C41.1879 64.9984 39.5639 67.7638 39.7026 69.9945Z" fill="#363535"/>
<path fill-rule="evenodd" clip-rule="evenodd" d="M39.9775 69.5598C40.1002 71.5278 41.7335 72.2985 43.6148 71.2745C45.4962 70.2505 46.9309 67.8091 46.8082 65.8411C46.6855 63.8718 45.0509 63.1012 43.1695 64.1252C41.2882 65.1492 39.8549 67.5905 39.9775 69.5598Z" fill="#CFCECD"/>
<path fill-rule="evenodd" clip-rule="evenodd" d="M40.084 69.5012C40.2026 71.4079 41.7853 72.1545 43.608 71.1625C45.4307 70.1705 46.8187 67.8065 46.7 65.8985C46.5813 63.9919 44.9986 63.2452 43.176 64.2372C41.3546 65.2292 39.9653 67.5946 40.084 69.5012Z" fill="#9C9A97"/>
<path fill-rule="evenodd" clip-rule="evenodd" d="M40.2894 69.3891C40.4001 71.1784 41.8854 71.8784 43.5948 70.9478C45.3041 70.0171 46.6068 67.7984 46.4948 66.0104C46.3841 64.2211 44.8988 63.5211 43.1894 64.4517C41.4814 65.3824 40.1774 67.6011 40.2894 69.3891Z" fill="#CFCECD"/>
<path fill-rule="evenodd" clip-rule="evenodd" d="M40.4762 69.2958C40.5802 70.9705 41.9669 71.6279 43.5895 70.7612C45.1895 69.8705 46.4296 67.8039 46.3242 66.1065C46.2216 64.4759 44.8775 63.7985 43.3175 64.6012L43.2082 64.6399C41.7562 65.4052 40.6295 67.1678 40.5069 68.7412C40.4735 68.9172 40.4642 69.1172 40.4762 69.2958Z" fill="#75716F"/>
<path fill-rule="evenodd" clip-rule="evenodd" d="M40.5068 68.7411C40.8135 69.4038 41.5962 69.5811 42.4708 69.0958C43.6028 68.4918 44.4615 67.0478 44.3882 65.8638C44.3402 65.0825 43.9148 64.6345 43.3175 64.6011L43.2082 64.6398C41.7562 65.4051 40.6295 67.1678 40.5068 68.7411Z" fill="#CFCECD"/>
<path d="M39.4722 53.8226L43.9655 56.8105L79.0082 47.3239V37.8319C79.0082 36.8679 78.6455 36.0132 78.0815 35.3759C76.9895 34.1585 75.1135 33.2985 73.5135 34.2265L39.4722 53.8226Z" fill="#FAE13A"/>
<path d="M63.9253 77.8612L67.6813 80.0252L63.9253 84.2372V77.8612Z" fill="#AD731D"/>
<path fill-rule="evenodd" clip-rule="evenodd" d="M83.3469 86.7585L71.0815 80.5639L74.1522 73.8131C74.1522 73.8131 78.4936 70.8678 81.2496 72.2745C84.2296 73.7945 85.5629 79.9132 83.3469 86.7585Z" fill="#AD731D"/>
<path d="M43.7095 62.0145L63.9255 73.8118V84.2372L43.7095 72.4398V62.0145Z" fill="#905B1D"/>
<path d="M98.7361 40.6279L103.925 53.6078L70.6628 72.8412V56.9452L98.7361 40.6279Z" fill="#242322"/>
<path d="M50.608 11.2666L63.2373 3.97854C63.4133 3.86921 63.5653 3.82522 63.7186 3.82522C64.1346 3.82522 64.7267 4.15319 64.7267 4.83186V37.9265L44.764 49.6585C42.9253 25.7785 48.9893 13.9599 50.608 11.2666ZM44.7199 56.0705L70.4173 40.9905V5.35718C70.4173 3.60652 69.6066 2.11852 68.4039 1.15451L68.1839 1.02385L68.1627 0.979839C66.5427 -0.136162 64.3319 -0.398792 62.3839 0.717209L48.8573 8.53056C48.8573 8.53056 44.4213 27.1825 44.7199 56.0705Z" fill="#2B2929"/>
<path d="M69.4614 4.33055C69.4614 3.11322 69.0534 2.03588 68.4094 1.16122C69.6094 2.12389 70.4174 3.60918 70.4174 5.35718V40.9905L44.7201 56.0705C44.6761 55.5492 44.6547 55.0612 44.6147 54.5465L69.4614 39.9652V4.33055Z" fill="#343333"/>
<path d="M63.7708 3.83451C64.1828 3.85985 64.7268 4.17984 64.7268 4.83184V37.9265L44.7641 49.6585C44.7241 49.1305 44.7068 48.6398 44.6748 48.1238L63.7708 36.8999V3.83451Z" fill="#343333"/>
<path d="M43.3281 52.5705L70.0868 68.1705L93.9068 54.6438L67.1468 39.0438L43.3281 52.5705Z" fill="#161413"/>
<path d="M67.1467 23.1478L93.9067 38.7478V54.6438L67.1467 39.0438V23.1478Z" fill="#1D1B1A"/>
<path d="M92.3974 40.2571L67.1467 25.5371V23.1478L93.9067 38.7478V54.6438L92.3974 53.7638V40.2571Z" fill="#7D7F80"/>
<path d="M58.2214 48.5238V49.8559C58.2067 50.3905 58.436 50.9425 58.9706 51.2479L68.016 56.4212C69.1334 57.0492 70.5107 57.0492 71.628 56.4065L83.1066 49.7785V32.8212C83.1066 31.4132 82.356 30.1132 81.132 29.4092L71.888 24.0212C71.0774 23.5318 68.8733 24.8638 68.8733 25.8118L70.052 42.2492L64.664 45.3559L59.8747 48.1252L58.2214 48.5238Z" fill="#4C4E52"/>
<path d="M58.2214 48.5238V49.8559C58.2067 50.3905 58.436 50.9425 58.9706 51.2479L68.016 56.4212C69.1334 57.0492 70.5107 57.0492 71.628 56.4065L83.1066 49.7785V48.3878L81.8747 49.0892L59.8747 48.1252L58.2214 48.5238Z" fill="#4C4E52"/>
<path d="M77.1241 37.7372L69.0081 27.7438L68.8694 25.8092C68.8694 24.8638 71.0707 23.5398 71.8867 24.0145L81.1387 29.4092C82.3534 30.1158 83.0987 31.4158 83.0987 32.8198L81.3494 33.7851L77.1241 37.7372Z" fill="#7E7F81"/>
<path d="M70.6628 25.0892L79.9147 30.4825C81.1281 31.1905 81.8748 32.4905 81.8748 33.8945V49.0892L68.8228 41.5639V26.1465C68.8228 25.2025 69.8468 24.6145 70.6628 25.0892Z" fill="#3B3B40"/>
<path d="M81.8749 49.0891L71.6375 54.9904C70.5188 55.6358 69.1402 55.6385 68.0189 54.9971L58.9722 49.8238C57.9722 49.2518 57.9696 47.8104 58.9682 47.2344L68.8228 41.5638L81.8749 49.0891Z" fill="#5C5F61"/>
<path d="M62.384 2.72384L70.4174 7.38517L85.8694 16.3812H91.2321L68.404 3.16121L68.184 3.03054L68.1627 2.98653C66.7454 2.0092 64.1347 0.0345306 62.384 0.717196V2.72384Z" fill="#1E1C1B"/>
<path d="M48.9068 14.6185C49.0561 13.5038 50.3494 12.9811 51.3868 13.1465C51.6668 13.1851 51.9388 13.2718 52.2001 13.4278C55.2214 15.1892 60.6548 18.3478 64.3841 20.5065C65.0241 20.8852 65.6148 21.2332 66.1374 21.5332C67.3868 22.2598 67.5988 23.7052 67.3575 25.1278C66.4415 30.5398 65.6548 39.8985 62.7281 55.9945C62.4121 57.7292 58.3108 58.3092 52.7814 55.6558C46.1268 52.4505 45.1188 49.2305 45.2161 48.2465C47.1908 28.3358 48.1868 19.9958 48.9068 14.6185ZM43.9655 63.8252L67.1614 77.8612C67.5721 40.5318 72.3321 22.1905 72.3321 22.1905L48.8468 8.53052C48.8468 8.53052 43.6161 22.6105 43.9655 63.8252Z" fill="#131211"/>
<path d="M50.4281 13.7318C49.6041 19.1945 48.8494 29.1225 46.7387 47.3585C46.6241 48.3425 47.6481 51.5625 54.3027 54.7692C57.7627 56.4292 60.7907 56.8345 62.5707 56.4732C61.8134 57.8252 57.76 58.0452 52.7814 55.6558C46.1267 52.4505 45.1507 49.2331 45.2161 48.2465C46.4041 30.5398 47.96 20.0491 48.9067 14.6185C49.06 13.7345 49.9521 13.2572 50.7628 13.1558C50.6321 13.3305 50.4627 13.5025 50.4281 13.7318Z" fill="#343333"/>
<path d="M64.8466 2.14646L53.7506 8.50512L51.3213 7.10382L62.3839 0.717166C64.3319 -0.398834 66.5426 -0.136204 68.1626 0.979796L68.1839 1.02381L68.4039 1.15447L91.232 14.3758H85.8693L70.4173 5.3798L64.8466 2.14646Z" fill="#343333"/>
<path d="M51.3214 7.10384L72.348 19.3758L83.396 12.9518L85.8694 14.3758L74.764 20.7838L72.3347 22.1852L48.8494 8.52786L51.3214 7.10384Z" fill="#343333"/>
<path d="M66.3814 70.8184C66.2161 72.4824 66.7094 74.1905 66.9281 75.9638L68.6787 76.9704C68.3721 74.5184 68.1094 72.1771 67.9134 69.9224C64.6081 33.3265 74.8948 20.8504 74.8948 20.8504L74.7641 20.7838L72.3348 22.1851L72.3121 22.2064L72.2028 22.3824C72.1161 22.4917 71.9841 22.6664 71.8521 22.9064C69.9921 25.9931 68.8227 46.0384 66.3814 70.8184Z" fill="#7D7F80"/>
<path d="M74.0854 24.9212L86.7361 17.6318C86.8894 17.5452 87.0427 17.4785 87.2174 17.4785C87.6121 17.4785 88.2028 17.8078 88.2028 18.4852V51.6012L68.2628 63.3119C70.6015 38.5639 72.4654 27.6132 74.0854 24.9212ZM65.9214 71.0825L66.3801 70.8185L67.9121 69.9225L93.9161 54.6438V19.0332C93.9161 14.8959 89.4508 12.3132 85.8614 14.3932L74.7641 20.7839L72.3348 22.1852L72.3121 22.2065L72.2028 22.3825C72.1161 22.4918 71.9841 22.6665 71.8521 22.9078C69.7734 26.1905 65.4974 51.9798 65.9214 71.0825Z" fill="#2B2929"/>
<path d="M86.7308 17.6291C86.8935 17.5344 87.0521 17.4891 87.2148 17.4891C87.6148 17.4891 88.2068 17.8038 88.2068 18.4811V51.5931L68.2575 63.3144C68.1975 62.5331 68.1681 61.7997 68.1228 61.0437L86.0535 50.5091V18.0198L86.7308 17.6291Z" fill="#343333"/>
<path fill-rule="evenodd" clip-rule="evenodd" d="M64.8627 86.4078C65.072 89.7652 67.86 91.0799 71.0693 89.3332C74.2787 87.5852 76.7253 83.4212 76.516 80.0639C76.3067 76.7039 73.5186 75.3892 70.3093 77.1372C67.1 78.8839 64.6547 83.0478 64.8627 86.4078Z" fill="#252326"/>
<path fill-rule="evenodd" clip-rule="evenodd" d="M80.0053 80.0532L74.7227 76.7812L76.388 80.0398L80.0053 80.0532Z" fill="#252326"/>
<path fill-rule="evenodd" clip-rule="evenodd" d="M71.7188 92.8279L66.4028 89.5305L70.8882 87.4385L71.4362 91.2452L71.7188 92.8279Z" fill="#252326"/>
<path fill-rule="evenodd" clip-rule="evenodd" d="M70.1495 89.6838C70.3589 93.0424 73.1482 94.3558 76.3562 92.6091C79.5655 90.8624 82.0122 86.6971 81.8029 83.3398C81.5935 79.9798 78.8056 78.6664 75.5962 80.4131C72.3882 82.1597 69.9415 86.3251 70.1495 89.6838Z" fill="#1A181B"/>
<path fill-rule="evenodd" clip-rule="evenodd" d="M71.7774 88.7972C71.9294 91.2172 73.9387 92.1638 76.2494 90.9051C78.5627 89.6464 80.3254 86.6452 80.1747 84.2252C80.024 81.8065 78.0147 80.8585 75.7027 82.1172C73.3907 83.3758 71.6281 86.3772 71.7774 88.7972Z" fill="#100F0D"/>
<path fill-rule="evenodd" clip-rule="evenodd" d="M70.1495 89.6838C70.3589 93.0424 73.1482 94.3558 76.3562 92.6091C79.5655 90.8624 82.0122 86.6971 81.8029 83.3398C81.5935 79.9798 78.8056 78.6664 75.5962 80.4131C72.3882 82.1597 69.9415 86.3251 70.1495 89.6838Z" fill="#2A282A"/>
<path fill-rule="evenodd" clip-rule="evenodd" d="M70.7147 89.3771C70.904 92.4091 73.4214 93.5971 76.3187 92.0184C79.2174 90.4398 81.4267 86.6797 81.2387 83.6464C81.0494 80.6131 78.5307 79.4264 75.6334 81.0038C72.7347 82.5824 70.5254 86.3424 70.7147 89.3771Z" fill="#1C1A1C"/>
<path fill-rule="evenodd" clip-rule="evenodd" d="M72.1081 88.6185C72.2468 90.8479 74.0974 91.7199 76.2281 90.5599C78.3601 89.3999 79.9841 86.6345 79.8454 84.4052C79.7068 82.1745 77.8548 81.3026 75.7241 82.4626C73.5935 83.6226 71.9694 86.3865 72.1081 88.6185Z" fill="#363535"/>
<path fill-rule="evenodd" clip-rule="evenodd" d="M72.3828 88.1824C72.5055 90.1517 74.1401 90.9224 76.0201 89.8984C77.9014 88.8731 79.3361 86.4331 79.2135 84.4638C79.0908 82.4958 77.4561 81.7251 75.5748 82.7491C73.6935 83.7731 72.2601 86.2144 72.3828 88.1824Z" fill="#D18C21"/>
<path fill-rule="evenodd" clip-rule="evenodd" d="M72.4895 88.1252C72.6082 90.0319 74.1922 90.7772 76.0135 89.7865C77.8362 88.7945 79.2242 86.4292 79.1055 84.5226C78.9868 82.6159 77.4042 81.8692 75.5815 82.8612C73.7602 83.8532 72.3708 86.2172 72.4895 88.1252Z" fill="#A3551E"/>
<path fill-rule="evenodd" clip-rule="evenodd" d="M72.6947 88.0131C72.8067 89.8011 74.2907 90.5011 76 89.5704C77.7094 88.6411 79.012 86.4224 78.9 84.6344C78.7894 82.8451 77.304 82.1451 75.5947 83.0758C73.8867 84.0064 72.5827 86.2237 72.6947 88.0131Z" fill="#D18C21"/>
<path fill-rule="evenodd" clip-rule="evenodd" d="M72.8815 87.9199C72.9855 89.5945 74.4028 90.3065 75.9962 89.3852C77.6148 88.4478 78.8895 86.4652 78.7295 84.7292C78.5788 83.1025 77.2828 82.4225 75.7228 83.2252L75.6148 83.2639C74.1615 84.0279 73.0348 85.7905 72.9135 87.3652C72.8802 87.5412 72.8695 87.7399 72.8815 87.9199Z" fill="#E8B80E"/>
<path fill-rule="evenodd" clip-rule="evenodd" d="M72.9136 87.3651C73.2189 88.0278 74.0029 88.2038 74.8762 87.7198C76.0082 87.1145 76.8683 85.6704 76.7936 84.4878C76.7456 83.7064 76.3202 83.2585 75.7229 83.2251L75.6149 83.2638C74.1615 84.0278 73.0349 85.7904 72.9136 87.3651Z" fill="#D18C21"/>
<path d="M67.256 79.7798L66.208 79.1758L76.7987 71.5104L78.3267 72.0184C76.1694 72.4438 74.152 73.8131 74.152 73.8131L72.9907 76.3638C72.1707 76.3705 71.2586 76.6198 70.3093 77.1371C69.1666 77.7598 68.12 78.6891 67.256 79.7798ZM83.3 74.5011C83.1 74.1118 82.8787 73.7611 82.6347 73.4518L83.78 73.8331L83.3 74.5011Z" fill="#7F6953"/>
<path d="M66.6201 80.6611L65.6775 79.5597L66.2082 79.1758L67.2561 79.7797C67.0308 80.0637 66.8188 80.3571 66.6201 80.6611Z" fill="#6A3A18"/>
<path d="M80.6267 80.5078C80.4374 80.3304 80.2293 80.1785 80.004 80.0532H80.0054L74.9934 76.9491C74.4454 76.5651 73.7761 76.3638 73.0294 76.3638C73.0161 76.3638 73.0041 76.3638 72.9907 76.3638L74.1521 73.8131C74.1521 73.8131 76.1694 72.4438 78.3267 72.0185L82.6347 73.4518C82.8787 73.7611 83.1 74.1118 83.3 74.5011L82.1947 76.0332L80.6267 80.5078Z" fill="#6A3A18"/>
<path d="M69.0975 83.5532L66.6201 80.6612C66.8188 80.3572 67.0308 80.0638 67.2561 79.7798C68.1201 78.6892 69.1668 77.7598 70.3094 77.1372C71.2588 76.6198 72.1708 76.3705 72.9908 76.3639C73.0042 76.3639 73.0162 76.3639 73.0295 76.3639C73.7762 76.3639 74.4455 76.5652 74.9935 76.9492L74.7228 76.7812L75.7682 78.8279C74.5375 78.8412 73.2188 79.0479 72.6882 79.7919C71.5762 81.3479 69.0975 83.5532 69.0975 83.5532Z" fill="#1B1716"/>
<path d="M80.0053 80.0532H80.004C79.904 79.9972 79.7987 79.9465 79.692 79.9025L78.3533 79.0305C78.3533 79.0305 77.1894 78.8279 75.896 78.8279C75.8534 78.8279 75.8107 78.8279 75.768 78.8279L74.7227 76.7812L74.9934 76.9492L80.0053 80.0532Z" fill="#1B1716"/>
<path d="M80.6255 80.5105L79.6921 79.9025C80.0388 80.0465 80.3535 80.2505 80.6268 80.5078L80.6255 80.5105Z" fill="#1D1816"/>
<path d="M70.0908 72.0425L70.6215 77.4705L81.2495 72.2745C81.6695 72.7038 82.7281 78.9665 82.7281 78.9665L83.3468 86.7585L90.1962 82.7972L94.2682 80.4332L95.9721 79.4491V71.9065L103.995 60.4425L105.045 59.8945L104.017 52.4745L70.0908 72.0425Z" fill="#F9AF0B"/>
<path d="M70.0442 81.3491L46.3735 67.2238L39.2615 54.0598L70.0868 72.0491L70.0442 81.3491Z" fill="#905B1D"/>
<path d="M101.303 55.2772L100.38 55.7985L97.9053 63.2279L98.8279 62.7052L101.303 55.2772Z" fill="#131211"/>
<path d="M99.3695 56.3491L98.4468 56.8717L95.9722 64.2998L96.8948 63.7784L99.3695 56.3491Z" fill="#131211"/>
<path d="M97.4361 57.4225L96.5147 57.9438L94.04 65.3731L94.9614 64.8518L97.4361 57.4225Z" fill="#131211"/>
<path d="M95.504 58.4959L94.5814 59.0185L92.1067 66.4465L93.0294 65.9238L95.504 58.4959Z" fill="#131211"/>
<path d="M47.3481 15.9158L46.1628 16.6118L49.7575 18.7678L50.9442 18.0718L47.3481 15.9158Z" fill="#7D7F80"/>
<path d="M89.5054 32.2693L92.6961 28.4426V23.6399L89.5054 27.4679V32.2693Z" fill="#F3B60C"/>
<path d="M89.5054 41.7252L92.6961 37.8972V33.0945L89.5054 36.9225V41.7252Z" fill="#F3B60C"/>
<path d="M89.5054 51.1798L92.6961 47.3518V42.5491L89.5054 46.3771V51.1798Z" fill="#F3B60C"/>
<path d="M75.7227 17.5679L74.9773 18.0012L56.584 7.02521L57.2934 6.56786L75.7227 17.5679Z" fill="#343333"/>
<path d="M74.9773 18.0012L74.1 18.3571L56.584 7.8785V7.02518L74.9773 18.0012Z" fill="#1E1C1B"/>
<path d="M80.5269 14.7611L79.7815 15.1958L61.3882 4.21843L62.0989 3.76114L80.5269 14.7611Z" fill="#343333"/>
<path d="M79.7815 15.1957L78.9041 15.5517L61.3882 5.07308V4.21839L79.7815 15.1957Z" fill="#1E1C1B"/>
<path d="M75.3082 19.3478H75.3109V18.2865H74.6296L74.4229 18.1411C73.2509 17.4624 71.3642 17.4531 70.2095 18.1198L69.9735 18.2865H69.3535V19.3478H69.3562C69.3682 19.7838 69.6629 20.2198 70.2415 20.5544C71.4149 21.2331 73.3002 21.2424 74.4549 20.5758C75.0389 20.2398 75.3215 19.7945 75.3082 19.3478Z" fill="#1D1B1A"/>
<path d="M75.3081 18.2865H75.3107L74.8067 13.1225H69.8587L69.3601 18.2252L69.3547 18.2812V18.2865H69.356C69.368 18.7225 69.6627 19.1585 70.2414 19.4945C71.4147 20.1732 73.3001 20.1825 74.4547 19.5158C75.0387 19.1785 75.3214 18.7332 75.3081 18.2865Z" fill="#C86A29"/>
<path d="M70.552 17.2571C71.52 16.6971 73.1027 16.7051 74.0867 17.2744C75.0693 17.8438 75.0813 18.7585 74.112 19.3171C73.144 19.8771 71.5613 19.8678 70.5786 19.2998C69.5946 18.7305 69.5827 17.8158 70.552 17.2571Z" fill="#BA4B1F"/>
<path d="M73.6094 14.5691C72.9827 13.4838 71.9574 13.4971 71.3188 14.5997C70.6801 15.7011 70.6721 17.4757 71.2988 18.5624C71.9268 19.649 72.9521 19.6344 73.5894 18.5317C74.2281 17.4304 74.2374 15.6558 73.6094 14.5691Z" fill="#BC4120"/>
<path d="M70.5615 19.1745C71.0188 19.4385 71.5855 19.5985 72.1748 19.6585L72.2668 19.5745C72.3655 19.4532 72.4628 19.3239 72.5508 19.1705C73.3961 17.7105 73.4081 15.3599 72.5775 13.9225C72.3721 13.5652 72.1335 13.3012 71.8801 13.1225H70.2841L70.1721 13.2158L70.1348 13.2572L69.6801 17.9052L69.6748 17.9612V17.9665H69.6761C69.6881 18.4025 69.9828 18.8385 70.5615 19.1745Z" fill="#DF691B"/>
<path d="M72.1161 15.1105C71.6588 14.3185 70.9107 14.3279 70.4454 15.1319C69.9801 15.9359 69.9734 17.2305 70.4308 18.0212C70.8881 18.8132 71.6361 18.8039 72.1015 17.9999C72.5668 17.1959 72.5734 15.9025 72.1161 15.1105Z" fill="#DD9615"/>
<path d="M70.5694 12.1026C71.5294 11.5492 73.0947 11.5572 74.0681 12.1199C75.0414 12.6839 75.0534 13.5892 74.0947 14.1425C73.136 14.6972 71.5694 14.6892 70.5961 14.1252C69.6227 13.5626 69.6107 12.6559 70.5694 12.1026Z" fill="#EBA138"/>
<path d="M54.9854 21.9677L58.58 24.1237V81.4131L54.9854 79.2558V21.9677Z" fill="#AD731D"/>
<path d="M43.9653 15.4892L47.56 17.6438V74.9332L43.9653 72.7771V15.4892Z" fill="#AD731D"/>
<path d="M48.7467 16.9478L47.5601 17.6438V74.9332L48.7467 74.2359V16.9478Z" fill="#EDC11E"/>
<path d="M59.7667 23.4278L58.5801 24.1237V81.4131L59.7667 80.7157V23.4278Z" fill="#EDC11E"/>
<path d="M60.3188 23.1638L58.3989 24.3918L43.7349 15.6332L45.6549 14.4038L60.3188 23.1638Z" fill="#F5E63C"/>
<path d="M58.3989 24.3918V28.2518L43.7349 19.4918V15.6332L58.3989 24.3918Z" fill="#AD731D"/>
<path d="M60.3189 23.1638V27.0225L58.3989 28.2518V24.3918L60.3189 23.1638Z" fill="#EDC11E"/>
<path d="M54.52 71.6318L58.4654 73.9985V90.1798L54.52 87.8131V71.6318Z" fill="#242322"/>
<path d="M42.4268 64.5225L46.3734 66.8878V83.0692L42.4268 80.7038V64.5225Z" fill="#242322"/>
<path d="M47.6749 66.1238L46.3735 66.8878V83.0692L47.6749 82.3051V66.1238Z" fill="#161413"/>
<path d="M59.7666 73.2345L58.4653 73.9985V90.1798L59.7666 89.4158V73.2345Z" fill="#161413"/>
<path d="M55.8214 70.8678L54.52 71.6318L58.4654 73.9985L59.7667 73.2345L55.8214 70.8678Z" fill="#7D7F80"/>
<path d="M43.7294 63.7585L42.4268 64.5225L46.3734 66.8878L47.6747 66.1238L43.7294 63.7585Z" fill="#7D7F80"/>
<path d="M15.3975 108.846L19.4188 111.081L58.5415 88.5398L54.5201 86.3038L15.3975 108.846Z" fill="#5B5C5E"/>
<path d="M19.4082 112.591L19.4189 111.081L58.5415 88.5399L58.5296 90.0492L19.4082 112.591Z" fill="#434345"/>
<path d="M15.3867 110.356L15.3974 108.847L19.4187 111.081L19.4081 112.591L15.3867 110.356Z" fill="#BEBDBB"/>
<path d="M3.29346 103.245L3.30544 101.737L7.32679 103.971L7.31475 105.48L3.29346 103.245Z" fill="#BEBDBB"/>
<path d="M3.30542 101.737L7.32677 103.97L46.4481 81.4291L42.4268 79.1945L3.30542 101.737Z" fill="#5B5C5E"/>
<path d="M7.3147 105.48L7.32674 103.971L46.448 81.4292L46.4374 82.9385L7.3147 105.48Z" fill="#434345"/>
<path d="M62.0187 79.0305L60.6227 79.7918L39.2881 67.0478L40.6854 66.2865L62.0187 79.0305Z" fill="#F5E63C"/>
<path d="M60.6227 79.7918V85.4065L39.2881 72.6638V67.0478L60.6227 79.7918Z" fill="#AD731D"/>
<path d="M62.0188 79.0305V84.6451L60.6228 85.4065V79.7918L62.0188 79.0305Z" fill="#EDC11E"/>
<path d="M54.9854 71.3025V72.5105L47.5454 68.0678L48.6028 67.4892L54.9854 71.3025Z" fill="#F5E63C"/>
<path d="M54.9854 72.5104V74.3491L47.5454 69.9051V68.0678L54.9854 72.5104Z" fill="#AD731D"/>
<path d="M54.9854 61.7318V62.9398L47.5454 58.4958L48.6028 57.9171L54.9854 61.7318Z" fill="#F5E63C"/>
<path d="M54.9854 62.9399V64.7785L47.5454 60.3345V58.4959L54.9854 62.9399Z" fill="#AD731D"/>
<path d="M54.9854 52.1597V53.3691L47.5454 48.9251L48.6028 48.3464L54.9854 52.1597Z" fill="#F5E63C"/>
<path d="M54.9854 53.3692V55.2065L47.5454 50.7639V48.9252L54.9854 53.3692Z" fill="#AD731D"/>
<path d="M54.9854 42.5892V43.7972L47.5454 39.3532L48.6028 38.7745L54.9854 42.5892Z" fill="#F5E63C"/>
<path d="M54.9854 43.7972V45.6358L47.5454 41.1918V39.3532L54.9854 43.7972Z" fill="#AD731D"/>
<path d="M54.9854 33.0185V34.2265L47.5454 29.7825L48.6028 29.2039L54.9854 33.0185Z" fill="#F5E63C"/>
<path d="M54.9854 34.2265V36.0652L47.5454 31.6198V29.7825L54.9854 34.2265Z" fill="#AD731D"/>
<path d="M48.9282 18.8064L46.9656 21.4731L44.8389 20.2451L46.8016 17.5798L48.9282 18.8064Z" fill="#131211"/>
<path d="M53.1121 21.2225L51.1495 23.8891L49.0242 22.6611L50.9868 19.9958L53.1121 21.2225Z" fill="#131211"/>
<path d="M57.2975 23.6398L55.3349 26.3051L53.2095 25.0785L55.1722 22.4132L57.2975 23.6398Z" fill="#131211"/>
<path d="M69.0974 83.5532L70.4988 82.7479L71.4548 77.4705L69.0974 78.8585V83.5532Z" fill="#FBC020"/>
<path d="M80.1706 73.0958L69.3453 79.5332L69.0973 79.6798L63.856 76.6731L64.1146 76.5198L64.1653 76.4892L80.1706 72.2744V73.0958Z" fill="#FBC020"/>
<path d="M84.804 74.0424L80.1706 73.0958L74.9307 70.0785L84.804 73.2198V74.0424Z" fill="#FBC020"/>
<path d="M63.856 75.8411L69.0973 78.8585V83.5532L63.856 80.5452V75.8411Z" fill="#AD731D"/>
<path d="M80.1706 72.2744L69.3453 78.7118L69.0973 78.8585L63.856 75.8518L64.1146 75.6985L64.1653 75.6678L74.9306 69.2571L80.1706 72.2744Z" fill="#FAE13A"/>
<path d="M84.804 73.2198L80.1706 72.2744L74.9307 69.2571L79.5654 70.2038L84.804 73.2198Z" fill="#FAE13A"/>
<path d="M64.6787 77.9571V79.4664C64.6787 79.7518 64.8334 80.0158 65.0801 80.1584L67.784 81.7184C68.0027 81.8424 68.2747 81.6837 68.2747 81.4317V81.2517L66.0107 79.9491C65.7641 79.8064 65.6094 79.5424 65.6094 79.2571V77.9278L65.1681 77.6757C64.9508 77.5504 64.6787 77.7091 64.6787 77.9571Z" fill="#7F4A1B"/>
<path d="M65.6094 77.9278V79.2571C65.6094 79.5425 65.7641 79.8065 66.0107 79.9491L68.2747 81.2518V79.9278C68.2747 79.6385 68.1201 79.3745 67.8721 79.2318L65.6094 77.9278Z" fill="#CFCECD"/>
<path d="M67.172 70.3212L63.856 75.8412L104.017 52.4745L101.099 50.7399L67.172 70.3212Z" fill="#FAE13A"/>
<path d="M35.6228 64.2693L43.9655 62.2372V57.6319L35.6228 59.5759V64.2693Z" fill="#F9AF0B"/>
<path d="M43.9654 57.6318L35.872 60.2491L35.6227 60.3972L30.3813 57.3892L30.64 57.2359L30.692 57.2065L43.9654 56.8105V57.6318Z" fill="#F9AF0B"/>
<path d="M30.3813 56.5586L35.6227 59.5759V64.2693L30.3813 61.2626V56.5586Z" fill="#AD731D"/>
<path d="M43.9654 56.8105L35.872 59.4279L35.6227 59.5759L30.3813 56.5679L30.64 56.4146L30.692 56.3852L41.0747 50.2185L43.9654 51.7973V56.8105Z" fill="#FAE13A"/>
<path d="M30.8735 58.4332V59.9425C30.8735 60.2278 31.0282 60.4918 31.2749 60.6345L33.9789 62.1931C34.1975 62.3198 34.4696 62.1598 34.4696 61.9092V61.7278L32.2056 60.4252C31.9589 60.2825 31.8029 60.0185 31.8029 59.7332V58.4038L31.3629 58.1532C31.1456 58.0265 30.8735 58.1865 30.8735 58.4332Z" fill="#7F4A1B"/>
<path d="M31.8027 58.4039V59.7332C31.8027 60.0185 31.9587 60.2825 32.2054 60.4252L34.4694 61.7279V60.4039C34.4694 60.1145 34.3147 59.8505 34.0667 59.7078L31.8027 58.4039Z" fill="#CFCECD"/>
<path d="M0 90.5438L3.07201 92.5105L33.388 75.0785L30.316 73.1118L0 90.5438Z" fill="#D2AD4D"/>
<path d="M3.07202 92.5104V98.4824L33.388 81.0504V75.0784L3.07202 92.5104Z" fill="#8B6031"/>
<path d="M15.8947 86.3425V89.7931L5.14136 95.9812V92.5532L15.8947 86.3425Z" fill="#B28232"/>
<path d="M31.0559 77.6545V81.1052L20.2812 87.2932V83.8425L31.0559 77.6545Z" fill="#B28232"/>
<path d="M0 90.5437V96.7198L3.07201 98.4824V92.5104L0 90.5437Z" fill="#774822"/>
<path d="M28.2681 79.3199L31.056 81.1052V77.6545L28.2681 79.3199Z" fill="#5B371E"/>
<path d="M13.1067 88.0092L15.8947 89.7932V86.3425L13.1067 88.0092Z" fill="#5B371E"/>
<path d="M13.5308 98.3185L16.6041 100.285L46.9201 82.8532L43.8481 80.8865L13.5308 98.3185Z" fill="#D2AD4D"/>
<path d="M16.604 100.285V106.256L46.92 88.8238V82.8532L16.604 100.285Z" fill="#8B6031"/>
<path d="M29.4254 94.1172V97.5678L18.6733 103.756V100.328L29.4254 94.1172Z" fill="#B28232"/>
<path d="M44.5881 85.4291V88.8798L33.812 95.0665V91.6171L44.5881 85.4291Z" fill="#B28232"/>
<path d="M13.5308 98.3185V104.495L16.6041 106.256V100.285L13.5308 98.3185Z" fill="#774822"/>
<path d="M41.8 87.0946L44.5881 88.8799V85.4292L41.8 87.0946Z" fill="#5B371E"/>
<path d="M26.6375 95.7825L29.4255 97.5678V94.1172L26.6375 95.7825Z" fill="#5B371E"/>
<path d="M27.0627 106.092L30.1347 108.059L60.4507 90.6279L57.3787 88.6612L27.0627 106.092Z" fill="#D2AD4D"/>
<path d="M30.1348 108.058V114.03L60.4507 96.5985V90.6278L30.1348 108.058Z" fill="#8B6031"/>
<path d="M42.9575 101.892V105.342L32.2041 111.529V108.101L42.9575 101.892Z" fill="#B28232"/>
<path d="M58.1189 93.2039V96.6532L47.3442 102.841V99.3919L58.1189 93.2039Z" fill="#B28232"/>
<path d="M27.0627 106.092V112.269L30.1347 114.03V108.058L27.0627 106.092Z" fill="#774822"/>
<path d="M55.3308 94.8692L58.1188 96.6532V93.2038L55.3308 94.8692Z" fill="#5B371E"/>
<path d="M40.1694 103.557L42.9575 105.342V101.892L40.1694 103.557Z" fill="#5B371E"/>
<path d="M33.2066 104.589L30.1347 106.556L0 89.0412L3.07201 87.0732L33.2066 104.589Z" fill="#D2AD4D"/>
<path d="M30.1347 106.556V108.059L0 90.5438V89.0412L30.1347 106.556Z" fill="#945728"/>
<path d="M33.2067 104.589V106.297L30.1348 108.059V106.556L33.2067 104.589Z" fill="#A87638"/>
<path d="M40.0188 100.67L36.9454 102.638L6.81079 85.1224L9.8828 83.1558L40.0188 100.67Z" fill="#D2AD4D"/>
<path d="M36.9454 102.639V104.143L6.81079 86.6265V85.1226L36.9454 102.639Z" fill="#945728"/>
<path d="M40.0187 100.671V102.38L36.9453 104.143V102.639L40.0187 100.671Z" fill="#A87638"/>
<path d="M46.8296 96.7532L43.7576 98.7198L13.6216 81.2051L16.6949 79.2384L46.8296 96.7532Z" fill="#D2AD4D"/>
<path d="M43.7576 98.7199V100.224L13.6216 82.7092V81.2052L43.7576 98.7199Z" fill="#945728"/>
<path d="M46.8293 96.7532V98.4625L43.7573 100.224V98.7199L46.8293 96.7532Z" fill="#A87638"/>
<path d="M53.64 92.8358L50.568 94.8025L20.4333 77.2877L23.5054 75.3211L53.64 92.8358Z" fill="#D2AD4D"/>
<path d="M50.568 94.8025V96.3065L20.4333 78.7905V77.2878L50.568 94.8025Z" fill="#945728"/>
<path d="M53.6401 92.8359V94.5452L50.5681 96.3065V94.8025L53.6401 92.8359Z" fill="#A87638"/>
<path d="M60.4508 88.9184L57.3788 90.8851L27.2441 73.3705L30.3161 71.4038L60.4508 88.9184Z" fill="#D2AD4D"/>
<path d="M57.3788 90.8851V92.3891L27.2441 74.8731V73.3704L57.3788 90.8851Z" fill="#945728"/>
<path d="M60.4507 88.9184V90.6278L57.3787 92.3891V90.8851L60.4507 88.9184Z" fill="#A87638"/>
<path d="M30.5828 87.7585L16.6228 79.7065V64.6865L30.5828 72.7385V87.7585Z" fill="#9B793F"/>
<path d="M41.6694 66.3051L30.5828 72.7385V87.7585L41.6694 81.3625V66.3051Z" fill="#CBA244"/>
<path d="M35.296 71.9465L35.2453 71.8586L31.8093 73.8519V78.6745L35.3987 76.6026V71.7679L35.2453 71.8586L35.296 71.9465H35.1934V76.4852L32.0134 78.3185V73.9706L35.348 72.0359L35.296 71.9465H35.1934H35.296Z" fill="#9A551D"/>
<path d="M34.1321 74.4532L34.1228 76.7385L33.0681 77.3385L33.0761 75.0532L32.5481 75.3532L33.6108 73.1051L34.6601 74.1532L34.1321 74.4532Z" fill="#9A551D"/>
<path d="M41.6667 66.3078L30.5854 72.7385L24.0307 68.9572L21.9066 67.7345L16.624 64.6839L27.7053 58.2518L32.996 61.3039L35.1294 62.5345L41.6667 66.3078Z" fill="#F3E07E"/>
<path d="M24.0308 68.9571L21.9067 67.7345L32.9961 61.3038L35.1295 62.5345L24.0308 68.9571Z" fill="#FBE999"/>
<path d="M21.6576 81.3105L17.6509 79.0226V75.5639L21.6576 77.8519V81.3105Z" fill="#A9A9A7"/>
<path d="M21.4349 80.8718L17.8735 78.8372V78.6798L21.4349 80.7145V80.8718Z" fill="#515254"/>
<path d="M21.4349 80.4384L17.8735 78.4025V78.2465L21.4349 80.2812V80.4384Z" fill="#515254"/>
<path d="M21.4349 80.0039L17.8735 77.9692V77.8119L21.4349 79.8465V80.0039Z" fill="#515254"/>
<path d="M21.4349 79.5705L17.8735 77.5359V77.3785L21.4349 79.4132V79.5705Z" fill="#515254"/>
<path d="M21.4349 78.7531L17.8735 76.7171V76.2225L21.4349 78.2571V78.7531Z" fill="#515254"/>
<path d="M21.9066 67.7345L21.896 72.7958L22.3333 71.6118L22.792 73.2851L23.4133 72.2025L23.9653 73.9278L24.0306 68.9571L21.9066 67.7345Z" fill="#D7C576"/>
<path d="M37.8255 70.6771L36.8135 71.2678V72.6237L37.8255 72.0358V70.6771Z" fill="#9A551D"/>
<path d="M39.2481 69.8585L38.2349 70.4491V71.8038L39.2481 71.2158V69.8585Z" fill="#9A551D"/>
<path d="M40.6694 69.0384L39.6575 69.6305V70.9851L40.6694 70.3971V69.0384Z" fill="#9A551D"/>
<path d="M17.2601 95.4824L3.30005 87.4304V72.4104L17.2601 80.4624V95.4824Z" fill="#9B793F"/>
<path d="M28.3469 74.0291L17.2603 80.4624V95.4824L28.3469 89.0864V74.0291Z" fill="#CBA244"/>
<path d="M21.9733 79.6705L21.9214 79.5825L18.4854 81.5758V86.3972L22.076 84.3265V79.4918L21.9214 79.5825L21.9733 79.6705H21.8706V84.2092L18.6907 86.0425V81.6932L22.024 79.7585L21.9733 79.6705H21.8706H21.9733Z" fill="#9A551D"/>
<path d="M20.808 82.1771L20.8 84.4625L19.744 85.0625L19.7533 82.7771L19.2253 83.0771L20.2867 80.8291L21.336 81.8771L20.808 82.1771Z" fill="#9A551D"/>
<path d="M28.3427 74.0305L17.2614 80.4625L10.7081 76.6798L8.58273 75.4585L3.30005 72.4065L14.3827 65.9758L19.6734 69.0279L21.8054 70.2585L28.3427 74.0305Z" fill="#F3E07E"/>
<path d="M10.7081 76.6798L8.58276 75.4585L19.6734 69.0278L21.8054 70.2585L10.7081 76.6798Z" fill="#FBE999"/>
<path d="M8.33346 89.0332L4.32812 86.7452V83.2865L8.33346 85.5758V89.0332Z" fill="#A9A9A7"/>
<path d="M8.11195 88.5958L4.54932 86.5612V86.4038L8.11195 88.4384V88.5958Z" fill="#515254"/>
<path d="M8.11195 88.1611L4.54932 86.1264V85.9691L8.11195 88.0037V88.1611Z" fill="#515254"/>
<path d="M8.11195 87.7279L4.54932 85.6932V85.5359L8.11195 87.5705V87.7279Z" fill="#515254"/>
<path d="M8.11195 87.2945L4.54932 85.2585V85.1025L8.11195 87.1372V87.2945Z" fill="#515254"/>
<path d="M8.11195 86.4758L4.54932 84.4411V83.9464L8.11195 85.9811V86.4758Z" fill="#515254"/>
<path d="M8.58262 75.4585L8.57324 80.5185L9.00924 79.3359L9.46927 81.0092L10.0893 79.9265L10.6413 81.6518L10.7079 76.6798L8.58262 75.4585Z" fill="#D7C576"/>
<path d="M24.5027 78.4012L23.4907 78.9919V80.3479L24.5027 79.7585V78.4012Z" fill="#9A551D"/>
<path d="M25.9242 77.5811L24.9121 78.1731V79.5278L25.9242 78.9398V77.5811Z" fill="#9A551D"/>
<path d="M27.3468 76.7625L26.3335 77.3532V78.7092L27.3468 78.1212V76.7625Z" fill="#9A551D"/>
<path d="M46.0655 96.5985L32.1055 88.5465V73.5252L46.0655 81.5785V96.5985Z" fill="#9B793F"/>
<path d="M57.1521 75.1452L46.0654 81.5785V96.5985L57.1521 90.2011V75.1452Z" fill="#CEB05B"/>
<path d="M50.7787 80.7865L50.7281 80.6972L47.2908 82.6919V87.5132L50.8814 85.4425V80.6092L50.7281 80.6972L50.7787 80.7865H50.6761V85.3238L47.4961 87.1585V82.8092L50.8307 80.8758L50.7787 80.7865H50.6761H50.7787Z" fill="#9A551D"/>
<path d="M49.6147 83.2931L49.6054 85.5784L48.5494 86.1784L48.5588 83.8931L48.0308 84.1931L49.0921 81.9437L50.1427 82.9931L49.6147 83.2931Z" fill="#9A551D"/>
<path d="M57.1494 75.1465L46.0667 81.5771L39.5134 77.7972L37.3894 76.5744L32.1067 73.5225L43.1881 67.0918L48.4787 70.1438L50.612 71.3731L57.1494 75.1465Z" fill="#F3E07E"/>
<path d="M39.5134 77.7972L37.3894 76.5745L48.4787 70.1438L50.6121 71.3732L39.5134 77.7972Z" fill="#FBE999"/>
<path d="M37.1386 90.1491L33.1333 87.8612V84.4025L37.1386 86.6918V90.1491Z" fill="#A9A9A7"/>
<path d="M36.9174 89.7119L33.3547 87.6759V87.5185L36.9174 89.5545V89.7119Z" fill="#515254"/>
<path d="M36.9174 89.2771L33.3547 87.2424V87.0851L36.9174 89.1198V89.2771Z" fill="#515254"/>
<path d="M36.9174 88.8437L33.3547 86.8091V86.6517L36.9174 88.6864V88.8437Z" fill="#515254"/>
<path d="M36.9174 88.4105L33.3547 86.3759V86.2185L36.9174 88.2532V88.4105Z" fill="#515254"/>
<path d="M36.9174 87.5918L33.3547 85.5571V85.0624L36.9174 87.0971V87.5918Z" fill="#515254"/>
<path d="M37.3893 76.5744L37.3787 81.6345L37.816 80.4518L38.2747 82.1251L38.896 81.0425L39.448 82.7678L39.5134 77.7972L37.3893 76.5744Z" fill="#D7C576"/>
<path d="M53.3081 79.5172L52.2961 80.1078V81.4638L53.3081 80.8758V79.5172Z" fill="#9A551D"/>
<path d="M54.7306 78.6972L53.7173 79.2891V80.6438L54.7306 80.0558V78.6972Z" fill="#9A551D"/>
<path d="M56.1522 77.8785L55.1401 78.4705V79.8252L56.1522 79.2371V77.8785Z" fill="#9A551D"/>
<path d="M32.7413 104.322L18.7812 96.2705V81.2491L32.7413 89.3011V104.322Z" fill="#9B793F"/>
<path d="M43.8281 82.8692L32.7415 89.3011V104.322L43.8281 97.9251V82.8692Z" fill="#CEB05B"/>
<path d="M37.4562 88.5105L37.4042 88.4211L33.9683 90.4158V95.2372L37.5589 93.1665V88.3318L37.4042 88.4211L37.4562 88.5105H37.3535V93.0478L34.1735 94.8825V90.5332L37.5069 88.5985L37.4562 88.5105H37.3535H37.4562Z" fill="#9A551D"/>
<path d="M36.2907 91.0171L36.2827 93.3011L35.2267 93.9011L35.2347 91.6171L34.708 91.9171L35.7693 89.6678L36.8187 90.7171L36.2907 91.0171Z" fill="#9A551D"/>
<path d="M43.8254 82.8705L32.744 89.3011L26.1907 85.5198L24.0654 84.2984L18.7827 81.2464L29.8654 74.8158L35.156 77.8678L37.2881 79.0971L43.8254 82.8705Z" fill="#F3E07E"/>
<path d="M26.1908 85.5199L24.0654 84.2985L35.1561 77.8678L37.2881 79.0972L26.1908 85.5199Z" fill="#FBE999"/>
<path d="M23.816 97.8731L19.8093 95.5851V92.1265L23.816 94.4145V97.8731Z" fill="#A9A9A7"/>
<path d="M23.5936 97.4345L20.0322 95.3999V95.2425L23.5936 97.2772V97.4345Z" fill="#515254"/>
<path d="M23.5936 97.0012L20.0322 94.9666V94.8092L23.5936 96.8438V97.0012Z" fill="#515254"/>
<path d="M23.5936 96.5678L20.0322 94.5318V94.3758L23.5936 96.4105V96.5678Z" fill="#515254"/>
<path d="M23.5936 96.1345L20.0322 94.0985V93.9425L23.5936 95.9771V96.1345Z" fill="#515254"/>
<path d="M23.5936 95.3158L20.0322 93.2811V92.7865L23.5936 94.8211V95.3158Z" fill="#515254"/>
<path d="M24.0654 84.2986L24.0547 89.3586L24.492 88.1759L24.9507 89.8492L25.572 88.7666L26.124 90.4919L26.1907 85.5199L24.0654 84.2986Z" fill="#D7C576"/>
<path d="M39.9854 87.2398L38.9734 87.8318V89.1865L39.9854 88.5985V87.2398Z" fill="#9A551D"/>
<path d="M41.4068 86.4212L40.3948 87.0132V88.3679L41.4068 87.7799V86.4212Z" fill="#9A551D"/>
<path d="M42.8295 85.6025L41.8162 86.1932V87.5492L42.8295 86.9612V85.6025Z" fill="#9A551D"/>
<path d="M30.5828 72.2025L16.6228 64.1505V49.1305L30.5828 57.1824V72.2025Z" fill="#9B793F"/>
<path d="M41.6694 50.7491L30.5828 57.1824V72.2025L41.6694 65.8065V50.7491Z" fill="#CBA244"/>
<path d="M35.296 56.3905L35.2453 56.3012L31.8093 58.2958V63.1185L35.3987 61.0465V56.2119L35.2453 56.3012L35.296 56.3905H35.1934V60.9279L32.0134 62.7625V58.4132L35.348 56.4785L35.296 56.3905H35.1934H35.296Z" fill="#9A551D"/>
<path d="M34.1321 58.8972L34.1228 61.1824L33.0681 61.7824L33.0761 59.4972L32.5481 59.7972L33.6108 57.5491L34.6601 58.5972L34.1321 58.8972Z" fill="#9A551D"/>
<path d="M41.6667 50.7518L30.5854 57.1825L24.0307 53.4011L21.9066 52.1785L16.624 49.1265L27.7053 42.6958L32.996 45.7478L35.1294 46.9771L41.6667 50.7518Z" fill="#F3E07E"/>
<path d="M24.0308 53.4011L21.9067 52.1784L32.9961 45.7478L35.1295 46.9771L24.0308 53.4011Z" fill="#FBE999"/>
<path d="M21.6576 65.7531L17.6509 63.4651V60.0065L21.6576 62.2945V65.7531Z" fill="#A9A9A7"/>
<path d="M21.4349 65.3158L17.8735 63.2798V63.1225L21.4349 65.1585V65.3158Z" fill="#515254"/>
<path d="M21.4349 64.8812L17.8735 62.8465V62.6892L21.4349 64.7238V64.8812Z" fill="#515254"/>
<path d="M21.4349 64.4478L17.8735 62.4131V62.2559L21.4349 64.2905V64.4478Z" fill="#515254"/>
<path d="M21.4349 64.0145L17.8735 61.9798V61.8225L21.4349 63.8571V64.0145Z" fill="#515254"/>
<path d="M21.4349 63.1958L17.8735 61.1611V60.6665L21.4349 62.7011V63.1958Z" fill="#515254"/>
<path d="M21.9066 52.1785L21.896 57.2398L22.3333 56.0558L22.792 57.7291L23.4133 56.6464L23.9653 58.3705L24.0306 53.4011L21.9066 52.1785Z" fill="#D7C576"/>
<path d="M37.8255 55.1199L36.8135 55.7119V57.0678L37.8255 56.4798V55.1199Z" fill="#9A551D"/>
<path d="M39.2481 54.3011L38.2349 54.8931V56.2478L39.2481 55.6598V54.3011Z" fill="#9A551D"/>
<path d="M40.6694 53.4825L39.6575 54.0732V55.4292L40.6694 54.8411V53.4825Z" fill="#9A551D"/>
<path d="M17.2601 79.9251L3.30005 71.8744V56.8531L17.2601 64.9065V79.9251Z" fill="#9B793F"/>
<path d="M28.3469 58.4731L17.2603 64.9065V79.9251L28.3469 73.5291V58.4731Z" fill="#CBA244"/>
<path d="M21.9733 64.1145L21.9214 64.0252L18.4854 66.0185V70.8412L22.076 68.7705V63.9359L21.9214 64.0252L21.9733 64.1145H21.8706V68.6518L18.6907 70.4865V66.1372L22.024 64.2025L21.9733 64.1145H21.8706H21.9733Z" fill="#9A551D"/>
<path d="M20.808 66.6199L20.8 68.9066L19.744 69.5066L19.7533 67.2212L19.2253 67.5212L20.2867 65.2719L21.336 66.3199L20.808 66.6199Z" fill="#9A551D"/>
<path d="M28.3427 58.4745L17.2614 64.9051L10.7081 61.1238L8.58273 59.9025L3.30005 56.8505L14.3827 50.4198L19.6734 53.4705L21.8054 54.7011L28.3427 58.4745Z" fill="#F3E07E"/>
<path d="M10.7081 61.1237L8.58276 59.9025L19.6734 53.4704L21.8054 54.7011L10.7081 61.1237Z" fill="#FBE999"/>
<path d="M8.33346 73.4771L4.32812 71.1892V67.7305L8.33346 70.0185V73.4771Z" fill="#A9A9A7"/>
<path d="M8.11195 73.0398L4.54932 71.0038V70.8464L8.11195 72.8824V73.0398Z" fill="#515254"/>
<path d="M8.11195 72.6052L4.54932 70.5706V70.4132L8.11195 72.4479V72.6052Z" fill="#515254"/>
<path d="M8.11195 72.1718L4.54932 70.1372V69.9799L8.11195 72.0146V72.1718Z" fill="#515254"/>
<path d="M8.11195 71.7372L4.54932 69.7025V69.5452L8.11195 71.5798V71.7372Z" fill="#515254"/>
<path d="M8.11195 70.9199L4.54932 68.8852V68.3892L8.11195 70.4252V70.9199Z" fill="#515254"/>
<path d="M8.58262 59.9025L8.57324 64.9624L9.00924 63.7784L9.46927 65.4531L10.0893 64.3704L10.6413 66.0945L10.7079 61.1237L8.58262 59.9025Z" fill="#D7C576"/>
<path d="M24.5027 62.8438L23.4907 63.4359V64.7905L24.5027 64.2025V62.8438Z" fill="#9A551D"/>
<path d="M25.9242 62.0252L24.9121 62.6171V63.9718L25.9242 63.3838V62.0252Z" fill="#9A551D"/>
<path d="M27.3468 61.2065L26.3335 61.7972V63.1532L27.3468 62.5638V61.2065Z" fill="#9A551D"/>
<path d="M46.0655 81.0424L32.1055 72.9891V57.9691L46.0655 66.0211V81.0424Z" fill="#9B793F"/>
<path d="M57.1521 59.5891L46.0654 66.0211V81.0424L57.1521 74.6451V59.5891Z" fill="#CEB05B"/>
<path d="M50.7787 65.2305L50.7281 65.1411L47.2908 67.1345V71.9571L50.8814 69.8865V65.0518L50.7281 65.1411L50.7787 65.2305H50.6761V69.7678L47.4961 71.6025V67.2532L50.8307 65.3185L50.7787 65.2305H50.6761H50.7787Z" fill="#9A551D"/>
<path d="M49.6147 67.7372L49.6054 70.0212L48.5494 70.6225L48.5588 68.3372L48.0308 68.6372L49.0921 66.3878L50.1427 67.4372L49.6147 67.7372Z" fill="#9A551D"/>
<path d="M57.1494 59.5905L46.0667 66.0212L39.5134 62.2399L37.3894 61.0185L32.1067 57.9666L43.1881 51.5359L48.4787 54.5866L50.612 55.8172L57.1494 59.5905Z" fill="#F3E07E"/>
<path d="M39.5134 62.2398L37.3894 61.0185L48.4787 54.5865L50.6121 55.8172L39.5134 62.2398Z" fill="#FBE999"/>
<path d="M37.1386 74.5931L33.1333 72.3051V68.8464L37.1386 71.1345V74.5931Z" fill="#A9A9A7"/>
<path d="M36.9174 74.1545L33.3547 72.1199V71.9625L36.9174 73.9972V74.1545Z" fill="#515254"/>
<path d="M36.9174 73.7212L33.3547 71.6865V71.5292L36.9174 73.5639V73.7212Z" fill="#515254"/>
<path d="M36.9174 73.2878L33.3547 71.2532V71.0958L36.9174 73.1305V73.2878Z" fill="#515254"/>
<path d="M36.9174 72.8532L33.3547 70.8185V70.6612L36.9174 72.6973V72.8532Z" fill="#515254"/>
<path d="M36.9174 72.0359L33.3547 70.0012V69.5065L36.9174 71.5411V72.0359Z" fill="#515254"/>
<path d="M37.3893 61.0184L37.3787 66.0785L37.816 64.8945L38.2747 66.5691L38.896 65.4865L39.448 67.2104L39.5134 62.2398L37.3893 61.0184Z" fill="#D7C576"/>
<path d="M53.3081 63.9598L52.2961 64.5518V65.9065L53.3081 65.3184V63.9598Z" fill="#9A551D"/>
<path d="M54.7306 63.1412L53.7173 63.7319V65.0879L54.7306 64.4999V63.1412Z" fill="#9A551D"/>
<path d="M56.1522 62.3226L55.1401 62.9132V64.2693L56.1522 63.6799V62.3226Z" fill="#9A551D"/>
<path d="M32.7413 88.7651L18.7812 80.7131V65.6931L32.7413 73.7451V88.7651Z" fill="#9B793F"/>
<path d="M43.8281 67.3131L32.7415 73.7451V88.7651L43.8281 82.3691V67.3131Z" fill="#CEB05B"/>
<path d="M37.4562 72.9531L37.4042 72.8651L33.9683 74.8585V79.6811L37.5589 77.6104V72.7758L37.4042 72.8651L37.4562 72.9531H37.3535V77.4918L34.1735 79.3264V74.9771L37.5069 73.0425L37.4562 72.9531H37.3535H37.4562Z" fill="#9A551D"/>
<path d="M36.2907 75.4598L36.2827 77.7452L35.2267 78.3452L35.2347 76.0612L34.708 76.3612L35.7693 74.1119L36.8187 75.1598L36.2907 75.4598Z" fill="#9A551D"/>
<path d="M43.8254 67.3144L32.744 73.7451L26.1907 69.9638L24.0654 68.7424L18.7827 65.6904L29.8654 59.2597L35.156 62.3104L37.2881 63.541L43.8254 67.3144Z" fill="#F3E07E"/>
<path d="M26.1908 69.9638L24.0654 68.7425L35.1561 62.3105L37.2881 63.5411L26.1908 69.9638Z" fill="#FBE999"/>
<path d="M23.816 82.3171L19.8093 80.0291V76.5704L23.816 78.8584V82.3171Z" fill="#A9A9A7"/>
<path d="M23.5936 81.8785L20.0322 79.8438V79.6865L23.5936 81.7212V81.8785Z" fill="#515254"/>
<path d="M23.5936 81.4452L20.0322 79.4105V79.2532L23.5936 81.2878V81.4452Z" fill="#515254"/>
<path d="M23.5936 81.0118L20.0322 78.9758V78.8185L23.5936 80.8532V81.0118Z" fill="#515254"/>
<path d="M23.5936 80.5771L20.0322 78.5425V78.3851L23.5936 80.4198V80.5771Z" fill="#515254"/>
<path d="M23.5936 79.7597L20.0322 77.7251V77.2291L23.5936 79.2638V79.7597Z" fill="#515254"/>
<path d="M24.0654 68.7425L24.0547 73.8026L24.492 72.6185L24.9507 74.2932L25.572 73.2092L26.124 74.9345L26.1907 69.9639L24.0654 68.7425Z" fill="#D7C576"/>
<path d="M39.9854 71.6839L38.9734 72.2759V73.6306L39.9854 73.0426V71.6839Z" fill="#9A551D"/>
<path d="M41.4068 70.8652L40.3948 71.4559V72.8119L41.4068 72.2238V70.8652Z" fill="#9A551D"/>
<path d="M42.8295 70.0452L41.8162 70.6372V71.9919L42.8295 71.4039V70.0452Z" fill="#9A551D"/>
</svg>
