<svg width="160" height="142" viewBox="0 0 160 142" fill="none" xmlns="http://www.w3.org/2000/svg">
<path d="M135.716 80.056L102.823 61.064C102.107 60.6506 100.947 60.6506 100.231 61.064L99.0081 61.7707L100.357 62.5493L101.527 61.8733L134.315 80.804L133.145 81.4787L134.495 82.2573L135.716 81.552C136.076 81.344 136.255 81.072 136.253 80.8C136.252 80.5306 136.073 80.2614 135.716 80.056Z" fill="#4B4647"/>
<path d="M99.0081 61.7706V63.9186L100.357 64.6973V62.5493L99.0081 61.7706Z" fill="#373132"/>
<path d="M101.527 61.8733L100.357 62.5492V64.6972L101.527 64.0226L133.145 82.2772V81.4786L134.315 80.8039L101.527 61.8733Z" fill="#1B1817"/>
<path d="M133.145 81.4786V83.6266L134.495 84.4066V82.2573L133.145 81.4786Z" fill="#373132"/>
<path d="M135.716 81.5519L134.495 82.2573V84.4066L135.716 83.6999C136.075 83.4932 136.253 83.2226 136.253 82.9519C136.253 82.6813 136.253 80.7999 136.253 80.7999C136.255 81.0719 136.076 81.3439 135.716 81.5519Z" fill="#1B1817"/>
<path d="M37.6279 104.321V109.315L52.8826 118.121V113.129L37.6279 104.321Z" fill="#262221"/>
<path d="M37.6279 104.321L109.064 63.0773L124.32 71.8853L52.8826 113.129L37.6279 104.321Z" fill="#373132"/>
<path d="M52.8826 113.129L124.32 71.8852V76.8772L52.8826 118.121V113.129Z" fill="#1B1817"/>
<path d="M122.792 80.4519L122.069 80.8692L122.867 83.1199L130.376 87.4559L128.392 81.8546C127.579 79.5519 125.328 78.9879 122.792 80.4519Z" fill="#100F0D"/>
<path d="M107.263 85.2213C108.58 82.94 110.308 81.1826 112.041 80.1813C113.124 79.556 114.209 79.228 115.193 79.2546C115.541 79.264 115.889 79.2733 116.237 79.2826H116.243C116.864 79.3 117.448 79.4506 117.972 79.7493L121.291 81.6786C119.891 80.8826 118.061 81.1359 116.233 82.1919C114.407 83.2466 112.581 85.1026 111.192 87.5093C108.412 92.324 108.427 97.5186 111.225 99.1133L107.907 97.184C106.72 96.5027 106.151 95.1493 106.051 94.984C104.736 92.8147 105.139 88.9 107.263 85.2213Z" fill="#1B1918"/>
<path d="M111.192 87.5092C112.581 85.1025 114.407 83.2465 116.233 82.1918C118.061 81.1358 119.891 80.8825 121.291 81.6785C122.231 82.2172 123.001 83.6305 123.297 84.9438C123.481 85.7625 114.275 99.3572 114.275 99.3572C113.221 99.5772 111.745 99.4158 111.225 99.1132C108.376 97.4572 108.412 92.3239 111.192 87.5092Z" fill="#100F0D"/>
<path d="M111.969 98.9733C114.612 100.5 118.896 98.0266 121.539 93.4492C124.181 88.8719 124.181 83.9252 121.539 82.3999C118.896 80.8732 114.612 83.3479 111.969 87.9239C109.327 92.5013 109.327 97.4479 111.969 98.9733Z" fill="#100F0D"/>
<path d="M111.965 87.936C113.283 85.6547 115.011 83.8973 116.744 82.8973C117.827 82.272 118.911 81.9427 119.896 81.9693C120.244 81.9787 120.592 81.988 120.94 81.9973H120.945C121.567 82.0147 122.151 82.1653 122.675 82.464L125.993 84.3934C124.593 83.5974 122.764 83.852 120.936 84.9067C119.109 85.9614 117.284 87.8174 115.895 90.224C113.115 95.04 113.129 100.233 115.927 101.828L112.609 99.8973C111.423 99.2173 110.853 97.864 110.753 97.7C109.439 95.5293 109.841 91.616 111.965 87.936Z" fill="#1B1918"/>
<path d="M115.895 90.2239C117.284 87.8173 119.109 85.9613 120.936 84.9066C122.764 83.8519 124.593 83.5973 125.993 84.3933C126.933 84.9333 127.704 86.3452 128 87.6586C128.184 88.4772 118.977 102.072 118.977 102.072C117.923 102.292 116.448 102.131 115.927 101.828C113.079 100.172 113.115 95.0399 115.895 90.2239Z" fill="#262424"/>
<path d="M116.672 101.688C119.315 103.215 123.599 100.741 126.241 96.164C128.884 91.5866 128.884 86.64 126.241 85.1147C123.599 83.588 119.315 86.0626 116.672 90.6386C114.029 95.216 114.029 100.163 116.672 101.688Z" fill="#1B1918"/>
<path d="M118.461 98.5893C120.116 99.5439 122.797 97.9959 124.452 95.1305C126.107 92.2652 126.107 89.1692 124.452 88.2132C122.797 87.2586 120.116 88.8065 118.461 91.6719C116.807 94.5372 116.807 97.6346 118.461 98.5893Z" fill="#100F0D"/>
<path d="M117.225 95.6159L119.207 95.2159C119.241 95.3986 119.297 95.5666 119.375 95.7146L118.149 98.3679C117.487 97.7973 117.179 96.8013 117.225 95.6159ZM119.96 98.8426L121.187 96.1866C121.365 96.108 121.548 96.0026 121.727 95.8746L122.952 97.1146C121.991 98.0893 120.923 98.7053 119.96 98.8426ZM124.764 94.548L123.539 93.3093C123.616 93.0733 123.671 92.8426 123.705 92.6186L125.688 90.7306C125.735 91.8612 125.427 93.2133 124.764 94.548ZM124.997 88.6692L123.013 90.5586C122.879 90.4919 122.731 90.4546 122.576 90.4439V88.0373C123.263 87.8573 123.912 87.9026 124.452 88.2133C124.66 88.3333 124.841 88.4866 124.997 88.6692ZM118.461 91.6719C119.001 90.7373 119.649 89.9426 120.337 89.3293V91.7359C120.181 91.9266 120.035 92.1333 119.9 92.3573L117.916 92.7573C118.072 92.3959 118.253 92.0319 118.461 91.6719ZM118.227 98.9959C120.011 100.025 122.903 98.3559 124.687 95.2666C126.471 92.1759 126.471 88.8373 124.687 87.8066C122.903 86.7773 120.011 88.4466 118.227 91.5359C116.443 94.6266 116.443 97.9666 118.227 98.9959Z" fill="#D0CFB2"/>
<path d="M119.747 91.396V89.9133C119.939 89.704 120.136 89.5093 120.337 89.3293V91.736C120.181 91.9266 120.035 92.1333 119.9 92.3573L117.916 92.7573C117.989 92.588 118.068 92.4187 118.152 92.2507L119.309 92.016C119.444 91.7933 119.592 91.5853 119.747 91.396Z" fill="#A9A891"/>
<path d="M118.752 95.308L119.207 95.216C119.241 95.3987 119.297 95.5667 119.375 95.7147L118.149 98.368C117.961 98.2054 117.801 98.0094 117.671 97.7841L118.784 95.3734L118.752 95.308Z" fill="#A9A891"/>
<path d="M125.688 90.7306C125.735 91.8613 125.427 93.2133 124.764 94.548L124.257 94.0359C124.695 93.1093 124.963 92.1813 125.06 91.3293L125.688 90.7306Z" fill="#A9A891"/>
<path d="M122.361 96.7733L121.575 95.9773L121.727 95.8746L122.952 97.1147C121.991 98.0893 120.923 98.7053 119.96 98.8427L120.227 98.2639C120.941 97.9773 121.679 97.4666 122.361 96.7733Z" fill="#A9A891"/>
<path d="M124.141 88.068L124.452 88.2133C124.66 88.3333 124.841 88.4866 124.997 88.6693L123.013 90.5586C122.879 90.4919 122.731 90.4546 122.576 90.4439V90.0719L124.407 88.3293L124.141 88.068Z" fill="#A9A891"/>
<path d="M121.053 94.0999C121.276 94.2279 121.637 94.02 121.86 93.6346C122.083 93.248 122.083 92.8319 121.86 92.7026C121.637 92.5746 121.276 92.7839 121.053 93.1693C120.831 93.5546 120.831 93.9719 121.053 94.0999Z" fill="#201F1E"/>
<path d="M121.224 92.1081C121.352 92.1827 121.561 92.0628 121.689 91.8401C121.817 91.6174 121.817 91.3761 121.689 91.3027C121.561 91.2281 121.352 91.3481 121.224 91.5721C121.096 91.7934 121.096 92.0347 121.224 92.1081Z" fill="#201F1E"/>
<path d="M122.372 93.8707C122.192 93.9413 122.023 94.18 121.995 94.4026C121.967 94.6266 122.089 94.7506 122.268 94.68C122.448 94.6093 122.616 94.3706 122.645 94.1466C122.673 93.9226 122.551 93.8 122.372 93.8707Z" fill="#201F1E"/>
<path d="M120.919 95.0253C120.889 94.8333 120.721 94.7907 120.541 94.9267C120.363 95.0627 120.24 95.328 120.268 95.5187C120.297 95.7093 120.465 95.7547 120.645 95.6174C120.824 95.4814 120.947 95.216 120.919 95.0253Z" fill="#201F1E"/>
<path d="M120.209 93.936C120.371 93.748 120.436 93.4814 120.353 93.3427C120.271 93.2027 120.072 93.2427 119.911 93.432C119.748 93.62 119.684 93.8867 119.767 94.0253C119.849 94.1653 120.047 94.1253 120.209 93.936Z" fill="#201F1E"/>
<path d="M122.56 92.068C122.477 92.3026 122.543 92.4933 122.704 92.496C122.867 92.4973 123.064 92.3093 123.147 92.0733C123.229 91.84 123.165 91.648 123.003 91.6453C122.841 91.644 122.643 91.8333 122.56 92.068Z" fill="#201F1E"/>
<path d="M118.715 81.6119L122.792 79.2572C124.679 78.1679 126.433 78.0359 127.708 78.7732C127.708 78.7732 120.927 74.8519 120.181 74.4265C118.907 73.7012 117.16 73.8372 115.283 74.9212L111.205 77.2759C108.228 78.9959 105.581 82.7145 104.625 86.5212L102.901 93.3839C102.683 94.2572 103.069 95.1705 103.849 95.6212L108.903 98.5385C109.473 98.8678 110.201 98.5599 110.361 97.9212L112.135 90.8572C113.091 87.0492 115.737 83.3305 118.715 81.6119Z" fill="#414042"/>
<path d="M129.372 80.9053C129.023 79.916 128.445 79.1987 127.709 78.7733C126.433 78.036 124.679 78.168 122.792 79.2573L118.715 81.612C115.737 83.3307 113.091 87.0493 112.135 90.8573L110.361 97.9213C110.201 98.56 109.473 98.868 108.903 98.5386C110.209 99.2933 111.065 98.8253 111.225 98.1867L113.115 90.676C113.929 87.4333 116.18 84.2707 118.715 82.8067L122.792 80.452C125.328 78.988 127.579 79.552 128.392 81.8546L130.376 87.456L131.465 86.8266L129.372 80.9053Z" fill="#262424"/>
<path d="M106.057 91.6612V86.3013L105.159 86.8213V97.684L106.057 97.1639V92.756L108.207 93.9972V92.9026L106.057 91.6612Z" fill="#414042"/>
<path d="M106.057 97.1639L105.159 97.684L107.307 98.924L108.207 98.4053L106.057 97.1639Z" fill="#262424"/>
<path d="M107.307 94.516V93.4213L105.159 92.1814V86.8213L104.075 87.4467V97.3827C104.075 97.86 104.329 98.3 104.741 98.5387L107.307 100.019V98.924L105.159 97.684V93.276L107.307 94.516Z" fill="#100F0D"/>
<path d="M90.676 100.541V95.1813L89.7773 95.7026V106.564L90.676 106.044V101.636L92.8253 102.877V101.783L90.676 100.541Z" fill="#414042"/>
<path d="M90.676 106.044L89.7773 106.564L91.9253 107.804L92.8253 107.285L90.676 106.044Z" fill="#262424"/>
<path d="M91.9254 103.396V102.301L89.7774 101.061V95.7027L88.6934 96.3267V106.263C88.6934 106.74 88.948 107.18 89.36 107.419L91.9254 108.9V107.805L89.7774 106.564V102.156L91.9254 103.396Z" fill="#100F0D"/>
<path d="M85.4907 109.423L108.127 96.3479L108.971 96.8359L86.3334 109.909V112.889L85.4907 112.403V109.423Z" fill="#B21D23"/>
<path d="M109.844 89.6094L85.4907 103.676V106.656L86.3334 107.143V104.163L110.688 90.0973L109.844 89.6094Z" fill="#B21D23"/>
<path d="M86.3333 109.909L108.971 96.8359L108.08 100.333L86.3333 112.889V109.909Z" fill="#E11D25"/>
<path d="M110.688 90.0973L86.3333 104.163V107.143L109.801 93.5894L110.688 90.0973Z" fill="#E11D25"/>
<path d="M66.4919 118.497L71.1173 121.167C71.388 121.323 71.6306 121.339 71.808 121.237C71.988 121.136 72.0986 120.916 72.0986 120.601V114.133C72.0986 113.508 71.66 112.748 71.1173 112.435L66.4919 109.764C66.2186 109.607 65.9719 109.593 65.7933 109.699C65.6199 109.803 65.512 110.02 65.512 110.331V116.799C65.512 117.424 65.9506 118.184 66.4919 118.497Z" fill="#B1AE9E"/>
<path d="M84.0559 104.965L79.4306 102.295C79.1599 102.139 78.9146 102.123 78.7372 102.225C78.5599 102.328 65.7932 109.699 65.7932 109.699C65.9719 109.593 66.2185 109.607 66.4919 109.764L71.1172 112.435C71.6599 112.748 72.0986 113.508 72.0986 114.133V120.601C72.0986 120.916 71.9879 121.136 71.8079 121.237C71.8079 121.237 84.5719 113.869 84.7492 113.767C84.9266 113.664 85.0372 113.444 85.0372 113.131V106.663C85.0372 106.039 84.5972 105.277 84.0559 104.965Z" fill="url(#paint0_linear_11_45575)"/>
<path d="M77.9239 113.316C77.2266 113.051 76.7599 112.243 76.8786 111.507C76.9399 111.139 77.1359 110.86 77.4039 110.705L76.7866 111.061C76.5186 111.216 76.3225 111.496 76.2612 111.863C76.1412 112.599 76.6092 113.408 77.3052 113.672C77.6545 113.803 77.9945 113.773 78.2625 113.619L78.8812 113.261C78.6119 113.416 78.2732 113.447 77.9239 113.316Z" fill="#1C1817"/>
<path d="M76.2614 111.863L76.2921 111.724C76.1681 111.795 76.0054 111.888 75.8014 112.003C75.4694 112.176 75.1347 112.507 74.8814 112.944C74.4054 113.769 74.4054 114.663 74.8814 114.937C75.1467 115.091 75.5041 115.02 75.8507 114.785C76.3707 114.477 77.1414 113.98 77.5201 113.733L77.3054 113.672C76.6094 113.408 76.1414 112.599 76.2614 111.863Z" fill="#BCB9A7"/>
<path d="M78.3613 110.651C78.012 110.52 77.672 110.551 77.404 110.705C77.136 110.86 76.94 111.139 76.8787 111.507C76.76 112.243 77.2267 113.051 77.924 113.316C78.2733 113.447 78.612 113.416 78.8813 113.261C79.1493 113.107 79.3453 112.828 79.4053 112.46C79.5253 111.724 79.0586 110.915 78.3613 110.651Z" fill="#2E2929"/>
<path d="M106.967 -7.62939e-06H105.831V12.2413H106.967V-7.62939e-06Z" fill="#F7D508"/>
<path d="M137.884 30.744H159.086V30.0883H137.884V30.744Z" fill="#F7D508"/>
<path d="M137.884 69.7906H159.086V30.7437H137.884V69.7906Z" fill="#F39810"/>
<path d="M137.884 69.7906H141.325V30.7437H137.884V69.7906Z" fill="#F07B15"/>
<path d="M35.9573 48.9373V90.564L70.2453 110.36V68.7333L35.9573 48.9373Z" fill="#DB631C"/>
<path d="M138.893 29.0987L70.2454 68.7333V110.36L138.893 70.7253V29.0987Z" fill="#F3A90E"/>
<path d="M104.607 9.30261L138.893 29.0986L70.2453 68.7333L35.9573 48.9373L104.607 9.30261Z" fill="#FAD013"/>
<path d="M56.1506 88.0707C56.1386 87.688 55.8439 87.5467 55.5066 87.7427C52.2372 89.6294 46.7106 92.8214 43.4292 94.7147C43.2612 94.812 43.1252 95.0067 43.0812 95.2013C41.8652 100.469 40.5826 105.777 39.2199 111.131C38.8959 112.42 38.7186 113.691 38.7226 114.869C38.7266 116.332 38.7199 117.803 38.7012 119.279C38.6906 119.675 38.9626 119.829 39.2893 119.64C40.3933 119.003 41.5092 118.359 42.6146 117.72C42.9186 117.544 43.2106 117.195 43.3906 116.779C44.1866 114.931 44.9719 113.077 45.7573 111.221C46.0373 110.567 46.5212 109.976 47.0399 109.677C49.3052 108.369 53.8186 105.764 56.0839 104.456C56.2986 104.332 56.4666 104.04 56.4666 103.793C56.4626 98.4893 56.3572 93.244 56.1506 88.0707Z" fill="#1B1817"/>
<path d="M6.13332 102.701L6.00933 102.668L3.33999 101.127C2.59866 100.697 2.01733 99.6919 2.01733 98.8359V97.004C2.01733 96.8666 2.12665 96.756 2.26398 96.756C2.40131 96.756 2.512 96.8666 2.512 97.004V98.8359C2.512 99.5079 3.00534 100.36 3.588 100.697L6.25734 102.239L6.348 102.577L6.13332 102.701Z" fill="#262424"/>
<path d="M2.22002 98.6508L0.729329 97.7894C0.326663 97.5574 0 96.9334 0 96.3974V91.2334C0 90.6974 0.326663 90.4507 0.729329 90.6827L3.28802 92.1601C3.69069 92.3921 4.01735 93.0161 4.01735 93.5521V97.2907C4.01735 98.6147 3.21202 99.2228 2.22002 98.6508Z" fill="#C8C7C0"/>
<path d="M4.01724 97.2907V93.552C4.01724 93.016 3.69057 92.392 3.28791 92.16L0.729215 90.6827C0.339882 90.4573 0.022554 90.6813 0.0012207 91.1813C0.034554 90.372 0.810576 89.736 1.39058 89.7293L1.69058 89.816L4.25057 91.2933C4.65324 91.5267 4.97856 92.1494 4.97856 92.6867V96.736C4.97856 97.016 4.94256 97.264 4.8759 97.476C4.53589 98.576 3.48922 98.996 2.77056 98.8534C3.49456 98.96 4.01724 98.3587 4.01724 97.2907Z" fill="#8C8984"/>
<path d="M9.33206 94.2186L13.3374 78.7279L11.9534 77.9293L6.85742 97.8399L8.82275 98.976V97.9626C8.82275 96.7839 8.99473 95.5239 9.33206 94.2186Z" fill="#100F0D"/>
<path d="M40.3733 94.3387L24.5133 85.2814L24.272 88.2161C24.272 88.4601 24.1 88.7588 23.888 88.8814L17.116 92.7907C16.5947 93.0921 16.1147 93.6721 15.832 94.3401L13.5 99.8747C13.3307 100.276 13.0427 100.625 12.728 100.807L12.3613 101.019L35.2773 114.249L40.3733 94.3387Z" fill="#100F0D"/>
<path d="M17.8774 94.8721C18.0947 94.5107 18.4414 94.3361 18.6521 94.4574L20.0241 95.2521C20.3227 95.4241 20.7267 95.3841 21.1481 95.1401L25.4454 92.6587C25.6267 92.5547 25.7907 92.5454 25.908 92.6148C26.024 92.6841 26.096 92.8294 26.096 93.0348C26.096 93.4494 25.8041 93.9521 25.4454 94.1601L21.1161 96.6601C20.5601 96.9814 20.028 97.0334 19.6347 96.8068L17.8654 95.7827C17.648 95.6574 17.652 95.2467 17.8774 94.8721Z" fill="#161413"/>
<path d="M19.1079 94.7227C19.4052 94.8947 19.8092 94.8546 20.2306 94.6106L24.5292 92.1293C24.7079 92.0266 24.8706 92.016 24.9879 92.084L25.9079 92.6147C25.7906 92.5453 25.6266 92.5546 25.4452 92.6586L21.1479 95.14C20.7266 95.384 20.3226 95.424 20.0239 95.252L19.1079 94.7227Z" fill="#1E1B1A"/>
<path d="M16.96 94.3426C17.1773 93.9813 17.524 93.8066 17.736 93.9279L18.652 94.4573C18.4413 94.3359 18.0947 94.5106 17.8773 94.8719C17.652 95.2466 17.648 95.6573 17.8653 95.7826L16.948 95.2533C16.732 95.1293 16.736 94.7173 16.96 94.3426Z" fill="#1E1B1A"/>
<path d="M46.3761 110.716C43.2401 112.525 40.6987 116.928 40.6987 120.548V121.729L51.8627 115.284V107.548L46.3761 110.716Z" fill="#252020"/>
<path d="M46.376 110.716L51.8626 107.548L27.9533 93.7427L22.4666 96.9121C19.3306 98.7214 16.7893 103.124 16.7893 106.745V107.925L40.6986 121.729V120.548C40.6986 116.928 43.24 112.525 46.376 110.716Z" fill="#464142"/>
<path d="M34.612 99.9746L27.1747 104.269C26.9693 104.388 26.7827 104.4 26.648 104.321C26.512 104.244 26.4293 104.076 26.4293 103.839V103.115C26.4293 102.385 26.8573 101.497 27.472 100.971C28.7333 99.8906 29.904 99.1733 31.18 98.6519C32.5013 98.1133 34.12 97.5359 35.46 96.7612L34.612 99.9746Z" fill="#463D3F"/>
<path d="M26.4293 103.839V103.115C26.4293 102.385 26.8573 101.497 27.472 100.971C28.7333 99.8906 29.904 99.1733 31.18 98.652C32.5013 98.1133 34.12 97.5359 35.46 96.7613L28.9787 93.0186C27.6373 93.7933 26.02 94.3706 24.6986 94.9106C23.4213 95.4319 22.252 96.148 20.9907 97.2293C20.376 97.7546 19.948 98.6426 19.948 99.3719V100.096C19.948 100.335 20.0306 100.501 20.1653 100.579C20.3013 100.657 26.648 104.321 26.648 104.321C26.512 104.244 26.4293 104.076 26.4293 103.839Z" fill="#332D2D"/>
<path d="M26.6479 104.321C26.6479 104.321 22.3012 101.812 20.7252 100.903L20.7092 100.895C20.7506 101.32 20.8719 101.655 21.1092 101.775L27.5906 105.517L27.1746 104.269C26.9692 104.388 26.7826 104.4 26.6479 104.321Z" fill="#1E1B1A"/>
<path d="M36.8787 86.5519C36.3854 86.7213 35.8787 87.2586 35.6107 87.9052C35.2827 88.6932 34.948 89.6066 34.6547 90.6133C34.2347 92.0519 34.02 93.2839 33.908 94.2599C33.8307 94.9413 33.7107 95.64 33.5387 96.3506L33.176 97.8519C33.9587 97.5279 34.748 97.1719 35.46 96.7612L37.7814 87.8773C37.9467 87.2493 37.8133 86.7626 37.4947 86.5786C37.3333 86.4853 37.1227 86.4693 36.8787 86.5519Z" fill="#463D3F"/>
<path d="M33.9079 94.2599C34.0199 93.2839 34.2346 92.0519 34.6546 90.6133C34.9479 89.6066 35.2826 88.6932 35.6106 87.9052C35.8786 87.2586 36.3853 86.7213 36.8786 86.5519C37.1226 86.4693 37.3332 86.4853 37.4946 86.5786C37.4946 86.5786 31.3333 83.0239 31.0173 82.8386C30.8546 82.7426 30.6426 82.7266 30.3972 82.8106C29.9039 82.9786 29.3972 83.5159 29.1292 84.1626C28.8012 84.9519 28.4653 85.8639 28.1733 86.8706C27.7533 88.3093 27.5386 89.5413 27.4266 90.5173C27.3492 91.1986 27.2293 91.8973 27.0573 92.6079L26.6946 94.1093L33.1759 97.8519L33.5386 96.3506C33.7106 95.64 33.8306 94.9413 33.9079 94.2599Z" fill="#2A2424"/>
<path d="M27.1746 104.269C27.1746 104.864 27.2879 105.364 27.5906 105.517C28.5706 104.021 29.8252 102.739 31.1919 101.949L27.1746 104.269Z" fill="#252020"/>
<path d="M47.568 107.455L40.1293 111.749C39.924 111.868 39.7374 111.879 39.6027 111.801C39.468 111.724 39.384 111.556 39.384 111.319V110.593C39.384 109.865 39.8133 108.976 40.4267 108.451C41.688 107.371 42.8587 106.653 44.136 106.132C45.4574 105.593 47.0747 105.015 48.4147 104.241L47.568 107.455Z" fill="#463D3F"/>
<path d="M39.3839 111.319V110.593C39.3839 109.865 39.8132 108.976 40.4266 108.451C41.6879 107.371 42.8586 106.653 44.1359 106.132C45.4573 105.593 47.0746 105.015 48.4146 104.241L41.9333 100.499C40.5933 101.273 38.9759 101.851 37.6546 102.391C36.3773 102.912 35.2066 103.628 33.9453 104.709C33.3319 105.235 32.9026 106.123 32.9026 106.852V107.576C32.9026 107.815 32.9866 107.981 33.1213 108.059C33.2559 108.137 39.6026 111.801 39.6026 111.801C39.4679 111.724 39.3839 111.556 39.3839 111.319Z" fill="#332D2D"/>
<path d="M39.6026 111.801C39.6026 111.801 35.256 109.292 33.68 108.381L33.6653 108.373C33.7053 108.8 33.8266 109.135 34.0639 109.255L40.5466 112.997L40.1293 111.749C39.9239 111.868 39.7373 111.879 39.6026 111.801Z" fill="#1E1B1A"/>
<path d="M49.8333 94.0321C49.34 94.2014 48.8333 94.7387 48.5653 95.3854C48.2386 96.1734 47.9026 97.0854 47.6093 98.0934C47.1906 99.5321 46.9746 100.764 46.8639 101.739C46.7866 102.421 46.6653 103.119 46.4933 103.829L46.1306 105.331C46.9133 105.007 47.704 104.652 48.4146 104.241L50.7373 95.3574C50.9013 94.7294 50.7693 94.2427 50.4506 94.0574C50.288 93.964 50.0773 93.9494 49.8333 94.0321Z" fill="#463D3F"/>
<path d="M46.8641 101.739C46.9747 100.764 47.1907 99.5321 47.6094 98.0934C47.9027 97.0854 48.2387 96.1734 48.5654 95.3854C48.8334 94.7387 49.3401 94.2014 49.8334 94.0321C50.0774 93.9494 50.2881 93.964 50.4507 94.0574C50.4507 94.0574 44.2881 90.5041 43.9721 90.3174C43.8094 90.2227 43.5974 90.2054 43.3521 90.2907C42.8587 90.4587 42.3521 90.9961 42.0841 91.6427C41.7574 92.4307 41.4214 93.3441 41.1281 94.3507C40.7094 95.7894 40.4934 97.0214 40.3827 97.9974C40.3054 98.6787 40.1841 99.3774 40.0121 100.088L39.6494 101.589L46.1307 105.331L46.4934 103.829C46.6654 103.119 46.7867 102.421 46.8641 101.739Z" fill="#2A2424"/>
<path d="M40.1294 111.749C40.1294 112.344 40.2427 112.844 40.5454 112.997H40.5467C41.5267 111.501 42.7801 110.219 44.1481 109.429L40.1294 111.749Z" fill="#252020"/>
<path d="M28.5907 106.937L28.168 107.705L29.9973 108.763L30.42 107.993L32.8026 109.179L30.972 108.121L28.5907 106.937Z" fill="#252020"/>
<path d="M30.42 107.993L29.9973 108.763L32.1333 110.393L32.8027 109.179L30.42 107.993Z" fill="#1E1B1A"/>
<path d="M29.9813 116.556L32.2387 115.923C33.5613 112.167 32.5053 110.208 30.912 109.291L30.8947 109.281C30.012 108.779 28.9987 109.332 28.7013 110.303C27.9747 112.676 27.3613 115.043 27.3613 115.043L29.9813 116.556Z" fill="#232020"/>
<path d="M30.8947 109.281L30.9121 109.291C30.9121 109.291 27.6934 107.431 26.1014 106.513L26.0841 106.504C25.2014 106 24.1881 106.555 23.8908 107.525C23.1628 109.899 22.5481 112.264 22.5481 112.264L27.3614 115.043C27.3614 115.043 27.9747 112.676 28.7014 110.303C28.9987 109.332 30.0121 108.779 30.8947 109.281Z" fill="#322E2E"/>
<path d="M31.072 105.303L29.8187 107.581C29.8107 107.593 29.9347 107.675 30.176 107.815C30.5667 108.04 31.1187 108.332 31.4067 108.464L31.5774 108.529L32.832 106.248L31.072 105.303Z" fill="#5E5457"/>
<path d="M29.3506 103.2L29.5332 102.86L29.5573 102.872L29.5786 102.881C30.7666 103.429 33.0452 104.633 34.6586 105.565C35.6492 106.137 36.1612 106.475 36.1346 106.524L36.0052 106.767L29.3506 103.2Z" fill="#473E40"/>
<path d="M33.724 105.227L33.708 105.255L33.572 105.176L33.724 105.227Z" fill="#100F0D"/>
<path d="M34.5359 105.827L34.4226 106.039L28.8533 102.967L29.0252 102.645L34.5359 105.827Z" fill="#595052"/>
<path d="M29.0213 102.644L28.8746 102.617L28.8533 102.657L28.9773 102.735L29.0252 102.645L29.0213 102.644Z" fill="#352F2F"/>
<path d="M33.2281 104.905C33.7281 105.193 33.8641 105.304 33.5721 105.176L35.5214 106.301L35.4307 106.26L35.4081 106.249L35.3841 106.239L35.3574 106.227L35.3081 106.203C35.0801 106.096 34.8201 105.969 34.5361 105.827L29.0254 102.645C29.1347 102.684 29.3014 102.755 29.5307 102.86L29.5534 102.869L29.5787 102.881L29.6761 102.927L31.6254 104.052C32.0427 104.252 32.7281 104.616 33.2281 104.905Z" fill="#2F2828"/>
<path d="M37.2707 107.135L36.752 108.099C36.7294 108.139 36.428 108.029 35.8267 107.752C34.268 107.032 31.276 105.452 29.1587 104.229C27.8587 103.479 27.1854 103.036 27.22 102.971L27.7387 102.007C27.704 102.072 28.3773 102.515 29.6773 103.265C31.7947 104.488 34.7867 106.068 36.3454 106.788C36.9467 107.065 37.248 107.176 37.2707 107.135Z" fill="#574D4F"/>
<path d="M29.856 104.627C30.9253 105.231 32.1319 105.884 33.2399 106.461L33.7493 105.493C32.6413 104.915 31.4346 104.261 30.3666 103.659L29.856 104.627Z" fill="#928B8C"/>
<path d="M35.4053 106.248L35.4307 106.26C36.6173 106.808 36.2707 106.496 34.6587 105.565C33.0453 104.633 30.7667 103.429 29.5787 102.881L29.5574 102.872L29.5333 102.86C28.4013 102.343 28.76 102.657 30.3507 103.576C31.9093 104.476 34.0907 105.631 35.3067 106.203L35.3574 106.227L35.38 106.237L35.4053 106.248ZM35.332 105.876C37.4493 107.099 37.904 107.508 36.3453 106.788C34.7867 106.068 31.7947 104.488 29.6773 103.265C27.56 102.043 27.1053 101.633 28.664 102.353C30.2227 103.073 33.2147 104.653 35.332 105.876Z" fill="#2F2828"/>
<path d="M56.1507 88.0706C56.1387 87.688 55.844 87.5466 55.5066 87.7426C52.2373 89.6293 46.7106 92.8213 43.4293 94.7146C43.2613 94.812 43.1253 95.0066 43.0813 95.2013C41.8653 100.469 40.5827 105.777 39.22 111.131C38.896 112.42 38.7187 113.691 38.7227 114.869C38.7267 116.332 38.72 117.803 38.7013 119.279C38.6906 119.675 38.9627 119.829 39.2893 119.64C40.3933 119.003 41.5093 118.359 42.6147 117.72C42.9187 117.544 43.2107 117.195 43.3907 116.779C44.1867 114.931 44.972 113.077 45.7573 111.221C46.0373 110.567 46.5213 109.976 47.04 109.677C49.3053 108.369 53.8187 105.764 56.084 104.456C56.2987 104.332 56.4666 104.04 56.4666 103.793C56.4626 98.4893 56.3573 93.244 56.1507 88.0706ZM62.428 82.9693C62.428 82.9693 63.2693 92.8093 63.2693 112.815L53.7586 118.305C50.316 120.293 46.7947 124.336 45.7413 128.727L44.276 134.861L35.8427 139.731V116.001C35.8427 114.976 35.992 113.871 36.2867 112.733L41.2227 93.6439C41.4587 92.7319 42.0933 91.8453 42.8053 91.4359L59.928 81.5279C60.4786 81.2093 61.0987 81.2453 61.5827 81.52C62.0747 81.7986 62.3573 82.2266 62.428 82.9693Z" fill="#C81E25"/>
<path d="M56.0839 104.456C53.8186 105.764 49.3052 108.369 47.0399 109.677C46.5212 109.976 46.0373 110.567 45.7573 111.221C44.9719 113.077 44.1866 114.931 43.3906 116.779C43.2106 117.195 42.9186 117.544 42.6146 117.72C41.5093 118.359 40.3933 119.003 39.2893 119.64C38.9626 119.829 38.6906 119.675 38.7012 119.279C38.7199 117.803 38.7266 116.332 38.7226 114.869C38.7186 113.691 38.8959 112.42 39.2199 111.131C40.5826 105.777 41.8653 100.469 43.0813 95.2013C43.1253 95.0066 43.2612 94.812 43.4292 94.7147C46.7106 92.8213 52.2372 89.6293 55.5066 87.7426L55.5252 87.7306C55.8559 87.5399 56.1386 87.696 56.1506 88.0706C56.3573 93.244 56.4626 98.4893 56.4666 103.793C56.4666 104.04 56.2986 104.332 56.0839 104.456ZM56.4546 87.8173C56.4426 87.4347 56.1706 87.2413 55.8999 87.2426L55.5732 87.34C52.2132 89.28 46.6079 92.5173 43.2479 94.456C43.0226 94.5853 42.8319 94.852 42.7652 95.1373C41.5599 100.4 40.2773 105.707 38.9146 111.048C38.5799 112.383 38.4146 113.659 38.4173 114.851C38.4106 116.411 38.4039 117.972 38.3853 119.539C38.3866 119.915 38.6466 120.115 38.9066 120.12L39.2226 120.029C40.4066 119.345 41.5892 118.663 42.7732 117.979C43.1332 117.771 43.4719 117.368 43.6732 116.901C44.4692 115.053 45.2546 113.199 46.0399 111.344C46.2986 110.741 46.7359 110.216 47.2106 109.943C49.4306 108.66 53.8879 106.088 56.0972 104.812C56.4799 104.591 56.7826 104.065 56.7826 103.624C56.7666 98.3013 56.6613 93.0293 56.4546 87.8173Z" fill="#262424"/>
<path d="M47.2107 107.22H56.4669V87.655H47.2107V107.22Z" fill="#39607C"/>
<path d="M40.896 118.712C41.5053 115.771 43.4547 112.692 45.832 111.059C45.8053 111.112 45.7814 111.167 45.7574 111.221C44.972 113.077 44.1867 114.931 43.3907 116.779C43.2107 117.195 42.9187 117.544 42.6147 117.72C42.044 118.051 41.4693 118.381 40.896 118.712Z" fill="#406782"/>
<path d="M39.0268 119.72C38.8348 119.72 38.7001 119.568 38.7014 119.299C38.7014 119.292 38.7014 119.285 38.7014 119.279C38.7161 118.079 38.7241 116.884 38.7241 115.693C38.7241 115.417 38.7228 115.143 38.7228 114.869C38.7228 114.86 38.7228 114.851 38.7228 114.841C38.7228 113.969 38.8201 113.048 39.0028 112.105L40.4974 112.969C40.5134 112.979 40.5294 112.988 40.5454 112.997H40.5468C41.5228 111.507 42.7721 110.228 44.1334 109.437L47.5681 107.455L48.1148 105.383L51.2961 107.22C49.6921 108.147 48.1134 109.057 47.0401 109.677C46.5654 109.952 46.1188 110.471 45.8321 111.059C43.4548 112.692 41.5054 115.771 40.8961 118.712C40.3601 119.023 39.8228 119.332 39.2894 119.64C39.1948 119.695 39.1068 119.72 39.0268 119.72ZM39.7974 111.851C39.7241 111.851 39.6588 111.833 39.6028 111.801C39.6028 111.801 39.6014 111.8 39.6001 111.8C39.6014 111.8 39.6028 111.801 39.6028 111.801C39.4681 111.724 39.3841 111.556 39.3841 111.319C39.3841 111.556 39.4681 111.724 39.6028 111.801C39.6588 111.833 39.7241 111.851 39.7974 111.851C39.8974 111.851 40.0108 111.819 40.1294 111.749C40.0108 111.819 39.8974 111.851 39.7974 111.851ZM39.5974 111.799C39.5961 111.797 39.5948 111.797 39.5934 111.796C39.5948 111.797 39.5961 111.797 39.5974 111.799ZM39.5841 111.791C39.5828 111.791 39.5828 111.789 39.5828 111.789C39.5828 111.789 39.5828 111.791 39.5841 111.791ZM39.5788 111.787C39.5748 111.785 39.5721 111.784 39.5681 111.781C39.5721 111.784 39.5748 111.785 39.5788 111.787ZM39.5628 111.777C39.5561 111.775 39.5494 111.771 39.5428 111.767C39.5494 111.771 39.5561 111.775 39.5628 111.777ZM44.6121 105.94C45.4361 105.612 46.3441 105.264 47.2108 104.861C46.3441 105.264 45.4361 105.612 44.6121 105.94Z" fill="#507B95"/>
<path d="M39.7973 111.851C39.724 111.851 39.6587 111.833 39.6027 111.801C39.468 111.724 39.384 111.556 39.384 111.319V110.593C39.384 110.552 39.3854 110.509 39.388 110.467C39.4627 110.173 39.5374 109.881 39.6107 109.588C39.796 109.156 40.0813 108.747 40.4267 108.451C41.688 107.371 42.8587 106.653 44.136 106.132C44.2907 106.069 44.4494 106.005 44.612 105.94C45.436 105.612 46.344 105.264 47.2107 104.861C47.6254 104.668 48.032 104.463 48.4147 104.241L48.1147 105.383L47.568 107.455L44.1333 109.437C44.1387 109.435 44.1427 109.432 44.148 109.429L40.1293 111.749C40.0107 111.819 39.8973 111.851 39.7973 111.851Z" fill="#507995"/>
<path d="M39.6026 111.801C39.6026 111.801 39.6013 111.8 39.5999 111.8C39.5986 111.799 39.5986 111.799 39.5972 111.799C39.5959 111.797 39.5946 111.797 39.5932 111.796C39.5919 111.795 39.5893 111.793 39.5866 111.792C39.5853 111.791 39.5839 111.791 39.5839 111.791C39.5826 111.791 39.5826 111.789 39.5826 111.789C39.5813 111.789 39.5799 111.788 39.5786 111.787C39.5746 111.785 39.5719 111.784 39.5679 111.781C39.5653 111.78 39.5639 111.779 39.5626 111.777C39.5559 111.775 39.5493 111.771 39.5426 111.767C39.4666 111.723 39.3212 111.639 39.1252 111.525C39.1546 111.395 39.1866 111.263 39.2199 111.131C39.2759 110.909 39.3319 110.688 39.3879 110.467C39.3853 110.509 39.3839 110.552 39.3839 110.593V111.319C39.3839 111.556 39.4679 111.724 39.6026 111.801ZM39.6106 109.588C40.2026 107.239 40.7799 104.899 41.3426 102.567L46.1306 105.331C46.6319 105.124 47.1359 104.904 47.6199 104.664C47.4853 104.731 47.3479 104.797 47.2106 104.861C46.3439 105.264 45.4359 105.612 44.6119 105.94C44.4493 106.005 44.2906 106.069 44.1359 106.132C42.8586 106.653 41.6879 107.371 40.4266 108.451C40.0812 108.747 39.7959 109.156 39.6106 109.588ZM47.6226 104.663C47.6319 104.659 47.6399 104.655 47.6493 104.651C47.6399 104.655 47.6319 104.659 47.6226 104.663ZM47.6639 104.643C47.6679 104.64 47.6719 104.639 47.6773 104.636C47.6719 104.639 47.6679 104.64 47.6639 104.643ZM47.7013 104.624C47.7026 104.624 47.7026 104.624 47.7039 104.623C47.7026 104.624 47.7026 104.624 47.7013 104.624Z" fill="#476F8B"/>
<path d="M40.4973 112.969L39.0027 112.105C39.04 111.913 39.0813 111.72 39.1253 111.525C39.3213 111.639 39.4667 111.723 39.5427 111.767C39.5494 111.771 39.556 111.775 39.5627 111.777C39.564 111.779 39.5654 111.78 39.568 111.781C39.572 111.784 39.5747 111.785 39.5787 111.787C39.58 111.788 39.5814 111.789 39.5827 111.789C39.5827 111.789 39.5827 111.791 39.584 111.791C39.584 111.791 39.5854 111.791 39.5867 111.792C39.5894 111.793 39.592 111.795 39.5933 111.796C39.5947 111.797 39.596 111.797 39.5973 111.799C39.5987 111.799 39.5987 111.799 39.6 111.8C39.6013 111.8 39.6027 111.801 39.6027 111.801C39.6587 111.833 39.724 111.851 39.7973 111.851C39.8973 111.851 40.0107 111.819 40.1293 111.749C40.1293 112.311 40.2307 112.788 40.4973 112.969Z" fill="#3B637E"/>
<path d="M50.4039 94.0333C50.3253 93.9973 50.2373 93.9787 50.1399 93.9773C50.2373 93.9787 50.3253 93.9973 50.4039 94.0333ZM49.8333 94.032C49.8399 94.0307 49.8466 94.028 49.8533 94.0253C49.8466 94.028 49.8399 94.0307 49.8333 94.032ZM50.1279 93.9787C50.1306 93.9774 50.1333 93.9773 50.1359 93.9773C50.1333 93.9773 50.1306 93.9774 50.1279 93.9787Z" fill="#39607C"/>
<path d="M46.1306 105.331L46.4933 103.829C46.6653 103.119 46.7866 102.421 46.8639 101.739C46.9746 100.764 47.1906 99.5321 47.6093 98.0934C47.9026 97.0854 48.2386 96.1734 48.5653 95.3854C48.8333 94.7387 49.34 94.2014 49.8333 94.0321C49.84 94.0307 49.8466 94.028 49.8533 94.0254C49.8666 94.0214 49.8799 94.0174 49.8933 94.0134C49.9759 93.9907 50.0546 93.9787 50.1279 93.9787C50.1306 93.9774 50.1333 93.9774 50.136 93.9774C50.1373 93.9774 50.1386 93.9774 50.14 93.9774C50.2373 93.9787 50.3253 93.9974 50.404 94.0334C50.42 94.0414 50.4346 94.0494 50.4506 94.0574C50.7693 94.2427 50.9013 94.7294 50.7373 95.3574L48.4146 104.241C48.1853 104.373 47.9466 104.501 47.704 104.623C47.7026 104.624 47.7026 104.624 47.7013 104.624C47.6933 104.628 47.6853 104.632 47.6773 104.636C47.672 104.639 47.6679 104.64 47.6639 104.643C47.6586 104.645 47.6533 104.648 47.6493 104.651C47.64 104.655 47.632 104.659 47.6226 104.663C47.6213 104.664 47.6213 104.664 47.62 104.664C47.136 104.904 46.6319 105.124 46.1306 105.331Z" fill="#507995"/>
<path d="M46.1306 105.331L41.3427 102.567C41.9373 100.103 42.516 97.6481 43.0813 95.2014C43.1253 95.0067 43.2613 94.8121 43.4293 94.7147C44.5786 94.0521 46.0013 93.2294 47.508 92.3601C49.0226 93.2347 50.4507 94.0574 50.4507 94.0574C50.4347 94.0494 50.42 94.0414 50.404 94.0334C50.3253 93.9974 50.2373 93.9787 50.14 93.9774C50.1386 93.9774 50.1373 93.9774 50.136 93.9774C50.1333 93.9774 50.1306 93.9774 50.128 93.9787C50.0546 93.9787 49.976 93.9907 49.8933 94.0134C49.88 94.0174 49.8667 94.0213 49.8533 94.0253C49.8467 94.028 49.84 94.0307 49.8333 94.0321C49.34 94.2014 48.8333 94.7387 48.5653 95.3854C48.2386 96.1734 47.9027 97.0854 47.6093 98.0934C47.1907 99.5321 46.9746 100.764 46.864 101.739C46.7866 102.421 46.6653 103.119 46.4933 103.829L46.1306 105.331Z" fill="#426A86"/>
<path d="M40.5454 112.997C40.5294 112.988 40.5134 112.979 40.4974 112.969C40.2307 112.788 40.1294 112.311 40.1294 111.749L44.1481 109.429C44.1427 109.432 44.1387 109.435 44.1334 109.437C42.7721 110.228 41.5227 111.507 40.5467 112.997H40.5454Z" fill="#406782"/>
<path d="M39.0268 119.72C39.0241 119.72 39.0228 119.72 39.0201 119.72C38.8308 119.717 38.7001 119.565 38.7014 119.299C38.7001 119.568 38.8348 119.72 39.0268 119.72C39.1068 119.72 39.1948 119.695 39.2894 119.64C39.8228 119.332 40.3601 119.023 40.8961 118.712C41.4694 118.381 42.0441 118.051 42.6148 117.72C42.9188 117.544 43.2108 117.195 43.3908 116.779C44.1868 114.931 44.9721 113.077 45.7574 111.221C45.7814 111.167 45.8054 111.112 45.8321 111.059C46.1188 110.471 46.5654 109.952 47.0401 109.677C48.1134 109.057 49.6921 108.147 51.2961 107.22C53.0788 106.191 54.8921 105.144 56.0841 104.456C56.2988 104.332 56.4668 104.04 56.4668 103.793C56.4668 104.04 56.2988 104.332 56.0841 104.456C53.8188 105.764 49.3054 108.369 47.0401 109.677C46.5214 109.976 46.0374 110.567 45.7574 111.221C44.9721 113.077 44.1868 114.931 43.3908 116.779C43.2108 117.195 42.9188 117.544 42.6148 117.72C41.5094 118.359 40.3934 119.003 39.2894 119.64C39.2801 119.645 39.2708 119.651 39.2614 119.655C39.1814 119.697 39.1041 119.719 39.0348 119.72C39.0321 119.72 39.0294 119.72 39.0268 119.72ZM38.7241 115.693C38.7241 115.417 38.7228 115.143 38.7228 114.869C38.7228 114.86 38.7228 114.851 38.7228 114.841C38.7228 114.851 38.7228 114.86 38.7228 114.869C38.7228 115.143 38.7241 115.417 38.7241 115.693Z" fill="#895679"/>
<path d="M37.5839 131.629C37.2386 131.629 37.0146 131.344 37.0292 130.857C37.2172 125.611 37.3039 120.436 37.3012 115.313C37.2972 114.212 37.4532 113.033 37.7652 111.803C39.2172 106.085 40.5786 100.421 41.8612 94.8026C41.9946 94.2332 42.3879 93.6679 42.8386 93.4079C46.6146 91.2279 52.6386 87.7506 56.4146 85.5692C56.5879 85.4692 56.7546 85.4226 56.9039 85.4226C57.2599 85.4226 57.5172 85.6906 57.5346 86.156C57.8852 94.4773 57.8213 102.96 57.8213 111.575C57.8213 112.409 57.5132 112.984 56.7306 113.436C56.6066 113.508 54.2359 114.877 54.0999 114.955C52.2292 116.036 50.4279 117.737 48.8759 119.917C47.4693 121.871 45.9946 124.292 45.2106 126.575C45.0159 127.14 44.6146 127.696 44.1759 127.951C41.9773 129.219 40.2679 130.207 38.0586 131.483C37.8852 131.581 37.7239 131.629 37.5839 131.629ZM56.7719 85.8093C56.6666 85.8093 56.5492 85.8426 56.4266 85.9133L42.8506 93.7506C42.5359 93.9333 42.2546 94.3293 42.1546 94.7506C40.8719 100.369 39.4986 106.04 38.0586 111.749C37.7572 112.935 37.6026 114.075 37.6053 115.137C37.6079 120.26 37.5212 125.435 37.3332 130.681C37.3266 131.027 37.4906 131.228 37.7359 131.228C37.8359 131.228 37.9479 131.196 38.0679 131.127C40.2772 129.851 41.9879 128.863 44.1972 127.588C44.5132 127.405 44.7892 127.011 44.9279 126.608C45.8039 124.073 47.2439 121.768 48.7053 119.731C50.3026 117.485 52.1719 115.719 54.1106 114.599C54.2346 114.527 56.6066 113.159 56.7292 113.087C57.1586 112.839 57.5066 112.236 57.5159 111.751C57.6733 103.136 57.5812 94.6519 57.2292 86.3319C57.2132 86.0026 57.0279 85.8093 56.7719 85.8093Z" fill="#89181D"/>
<path d="M35.2774 114.249L6.85742 97.84L11.9534 77.9293C16.3708 80.7946 21.0734 83.6879 26.0641 86.5666C30.9721 89.3973 35.7547 91.9813 40.3734 94.3386L35.2774 114.249ZM32.1241 64.512C31.6334 64.2133 30.9921 64.164 30.4241 64.4933L13.3001 74.3999C12.5881 74.8119 11.9548 75.6973 11.7188 76.6093L6.78141 95.6986C6.48808 96.836 6.3374 97.9413 6.3374 98.9666V121.06C6.3374 122.072 6.87742 123.008 7.75475 123.515L35.8427 139.731V116.001C35.8427 114.976 35.9921 113.871 36.2868 112.733L41.2228 93.6439C41.4588 92.7319 42.0934 91.8453 42.8054 91.4359L59.9281 81.5279C60.4787 81.2093 61.0988 81.2453 61.5827 81.52L32.1241 64.512Z" fill="#E11D25"/>
<path d="M7.98408 98.0146L6.85742 97.84C10.6988 100.613 15.0147 103.472 19.8147 106.281C25.2654 109.472 30.4747 112.093 35.2827 114.252L35.4627 113.524C30.8387 111.184 26.0334 108.585 21.0921 105.699C17.0307 103.325 13.1868 100.937 9.55742 98.5666C9.07209 98.2866 8.53875 98.1 7.98408 98.0146Z" fill="#161413"/>
<path d="M24.3372 80.996C23.6759 80.996 23.1399 80.6853 23.1399 80.3053C23.1399 79.9226 23.6759 79.6133 24.3372 79.6133C24.9986 79.6133 25.5346 79.9226 25.5346 80.3053C25.5346 80.6853 24.9986 80.996 24.3372 80.996Z" fill="#697983"/>
<path d="M24.3372 80.996C23.6759 80.996 23.1399 80.6853 23.1399 80.3053V80.5987C23.1399 80.9813 23.6759 81.2906 24.3372 81.2906C24.9986 81.2906 25.5346 80.9813 25.5346 80.5987V80.3053C25.5346 80.6853 24.9986 80.996 24.3372 80.996Z" fill="#3F444D"/>
<path d="M24.3373 79.6133C23.9653 79.6133 23.6653 79.4399 23.6653 79.2253C23.6653 79.0106 23.9653 78.8373 24.3373 78.8373C24.708 78.8373 25.0093 79.0106 25.0093 79.2253C25.0093 79.4399 24.708 79.6133 24.3373 79.6133Z" fill="#FAD013"/>
<path d="M24.3374 79.6133C23.9654 79.6133 23.6654 79.4399 23.6654 79.2253L23.4761 80.3053C23.4761 80.5786 23.8614 80.8026 24.3374 80.8026C24.8134 80.8026 25.1987 80.5786 25.1987 80.3053L25.0094 79.2253C25.0094 79.4399 24.7081 79.6133 24.3374 79.6133Z" fill="#F89B0F"/>
<path d="M32.756 85.8561C32.0946 85.8561 31.5586 85.5467 31.5586 85.164C31.5586 84.7827 32.0946 84.4734 32.756 84.4734C33.416 84.4734 33.952 84.7827 33.952 85.164C33.952 85.5467 33.416 85.8561 32.756 85.8561Z" fill="#697983"/>
<path d="M32.756 85.8561C32.0946 85.8561 31.5586 85.5467 31.5586 85.164V85.4587C31.5586 85.84 32.0946 86.1508 32.756 86.1508C33.416 86.1508 33.952 85.84 33.952 85.4587V85.164C33.952 85.5467 33.416 85.8561 32.756 85.8561Z" fill="#3F444D"/>
<path d="M32.7561 84.4733C32.3841 84.4733 32.0828 84.2999 32.0828 84.0852C32.0828 83.8719 32.3841 83.6972 32.7561 83.6972C33.1268 83.6972 33.4281 83.8719 33.4281 84.0852C33.4281 84.2999 33.1268 84.4733 32.7561 84.4733Z" fill="#FAD013"/>
<path d="M32.756 84.4734C32.384 84.4734 32.0827 84.3 32.0827 84.0854L31.8933 85.164C31.8933 85.44 32.28 85.6627 32.756 85.6627C33.2307 85.6627 33.6173 85.44 33.6173 85.164L33.428 84.0854C33.428 84.3 33.1267 84.4734 32.756 84.4734Z" fill="#F89B0F"/>
<path d="M28.5467 83.4253C27.8854 83.4253 27.3494 83.116 27.3494 82.7347C27.3494 82.3533 27.8854 82.044 28.5467 82.044C29.2067 82.044 29.7427 82.3533 29.7427 82.7347C29.7427 83.116 29.2067 83.4253 28.5467 83.4253Z" fill="#697983"/>
<path d="M28.5467 83.4254C27.8854 83.4254 27.3494 83.1161 27.3494 82.7347V83.0294C27.3494 83.4107 27.8854 83.7201 28.5467 83.7201C29.2067 83.7201 29.7427 83.4107 29.7427 83.0294V82.7347C29.7427 83.1161 29.2067 83.4254 28.5467 83.4254Z" fill="#3F444D"/>
<path d="M28.5468 82.0439C28.1748 82.0439 27.8748 81.8693 27.8748 81.6546C27.8748 81.4413 28.1748 81.2666 28.5468 81.2666C28.9174 81.2666 29.2188 81.4413 29.2188 81.6546C29.2188 81.8693 28.9174 82.0439 28.5468 82.0439Z" fill="#FAD013"/>
<path d="M28.5467 82.044C28.1747 82.044 27.8747 81.8694 27.8747 81.6547L27.6841 82.7347C27.6841 83.0094 28.0707 83.2321 28.5467 83.2321C29.0227 83.2321 29.4081 83.0094 29.4081 82.7347L29.2188 81.6547C29.2188 81.8694 28.9174 82.044 28.5467 82.044Z" fill="#F89B0F"/>
<path d="M5.55462 102.785C5.95329 103.016 6.64794 102.987 7.10661 102.721L8.11328 102.14L6.67327 101.309L5.6666 101.891C5.41593 102.035 5.28662 102.22 5.28662 102.396C5.28662 102.543 5.37462 102.681 5.55462 102.785Z" fill="#373132"/>
<path d="M7.10661 102.721C6.64794 102.987 5.95329 103.016 5.55462 102.785C5.37462 102.681 5.28662 102.543 5.28662 102.396C5.28662 102.396 5.28662 103.369 5.28662 103.545C5.28662 103.691 5.37596 103.829 5.55462 103.933C5.95329 104.164 6.64794 104.135 7.10661 103.869L8.11328 103.288V102.14L7.10661 102.721Z" fill="#1B1817"/>
<path d="M33.0748 118.673C32.8948 118.571 32.8068 118.432 32.8054 118.285C32.8054 118.109 32.9348 117.924 33.1854 117.779L34.1921 117.197L35.6334 118.029L34.6267 118.609C34.1667 118.875 33.4721 118.904 33.0748 118.673Z" fill="#373132"/>
<path d="M34.6267 118.609C34.1667 118.875 33.4721 118.904 33.0748 118.673C32.8948 118.571 32.8068 118.432 32.8054 118.285C32.8054 118.285 32.8054 119.257 32.8054 119.433C32.8068 119.579 32.8948 119.719 33.0748 119.821C33.4721 120.052 34.1667 120.023 34.6267 119.757L35.6334 119.176V118.029L34.6267 118.609Z" fill="#1B1817"/>
<path d="M37.2307 120.511C37.0227 120.511 36.8001 120.444 36.5721 120.312L34.7747 119.292L34.6841 118.953L35.0228 118.863L36.8188 119.884C37.0548 120.02 37.2734 120.051 37.4188 119.968C37.5628 119.884 37.6454 119.68 37.6454 119.407V117.573C37.6454 117.437 37.7561 117.327 37.8934 117.327C38.0307 117.327 38.1414 117.437 38.1414 117.573V119.407C38.1414 119.868 37.9721 120.22 37.6667 120.397C37.5347 120.472 37.3867 120.511 37.2307 120.511Z" fill="#262424"/>
<path d="M30.7093 128.54L35.3266 131.205V127.149L30.7093 124.484C30.4733 124.348 30.2586 124.339 30.0933 124.435C29.8933 124.551 29.7666 124.817 29.7666 125.197V126.739C29.7666 127.433 30.1893 128.24 30.7093 128.54Z" fill="#CCDED3"/>
<path d="M30.6093 124.136C30.7746 124.041 30.9906 124.051 31.2253 124.187L35.8426 126.852L35.3266 127.149L30.7093 124.484C30.4733 124.348 30.2586 124.339 30.0933 124.435C30.0933 124.435 30.4093 124.252 30.6093 124.136Z" fill="#DDEFE4"/>
<path d="M35.8427 126.852V130.908L35.3267 131.205V127.149L35.8427 126.852Z" fill="#B0C0BB"/>
<path d="M33.9453 128.208V127.132L32.5759 126.341V127.417L33.9453 128.208Z" fill="#F7D508"/>
<path d="M34.6507 130.036L33.9454 128.208L32.5761 127.417L30.4414 127.607L34.6507 130.036Z" fill="#F3FBF7"/>
<path d="M32.5761 126.341V127.417L30.4414 127.607V125.109L32.5761 126.341Z" fill="#DDEFE4"/>
<path d="M33.9453 127.132V128.208L34.6507 130.036V127.54L33.9453 127.132Z" fill="#DDEFE4"/>
<path d="M32.7053 126.416L34.6507 127.539L33.9453 127.3V127.132L32.7053 126.416Z" fill="#B0C0BB"/>
<path d="M32.5761 126.343V126.509L30.4414 125.109L32.5761 126.343Z" fill="#B0C0BB"/>
<path d="M10.4361 116.836L5.82007 114.171V110.115L10.4361 112.779C10.9574 113.08 11.3787 113.887 11.3787 114.581V116.123C11.3787 116.503 11.2521 116.771 11.0534 116.885C10.8881 116.981 10.6721 116.972 10.4361 116.836Z" fill="#CCDED3"/>
<path d="M11.3787 116.123V114.581C11.3787 113.887 10.9574 113.08 10.4361 112.779L5.82007 110.115L6.33605 109.816L10.9521 112.481C11.4734 112.781 11.8947 113.588 11.8947 114.283V115.825C11.8947 116.205 11.7694 116.472 11.5694 116.587C11.4041 116.683 11.0534 116.885 11.0534 116.885C11.2521 116.771 11.3787 116.503 11.3787 116.123Z" fill="#DDEFE4"/>
<path d="M9.99873 114.383V113.307L8.62939 112.516V113.592L9.99873 114.383Z" fill="#F7D508"/>
<path d="M10.704 116.211L9.99863 114.381L8.6293 113.592L6.49463 113.781L10.704 116.211Z" fill="#F3FBF7"/>
<path d="M8.6293 112.516V113.592L6.49463 113.781V111.284L8.6293 112.516Z" fill="#DDEFE4"/>
<path d="M9.99866 113.307V114.383L10.704 116.211V113.713L9.99866 113.307Z" fill="#DDEFE4"/>
<path d="M8.75732 112.591L10.704 113.713L9.99863 113.475V113.307L8.75732 112.591Z" fill="#B0C0BB"/>
<path d="M8.6293 112.516V112.684L6.49463 111.284L8.6293 112.516Z" fill="#B0C0BB"/>
<path d="M35.3266 131.205L30.7093 128.54C30.1893 128.24 29.7666 127.433 29.7666 126.739V125.197C29.7666 124.817 29.8933 124.551 30.0933 124.435C30.0959 124.432 30.0999 124.431 30.1039 124.428C30.1079 124.427 30.1106 124.425 30.1133 124.424C30.1173 124.421 30.1213 124.419 30.1266 124.417C30.1906 124.387 30.2599 124.372 30.3359 124.372C30.4506 124.372 30.5773 124.408 30.7093 124.484L35.3266 127.149V131.205ZM33.9453 127.3V128.208L34.6506 130.036V127.54L33.9453 127.132L33.5066 126.879L32.5759 126.341L30.4413 125.109V127.607L34.6506 130.036L33.9453 128.208L32.5759 127.417L33.9453 128.208V127.3V127.132V127.3Z" fill="#E2ECE6"/>
<path d="M33.9453 128.208L32.5759 127.417V126.509L33.9453 127.3V128.208ZM33.9453 127.132L32.5759 126.343V126.341L33.5066 126.879L32.7053 126.416L33.9453 127.132Z" fill="#F9E84A"/>
<path d="M33.9453 127.3L32.5759 126.509V126.343L33.9453 127.132V127.3Z" fill="#EADB4C"/>
<path d="M34.6507 130.036L30.4414 127.607L32.5761 127.417L33.9454 128.208L34.6507 130.036Z" fill="#F9FDFC"/>
<path d="M30.4414 127.607V125.109L32.5761 126.341V126.343L30.4414 125.109L32.5761 126.509V127.417L30.4414 127.607Z" fill="#ECF6F1"/>
<path d="M34.6507 130.036L33.9453 128.208V127.3L34.6507 127.539L33.9453 127.132L34.6507 127.54V130.036Z" fill="#ECF6F1"/>
<path d="M34.6507 127.539L33.9453 127.3V127.132L32.7053 126.416L33.5067 126.879L33.9453 127.132L34.6507 127.539Z" fill="#D2DCD9"/>
<path d="M32.5761 126.509L30.4414 125.109L32.5761 126.343V126.509Z" fill="#D2DCD9"/>
<path d="M10.8107 116.948C10.6961 116.948 10.5694 116.912 10.4361 116.836L5.82007 114.171V110.115L10.4361 112.779C10.9574 113.08 11.3787 113.887 11.3787 114.581V116.123C11.3787 116.503 11.2521 116.769 11.0534 116.885C10.9814 116.927 10.8987 116.948 10.8107 116.948ZM9.99871 113.475V114.383L10.7041 116.211V113.713L9.99871 113.307L8.75741 112.591L9.99871 113.307L8.62938 112.516L6.49471 111.284V113.781L10.7041 116.211L9.99871 114.381V113.475V113.307V113.475Z" fill="#E2ECE6"/>
<path d="M11.0534 116.885C11.2521 116.769 11.3787 116.503 11.3787 116.123V114.581V116.123C11.3787 116.503 11.2521 116.769 11.0534 116.885ZM10.4361 112.779L5.82007 110.115L10.4361 112.779Z" fill="#ECF6F1"/>
<path d="M9.99873 114.381L8.62939 113.592V112.684L9.99873 113.475V114.381Z" fill="#F9E84A"/>
<path d="M9.99873 113.475L8.62939 112.684V112.516L9.99873 113.307V113.475Z" fill="#EADB4C"/>
<path d="M10.704 116.211L6.49463 113.781L8.6293 113.592L9.99863 114.381L10.704 116.211Z" fill="#F9FDFC"/>
<path d="M6.49463 113.781V111.284L8.6293 112.516L6.49463 111.284L8.6293 112.684V113.592L6.49463 113.781Z" fill="#ECF6F1"/>
<path d="M10.704 116.211L9.99866 114.383V113.475L10.704 113.713L9.99866 113.307L10.704 113.713V116.211Z" fill="#ECF6F1"/>
<path d="M10.704 113.713L9.99863 113.475V113.307L8.75732 112.591L9.99863 113.307L10.704 113.713Z" fill="#D2DCD9"/>
<path d="M8.6293 112.684L6.49463 111.284L8.6293 112.516V112.684Z" fill="#D2DCD9"/>
<path d="M41.576 86.9679L54.2706 79.6385C54.472 79.5225 54.796 79.5225 54.9973 79.6385L56.0227 80.2305L56.1733 80.4399L56.0227 80.6492L43.3266 87.9786C43.1266 88.0946 42.8013 88.0946 42.6013 87.9786L41.576 87.3866L41.4253 87.1772L41.576 86.9679Z" fill="#EA1C24"/>
<path d="M42.964 88.3439C42.832 88.3439 42.7013 88.3146 42.6013 88.2572L41.576 87.6639L41.4253 87.4545V87.1772L41.576 87.3866L42.6013 87.9786C42.7013 88.0372 42.832 88.0665 42.964 88.0665C43.096 88.0665 43.2266 88.0372 43.3266 87.9786L56.0227 80.6492L56.1733 80.4399V80.7172L56.0227 80.9266L43.3266 88.2572C43.2266 88.3146 43.096 88.3439 42.964 88.3439Z" fill="#D11E25"/>
<path d="M42.9639 88.0665C42.8319 88.0665 42.7013 88.0372 42.6013 87.9786L41.5759 87.3866L42.6013 87.9786C42.7013 88.0372 42.8319 88.0652 42.9639 88.0652C43.0959 88.0652 43.2266 88.0372 43.3266 87.9786L56.0226 80.6492L43.3266 87.9786C43.2266 88.0372 43.0959 88.0665 42.9639 88.0665Z" fill="#E11D25"/>
<path d="M18.3826 73.5772L31.0786 66.248C31.2786 66.132 31.6039 66.132 31.8039 66.248L32.8293 66.8399L32.9799 67.0493L32.8293 67.2586L20.1346 74.5879C19.9333 74.7039 19.6079 74.7039 19.4079 74.5879L18.3826 73.9959L18.2319 73.7879L18.3826 73.5772Z" fill="#EA1C24"/>
<path d="M19.7706 74.9532C19.6399 74.9532 19.5079 74.9239 19.4079 74.8665L18.3826 74.2745L18.2319 74.0639V73.7879L18.3826 73.9959L19.4079 74.5879C19.5079 74.6465 19.6399 74.6759 19.7706 74.6759C19.9026 74.6759 20.0333 74.6465 20.1346 74.5879L32.8293 67.2585L32.9799 67.0492V67.3266L32.8293 67.5359L20.1346 74.8665C20.0333 74.9239 19.9026 74.9532 19.7706 74.9532Z" fill="#D11E25"/>
<path d="M19.7706 74.6759C19.6399 74.6759 19.5079 74.6465 19.4079 74.5879L18.3826 73.9959L19.4079 74.5879C19.5079 74.6465 19.6399 74.6759 19.7706 74.6759C19.9026 74.6759 20.0332 74.6465 20.1346 74.5879C20.0332 74.6465 19.9026 74.6759 19.7706 74.6759Z" fill="#E11D25"/>
<path d="M23.0213 76.2547L35.7173 68.9267C35.9173 68.8093 36.2426 68.8093 36.4426 68.9267L37.4679 69.5174L37.6186 69.728L37.4679 69.9373L24.7733 77.2666C24.5719 77.3826 24.2466 77.3826 24.0466 77.2666L23.0213 76.6746L22.8706 76.4653L23.0213 76.2547Z" fill="#EA1C24"/>
<path d="M24.4093 77.6306C24.2786 77.6306 24.1466 77.6026 24.0466 77.544L23.0213 76.952L22.8706 76.7427V76.4653L23.0213 76.6746L24.0466 77.2666C24.1466 77.324 24.2786 77.3533 24.4093 77.3533C24.5413 77.3533 24.6719 77.324 24.7733 77.2666L37.4679 69.9373L37.6186 69.7279V69.7266V70.0053L37.4679 70.2147L24.7733 77.544C24.6719 77.6026 24.5413 77.6306 24.4093 77.6306Z" fill="#D11E25"/>
<path d="M37.468 69.9374L37.6187 69.728L37.468 69.9374Z" fill="#E11D25"/>
<path d="M27.6599 78.9333L40.3546 71.604C40.556 71.488 40.8813 71.488 41.0813 71.604L42.1066 72.196L42.2573 72.4053L42.1066 72.6147L29.4106 79.9454C29.2106 80.06 28.8853 80.06 28.6853 79.9454L27.6599 79.352L27.5093 79.144L27.6599 78.9333Z" fill="#EA1C24"/>
<path d="M29.0479 80.3093C28.9173 80.3093 28.7853 80.28 28.6853 80.2227L27.6599 79.6306L27.5093 79.4213V79.144L27.6599 79.352L28.6853 79.9453C28.7853 80.0027 28.9173 80.032 29.0479 80.032C29.1799 80.032 29.3106 80.0027 29.4106 79.9453L42.1066 72.6147L42.2573 72.4053V72.684L42.1066 72.8933L29.4106 80.2227C29.3106 80.28 29.1799 80.3093 29.0479 80.3093Z" fill="#D11E25"/>
<path d="M32.2986 81.6119L44.9933 74.2813C45.1946 74.1666 45.52 74.1666 45.72 74.2813L46.7453 74.8732L46.8959 75.0839L46.7453 75.2932L34.0493 82.6226C33.8493 82.7386 33.524 82.7386 33.324 82.6226L32.2986 82.0305L32.1479 81.8212L32.2986 81.6119Z" fill="#EA1C24"/>
<path d="M33.6866 82.9879C33.556 82.9879 33.424 82.9586 33.324 82.8999L32.2986 82.3079L32.1479 82.0986V81.8212L32.2986 82.0306L33.324 82.6226C33.424 82.6813 33.556 82.7093 33.6866 82.7093C33.8186 82.7093 33.9493 82.6813 34.0493 82.6226L46.7453 75.2933L46.8959 75.0839V75.3612L46.7453 75.5706L34.0493 82.8999C33.9493 82.9586 33.8186 82.9879 33.6866 82.9879Z" fill="#D11E25"/>
<path d="M33.6866 82.7094C33.556 82.7094 33.424 82.6814 33.324 82.6227C33.424 82.6814 33.556 82.7094 33.6866 82.7094C33.8186 82.7094 33.9493 82.6814 34.0493 82.6227C33.9493 82.6814 33.8186 82.7094 33.6866 82.7094Z" fill="#E11D25"/>
<path d="M36.9373 84.2893L49.6319 76.96C49.8333 76.844 50.1573 76.844 50.3586 76.96L51.384 77.552L51.5346 77.7626L51.384 77.9719L38.688 85.3013C38.488 85.4173 38.1626 85.4173 37.9626 85.3013L36.9373 84.7093L36.7866 84.4999L36.9373 84.2893Z" fill="#EA1C24"/>
<path d="M38.3253 85.6654C38.1933 85.6654 38.0626 85.6361 37.9626 85.5788L36.9373 84.9868L36.7866 84.7774V84.5L36.8613 84.6041L36.9373 84.7094L37.9626 85.3014C38.0626 85.3587 38.1933 85.3881 38.3253 85.3881C38.4573 85.3881 38.588 85.3587 38.688 85.3014L51.384 77.972L51.5346 77.7627V77.7614V78.0387L51.384 78.2494L38.688 85.5788C38.588 85.6361 38.4573 85.6654 38.3253 85.6654Z" fill="#D11E25"/>
<path d="M38.3253 85.3881C38.4573 85.3881 38.588 85.3587 38.688 85.3014L51.384 77.9707L51.5346 77.7614V77.7627L51.384 77.972L38.688 85.3014C38.588 85.3587 38.4573 85.3881 38.3253 85.3881ZM36.8613 84.6041L36.7866 84.5L36.8613 84.6041Z" fill="#E11D25"/>
<path d="M66.5907 124.369V123.847C66.7747 118.453 62.7733 115.617 58.052 118.016C58.0773 118.313 58.0893 118.621 58.0893 118.939V119.451C58.0893 119.665 58.2053 119.865 58.392 119.973L66.8773 124.871C66.7107 124.772 66.5907 124.592 66.5907 124.369Z" fill="#100F0D"/>
<path d="M48.3814 124.651C49.6987 122.369 51.428 120.612 53.16 119.612C54.244 118.985 55.3281 118.657 56.3121 118.684C56.6601 118.693 57.0081 118.703 57.3561 118.712H57.3614C57.9827 118.729 58.5681 118.88 59.0907 119.179L62.4094 121.108C61.0107 120.312 59.1801 120.567 57.3534 121.621C55.5254 122.676 53.7001 124.532 52.3107 126.939C49.5307 131.755 49.5454 136.948 52.3441 138.543L49.0254 136.613C47.8387 135.931 47.2694 134.579 47.1694 134.413C45.8547 132.244 46.2574 128.331 48.3814 124.651Z" fill="#1B1918"/>
<path d="M52.3106 126.939C53.7 124.532 55.5253 122.676 57.3533 121.621C59.18 120.567 61.0106 120.312 62.4093 121.108C63.3493 121.648 64.12 123.06 64.416 124.373C64.6 125.192 55.3933 138.787 55.3933 138.787C54.34 139.007 52.8653 138.845 52.344 138.543C49.4946 136.887 49.5306 131.755 52.3106 126.939Z" fill="#262424"/>
<path d="M53.088 138.403C55.7306 139.929 60.0146 137.456 62.6573 132.879C65.3 128.301 65.3 123.355 62.6573 121.829C60.0146 120.303 55.7306 122.776 53.088 127.353C50.4453 131.931 50.4453 136.877 53.088 138.403Z" fill="#1B1918"/>
<path d="M54.8773 135.304C56.532 136.259 59.2147 134.711 60.868 131.845C62.5227 128.98 62.5227 125.884 60.868 124.928C59.2147 123.973 56.532 125.521 54.8773 128.387C53.224 131.252 53.224 134.349 54.8773 135.304Z" fill="#100F0D"/>
<path d="M53.6414 132.331L55.624 131.931C55.6587 132.113 55.7147 132.281 55.7907 132.428L54.5653 135.083C53.9027 134.511 53.5947 133.516 53.6414 132.331ZM56.3774 135.557L57.6027 132.901C57.7827 132.823 57.964 132.717 58.144 132.589L59.3693 133.829C58.4067 134.804 57.3387 135.42 56.3774 135.557ZM61.18 131.263L59.956 130.024C60.032 129.788 60.088 129.556 60.1227 129.333L62.104 127.445C62.1507 128.576 61.8427 129.927 61.18 131.263ZM61.4134 125.384L59.4307 127.273C59.2947 127.207 59.148 127.169 58.9933 127.157V124.752C59.68 124.572 60.3293 124.617 60.868 124.928C61.076 125.048 61.2574 125.201 61.4134 125.384ZM54.8774 128.387C55.4174 127.452 56.0667 126.657 56.7534 126.044V128.451C56.5987 128.64 56.452 128.848 56.316 129.072L54.3333 129.472C54.488 129.109 54.6707 128.747 54.8774 128.387ZM54.6427 135.711C56.4267 136.74 59.3187 135.071 61.1027 131.981C62.8867 128.891 62.8867 125.552 61.1027 124.521C59.3187 123.492 56.4267 125.161 54.6427 128.251C52.8587 131.341 52.8587 134.68 54.6427 135.711Z" fill="#D0CFB2"/>
<path d="M56.1626 128.109V126.628C56.3546 126.419 56.5519 126.224 56.7533 126.044V128.451C56.5986 128.64 56.4519 128.848 56.3159 129.072L54.3333 129.472C54.4053 129.303 54.4839 129.133 54.5679 128.964L55.7252 128.731C55.8612 128.507 56.0079 128.3 56.1626 128.109Z" fill="#A9A891"/>
<path d="M55.168 132.023L55.624 131.931C55.6587 132.113 55.7147 132.281 55.7907 132.428L54.5653 135.083C54.3773 134.92 54.2187 134.724 54.0867 134.499L55.2 132.088L55.168 132.023Z" fill="#A9A891"/>
<path d="M62.104 127.445C62.1507 128.576 61.8427 129.927 61.18 131.263L60.6733 130.751C61.1107 129.824 61.3787 128.896 61.476 128.043L62.104 127.445Z" fill="#A9A891"/>
<path d="M58.7787 133.488L57.992 132.692L58.144 132.589L59.3693 133.829C58.4066 134.804 57.3387 135.42 56.3773 135.557L56.644 134.979C57.3587 134.692 58.0947 134.18 58.7787 133.488Z" fill="#A9A891"/>
<path d="M60.5587 124.783L60.8681 124.928C61.0761 125.048 61.2574 125.201 61.4134 125.384L59.4307 127.273C59.2947 127.207 59.1481 127.169 58.9934 127.157V126.787L60.8228 125.043L60.5587 124.783Z" fill="#A9A891"/>
<path d="M57.4692 130.815C57.6919 130.943 58.0533 130.735 58.2759 130.348C58.4986 129.963 58.4986 129.547 58.2759 129.417C58.0533 129.289 57.6919 129.497 57.4692 129.884C57.2466 130.269 57.2466 130.685 57.4692 130.815Z" fill="#201F1E"/>
<path d="M57.6399 128.823C57.7693 128.897 57.9773 128.777 58.1053 128.555C58.2346 128.332 58.2346 128.091 58.1053 128.017C57.9773 127.943 57.7693 128.063 57.6399 128.285C57.5119 128.508 57.5119 128.749 57.6399 128.823Z" fill="#201F1E"/>
<path d="M58.7881 130.584C58.6081 130.655 58.44 130.895 58.412 131.117C58.3827 131.341 58.5054 131.465 58.6854 131.395C58.8641 131.324 59.0334 131.085 59.0614 130.861C59.0894 130.637 58.9681 130.515 58.7881 130.584Z" fill="#201F1E"/>
<path d="M57.3346 131.74C57.3066 131.548 57.1372 131.505 56.9586 131.641C56.7786 131.777 56.6559 132.043 56.6852 132.233C56.7132 132.424 56.8812 132.469 57.0612 132.332C57.2412 132.196 57.3626 131.931 57.3346 131.74Z" fill="#201F1E"/>
<path d="M56.6252 130.651C56.7879 130.463 56.8519 130.196 56.7692 130.057C56.6866 129.917 56.4892 129.957 56.3266 130.145C56.1652 130.335 56.0999 130.6 56.1826 130.74C56.2653 130.88 56.4639 130.84 56.6252 130.651Z" fill="#201F1E"/>
<path d="M58.9773 128.783C58.8946 129.017 58.9586 129.208 59.12 129.211C59.2826 129.212 59.4799 129.024 59.5626 128.788C59.6453 128.555 59.5813 128.363 59.42 128.36C59.2573 128.359 59.06 128.548 58.9773 128.783Z" fill="#201F1E"/>
<path d="M46.1773 135.856V134.903C46.1773 132.079 46.9986 129 48.3773 126.112C50.3626 121.957 53.5053 118.2 57.0239 116.169L57.7506 115.749C61.2706 113.717 64.4119 113.847 66.3972 115.709C67.7306 116.96 68.5426 118.995 68.5946 121.681C68.5359 117.772 67.2493 115.531 65.7439 114.12C63.5239 112.039 60.1559 112.055 56.5026 114.164L55.7759 114.584C52.1226 116.692 48.7533 120.567 46.5333 125.211C44.9933 128.433 44.1799 131.727 44.1799 134.613C44.1799 137.501 46.2026 137.149 47.3106 136.509C46.6093 136.915 46.1773 136.665 46.1773 135.856Z" fill="#414042"/>
<path d="M66.3972 115.709C64.4119 113.847 61.2706 113.717 57.7506 115.749L57.0239 116.169C53.5053 118.2 50.3626 121.959 48.3772 126.112C46.9986 129 46.1772 132.079 46.1772 134.903V135.856C46.1772 136.665 46.6092 136.915 47.3106 136.509C47.5066 136.397 47.7266 136.127 47.8972 135.829C48.0639 135.537 48.1839 135.219 48.1839 134.997V134.475C48.1839 128.719 52.3639 121.351 57.3879 118.359C62.4106 115.551 66.5919 118.092 66.5919 123.847V124.369C66.5919 124.592 66.7106 124.772 66.8772 124.871C67.0479 124.972 67.2679 124.987 67.4639 124.873C68.1652 124.469 68.5972 123.721 68.5972 122.912V121.959C68.5972 119.133 67.7759 117.003 66.3972 115.709Z" fill="#262424"/>
<path d="M5.90408 116.423C5.82141 116.563 5.82676 116.703 5.91876 116.815L6.00675 116.913L6.33741 117.268V116.089C6.33741 116.089 5.98674 116.284 5.90408 116.423Z" fill="#100F0D"/>
<path d="M34.892 138.433V136.645C34.892 135.808 35.3173 134.781 36.0427 134.363L47.7213 127.619C47.7213 127.619 46.4707 127.857 45.5453 127.555L37.08 132.44C36.4667 132.757 35.724 132.936 35.0013 132.965C34.5507 132.984 34.1133 132.939 33.712 132.843C29.5427 131.943 25.0813 129.513 19.388 126.227C13.76 122.977 8.76533 119.965 6.00666 116.913L5.91868 116.815C5.82668 116.703 5.82133 116.563 5.904 116.423C5.98666 116.284 6.33733 116.089 6.33733 116.089V114.752L4.92001 115.575C3.88268 116.175 3.03333 117.645 3.03333 118.843V120.852C3.03333 122.009 3.35465 122.893 3.89465 123.457L3.89198 123.461C7.14532 127.129 12.448 130.517 19.208 134.421C25.9693 138.324 31.644 140.58 36.596 141.648L36.6013 141.639C36.4253 141.589 36.2547 141.525 36.0987 141.436C35.2507 140.955 34.892 139.913 34.892 138.433Z" fill="#333232"/>
<path d="M48.9693 126.899L36.0427 134.361C35.3173 134.78 34.724 135.808 34.724 136.645V138.433C34.724 139.913 35.2506 140.953 36.0986 141.436C36.84 141.859 37.8253 141.853 38.92 141.344C39.1333 141.244 47.3107 136.509 47.3107 136.509L48.9693 126.899Z" fill="#262424"/>
<path d="M32.0945 135.609C32.0252 135.609 31.9519 135.596 31.8772 135.568C27.4852 133.944 23.0399 131.835 18.5972 129.269C14.1532 126.704 9.71188 123.684 5.32522 120.239C4.92655 119.924 4.6039 119.292 4.60523 118.831C4.60656 118.543 4.73191 118.388 4.92391 118.388C5.00658 118.388 5.10123 118.417 5.20256 118.476L5.32922 118.563C9.71722 122.009 14.1586 125.031 18.6012 127.596C23.0452 130.16 27.4892 132.269 31.8812 133.892L32.0092 133.952C32.3466 134.148 32.6026 134.581 32.6012 134.993C32.6012 135.368 32.3879 135.609 32.0945 135.609Z" fill="#424143"/>
<path d="M23.0066 135.672L23.2559 135.527V132.815L14.2012 127.587L13.9519 127.731L23.0066 132.959V135.672Z" fill="#262424"/>
<path d="M13.9519 130.444L23.0066 135.672V132.959L13.9519 127.731V130.444Z" fill="#414042"/>
<path d="M22.7279 133.119L14.2292 128.213V130.284L22.7279 135.189V133.119Z" fill="white"/>
<path d="M28.8707 126.223C26.284 125.036 23.6854 123.689 21.0867 122.189C18.492 120.691 15.896 119.04 13.3147 117.243C13.388 117.765 13.46 118.287 13.532 118.809C13.6853 119.957 14.4 121.208 15.2293 121.76C17.1747 123.053 19.1267 124.264 21.0774 125.392C23.0294 126.519 24.9813 127.56 26.928 128.515C27.7573 128.919 28.4774 128.497 28.6454 127.536C28.72 127.097 28.796 126.66 28.8707 126.223Z" fill="#262221"/>
<path d="M29.4892 122.599C26.6999 121.343 23.8985 119.903 21.0972 118.287C18.2972 116.669 15.4972 114.876 12.7092 112.911C12.8039 113.581 12.8985 114.249 12.9919 114.917C15.6825 116.805 18.3865 118.533 21.0932 120.095C23.7985 121.657 26.5052 123.053 29.1986 124.275C29.1945 124.308 29.3879 123.192 29.4892 122.599Z" fill="#262221"/>
<path d="M29.1986 124.275C26.5052 123.053 23.7986 121.657 21.0932 120.095C18.3866 118.533 15.6826 116.805 12.9919 114.917L12.9893 114.916L13.3146 117.243C15.8959 119.04 18.4919 120.691 21.0866 122.189C23.6853 123.689 26.2839 125.036 28.8706 126.223L29.1986 124.275Z" fill="#E11D25"/>
<path d="M55.468 109.548L52.08 111.505C51.7293 111.707 51.4453 111.492 51.4453 111.025V110.748C51.4453 110.281 51.7293 109.739 52.08 109.536L55.468 107.581C55.8186 107.379 56.1026 107.593 56.1026 108.06V108.336C56.1026 108.804 55.8186 109.347 55.468 109.548Z" fill="#262424"/>
<path d="M51.4453 111.025V110.748C51.4453 110.281 51.7293 109.739 52.08 109.536L55.468 107.581C55.676 107.46 55.86 107.488 55.976 107.628L55.9587 107.605C55.808 107.453 55.6333 107.348 55.4773 107.348L55.216 107.423C54.088 108.073 52.9507 108.731 51.8227 109.381C51.4627 109.591 51.1813 110.129 51.1827 110.595L51.172 110.873C51.172 111.084 51.2307 111.244 51.3253 111.339V111.34C51.42 111.435 51.5827 111.581 51.8253 111.581L51.8293 111.58C51.604 111.581 51.4453 111.373 51.4453 111.025Z" fill="#414042"/>
<path d="M54.6187 109.055L52.9293 110.031C52.7027 110.161 52.5187 110.48 52.5187 110.741V111.251L55.0293 109.801V109.292C55.0293 109.031 54.8453 108.924 54.6187 109.055Z" fill="#191716"/>
<path d="M45.6814 135.379L39.2027 139.12C38.8827 139.304 38.6441 139.096 38.7121 138.696C39.0441 136.752 40.5881 134.536 42.4414 133.465C44.2961 132.395 45.8387 132.829 46.1707 134.391C46.2401 134.711 46.0014 135.195 45.6814 135.379Z" fill="#100F0D"/>
<path d="M45.0041 134.588C44.0801 134.064 42.9267 134.075 42.0494 134.673C40.5027 135.728 38.9774 137.148 38.7121 138.696C38.6441 139.096 38.8827 139.304 39.2027 139.12L45.6814 135.379L45.9548 135.125L45.0041 134.588Z" fill="#414042"/>
<path d="M34.1412 111.955C34.0546 111.955 33.9652 111.948 33.8719 111.931C33.4999 111.853 33.1079 111.763 32.6986 111.659C32.5786 111.168 32.3826 110.749 32.1346 110.393L32.8026 109.179L30.4199 107.993L29.9972 108.763H29.9986C29.7879 108.641 29.5492 108.504 29.2959 108.357L29.9972 108.763L30.4199 107.993L32.8026 109.179L31.6012 108.485L32.8319 106.248C32.8772 106.272 32.9239 106.296 32.9706 106.32C32.9266 106.503 32.9026 106.681 32.9026 106.852V107.576C32.9026 107.815 32.9866 107.981 33.1213 108.059C33.1586 108.081 33.6706 108.376 34.3906 108.792C34.1199 108.636 33.8786 108.496 33.6799 108.381L33.6652 108.373C33.7052 108.8 33.8266 109.135 34.0639 109.255L35.6772 110.185C35.6692 110.22 35.6599 110.253 35.6519 110.287C35.3639 111.408 34.8506 111.955 34.1412 111.955Z" fill="#507B95"/>
<path d="M35.8226 109.619C35.3093 109.323 34.8146 109.036 34.3906 108.792C33.6706 108.376 33.1586 108.081 33.1213 108.059C32.9866 107.981 32.9026 107.815 32.9026 107.576V106.852C32.9026 106.681 32.9266 106.503 32.9706 106.32C34.0759 106.901 35.1052 107.419 35.8266 107.752C35.9906 107.828 36.1333 107.891 36.2533 107.943C36.1079 108.509 35.9639 109.069 35.8226 109.619Z" fill="#476F8B"/>
<path d="M35.6773 110.185L34.0639 109.255C33.8266 109.135 33.7053 108.8 33.6653 108.373L33.68 108.381C33.8786 108.496 34.12 108.636 34.3906 108.792C34.8146 109.036 35.3093 109.323 35.8226 109.619C35.7746 109.809 35.7253 109.997 35.6773 110.185Z" fill="#3B637E"/>
<path d="M30.4626 109.119C30.3759 109.1 30.2892 109.092 30.2039 109.092C30.2892 109.092 30.3759 109.1 30.4626 109.119ZM30.1919 109.092C30.1946 109.092 30.1972 109.092 30.1999 109.092C30.1972 109.092 30.1946 109.092 30.1919 109.092Z" fill="#507B95"/>
<path d="M12.8814 100.704C12.1574 100.247 11.4441 99.7893 10.7361 99.3333C10.1227 98.7386 9.5214 98.136 8.9174 97.5227C8.88807 97.4933 8.86138 97.4613 8.83472 97.4306C8.87738 96.4079 9.04405 95.3306 9.33205 94.2186L13.1334 79.5186C16.8707 81.9106 20.6334 84.2133 24.4201 86.4266L24.2721 88.216C24.2721 88.46 24.1001 88.7587 23.8881 88.8813L17.1161 92.7906C16.5947 93.092 16.1147 93.672 15.832 94.34L13.5 99.8746C13.3587 100.211 13.1334 100.509 12.8814 100.704Z" fill="#B1DEF2"/>
<path d="M8.83467 97.4305C8.212 96.7012 8.02133 95.7186 8.33067 94.5132C9.54133 89.7879 10.9613 84.3066 12.1693 79.5932C12.2293 79.3572 12.388 79.2199 12.5627 79.2199C12.624 79.2199 12.688 79.2373 12.7494 79.2733L12.78 79.2932C12.8974 79.3679 13.016 79.4426 13.1333 79.5186L9.332 94.2186C9.044 95.3306 8.87734 96.4079 8.83467 97.4305Z" fill="#2E546F"/>
<path d="M17.38 103.489C15.8467 102.561 14.3467 101.631 12.8813 100.704C13.1333 100.509 13.3587 100.211 13.5 99.8747L15.832 94.34C16.1147 93.672 16.5947 93.092 17.116 92.7907L23.888 88.8814C24.1 88.7587 24.272 88.46 24.272 88.216L24.42 86.4267C24.9067 86.7107 25.3947 86.9947 25.8827 87.276C26.5173 87.6427 27.152 88.0067 27.7894 88.368C27.6094 89.1787 27.4973 89.9 27.4267 90.5174C27.3493 91.1987 27.2294 91.8973 27.0574 92.608L26.6947 94.1094C26.004 94.396 25.3187 94.6573 24.6987 94.9107C23.4213 95.432 22.252 96.148 20.9907 97.2294C20.476 97.6694 20.092 98.364 19.98 99.0067C18.8547 100.291 17.9373 101.872 17.38 103.489ZM17.86 95.78C17.8613 95.7813 17.864 95.7813 17.8653 95.7827L19.6347 96.8067C19.796 96.9 19.98 96.9454 20.1787 96.9454C20.4667 96.9454 20.788 96.8494 21.116 96.66L25.4453 94.16C25.804 93.952 26.096 93.4494 26.096 93.0347C26.096 92.8294 26.024 92.684 25.908 92.6147C25.9067 92.6147 25.904 92.6134 25.9027 92.612L24.988 92.084C24.9387 92.056 24.8814 92.0413 24.8187 92.0413C24.732 92.0413 24.6333 92.0694 24.5293 92.1294L20.2307 94.6107C19.9813 94.7547 19.7387 94.828 19.52 94.828C19.384 94.828 19.2587 94.8 19.1453 94.7427L18.652 94.4573L17.736 93.928C17.6907 93.9027 17.6387 93.8894 17.584 93.8894C17.3827 93.8894 17.132 94.0587 16.96 94.3427C16.736 94.7174 16.732 95.1294 16.948 95.2534L17.86 95.78ZM38.3627 99.7534L35.1587 97.9027L35.46 96.7613L36.4187 93.0947C37.3347 93.5787 38.252 94.056 39.1707 94.5294L39.204 94.5467C39.4493 94.688 39.572 95.0494 39.4907 95.368C39.1294 96.7747 38.7507 98.2494 38.3627 99.7534ZM34.2547 97.3814C34.392 97.3174 34.5293 97.252 34.664 97.1853C34.6653 97.184 34.6667 97.184 34.668 97.184C34.676 97.1787 34.6853 97.1747 34.6933 97.1707C34.6987 97.168 34.704 97.1654 34.708 97.1627C34.7133 97.1614 34.7174 97.1587 34.7214 97.1573C34.7294 97.152 34.7387 97.148 34.7467 97.144C34.7467 97.144 34.748 97.144 34.748 97.1427C34.992 97.0214 35.2293 96.8947 35.46 96.7613C35.076 96.9827 34.6707 97.188 34.2547 97.3814ZM17.7227 95.5787C17.7227 95.576 17.7227 95.5747 17.7214 95.572C17.7227 95.5747 17.7227 95.576 17.7227 95.5787ZM17.7214 95.572C17.6774 95.3907 17.7253 95.1333 17.8667 94.8907C17.7253 95.1333 17.6774 95.3907 17.7214 95.572ZM20.4373 95.3573C20.436 95.3573 20.436 95.3573 20.4347 95.3573C20.436 95.3573 20.436 95.3573 20.4373 95.3573ZM20.4467 95.3573C20.6387 95.3547 20.848 95.2974 21.064 95.1867C20.848 95.2974 20.6387 95.3547 20.4467 95.3573ZM20.0653 95.2734C20.06 95.2707 20.0547 95.2694 20.0493 95.2654C20.0547 95.2694 20.06 95.2707 20.0653 95.2734ZM21.0707 95.1827C21.0747 95.1813 21.08 95.1787 21.0854 95.176C21.08 95.1787 21.0747 95.1813 21.0707 95.1827ZM21.092 95.172C21.1027 95.1667 21.1134 95.16 21.124 95.1547C21.1134 95.16 21.1027 95.1667 21.092 95.172ZM17.8987 94.8387C17.9013 94.8333 17.9053 94.828 17.9093 94.8227C17.9053 94.828 17.9013 94.8333 17.8987 94.8387ZM17.9187 94.8094C17.9214 94.8054 17.924 94.8 17.9267 94.796C17.924 94.8 17.9214 94.8054 17.9187 94.8094ZM17.928 94.796C18.084 94.5747 18.288 94.4387 18.4627 94.4213C18.288 94.4387 18.084 94.5747 17.928 94.796ZM18.652 94.4573C18.6494 94.456 18.6467 94.4547 18.6427 94.452C18.6467 94.4547 18.6494 94.456 18.652 94.4573ZM18.5027 94.4187H18.5013H18.5027ZM25.4627 92.6493C25.4653 92.648 25.4693 92.6453 25.472 92.644C25.4693 92.6453 25.4653 92.648 25.4627 92.6493ZM25.484 92.6387C25.5733 92.5933 25.656 92.5707 25.732 92.5707C25.656 92.5707 25.5733 92.5933 25.484 92.6387ZM25.9027 92.612C25.9027 92.612 25.9013 92.6107 25.9 92.6107C25.9013 92.6107 25.9027 92.612 25.9027 92.612ZM25.8947 92.6067C25.892 92.6067 25.8907 92.6053 25.8894 92.6053C25.8907 92.6053 25.892 92.6067 25.8947 92.6067ZM25.7387 92.5707C25.7373 92.5707 25.7373 92.5707 25.736 92.5707C25.7373 92.5707 25.7373 92.5707 25.7387 92.5707Z" fill="#2E546F"/>
<path d="M20.1787 96.9453C19.98 96.9453 19.796 96.9 19.6346 96.8066L17.8653 95.7826C17.864 95.7813 17.8613 95.7813 17.86 95.7799L17.8653 95.7826C17.7946 95.7413 17.7467 95.6693 17.7227 95.5786C17.7227 95.576 17.7227 95.5746 17.7213 95.5719C17.6773 95.3906 17.7253 95.1333 17.8666 94.8906C17.8706 94.884 17.8733 94.8786 17.8773 94.8719C17.884 94.8613 17.8906 94.8506 17.8986 94.8386C17.9013 94.8333 17.9053 94.828 17.9093 94.8227C17.912 94.8187 17.9147 94.8133 17.9187 94.8093C17.9213 94.8053 17.924 94.8 17.9266 94.796H17.928C18.084 94.5746 18.288 94.4386 18.4626 94.4213C18.476 94.42 18.488 94.4186 18.5013 94.4186H18.5026C18.5533 94.4186 18.6013 94.4306 18.6427 94.452C18.6467 94.4546 18.6493 94.456 18.652 94.4573L19.1453 94.7426C19.1333 94.736 19.12 94.7293 19.108 94.7227L20.024 95.252C20.032 95.2573 20.0413 95.2613 20.0493 95.2653C20.0547 95.2693 20.06 95.2706 20.0653 95.2733C20.176 95.3293 20.3013 95.3573 20.4346 95.3573C20.436 95.3573 20.436 95.3573 20.4373 95.3573C20.44 95.3573 20.444 95.3573 20.4467 95.3573C20.6387 95.3546 20.848 95.2973 21.064 95.1867C21.0653 95.1853 21.068 95.184 21.0707 95.1826C21.0747 95.1813 21.08 95.1786 21.0853 95.176C21.0867 95.1733 21.0893 95.1733 21.092 95.1719C21.1026 95.1666 21.1133 95.16 21.124 95.1546C21.132 95.1506 21.14 95.1453 21.148 95.14L25.4453 92.6586C25.4507 92.6559 25.4573 92.652 25.4626 92.6493C25.4653 92.648 25.4693 92.6453 25.472 92.6439C25.476 92.6426 25.48 92.6399 25.484 92.6386C25.5733 92.5933 25.656 92.5706 25.732 92.5706C25.7333 92.5706 25.7346 92.5706 25.736 92.5706C25.7373 92.5706 25.7373 92.5706 25.7387 92.5706C25.7933 92.5706 25.844 92.5826 25.8893 92.6053C25.8907 92.6053 25.892 92.6066 25.8946 92.6066C25.896 92.608 25.8986 92.6093 25.9 92.6106C25.9013 92.6106 25.9026 92.612 25.9026 92.612L25.908 92.6146C26.024 92.684 26.096 92.8293 26.096 93.0346C26.096 93.4493 25.804 93.952 25.4453 94.16L21.116 96.66C20.788 96.8493 20.4667 96.9453 20.1787 96.9453Z" fill="#355C77"/>
<path d="M20.4372 95.3573C20.4359 95.3573 20.4359 95.3573 20.4346 95.3573C20.3012 95.3573 20.1759 95.3293 20.0652 95.2733C20.0599 95.2706 20.0546 95.2693 20.0493 95.2653C20.0413 95.2613 20.0319 95.2573 20.0239 95.252L19.1079 94.7227C19.1199 94.7293 19.1332 94.736 19.1452 94.7427C19.2586 94.8 19.3839 94.8279 19.5199 94.8279C19.7386 94.8279 19.9812 94.7546 20.2306 94.6106L24.5292 92.1293C24.6332 92.0693 24.7319 92.0413 24.8186 92.0413C24.8813 92.0413 24.9386 92.056 24.9879 92.084L25.9026 92.612C25.9026 92.612 25.9012 92.6106 25.8999 92.6106C25.8986 92.6093 25.8959 92.608 25.8946 92.6066C25.8919 92.6066 25.8906 92.6053 25.8893 92.6053C25.8439 92.5826 25.7932 92.5706 25.7386 92.5706C25.7372 92.5706 25.7372 92.5706 25.7359 92.5706C25.7346 92.5706 25.7332 92.5706 25.7319 92.5706C25.6559 92.5706 25.5733 92.5933 25.4839 92.6386C25.4799 92.6399 25.4759 92.6426 25.4719 92.644C25.4692 92.6453 25.4652 92.648 25.4626 92.6493C25.4572 92.652 25.4506 92.6559 25.4452 92.6586L21.1479 95.14C21.1399 95.1453 21.1319 95.1506 21.1239 95.1546C21.1133 95.16 21.1026 95.1666 21.0919 95.1719C21.0892 95.1733 21.0866 95.1733 21.0853 95.176C21.0799 95.1787 21.0746 95.1813 21.0706 95.1826C21.0679 95.184 21.0652 95.1853 21.0639 95.1867C20.8479 95.2973 20.6386 95.3546 20.4466 95.3573C20.4439 95.3573 20.4399 95.3573 20.4372 95.3573ZM25.9079 92.6147L25.9026 92.612C25.9039 92.6133 25.9066 92.6147 25.9079 92.6147Z" fill="#3B637E"/>
<path d="M17.8653 95.7826L17.86 95.7799L16.948 95.2533C16.732 95.1293 16.736 94.7173 16.96 94.3426C17.132 94.0586 17.3827 93.8893 17.584 93.8893C17.6387 93.8893 17.6907 93.9026 17.736 93.9279L18.652 94.4573C18.6493 94.4559 18.6467 94.4546 18.6427 94.4519C18.6013 94.4306 18.5533 94.4186 18.5027 94.4186H18.5013C18.488 94.4186 18.476 94.4199 18.4627 94.4213C18.288 94.4386 18.084 94.5746 17.928 94.7959H17.9267C17.924 94.7999 17.9213 94.8053 17.9187 94.8093C17.9147 94.8133 17.912 94.8186 17.9093 94.8226C17.9053 94.828 17.9013 94.8332 17.8987 94.8386C17.8907 94.8506 17.884 94.8612 17.8773 94.8719C17.8733 94.8786 17.8707 94.8839 17.8667 94.8906C17.7253 95.1333 17.6773 95.3906 17.7213 95.5719C17.7227 95.5746 17.7227 95.576 17.7227 95.5786C17.7467 95.6693 17.7947 95.7413 17.8653 95.7826Z" fill="#3B637E"/>
<path d="M28.168 107.705C27.4187 107.273 26.66 106.836 26.1013 106.513L26.084 106.504C25.856 106.373 25.62 106.315 25.3893 106.315C24.7827 106.315 24.216 106.725 23.9547 107.348C23.0067 106.808 22.052 106.259 21.092 105.699C19.8333 104.963 18.596 104.227 17.38 103.489C17.9373 101.872 18.8547 100.291 19.98 99.0066C19.9587 99.1306 19.948 99.2532 19.948 99.3719V100.096C19.948 100.335 20.0307 100.501 20.1653 100.579C20.248 100.627 22.6253 102 24.4773 103.068C23.1507 102.303 21.5547 101.381 20.7253 100.903L20.7093 100.895C20.7507 101.32 20.872 101.655 21.1093 101.775L27.5427 105.489C27.5587 105.5 27.5747 105.509 27.5907 105.517C27.9453 104.976 28.3347 104.464 28.752 103.993C28.88 104.068 29.016 104.147 29.1587 104.229C29.7466 104.569 30.4 104.935 31.072 105.303L29.8333 107.555L28.5907 106.937L28.168 107.705ZM33.6947 104.955C32.3787 104.229 30.9667 103.485 29.836 102.92C30.2613 102.555 30.7053 102.233 31.1627 101.967L34.612 99.9745L35.1586 97.9025L38.3627 99.7532C38.14 100.621 37.9133 101.497 37.6867 102.376C37.676 102.381 37.6653 102.385 37.6547 102.391C36.3773 102.912 35.2067 103.628 33.9453 104.709C33.8573 104.784 33.7747 104.867 33.6947 104.955ZM26.8413 104.371C26.7693 104.371 26.704 104.355 26.648 104.321C26.648 104.321 26.6467 104.321 26.644 104.32C26.6467 104.321 26.648 104.321 26.648 104.321C26.512 104.244 26.4293 104.076 26.4293 103.839C26.4293 104.076 26.512 104.244 26.648 104.321C26.704 104.355 26.7693 104.371 26.8413 104.371C26.9413 104.371 27.0547 104.339 27.1747 104.269C27.0547 104.339 26.9413 104.371 26.8413 104.371ZM26.6427 104.319C26.6413 104.317 26.64 104.317 26.6387 104.316C26.64 104.317 26.6413 104.317 26.6427 104.319ZM26.632 104.312C26.632 104.312 26.632 104.312 26.6307 104.312C26.632 104.312 26.632 104.312 26.632 104.312ZM26.628 104.311V104.309V104.311ZM26.6227 104.307C26.62 104.305 26.616 104.304 26.612 104.301C26.616 104.304 26.62 104.305 26.6227 104.307ZM26.6067 104.297C26.6013 104.295 26.5947 104.291 26.5867 104.287C26.5947 104.291 26.6013 104.295 26.6067 104.297ZM24.5173 103.092C24.5147 103.091 24.512 103.088 24.5093 103.087C24.512 103.088 24.5147 103.091 24.5173 103.092ZM31.656 98.4612C32.4813 98.1319 33.388 97.7839 34.2547 97.3812C33.388 97.7839 32.4813 98.1319 31.656 98.4612Z" fill="#507B95"/>
<path d="M26.8413 104.371C26.7693 104.371 26.704 104.355 26.648 104.321C26.512 104.244 26.4293 104.076 26.4293 103.839V103.115C26.4293 102.385 26.8573 101.497 27.472 100.971C28.7333 99.8907 29.904 99.1734 31.18 98.652C31.3347 98.5894 31.4947 98.5254 31.656 98.4614C32.4813 98.132 33.388 97.7841 34.2547 97.3814C34.6707 97.1881 35.076 96.9827 35.46 96.7614L35.1587 97.9027L34.612 99.9747L31.1627 101.967C31.172 101.961 31.1827 101.955 31.192 101.949L29.6613 102.833C29.2893 102.649 28.952 102.487 28.664 102.353C28.1427 102.113 27.8467 101.999 27.7627 101.999C27.7267 101.999 27.7293 102.02 27.772 102.063C27.7453 102.036 27.7333 102.017 27.7387 102.007L27.22 102.971C27.196 103.017 27.536 103.26 28.212 103.671L27.1747 104.269C27.0547 104.339 26.9413 104.371 26.8413 104.371Z" fill="#507995"/>
<path d="M26.648 104.321C26.648 104.321 26.6467 104.321 26.644 104.32C26.644 104.319 26.6427 104.319 26.6427 104.319C26.6413 104.317 26.64 104.317 26.6387 104.316C26.636 104.315 26.6346 104.315 26.632 104.312C26.632 104.312 26.632 104.312 26.6306 104.312C26.6306 104.312 26.6293 104.311 26.628 104.311V104.309C26.6266 104.309 26.624 104.308 26.6227 104.307C26.62 104.305 26.616 104.304 26.612 104.301C26.6107 104.3 26.6093 104.299 26.6067 104.297C26.6013 104.295 26.5947 104.291 26.5867 104.287C26.36 104.155 25.5187 103.669 24.5173 103.092C24.5147 103.091 24.512 103.088 24.5093 103.087C24.4987 103.081 24.488 103.075 24.4773 103.068C22.6253 102 20.248 100.627 20.1653 100.579C20.0306 100.501 19.948 100.335 19.948 100.096V99.3719C19.948 99.2533 19.9587 99.1306 19.98 99.0066C20.092 98.364 20.476 97.6693 20.9907 97.2293C22.252 96.148 23.4213 95.4319 24.6986 94.9106C25.3186 94.6573 26.004 94.396 26.6946 94.1093L33.176 97.852L33.5387 96.3507L33.176 97.852C33.676 97.644 34.18 97.424 34.664 97.1853C34.5293 97.252 34.392 97.3173 34.2547 97.3813C33.388 97.784 32.4813 98.1319 31.656 98.4613C31.4947 98.5253 31.3347 98.5893 31.18 98.652C29.904 99.1733 28.7333 99.8906 27.472 100.971C26.8573 101.497 26.4293 102.385 26.4293 103.115V103.839C26.4293 104.076 26.512 104.244 26.648 104.321ZM34.668 97.184C34.676 97.1787 34.6853 97.1746 34.6933 97.1706C34.6853 97.1746 34.676 97.1787 34.668 97.184ZM34.708 97.1626C34.7133 97.1613 34.7173 97.1586 34.7213 97.1573C34.7173 97.1586 34.7133 97.1613 34.708 97.1626ZM34.7467 97.1439C34.7467 97.1439 34.748 97.144 34.748 97.1426C34.748 97.144 34.7467 97.1439 34.7467 97.1439Z" fill="#476F8B"/>
<path d="M27.5426 105.489L21.1092 101.775C20.8719 101.655 20.7506 101.32 20.7092 100.895L20.7252 100.903C21.5545 101.381 23.1506 102.303 24.4772 103.068C24.4879 103.075 24.4986 103.081 24.5092 103.087C24.5119 103.088 24.5146 103.091 24.5172 103.092C25.5186 103.669 26.3599 104.155 26.5866 104.287C26.5946 104.291 26.6012 104.295 26.6066 104.297C26.6092 104.299 26.6106 104.3 26.6119 104.301C26.6159 104.304 26.6199 104.305 26.6226 104.307C26.6239 104.308 26.6265 104.309 26.6279 104.309V104.311C26.6292 104.311 26.6305 104.312 26.6305 104.312C26.6319 104.312 26.6319 104.312 26.6319 104.312C26.6346 104.315 26.6359 104.315 26.6386 104.316C26.6399 104.317 26.6412 104.317 26.6426 104.319C26.6426 104.319 26.6439 104.319 26.6439 104.32C26.6466 104.321 26.6479 104.321 26.6479 104.321C26.7039 104.355 26.7692 104.371 26.8412 104.371C26.9412 104.371 27.0546 104.339 27.1746 104.269C27.1746 104.832 27.2759 105.309 27.5426 105.489Z" fill="#3B637E"/>
<path d="M33.176 97.8519L33.5387 96.3506C33.7107 95.64 33.8307 94.9413 33.908 94.2599C33.9827 93.6053 34.104 92.8373 34.3027 91.9679C35.0067 92.3466 35.712 92.7226 36.4187 93.0946L35.46 96.7612C35.2293 96.8946 34.992 97.0213 34.748 97.1426C34.748 97.144 34.7467 97.1439 34.7467 97.1439C34.7387 97.1479 34.7294 97.1519 34.7214 97.1573C34.7174 97.1586 34.7134 97.1613 34.708 97.1626C34.704 97.1653 34.6987 97.1679 34.6933 97.1706C34.6853 97.1746 34.676 97.1786 34.668 97.184C34.6667 97.184 34.6653 97.1839 34.664 97.1853C34.18 97.4239 33.676 97.6439 33.176 97.8519Z" fill="#507995"/>
<path d="M33.1759 97.8519L26.6946 94.1093L27.0573 92.6079C27.2293 91.8973 27.3492 91.1986 27.4266 90.5173C27.4972 89.9 27.6093 89.1786 27.7893 88.3679C29.9519 89.5973 32.1239 90.7973 34.3026 91.9679C34.1039 92.8373 33.9826 93.6053 33.9079 94.2599C33.8306 94.9413 33.7106 95.64 33.5386 96.3506L33.1759 97.8519Z" fill="#426A86"/>
<path d="M27.5906 105.517C27.5746 105.509 27.5586 105.5 27.5426 105.489C27.2759 105.309 27.1746 104.832 27.1746 104.269L28.2119 103.671C28.3732 103.768 28.5532 103.876 28.7519 103.993C28.3346 104.464 27.9452 104.976 27.5906 105.517ZM29.8359 102.92C29.7772 102.891 29.7185 102.863 29.6612 102.833L31.1919 101.949C31.1825 101.955 31.1719 101.961 31.1625 101.967C30.7052 102.233 30.2612 102.555 29.8359 102.92Z" fill="#406782"/>
<path d="M36.5919 106.629C36.2759 106.431 35.8546 106.177 35.3319 105.876C34.8253 105.584 34.2692 105.271 33.6946 104.955C33.7746 104.867 33.8573 104.784 33.9453 104.709C35.2066 103.628 36.3773 102.912 37.6546 102.391C37.6653 102.385 37.6759 102.381 37.6866 102.376C37.3199 103.8 36.9519 105.229 36.5919 106.629ZM36.0666 106.444C36.0666 106.443 36.0666 106.443 36.0666 106.443C36.0666 106.443 36.0666 106.443 36.0666 106.444ZM36.0653 106.441C35.8933 106.303 35.4146 106.003 34.6586 105.565C35.4146 106.003 35.8933 106.303 36.0653 106.441Z" fill="#476F8B"/>
<path d="M28.928 102.827C28.4013 102.509 28.044 102.279 27.8666 102.143C28.044 102.279 28.4013 102.509 28.928 102.827ZM29.02 102.644L28.8747 102.617C28.876 102.613 28.8826 102.612 28.892 102.612C28.9146 102.612 28.9573 102.621 29.02 102.644ZM27.8653 102.141C27.864 102.14 27.8626 102.14 27.8626 102.139C27.8626 102.14 27.864 102.14 27.8653 102.141ZM27.8613 102.139C27.86 102.137 27.86 102.136 27.8586 102.136C27.86 102.136 27.86 102.137 27.8613 102.139ZM27.856 102.135C27.856 102.133 27.8547 102.133 27.8547 102.133C27.8547 102.133 27.856 102.133 27.856 102.135ZM27.852 102.131C27.852 102.131 27.852 102.131 27.8507 102.131C27.852 102.131 27.852 102.131 27.852 102.131ZM27.848 102.128C27.848 102.128 27.848 102.128 27.8467 102.127C27.848 102.128 27.848 102.128 27.848 102.128ZM27.8306 102.115V102.113V102.115ZM27.8147 102.1C27.8133 102.1 27.8133 102.1 27.8133 102.1C27.8133 102.1 27.8133 102.1 27.8147 102.1ZM27.7893 102.079L27.788 102.077L27.7893 102.079ZM27.7867 102.076C27.7867 102.076 27.7867 102.076 27.7853 102.075C27.7867 102.076 27.7867 102.076 27.7867 102.076ZM27.784 102.073C27.784 102.073 27.784 102.073 27.7827 102.073C27.784 102.073 27.784 102.073 27.784 102.073ZM27.7813 102.072C27.7813 102.071 27.7813 102.071 27.78 102.071C27.7813 102.071 27.7813 102.071 27.7813 102.072ZM27.78 102.069C27.7787 102.069 27.7787 102.068 27.7773 102.068C27.7787 102.068 27.7787 102.069 27.78 102.069ZM27.7773 102.067C27.776 102.067 27.776 102.067 27.776 102.065C27.776 102.067 27.776 102.067 27.7773 102.067ZM27.7747 102.065C27.7747 102.064 27.7733 102.064 27.7733 102.063C27.7733 102.064 27.7747 102.064 27.7747 102.065Z" fill="#507995"/>
<path d="M32.8026 109.179L30.42 107.993L29.9973 108.763L29.296 108.357C28.9413 108.152 28.556 107.929 28.168 107.705L28.5907 106.937L29.8333 107.555L29.8187 107.581C29.8107 107.593 29.9346 107.675 30.176 107.815C30.5666 108.04 31.1186 108.332 31.4066 108.464L31.5773 108.529L31.6013 108.485L32.8026 109.179Z" fill="#406782"/>
<path d="M32.1347 110.393C31.8053 109.923 31.3813 109.561 30.912 109.291L30.8946 109.281C30.8933 109.28 30.892 109.28 30.8907 109.279C30.8067 109.231 30.4693 109.036 29.9986 108.763H29.9973L30.42 107.993L32.8027 109.179L32.1347 110.393ZM30.8907 109.279C30.884 109.275 30.8773 109.272 30.8707 109.267C30.8773 109.272 30.884 109.275 30.8907 109.279ZM30.8586 109.261C30.728 109.192 30.596 109.144 30.4626 109.119C30.596 109.144 30.728 109.192 30.8586 109.261Z" fill="#3B637E"/>
<path d="M32.6987 111.659C32.1201 111.512 31.5081 111.34 30.8681 111.143C30.1841 110.78 29.4961 110.412 28.8054 110.037C29.0801 109.467 29.6174 109.096 30.1921 109.092C30.1947 109.092 30.1974 109.092 30.2001 109.092C30.2014 109.092 30.2028 109.092 30.2041 109.092C30.2894 109.092 30.3761 109.1 30.4627 109.119C30.5961 109.144 30.7281 109.192 30.8587 109.261C30.8627 109.264 30.8668 109.265 30.8708 109.267C30.8774 109.272 30.8841 109.275 30.8908 109.279C30.9028 109.285 30.9108 109.291 30.9121 109.291C31.3814 109.561 31.8054 109.923 32.1347 110.393C32.3827 110.749 32.5787 111.168 32.6987 111.659Z" fill="#3F6783"/>
<path d="M28.8052 110.037C27.2052 109.172 25.5879 108.275 23.9546 107.348C24.2159 106.725 24.7826 106.315 25.3893 106.315C25.6199 106.315 25.8559 106.373 26.0839 106.504L26.1012 106.513C26.6599 106.836 27.4186 107.273 28.1679 107.705C28.5559 107.929 28.9412 108.152 29.2959 108.357C29.5492 108.504 29.7879 108.641 29.9986 108.763C30.4692 109.036 30.8066 109.231 30.8906 109.279C30.8839 109.275 30.8772 109.272 30.8706 109.267C30.8666 109.265 30.8626 109.264 30.8586 109.261C30.7279 109.192 30.5959 109.144 30.4626 109.119C30.3759 109.1 30.2892 109.092 30.2039 109.092C30.2026 109.092 30.2012 109.092 30.1999 109.092C30.1972 109.092 30.1946 109.092 30.1919 109.092C29.6172 109.096 29.0799 109.467 28.8052 110.037ZM30.9119 109.291C30.9106 109.291 30.9026 109.285 30.8906 109.279C30.8919 109.28 30.8932 109.28 30.8946 109.281L30.9119 109.291Z" fill="#46708B"/>
<path d="M31.5774 108.529L31.4067 108.464C31.1187 108.332 30.5667 108.04 30.176 107.815C29.9347 107.675 29.8107 107.593 29.8187 107.581L29.8334 107.555L31.072 105.303C31.656 105.623 32.2534 105.943 32.832 106.248L31.6014 108.485L31.5774 108.529Z" fill="#5C859F"/>
<path d="M36.1173 106.531C36.0533 106.531 35.8266 106.443 35.4306 106.26L35.4053 106.248L35.3906 106.241L35.4079 106.249L35.4306 106.26L35.5213 106.301L33.7079 105.255L33.724 105.227C33.732 105.209 33.5599 105.096 33.2279 104.905C32.7279 104.616 32.0426 104.252 31.6253 104.052L29.6759 102.927C30.8879 103.495 33.0879 104.659 34.6586 105.565C35.4146 106.003 35.8933 106.303 36.0653 106.441C36.0653 106.443 36.0653 106.443 36.0666 106.443C36.0666 106.443 36.0666 106.443 36.0666 106.444C36.0679 106.444 36.0679 106.445 36.0693 106.445C36.1373 106.501 36.1533 106.531 36.1173 106.531ZM35.3533 106.224L35.3066 106.203C35.0799 106.096 34.8199 105.969 34.5359 105.828V105.827C34.8199 105.969 35.0799 106.096 35.3079 106.203L35.3533 106.224ZM29.6546 102.917L29.5786 102.881C29.6039 102.893 29.6293 102.905 29.6546 102.917Z" fill="#507A94"/>
<path d="M33.708 105.255L33.572 105.176C33.6534 105.212 33.7014 105.229 33.7174 105.229C33.7214 105.229 33.7227 105.228 33.724 105.227L33.708 105.255Z" fill="#2E546F"/>
<path d="M34.536 105.828C33.2987 105.209 31.6187 104.309 30.3507 103.576C29.6427 103.167 29.1773 102.877 28.9813 102.728L29.0253 102.645L34.536 105.827V105.828ZM29.6773 103.265C29.3987 103.105 29.1493 102.957 28.928 102.827C29.1493 102.957 29.3987 103.105 29.6773 103.265Z" fill="#59839D"/>
<path d="M28.9813 102.728C28.9026 102.669 28.8666 102.632 28.8746 102.617L29.02 102.644C29.0226 102.645 29.0239 102.645 29.0253 102.645L28.9813 102.728Z" fill="#47708C"/>
<path d="M35.5214 106.301L35.4307 106.26L35.4081 106.249L35.3908 106.241L35.3801 106.237L35.3574 106.227L35.3534 106.224L35.3081 106.203C35.0801 106.096 34.8201 105.969 34.5361 105.827L29.0254 102.645C29.1347 102.684 29.3027 102.755 29.5334 102.86L29.5574 102.872L29.5787 102.881L29.6548 102.917C29.6614 102.92 29.6694 102.924 29.6761 102.927L31.6254 104.052C32.0427 104.252 32.7281 104.616 33.2281 104.905C33.5601 105.096 33.7321 105.209 33.7241 105.227C33.7228 105.228 33.7214 105.229 33.7174 105.229C33.7014 105.229 33.6534 105.212 33.5721 105.176L33.7081 105.255L35.5214 106.301Z" fill="#446D88"/>
<path d="M36.2533 107.943C36.1333 107.891 35.9906 107.828 35.8266 107.752C35.1052 107.419 34.0759 106.901 32.9706 106.32C32.9239 106.296 32.8772 106.272 32.8319 106.248C32.2532 105.943 31.6559 105.623 31.0719 105.303C30.3999 104.935 29.7466 104.569 29.1586 104.229C29.0159 104.147 28.8799 104.068 28.7519 103.993C28.5533 103.876 28.3733 103.768 28.2119 103.671C27.5359 103.26 27.1959 103.017 27.2199 102.971L27.7386 102.007C27.7333 102.017 27.7453 102.036 27.7719 102.063C27.7733 102.063 27.7733 102.063 27.7733 102.063C27.7733 102.064 27.7746 102.064 27.7746 102.065C27.7746 102.065 27.7746 102.065 27.7759 102.065C27.7759 102.067 27.7759 102.067 27.7773 102.067V102.068C27.7786 102.068 27.7786 102.069 27.7799 102.069C27.7799 102.069 27.7799 102.069 27.7799 102.071C27.7813 102.071 27.7813 102.071 27.7813 102.072C27.7826 102.072 27.7826 102.072 27.7826 102.073C27.7839 102.073 27.7839 102.073 27.7839 102.073C27.7839 102.075 27.7853 102.075 27.7853 102.075C27.7866 102.076 27.7866 102.076 27.7866 102.076L27.7879 102.077L27.7893 102.079L27.7906 102.08C27.7959 102.085 27.8013 102.089 27.8079 102.095C27.8093 102.096 27.8093 102.096 27.8106 102.097C27.8119 102.099 27.8133 102.099 27.8133 102.1C27.8133 102.1 27.8133 102.1 27.8146 102.1C27.8146 102.101 27.8159 102.101 27.8173 102.103C27.8186 102.104 27.8186 102.105 27.8199 102.105C27.8213 102.107 27.8226 102.107 27.8239 102.108C27.8253 102.109 27.8252 102.109 27.8266 102.111C27.8279 102.112 27.8292 102.113 27.8306 102.113V102.115C27.8359 102.119 27.8413 102.123 27.8466 102.127C27.8479 102.128 27.8479 102.128 27.8479 102.128C27.8493 102.129 27.8506 102.129 27.8506 102.131C27.8519 102.131 27.8519 102.131 27.8519 102.131C27.8533 102.132 27.8533 102.132 27.8546 102.133C27.8546 102.133 27.8559 102.133 27.8559 102.135C27.8573 102.135 27.8572 102.136 27.8586 102.136C27.8599 102.136 27.8599 102.137 27.8612 102.139C27.8612 102.139 27.8612 102.139 27.8626 102.139C27.8626 102.14 27.8639 102.14 27.8653 102.141C27.8653 102.141 27.8666 102.141 27.8666 102.143C28.0439 102.279 28.4012 102.509 28.9279 102.827C29.1492 102.957 29.3986 103.105 29.6773 103.265C29.8986 103.393 30.1293 103.524 30.3666 103.659L29.8559 104.627C30.9253 105.231 32.1319 105.884 33.2399 106.461L33.7493 105.493C33.5946 105.412 33.4359 105.329 33.2773 105.245C34.4639 105.872 35.5773 106.433 36.3453 106.788C36.4093 106.817 36.4706 106.845 36.5292 106.872C36.4359 107.231 36.3439 107.588 36.2533 107.943ZM33.2773 105.245H33.2759H33.2773Z" fill="#58819C"/>
<path d="M33.2399 106.461C32.1319 105.884 30.9253 105.231 29.856 104.627L30.3666 103.659C31.2839 104.176 32.3039 104.732 33.2759 105.245H33.2773C33.4359 105.329 33.5946 105.412 33.7493 105.493L33.2399 106.461Z" fill="#75A1B8"/>
<path d="M36.5292 106.872C36.4705 106.845 36.4092 106.817 36.3452 106.788C35.5772 106.433 34.4639 105.872 33.2772 105.245H33.2759C32.3039 104.732 31.2839 104.176 30.3666 103.659C30.1292 103.524 29.8986 103.393 29.6772 103.265C29.3986 103.105 29.1492 102.957 28.9279 102.827C28.4012 102.509 28.0439 102.279 27.8666 102.143C27.8666 102.141 27.8652 102.141 27.8652 102.141C27.8639 102.14 27.8625 102.14 27.8625 102.139C27.8612 102.139 27.8612 102.139 27.8612 102.139C27.8599 102.137 27.8599 102.136 27.8585 102.136C27.8572 102.136 27.8572 102.135 27.8559 102.135C27.8559 102.133 27.8546 102.133 27.8546 102.133C27.8532 102.132 27.8532 102.132 27.8519 102.131C27.8519 102.131 27.8519 102.131 27.8506 102.131C27.8506 102.129 27.8492 102.129 27.8479 102.128C27.8479 102.128 27.8479 102.128 27.8466 102.127C27.8412 102.123 27.8359 102.119 27.8306 102.115V102.113C27.8292 102.113 27.8279 102.112 27.8265 102.111C27.8252 102.109 27.8252 102.109 27.8239 102.108C27.8226 102.107 27.8212 102.107 27.8199 102.105C27.8186 102.105 27.8186 102.104 27.8172 102.103C27.8159 102.101 27.8146 102.101 27.8146 102.1C27.8132 102.1 27.8132 102.1 27.8132 102.1C27.8132 102.099 27.8119 102.099 27.8106 102.097C27.8092 102.096 27.8092 102.096 27.8079 102.095C27.8012 102.089 27.7959 102.085 27.7906 102.08L27.7892 102.079L27.7879 102.077L27.7866 102.076C27.7866 102.076 27.7866 102.076 27.7852 102.075C27.7852 102.075 27.7839 102.075 27.7839 102.073C27.7839 102.073 27.7839 102.073 27.7826 102.073C27.7826 102.072 27.7826 102.072 27.7812 102.072C27.7812 102.071 27.7812 102.071 27.7799 102.071C27.7799 102.069 27.7799 102.069 27.7799 102.069C27.7786 102.069 27.7786 102.068 27.7772 102.068V102.067C27.7759 102.067 27.7759 102.067 27.7759 102.065C27.7746 102.065 27.7746 102.065 27.7746 102.065C27.7746 102.064 27.7732 102.064 27.7732 102.063C27.7732 102.063 27.7732 102.063 27.7719 102.063C27.7292 102.02 27.7265 101.999 27.7625 101.999C27.8465 101.999 28.1426 102.113 28.6639 102.353C28.9519 102.487 29.2892 102.649 29.6612 102.833C29.7185 102.863 29.7772 102.891 29.8359 102.92C30.9666 103.485 32.3785 104.229 33.6945 104.955C34.2692 105.271 34.8252 105.584 35.3319 105.876C35.8546 106.177 36.2759 106.431 36.5919 106.629C36.5705 106.709 36.5492 106.791 36.5292 106.872ZM35.3906 106.241L35.4052 106.248L35.4306 106.26C35.8266 106.443 36.0532 106.531 36.1172 106.531C36.1532 106.531 36.1372 106.501 36.0692 106.445C36.0679 106.445 36.0679 106.444 36.0666 106.444C36.0666 106.443 36.0666 106.443 36.0666 106.443C36.0652 106.443 36.0652 106.443 36.0652 106.441C35.8932 106.303 35.4145 106.003 34.6585 105.565C33.0879 104.659 30.8879 103.495 29.6759 102.927C29.6692 102.924 29.6612 102.92 29.6546 102.917C29.6292 102.905 29.6039 102.893 29.5786 102.881L29.5572 102.872L29.5332 102.86C29.3026 102.755 29.1345 102.684 29.0252 102.645C29.0239 102.645 29.0226 102.645 29.0199 102.644C28.9572 102.621 28.9145 102.612 28.8919 102.612C28.8825 102.612 28.8759 102.613 28.8746 102.617C28.8666 102.632 28.9026 102.669 28.9812 102.728C29.1772 102.877 29.6426 103.167 30.3506 103.576C31.6186 104.309 33.2986 105.209 34.5359 105.828C34.8199 105.969 35.0799 106.096 35.3066 106.203L35.3532 106.224L35.3572 106.227L35.3799 106.237L35.3906 106.241Z" fill="#446D88"/>
<path d="M19.8146 106.281C19.7359 106.235 19.6573 106.188 19.5786 106.143C19.6573 106.188 19.7359 106.235 19.8146 106.281Z" fill="#97517A"/>
<path d="M30.8681 111.143C27.6241 110.145 23.6894 108.52 20.0654 106.427L19.8148 106.281C19.7361 106.235 19.6574 106.188 19.5788 106.143C15.7681 103.893 13.1521 101.672 10.7361 99.3333C11.4441 99.7893 12.1574 100.247 12.8814 100.704C14.3468 101.631 15.8468 102.561 17.3801 103.489C18.5961 104.227 19.8334 104.963 21.0921 105.699C22.0521 106.259 23.0068 106.808 23.9548 107.348C25.5881 108.275 27.2054 109.172 28.8054 110.037C29.4961 110.412 30.1841 110.78 30.8681 111.143Z" fill="#355C78"/>
<path d="M8.33069 94.5134C9.54003 89.7881 10.9614 84.3068 12.1694 79.5934C12.2507 79.2748 12.512 79.1361 12.7494 79.2734L12.78 79.2934C17.1147 82.0748 21.4827 84.7361 25.8827 87.2761C30.2814 89.8161 34.712 92.2334 39.1707 94.5294L39.204 94.5467C39.4494 94.6881 39.5721 95.0494 39.4907 95.3681C38.2827 100.081 36.8627 105.563 35.652 110.287C35.3294 111.545 34.7214 112.081 33.872 111.931C30.3107 111.187 24.9107 109.224 20.0654 106.427L19.8147 106.281C14.8934 103.412 11.948 100.595 8.91738 97.5228C8.22938 96.7854 8.00803 95.7721 8.33069 94.5134ZM40.3934 94.3494C35.5827 91.8987 30.8054 89.3041 26.064 86.5667C21.3227 83.8294 16.6174 80.9494 11.9534 77.9294C10.3307 84.2641 8.48805 91.4761 6.85739 97.8401L6.84404 97.9001C6.55204 99.2361 7.69605 100.839 8.82405 101.76C12.1814 104.504 16.324 107.543 21.0694 110.283C25.8147 113.023 29.2014 114.379 32.58 115.645C33.712 116.071 34.9467 115.488 35.2827 114.252C35.2827 114.252 38.7347 100.819 40.3934 94.3494Z" fill="#2D2C30"/>
<path d="M38.172 118.685L39.6613 119.547C40.0639 119.779 40.3906 119.532 40.3906 118.996V113.832C40.3906 113.296 40.0639 112.672 39.6613 112.439L37.1026 110.963C36.7 110.729 36.3733 110.976 36.3733 111.512V115.251C36.3733 116.575 37.1786 118.113 38.172 118.685Z" fill="#C8C7C0"/>
<path d="M40.3908 118.996V113.832C40.3908 113.296 40.0641 112.672 39.6614 112.439L37.1028 110.963C36.7134 110.737 36.3961 110.96 36.3748 111.46C36.4081 110.651 37.1841 110.016 37.7641 110.008L38.0641 110.096L40.6241 111.573C41.0268 111.805 41.3534 112.429 41.3534 112.965V118.44C41.3534 118.567 41.3347 118.679 41.3014 118.771C41.0694 119.481 40.3588 119.727 39.8814 119.628C40.1761 119.675 40.3908 119.431 40.3908 118.996Z" fill="#8C8984"/>
<defs>
<linearGradient id="paint0_linear_11_45575" x1="73.5252" y1="105.235" x2="80.0256" y2="116.494" gradientUnits="userSpaceOnUse">
<stop stop-color="#BDB9A7"/>
<stop offset="0.461052" stop-color="#F1EEE2"/>
<stop offset="0.915106" stop-color="#F1EEE2"/>
<stop offset="1" stop-color="#D4CFBD"/>
</linearGradient>
</defs>
</svg>
