<svg width="367" height="327" viewBox="0 0 367 327" fill="none" xmlns="http://www.w3.org/2000/svg">
<path d="M312.393 184.274L236.679 140.557C235.03 139.606 232.36 139.606 230.712 140.557L227.898 142.184L231.004 143.976L233.695 142.423L309.164 185.995L306.476 187.548L309.579 189.341L312.393 187.717C313.222 187.238 313.633 186.612 313.63 185.986C313.627 185.366 313.213 184.746 312.393 184.274" fill="#4B4647"/>
<path d="M227.898 142.184V147.128L231.004 148.921V143.976L227.898 142.184Z" fill="#373132"/>
<path d="M233.696 142.423L231.005 143.976V148.921L233.696 147.368L306.477 189.387V187.548L309.165 185.995L233.696 142.423" fill="#1B1817"/>
<path d="M306.477 187.548V192.493L309.58 194.288V189.341L306.477 187.548Z" fill="#373132"/>
<path d="M312.393 187.717L309.579 189.341V194.288L312.393 192.661C313.219 192.186 313.63 191.563 313.63 190.94C313.63 190.317 313.63 185.986 313.63 185.986C313.633 186.612 313.222 187.238 312.393 187.717Z" fill="#1B1817"/>
<path d="M86.6104 240.128V251.619L121.727 271.893V260.402L86.6104 240.128Z" fill="#262221"/>
<path d="M86.6104 240.128L251.046 145.192L286.163 165.466L121.727 260.402L86.6104 240.128Z" fill="#373132"/>
<path d="M121.727 260.402L286.162 165.466V176.957L121.727 271.893V260.402Z" fill="#1B1817"/>
<path d="M282.645 185.185L280.981 186.146L282.817 191.326L300.102 201.307L295.535 188.414C293.663 183.113 288.482 181.815 282.645 185.185" fill="#100F0D"/>
<path d="M246.899 196.163C249.931 190.912 253.909 186.867 257.895 184.562C260.391 183.123 262.886 182.368 265.154 182.429C265.955 182.45 266.756 182.472 267.557 182.493H267.566H267.569C268.999 182.533 270.344 182.88 271.55 183.568L279.189 188.009C275.966 186.176 271.755 186.759 267.548 189.19C263.343 191.618 259.141 195.89 255.943 201.43C249.544 212.512 249.578 224.469 256.017 228.14L248.381 223.696C245.65 222.128 244.339 219.016 244.109 218.635C241.083 213.642 242.01 204.631 246.899 196.163Z" fill="#1B1918"/>
<path d="M255.944 201.43C259.142 195.89 263.344 191.618 267.548 189.19C271.756 186.76 275.967 186.176 279.19 188.009C281.353 189.249 283.127 192.502 283.809 195.525C284.232 197.409 263.04 228.702 263.04 228.702C260.615 229.208 257.218 228.837 256.018 228.14C249.462 224.328 249.545 212.512 255.944 201.43Z" fill="#100F0D"/>
<path d="M257.733 227.818C263.816 231.332 273.677 225.636 279.76 215.103C285.843 204.566 285.843 193.18 279.76 189.666C273.677 186.155 263.816 191.848 257.733 202.384C251.65 212.92 251.65 224.307 257.733 227.818" fill="#100F0D"/>
<path d="M257.723 202.412C260.756 197.161 264.733 193.116 268.72 190.814C271.215 189.371 273.71 188.616 275.978 188.678C276.779 188.699 277.58 188.721 278.381 188.742H278.391H278.394C279.824 188.782 281.168 189.129 282.374 189.816L290.01 194.257C286.791 192.425 282.58 193.008 278.372 195.439C274.165 197.867 269.966 202.139 266.765 207.678C260.369 218.764 260.4 230.718 266.842 234.389L259.206 229.948C256.471 228.376 255.164 225.264 254.934 224.884C251.907 219.89 252.831 210.883 257.723 202.412Z" fill="#1B1918"/>
<path d="M266.765 207.678C269.966 202.139 274.165 197.867 278.372 195.439C282.58 193.008 286.791 192.425 290.01 194.257C292.177 195.5 293.951 198.75 294.632 201.773C295.056 203.658 273.864 234.95 273.864 234.95C271.436 235.457 268.042 235.085 266.842 234.389C260.283 230.577 260.366 218.764 266.765 207.678Z" fill="#262424"/>
<path d="M268.558 234.07C274.641 237.581 284.502 231.887 290.585 221.351C296.668 210.815 296.668 199.429 290.585 195.918C284.502 192.404 274.641 198.1 268.558 208.633C262.475 219.169 262.475 230.555 268.558 234.07" fill="#1B1918"/>
<path d="M272.676 226.934C276.482 229.131 282.657 225.568 286.466 218.973C290.271 212.377 290.271 205.248 286.466 203.05C282.657 200.853 276.482 204.416 272.676 211.011C268.868 217.607 268.868 224.736 272.676 226.934Z" fill="#100F0D"/>
<path d="M269.832 220.09L274.392 219.169C274.472 219.59 274.601 219.976 274.776 220.314L271.958 226.424C270.433 225.111 269.724 222.818 269.832 220.09V220.09ZM276.126 227.517L278.947 221.403C279.361 221.222 279.779 220.98 280.193 220.685L283.013 223.539C280.801 225.783 278.342 227.201 276.126 227.517ZM287.184 217.631L284.364 214.78C284.539 214.237 284.668 213.703 284.747 213.19L289.311 208.845C289.419 211.447 288.71 214.556 287.184 217.631ZM287.718 204.1L283.154 208.449C282.841 208.295 282.504 208.209 282.148 208.185V202.645C283.728 202.231 285.223 202.332 286.466 203.05C286.942 203.326 287.362 203.679 287.718 204.1V204.1ZM272.677 211.011C273.917 208.86 275.411 207.031 276.992 205.619V211.159C276.636 211.595 276.298 212.073 275.985 212.589L271.421 213.51C271.78 212.678 272.198 211.84 272.677 211.011ZM272.136 227.87C276.243 230.239 282.9 226.397 287.006 219.286C291.113 212.172 291.113 204.487 287.006 202.114C282.9 199.745 276.243 203.587 272.136 210.701C268.03 217.813 268.03 225.498 272.136 227.87Z" fill="#D0CFB2"/>
<path d="M275.632 210.376V206.963C276.077 206.481 276.531 206.033 276.992 205.619V211.159C276.636 211.595 276.298 212.073 275.985 212.589L271.421 213.51C271.59 213.12 271.768 212.73 271.962 212.34L274.626 211.803C274.939 211.288 275.276 210.812 275.632 210.376Z" fill="#A9A891"/>
<path d="M273.346 219.381L274.393 219.169C274.472 219.59 274.601 219.976 274.776 220.314L271.959 226.424C271.526 226.05 271.158 225.599 270.857 225.08L273.417 219.531L273.346 219.381Z" fill="#A9A891"/>
<path d="M289.311 208.845C289.418 211.447 288.709 214.556 287.184 217.632L286.015 216.45C287.024 214.32 287.638 212.184 287.865 210.22L289.311 208.845" fill="#A9A891"/>
<path d="M281.653 222.757L279.843 220.922L280.193 220.685L283.013 223.54C280.8 225.783 278.342 227.201 276.126 227.517L276.74 226.188C278.385 225.525 280.082 224.35 281.653 222.757Z" fill="#A9A891"/>
<path d="M285.752 202.716L286.467 203.05C286.942 203.327 287.363 203.679 287.719 204.1L283.155 208.449C282.842 208.295 282.504 208.209 282.148 208.185V207.329L286.359 203.317L285.752 202.716" fill="#A9A891"/>
<path d="M278.643 216.6C279.155 216.895 279.987 216.416 280.5 215.529C281.012 214.639 281.012 213.682 280.5 213.384C279.987 213.089 279.155 213.568 278.643 214.458C278.13 215.345 278.13 216.303 278.643 216.6Z" fill="#201F1E"/>
<path d="M279.036 212.015C279.33 212.187 279.809 211.911 280.107 211.398C280.402 210.886 280.402 210.33 280.107 210.161C279.809 209.989 279.33 210.266 279.036 210.778C278.738 211.291 278.738 211.846 279.036 212.015Z" fill="#201F1E"/>
<path d="M281.674 216.072C281.263 216.235 280.873 216.784 280.809 217.297C280.744 217.813 281.023 218.098 281.438 217.935C281.852 217.773 282.239 217.223 282.306 216.708C282.371 216.192 282.088 215.907 281.674 216.072Z" fill="#201F1E"/>
<path d="M278.329 218.73C278.265 218.288 277.878 218.187 277.464 218.503C277.049 218.816 276.77 219.427 276.834 219.866C276.899 220.308 277.289 220.406 277.7 220.093C278.114 219.78 278.397 219.169 278.329 218.73Z" fill="#201F1E"/>
<path d="M276.7 216.223C277.071 215.787 277.218 215.176 277.028 214.857C276.841 214.535 276.384 214.627 276.009 215.063C275.638 215.495 275.491 216.109 275.681 216.428C275.871 216.751 276.325 216.659 276.7 216.223Z" fill="#201F1E"/>
<path d="M282.11 211.923C281.92 212.463 282.067 212.902 282.441 212.908C282.813 212.911 283.27 212.478 283.46 211.938C283.651 211.398 283.5 210.956 283.129 210.953C282.758 210.947 282.3 211.383 282.11 211.923Z" fill="#201F1E"/>
<path d="M273.26 187.855L282.645 182.435C286.988 179.928 291.027 179.624 293.961 181.321C293.961 181.321 278.349 172.295 276.633 171.316C273.702 169.646 269.681 169.959 265.36 172.458L255.975 177.874C249.119 181.831 243.026 190.39 240.826 199.156L236.861 214.952C236.357 216.962 237.247 219.065 239.043 220.102L250.675 226.817C251.988 227.575 253.661 226.866 254.032 225.396L258.114 209.136C260.315 200.371 266.407 191.811 273.26 187.855Z" fill="#414042"/>
<path d="M297.79 186.229C296.983 183.951 295.657 182.3 293.96 181.321C291.026 179.624 286.987 179.928 282.644 182.435L273.259 187.855C266.405 191.811 260.313 200.371 258.113 209.136L254.031 225.396C253.66 226.866 251.987 227.575 250.673 226.817C253.678 228.554 255.651 227.477 256.02 226.007L260.369 208.719C262.241 201.255 267.421 193.975 273.259 190.605L282.644 185.185C288.481 181.815 293.659 183.113 295.534 188.414L300.101 201.307L302.609 199.858L297.79 186.229" fill="#262424"/>
<path d="M244.124 210.987V198.649L242.053 199.849V224.847L244.124 223.653V213.507L249.072 216.364V213.844L244.124 210.987Z" fill="#414042"/>
<path d="M244.124 223.653L242.053 224.847L247 227.704L249.069 226.51L244.124 223.653" fill="#262424"/>
<path d="M247.001 217.558V215.038L242.053 212.181V199.849L239.561 201.282V224.156C239.561 225.252 240.144 226.268 241.096 226.814L247.001 230.224V227.704L242.053 224.847V214.7L247.001 217.558Z" fill="#100F0D"/>
<path d="M208.72 231.427V219.089L206.648 220.289V245.29L208.72 244.093V233.95L213.667 236.804V234.284L208.72 231.427Z" fill="#414042"/>
<path d="M208.72 244.093L206.648 245.29L211.595 248.144L213.667 246.95L208.72 244.093Z" fill="#262424"/>
<path d="M211.596 237.998V235.478L206.648 232.624V220.289L204.156 221.726V244.597C204.156 245.695 204.739 246.708 205.691 247.257L211.596 250.667V248.144L206.648 245.29V235.144L211.596 237.998Z" fill="#100F0D"/>
<path d="M196.781 251.87L248.888 221.775L250.828 222.898L198.724 252.99V259.85L196.781 258.73V251.87" fill="#B21D23"/>
<path d="M252.84 206.264L196.783 238.643V245.502L198.723 246.622V239.763L254.783 207.387L252.84 206.264Z" fill="#B21D23"/>
<path d="M198.723 252.99L250.827 222.898L248.78 230.948L198.723 259.85V252.99" fill="#E11D25"/>
<path d="M254.783 207.387L198.723 239.763V246.622L252.742 215.425L254.783 207.387" fill="#E11D25"/>
<path d="M153.053 272.759L163.699 278.903C164.319 279.262 164.881 279.299 165.289 279.065C165.701 278.832 165.955 278.326 165.955 277.602V262.713C165.955 261.274 164.946 259.525 163.699 258.803L153.053 252.656C152.424 252.294 151.853 252.263 151.445 252.506C151.043 252.745 150.794 253.245 150.794 253.96V268.848C150.794 270.288 151.807 272.037 153.053 272.759" fill="#B1AE9E"/>
<path d="M165.288 279.065C165.699 278.832 165.954 278.326 165.954 277.602V262.713C165.954 261.274 164.944 259.525 163.698 258.803L154.049 253.233L153.052 252.656C152.689 252.447 152.346 252.349 152.045 252.349C151.83 252.349 151.634 252.398 151.465 252.493C151.655 252.383 153.095 251.551 155.249 250.308L161.688 254.028L188.337 238.639L193.481 241.61C194.727 242.328 195.737 244.078 195.737 245.517V260.409C195.737 261.127 195.485 261.633 195.077 261.869C194.668 262.103 165.475 278.958 165.288 279.065V279.065ZM151.443 252.506C151.453 252.499 151.459 252.496 151.465 252.493C151.453 252.499 151.446 252.503 151.443 252.506Z" fill="url(#paint0_linear_14_82896)"/>
<path d="M179.366 260.832C177.761 260.221 176.687 258.361 176.96 256.667C177.101 255.82 177.552 255.179 178.169 254.823L176.748 255.642C176.131 255.998 175.677 256.643 175.539 257.487C175.263 259.181 176.337 261.044 177.942 261.651C178.746 261.952 179.529 261.885 180.146 261.529L181.567 260.706C180.95 261.062 180.167 261.133 179.366 260.832" fill="#1C1817"/>
<path d="M175.54 257.487L175.611 257.168C175.325 257.33 174.948 257.545 174.478 257.809C173.717 258.208 172.944 258.969 172.364 259.976C171.265 261.876 171.265 263.929 172.364 264.564C172.974 264.917 173.797 264.754 174.595 264.214C175.789 263.505 177.566 262.36 178.437 261.793L177.943 261.651C176.338 261.044 175.264 259.181 175.54 257.487" fill="#BCB9A7"/>
<path d="M180.374 254.697C179.57 254.396 178.787 254.467 178.17 254.823C177.553 255.179 177.102 255.82 176.961 256.667C176.688 258.361 177.762 260.221 179.367 260.832C180.168 261.133 180.951 261.062 181.568 260.706C182.184 260.35 182.636 259.709 182.777 258.862C183.053 257.168 181.976 255.305 180.374 254.697" fill="#2E2929"/>
<path d="M243.603 28.1733H246.218V7.97678e-07H243.603V28.1733Z" fill="#F1EEE2"/>
<path d="M317.381 70.7631H366.186V69.2562H317.381V70.7631Z" fill="#F1EEE2"/>
<path d="M317.381 160.645H366.186V70.7635H317.381V160.645Z" fill="#D4CFBE"/>
<path d="M319.708 160.645H325.306V70.7635H319.708V160.645Z" fill="#C2BDAA"/>
<path d="M161.689 158.208V254.028L319.708 162.796V66.979L161.689 158.208" fill="#D4CFBE"/>
<path d="M161.689 254.028V158.208L319.708 66.979V162.796L297.451 175.646L294.345 177.439L289.456 180.262L266.45 193.545L242.054 207.629L239.562 209.069L238.131 209.894L206.649 228.07L204.157 229.509L161.689 254.028V254.028ZM317.05 71.5795L164.347 159.745V249.424L317.05 161.262V71.5795Z" fill="#EFEFE8"/>
<path d="M82.7666 112.644V208.461L161.688 254.028V158.208L82.7666 112.644Z" fill="#BDBAAA"/>
<path d="M161.688 254.028L155.249 250.308L147.227 245.677L145.563 244.716C145.551 243.67 145.542 242.642 145.53 241.629L159.034 249.424V159.745L85.4213 117.245V155.123L82.7666 153.589V112.644L161.688 158.208V254.028" fill="#E7E6E0"/>
<path d="M240.782 21.4122L82.7666 112.644L161.688 158.208L319.707 66.979L240.782 21.4122" fill="#F1EEE2"/>
<path d="M161.688 158.208L82.7666 112.644L240.782 21.4122L319.707 66.979L161.688 158.208V158.208ZM240.782 24.4812L88.0823 112.641L161.691 155.142L314.391 66.979L240.782 24.4812" fill="#FBFAF7"/>
<path d="M129.248 202.722C129.218 201.841 128.543 201.516 127.763 201.964C120.241 206.31 107.516 213.654 99.9662 218.015C99.5764 218.239 99.2664 218.687 99.1651 219.135C96.3661 231.261 93.4106 243.479 90.274 255.802C89.5313 258.77 89.1231 261.691 89.1292 264.407C89.1415 267.774 89.1231 271.159 89.0801 274.557C89.0586 275.469 89.6816 275.825 90.4336 275.389C92.9779 273.922 95.5467 272.439 98.0879 270.969C98.7907 270.564 99.4628 269.76 99.8772 268.802C101.709 264.549 103.517 260.283 105.325 256.014C105.969 254.507 107.083 253.144 108.277 252.456C113.492 249.446 123.881 243.449 129.095 240.438C129.589 240.152 129.976 239.48 129.973 238.913C129.967 226.704 129.724 214.63 129.248 202.722" fill="#1B1817"/>
<path d="M14.114 236.399L13.8286 236.322L7.68424 232.774C5.97782 231.786 4.63965 229.472 4.63965 227.502V223.285C4.63965 222.969 4.89442 222.714 5.21053 222.714C5.52665 222.714 5.78134 222.969 5.78134 223.285V227.502C5.78134 229.048 6.91385 231.01 8.25505 231.783L14.3994 235.334L14.6081 236.114L14.114 236.399Z" fill="#262424"/>
<path d="M5.10694 227.072L1.67878 225.092C0.751919 224.558 0 223.122 0 221.888V210.002C0 208.765 0.751919 208.2 1.67878 208.734L7.56836 212.135C8.49522 212.669 9.24714 214.105 9.24714 215.339V223.945C9.24714 226.992 7.39341 228.392 5.10694 227.072" fill="#C8C7C0"/>
<path d="M9.24651 223.945V215.339C9.24651 214.105 8.49459 212.669 7.56772 212.135L1.67815 208.734C0.781979 208.216 0.0484778 208.731 0.00244141 209.882C0.0760996 208.016 1.86228 206.555 3.19734 206.54L3.89096 206.739L9.78053 210.14C10.7074 210.677 11.4593 212.11 11.4593 213.347V222.665C11.4593 223.312 11.3765 223.883 11.2231 224.371C10.4404 226.903 8.02812 227.867 6.37695 227.542C8.0404 227.787 9.24651 226.403 9.24651 223.945" fill="#8C8984"/>
<path d="M21.4806 216.873L30.7001 181.217L27.5144 179.378L15.7812 225.209L20.3082 227.824V225.488C20.3082 222.778 20.701 219.881 21.4806 216.873Z" fill="#100F0D"/>
<path d="M92.9319 217.147L56.4249 196.301L55.8695 203.056C55.8695 203.618 55.4735 204.306 54.9856 204.585L39.3946 213.586C38.1945 214.28 37.0897 215.615 36.4421 217.156L31.0743 229.893C30.6814 230.819 30.0185 231.62 29.2973 232.035L28.4502 232.526L81.1987 262.98L92.9319 217.147Z" fill="#100F0D"/>
<path d="M41.1499 218.377C41.6471 217.546 42.4451 217.144 42.9331 217.423L46.0912 219.252C46.7756 219.648 47.7055 219.556 48.6753 218.994L58.5701 213.283C58.9844 213.043 59.362 213.022 59.6321 213.181C59.8991 213.341 60.0648 213.672 60.0648 214.148C60.0648 215.099 59.3957 216.26 58.5701 216.738L48.6017 222.493C47.3249 223.23 46.0974 223.352 45.195 222.831L41.1223 220.473C40.6221 220.185 40.6312 219.24 41.1499 218.377" fill="#161413"/>
<path d="M43.9795 218.034C44.667 218.429 45.5969 218.337 46.5667 217.776L56.4584 212.064C56.8727 211.828 57.2441 211.803 57.5172 211.96L59.6319 213.181C59.3618 213.022 58.9842 213.043 58.5699 213.283L48.6751 218.994C47.7053 219.556 46.7754 219.648 46.091 219.252L43.9795 218.034" fill="#1E1B1A"/>
<path d="M39.0391 217.159C39.5394 216.327 40.3374 215.925 40.8223 216.204L42.9338 217.423C42.4458 217.144 41.6478 217.546 41.1506 218.377C40.6319 219.24 40.6228 220.185 41.12 220.474L39.0115 219.255C38.5112 218.967 38.5204 218.021 39.0391 217.159" fill="#1E1B1A"/>
<path d="M106.746 254.847C99.5305 259.012 93.6777 269.146 93.6777 277.482V280.198L119.378 265.359V247.552L106.746 254.847Z" fill="#252020"/>
<path d="M106.746 254.847L119.379 247.552L64.3436 215.778L51.7113 223.07C44.4958 227.238 38.6431 237.372 38.6431 245.704V248.424L93.6781 280.198V277.482C93.6781 269.146 99.5308 259.012 106.746 254.847Z" fill="#464142"/>
<path d="M79.6701 230.123L62.5508 240.008C62.075 240.281 61.6453 240.309 61.3353 240.128C61.0254 239.95 60.832 239.563 60.832 239.017V237.35C60.832 235.672 61.8203 233.628 63.2321 232.415C66.1354 229.929 68.8301 228.278 71.7702 227.078C74.8117 225.838 78.5345 224.506 81.619 222.726L79.6701 230.123" fill="#463D3F"/>
<path d="M60.8315 239.017V237.35C60.8315 235.672 61.8198 233.628 63.2315 232.415C66.1349 229.929 68.8295 228.278 71.7697 227.078C74.8112 225.838 78.534 224.506 81.6184 222.726L66.6996 214.111C63.6151 215.894 59.8924 217.223 56.8509 218.466C53.9107 219.666 51.216 221.314 48.3126 223.803C46.9009 225.013 45.9126 227.057 45.9126 228.735V230.402C45.9126 230.951 46.106 231.335 46.416 231.513C46.7259 231.694 61.3348 240.128 61.3348 240.128C61.0248 239.95 60.8315 239.563 60.8315 239.017Z" fill="#332D2D"/>
<path d="M61.3351 240.128C61.3351 240.128 51.3298 234.352 47.7022 232.259L47.6685 232.24C47.7605 233.219 48.0398 233.99 48.5861 234.266H48.5892L63.508 242.881L62.5505 240.008C62.0748 240.281 61.645 240.309 61.3351 240.128Z" fill="#1E1B1A"/>
<path d="M84.8845 199.226C83.7489 199.616 82.5857 200.853 81.9688 202.341C81.2138 204.155 80.4404 206.257 79.7652 208.575C78.8016 211.886 78.3044 214.722 78.0497 216.969C77.8717 218.537 77.5924 220.142 77.1995 221.781L76.3647 225.237C78.1632 224.491 79.9832 223.671 81.619 222.726L86.9653 202.277C87.3428 200.831 87.039 199.711 86.3055 199.288C85.9311 199.07 85.4461 199.036 84.8845 199.226Z" fill="#463D3F"/>
<path d="M78.0503 216.969C78.305 214.722 78.8021 211.886 79.7658 208.575C80.441 206.257 81.2144 204.155 81.9694 202.341C82.5863 200.853 83.7495 199.616 84.8851 199.226C85.4467 199.036 85.9317 199.07 86.3061 199.288C86.3061 199.288 72.1238 191.105 71.3933 190.679C71.0189 190.458 70.534 190.421 69.9662 190.614C68.8307 191.001 67.6675 192.238 67.0475 193.726C66.2956 195.543 65.5222 197.642 64.847 199.96C63.8833 203.271 63.3861 206.107 63.1314 208.354C62.9534 209.922 62.6741 211.53 62.2781 213.166L61.4434 216.622L76.3653 225.237L77.2001 221.781C77.593 220.142 77.8722 218.537 78.0503 216.969" fill="#2A2424"/>
<path d="M62.5513 240.008C62.5513 241.377 62.8121 242.528 63.5088 242.881C65.7646 239.437 68.6526 236.485 71.7984 234.668L62.5513 240.008Z" fill="#252020"/>
<path d="M109.489 247.34L92.3699 257.226C91.8973 257.499 91.4676 257.524 91.1577 257.346C90.8446 257.168 90.6543 256.781 90.6543 256.235V254.568C90.6543 252.889 91.6395 250.842 93.0543 249.633C95.9577 247.147 98.6524 245.496 101.59 244.296C104.631 243.056 108.357 241.724 111.441 239.944L109.489 247.34Z" fill="#463D3F"/>
<path d="M90.6542 256.235V254.568C90.6542 252.889 91.6394 250.842 93.0542 249.633C95.9576 247.147 98.6523 245.496 101.589 244.296C104.631 243.056 108.357 241.724 111.441 239.944L96.5223 231.329C93.4348 233.112 89.712 234.441 86.6705 235.684C83.7303 236.884 81.0387 238.532 78.1353 241.021C76.7205 242.23 75.7354 244.274 75.7354 245.953V247.62C75.7354 248.169 75.9256 248.553 76.2356 248.731C76.5486 248.912 91.1575 257.346 91.1575 257.346C90.8445 257.168 90.6542 256.781 90.6542 256.235Z" fill="#332D2D"/>
<path d="M91.1585 257.346C91.1585 257.346 81.1502 251.57 77.5256 249.476L77.4888 249.455C77.5839 250.437 77.8601 251.207 78.4095 251.484L93.3283 260.095L92.3708 257.226C91.8982 257.499 91.4685 257.524 91.1585 257.346" fill="#1E1B1A"/>
<path d="M114.708 216.444C113.572 216.834 112.406 218.07 111.789 219.556C111.034 221.373 110.264 223.472 109.589 225.789C108.625 229.104 108.128 231.936 107.873 234.183C107.692 235.751 107.416 237.36 107.02 238.995L106.185 242.451C107.987 241.705 109.803 240.889 111.442 239.944L116.786 219.494C117.166 218.049 116.862 216.929 116.126 216.502C115.754 216.287 115.27 216.253 114.708 216.444" fill="#463D3F"/>
<path d="M107.873 234.183C108.127 231.936 108.624 229.104 109.588 225.789C110.263 223.472 111.034 221.373 111.789 219.556C112.406 218.07 113.572 216.834 114.707 216.444C115.269 216.253 115.754 216.287 116.125 216.502C116.125 216.502 101.943 208.323 101.216 207.893C100.841 207.675 100.353 207.638 99.7885 207.832C98.6529 208.219 97.4867 209.455 96.8698 210.944C96.1148 212.761 95.3445 214.86 94.6693 217.177C93.7025 220.489 93.2053 223.325 92.9506 225.571C92.7725 227.14 92.4963 228.748 92.1004 230.384L91.2656 233.839L106.185 242.451L107.019 238.995C107.415 237.36 107.691 235.751 107.873 234.183" fill="#2A2424"/>
<path d="M92.3696 257.226C92.3696 258.595 92.6305 259.746 93.3271 260.099C95.5829 256.655 98.4709 253.703 101.617 251.886L92.3696 257.226Z" fill="#252020"/>
<path d="M65.8083 246.15L64.8354 247.917L69.0462 250.351L70.0222 248.58L75.5036 251.309L71.2928 248.878L65.8083 246.15Z" fill="#252020"/>
<path d="M70.0214 248.58L69.0454 250.351L73.9652 254.105L75.5028 251.309L70.0214 248.58" fill="#1E1B1A"/>
<path d="M69.0113 268.29L74.2074 266.832C77.2519 258.186 74.8181 253.678 71.1536 251.566L71.1137 251.545C69.082 250.388 66.7495 251.662 66.0651 253.896C64.3893 259.359 62.9775 264.807 62.9775 264.807L69.0113 268.29Z" fill="#232020"/>
<path d="M71.1134 251.545L71.1533 251.566C71.1533 251.566 63.7445 247.285 60.0801 245.174L60.037 245.152C58.0084 243.995 55.6759 245.269 54.9884 247.503C53.3157 252.966 51.9009 258.411 51.9009 258.411L62.9773 264.807C62.9773 264.807 64.3891 259.359 66.0648 253.896C66.7492 251.662 69.0817 250.388 71.1134 251.545" fill="#322E2E"/>
<path d="M71.5222 242.387L68.6341 247.632C68.6157 247.659 68.9012 247.847 69.4598 248.169C70.359 248.688 71.6266 249.36 72.2895 249.664L72.6823 249.814L75.5703 244.563L71.5222 242.387Z" fill="#5E5457"/>
<path d="M67.5576 237.547L67.9781 236.764L68.0333 236.789L68.0855 236.813C70.817 238.075 76.0621 240.846 79.7757 242.991C82.056 244.308 83.2377 245.085 83.1763 245.198L82.8755 245.757L67.5576 237.547Z" fill="#473E40"/>
<path d="M77.6241 242.212L77.5904 242.276L77.2773 242.095L77.6241 242.212" fill="#100F0D"/>
<path d="M79.4947 243.596L79.2338 244.078L66.4111 237.01L66.8101 236.27L79.4947 243.596" fill="#595052"/>
<path d="M66.7978 236.267L66.4603 236.206L66.4111 236.298L66.6996 236.476L66.8101 236.27L66.7978 236.267" fill="#352F2F"/>
<path d="M76.4817 241.469C77.6327 242.135 77.9488 242.39 77.2767 242.095L81.7606 244.686L81.5519 244.59L81.5028 244.566L81.4444 244.541L81.3862 244.514L81.2726 244.458C80.7478 244.213 80.1493 243.921 79.4956 243.596L66.811 236.27C67.0596 236.359 67.4463 236.522 67.9712 236.761L68.0264 236.786L68.0847 236.813L68.3088 236.918L72.7927 239.508C73.7533 239.968 75.3339 240.806 76.4817 241.469" fill="#2F2828"/>
<path d="M85.7876 246.604L84.5936 248.823C84.5445 248.915 83.8509 248.663 82.4637 248.025C78.8759 246.367 71.992 242.731 67.1182 239.916C64.1259 238.188 62.576 237.166 62.6558 237.019L63.8497 234.8C63.7699 234.947 65.3197 235.969 68.3121 237.697C73.1858 240.512 80.0698 244.148 83.6575 245.806C85.0448 246.444 85.7384 246.699 85.7876 246.604Z" fill="#574D4F"/>
<path d="M68.7231 240.831C71.1815 242.221 73.9591 243.725 76.5125 245.054L77.6849 242.826C75.1314 241.494 72.3539 239.99 69.8956 238.603L68.7231 240.831Z" fill="#928B8C"/>
<path d="M81.493 244.563L81.5513 244.59C84.2859 245.852 83.4879 245.134 79.7743 242.991C76.0607 240.846 70.8156 238.075 68.0841 236.813L68.0319 236.789L67.9767 236.764C65.371 235.57 66.1966 236.298 69.858 238.412C73.4489 240.484 78.4669 243.142 81.269 244.458L81.3825 244.511L81.4377 244.538L81.493 244.563V244.563ZM81.3242 243.706C86.1979 246.521 87.2444 247.463 83.6567 245.806C80.0689 244.148 73.1849 240.512 68.3112 237.697C63.4375 234.883 62.391 233.944 65.9787 235.598C69.5665 237.255 76.4505 240.892 81.3242 243.706Z" fill="#2F2828"/>
<path d="M129.248 202.722C129.218 201.841 128.543 201.516 127.763 201.964C120.241 206.31 107.516 213.654 99.9662 218.015C99.5764 218.239 99.2664 218.687 99.1651 219.135C96.3661 231.261 93.4106 243.479 90.274 255.802C89.5312 258.77 89.1231 261.691 89.1292 264.408C89.1415 267.774 89.1231 271.16 89.0801 274.557C89.0586 275.469 89.6816 275.825 90.4336 275.389C92.9778 273.922 95.5466 272.439 98.0879 270.969C98.7907 270.564 99.4628 269.76 99.8772 268.802C101.709 264.549 103.517 260.283 105.325 256.014C105.969 254.507 107.083 253.144 108.277 252.457C113.492 249.446 123.881 243.449 129.095 240.438C129.589 240.152 129.976 239.48 129.973 238.913C129.967 226.704 129.724 214.63 129.248 202.722V202.722ZM143.695 190.979C143.695 190.979 145.634 213.629 145.634 259.678L123.742 272.317C115.818 276.893 107.71 286.198 105.288 296.305L101.915 310.426L82.5 321.634V267.013C82.5 264.653 82.8468 262.109 83.525 259.491L94.8868 215.548C95.43 213.451 96.8879 211.414 98.5268 210.465L137.943 187.662C139.211 186.928 140.638 187.011 141.752 187.643C142.884 188.285 143.535 189.27 143.695 190.979Z" fill="#C81E25"/>
<path d="M129.095 240.438C123.881 243.449 113.492 249.446 108.277 252.456C107.084 253.144 105.969 254.507 105.325 256.014C103.517 260.283 101.71 264.549 99.8773 268.802C99.463 269.76 98.7909 270.564 98.088 270.969C95.5468 272.439 92.978 273.922 90.4337 275.389C89.6818 275.825 89.0588 275.469 89.0803 274.557C89.1233 271.16 89.1417 267.774 89.1294 264.408C89.1232 261.691 89.5314 258.77 90.2741 255.802C93.4108 243.479 96.3663 231.261 99.1653 219.135C99.2666 218.687 99.5766 218.239 99.9664 218.015C107.516 213.654 120.241 206.31 127.763 201.964L127.809 201.939C128.567 201.5 129.221 201.859 129.249 202.722C129.724 214.63 129.967 226.704 129.973 238.913C129.976 239.48 129.589 240.152 129.095 240.438V240.438ZM129.948 202.139C129.921 201.258 129.295 200.813 128.672 200.816L127.917 201.04C120.186 205.505 107.28 212.954 99.5489 217.42C99.0303 217.717 98.5883 218.331 98.4349 218.988C95.6635 231.099 92.711 243.317 89.5744 255.608C88.804 258.684 88.4204 261.621 88.4296 264.365C88.4143 267.955 88.3959 271.549 88.356 275.155C88.359 276.021 88.9575 276.481 89.556 276.494L90.2803 276.285C93.0056 274.71 95.731 273.139 98.4564 271.565C99.285 271.086 100.062 270.159 100.528 269.085C102.36 264.831 104.168 260.562 105.976 256.293C106.568 254.906 107.578 253.696 108.667 253.067C113.78 250.115 124.037 244.191 129.123 241.257C130.007 240.748 130.703 239.539 130.7 238.526C130.666 226.271 130.424 214.136 129.948 202.139" fill="#262424"/>
<path d="M118.074 246.8L110.748 242.571L111.442 239.944L116.785 219.494C117.166 218.049 116.862 216.929 116.125 216.502C116.125 216.502 112.842 214.608 109.352 212.595C115.788 208.878 122.874 204.787 127.764 201.964C128 201.829 128.227 201.764 128.43 201.764C128.865 201.764 129.188 202.068 129.243 202.617C129.246 202.651 129.246 202.685 129.249 202.722C129.725 214.63 129.967 226.704 129.973 238.913C129.976 239.48 129.59 240.152 129.095 240.438C126.352 242.022 122.175 244.431 118.074 246.8" fill="#39607C"/>
<path d="M94.1353 273.253C95.5378 266.482 100.025 259.396 105.497 255.636C105.436 255.762 105.377 255.885 105.325 256.014C103.517 260.283 101.71 264.549 99.8775 268.803C99.4632 269.76 98.791 270.564 98.0882 270.969C96.7746 271.727 95.455 272.492 94.1353 273.253Z" fill="#406782"/>
<path d="M89.833 275.573C89.3879 275.573 89.0811 275.223 89.0811 274.603C89.0811 274.588 89.0811 274.572 89.0811 274.557C89.1179 271.798 89.1332 269.045 89.1332 266.304C89.1332 265.669 89.1332 265.037 89.1301 264.408C89.1301 264.386 89.1301 264.365 89.1301 264.343C89.1301 262.336 89.3573 260.215 89.7777 258.045L93.2151 260.031C93.2519 260.056 93.2887 260.077 93.3286 260.099C95.5783 256.664 98.4571 253.718 101.594 251.901L109.491 247.34L110.749 242.571L118.075 246.8C114.383 248.933 110.749 251.029 108.278 252.456C107.183 253.089 106.157 254.283 105.498 255.636C100.025 259.396 95.5384 266.482 94.1358 273.253C92.899 273.968 91.6652 274.68 90.4345 275.389C90.2197 275.515 90.014 275.573 89.833 275.573V275.573ZM91.6038 257.459C91.4381 257.459 91.2877 257.419 91.1588 257.346H91.1558H91.1588C90.8458 257.168 90.6555 256.781 90.6555 256.235C90.6555 256.781 90.8458 257.168 91.1588 257.346C91.2877 257.419 91.4381 257.459 91.6038 257.459C91.8371 257.459 92.0949 257.385 92.3711 257.226C92.0949 257.385 91.8371 257.459 91.6038 257.459ZM91.1496 257.342C91.1496 257.339 91.1496 257.339 91.1496 257.339C91.1496 257.339 91.1496 257.339 91.1496 257.342ZM91.1373 257.333C91.1343 257.333 91.1343 257.333 91.1343 257.333C91.1343 257.333 91.1343 257.333 91.1373 257.333ZM91.1312 257.33L91.1281 257.327L91.1312 257.33ZM91.0821 257.303C90.9348 257.217 90.5726 257.008 90.057 256.71C90.5726 257.008 90.9348 257.217 91.0821 257.303ZM90.6555 254.488C90.6555 254.418 90.6585 254.344 90.6647 254.273C90.6585 254.344 90.6555 254.418 90.6555 254.488ZM91.1742 252.254V252.251C91.6008 251.256 92.2606 250.314 93.0555 249.633C92.2606 250.314 91.6008 251.256 91.1742 252.254Z" fill="#507B95"/>
<path d="M116.035 216.456C115.854 216.367 115.646 216.321 115.416 216.318C115.646 216.321 115.851 216.367 116.035 216.456ZM114.707 216.444C114.713 216.441 114.722 216.441 114.728 216.438C114.722 216.441 114.713 216.441 114.707 216.444ZM115.385 216.318C115.391 216.318 115.397 216.318 115.403 216.318C115.397 216.318 115.391 216.318 115.385 216.318Z" fill="#39607C"/>
<path d="M91.6027 257.459C91.4369 257.459 91.2866 257.419 91.1577 257.346C90.8446 257.168 90.6543 256.781 90.6543 256.235V254.568C90.6543 254.54 90.6543 254.513 90.6543 254.488C90.6543 254.418 90.6574 254.344 90.6635 254.273C90.8354 253.598 91.0042 252.926 91.173 252.254C91.5996 251.256 92.2595 250.314 93.0543 249.633C95.9577 247.147 98.6524 245.496 101.59 244.296C104.456 243.126 107.924 241.88 110.895 240.251L110.898 240.248C110.923 240.235 110.944 240.223 110.969 240.211C110.972 240.208 110.975 240.205 110.981 240.205C111.002 240.192 111.021 240.18 111.042 240.168C111.048 240.165 111.055 240.162 111.061 240.159C111.079 240.149 111.098 240.14 111.116 240.128C111.122 240.125 111.131 240.119 111.137 240.116C111.156 240.106 111.174 240.097 111.193 240.085C111.199 240.082 111.208 240.076 111.214 240.073C111.233 240.064 111.248 240.054 111.266 240.042C111.276 240.039 111.282 240.033 111.291 240.03C111.309 240.021 111.325 240.008 111.343 239.999C111.352 239.996 111.358 239.99 111.365 239.987C111.392 239.971 111.417 239.959 111.441 239.944L110.748 242.571L109.489 247.34L101.593 251.901C101.602 251.895 101.611 251.892 101.617 251.886L92.3699 257.226C92.0937 257.385 91.8359 257.459 91.6027 257.459" fill="#507995"/>
<path d="M91.1585 257.346H91.1554C91.1554 257.342 91.1523 257.342 91.1493 257.342C91.1493 257.339 91.1493 257.339 91.1493 257.339C91.1462 257.339 91.14 257.336 91.137 257.333C91.1339 257.333 91.1339 257.333 91.1339 257.333C91.1339 257.33 91.1308 257.33 91.1308 257.33L91.1278 257.327C91.1155 257.321 91.1002 257.312 91.0817 257.303C90.9344 257.217 90.5722 257.008 90.0566 256.71C90.1272 256.409 90.2009 256.106 90.2745 255.802C90.4065 255.292 90.5354 254.783 90.6643 254.273C90.6582 254.344 90.6551 254.418 90.6551 254.488C90.6551 254.513 90.6551 254.54 90.6551 254.568V256.235C90.6551 256.781 90.8454 257.168 91.1585 257.346V257.346ZM91.1738 252.251C92.5396 246.843 93.8654 241.457 95.1637 236.089L106.185 242.451C107.787 241.788 109.404 241.067 110.896 240.251C107.925 241.88 104.457 243.126 101.59 244.296C98.6532 245.496 95.9585 247.147 93.0551 249.633C92.2603 250.314 91.6004 251.256 91.1738 252.251V252.251ZM110.899 240.248C110.923 240.235 110.945 240.223 110.969 240.211C110.945 240.223 110.923 240.235 110.899 240.248ZM110.982 240.205C111.003 240.192 111.022 240.18 111.043 240.168C111.022 240.18 111.003 240.192 110.982 240.205ZM111.061 240.159C111.08 240.149 111.098 240.14 111.117 240.128C111.098 240.14 111.08 240.149 111.061 240.159ZM111.138 240.116C111.157 240.106 111.175 240.097 111.194 240.085C111.175 240.097 111.157 240.106 111.138 240.116ZM111.215 240.073C111.233 240.063 111.249 240.054 111.267 240.042C111.249 240.054 111.233 240.063 111.215 240.073ZM111.292 240.03C111.31 240.021 111.325 240.008 111.344 239.999C111.325 240.008 111.31 240.021 111.292 240.03ZM111.365 239.987C111.393 239.971 111.418 239.959 111.442 239.944C111.418 239.959 111.393 239.971 111.365 239.987Z" fill="#476F8B"/>
<path d="M93.2152 260.031L89.7778 258.045C89.8638 257.603 89.9558 257.158 90.0571 256.71C90.5727 257.008 90.9349 257.217 91.0822 257.303C91.1006 257.312 91.1159 257.321 91.1282 257.327L91.1313 257.33C91.1313 257.33 91.1343 257.33 91.1343 257.333C91.1343 257.333 91.1343 257.333 91.1374 257.333C91.1405 257.336 91.1466 257.339 91.1497 257.339C91.1497 257.339 91.1497 257.339 91.1497 257.342C91.1528 257.342 91.1559 257.342 91.1559 257.345H91.1589C91.2878 257.419 91.4382 257.459 91.6039 257.459C91.8372 257.459 92.095 257.385 92.3712 257.226C92.3712 258.518 92.6045 259.617 93.2152 260.031" fill="#3B637E"/>
<path d="M106.185 242.451L107.02 238.995C107.416 237.36 107.692 235.751 107.873 234.183C108.128 231.936 108.625 229.104 109.589 225.789C110.264 223.472 111.034 221.373 111.789 219.556C112.406 218.07 113.572 216.834 114.708 216.444C114.714 216.441 114.723 216.441 114.729 216.438C114.963 216.361 115.181 216.321 115.386 216.318C115.392 216.318 115.398 216.318 115.405 216.318C115.408 216.318 115.414 216.318 115.417 216.318C115.647 216.321 115.856 216.367 116.037 216.456C116.067 216.471 116.098 216.487 116.126 216.502C116.862 216.929 117.166 218.049 116.786 219.494L111.442 239.944C111.418 239.959 111.393 239.971 111.366 239.987C111.36 239.99 111.353 239.996 111.344 239.999C111.326 240.008 111.31 240.02 111.292 240.03C111.283 240.033 111.277 240.039 111.267 240.042C111.249 240.054 111.234 240.063 111.215 240.073C111.209 240.076 111.2 240.082 111.194 240.085C111.175 240.097 111.157 240.106 111.139 240.116C111.132 240.119 111.123 240.125 111.117 240.128C111.099 240.14 111.08 240.149 111.062 240.159C111.056 240.162 111.05 240.165 111.043 240.168C111.022 240.18 111.003 240.192 110.982 240.205C110.976 240.205 110.973 240.208 110.97 240.211C110.945 240.223 110.924 240.235 110.899 240.248L110.896 240.251C109.404 241.067 107.787 241.788 106.185 242.451" fill="#507995"/>
<path d="M106.185 242.451L95.1636 236.089C96.5324 230.417 97.8643 224.767 99.1656 219.135C99.2669 218.687 99.5769 218.239 99.9667 218.015C102.609 216.49 105.887 214.596 109.352 212.595C112.842 214.608 116.125 216.502 116.125 216.502C116.098 216.487 116.067 216.471 116.036 216.456C115.852 216.367 115.647 216.321 115.417 216.318C115.413 216.318 115.407 216.318 115.404 216.318C115.398 216.318 115.392 216.318 115.386 216.318C115.18 216.321 114.962 216.361 114.729 216.438C114.723 216.441 114.714 216.441 114.708 216.444C113.572 216.834 112.406 218.07 111.789 219.556C111.034 221.373 110.264 223.472 109.588 225.789C108.625 229.104 108.127 231.936 107.873 234.183C107.692 235.751 107.415 237.36 107.019 238.995L106.185 242.451" fill="#426A86"/>
<path d="M93.3271 260.099C93.2872 260.077 93.2505 260.056 93.2136 260.031C92.6029 259.617 92.3696 258.518 92.3696 257.226L101.617 251.886C101.611 251.892 101.601 251.895 101.592 251.901C98.4557 253.718 95.5768 256.664 93.3271 260.099" fill="#406782"/>
<path d="M89.833 275.573C89.8238 275.573 89.8176 275.573 89.8115 275.573C89.3787 275.564 89.0811 275.214 89.0811 274.603C89.0811 275.223 89.3879 275.573 89.833 275.573C90.014 275.573 90.2197 275.515 90.4345 275.389C91.6652 274.68 92.899 273.968 94.1358 273.253C95.4556 272.492 96.7752 271.727 98.0888 270.969C98.7916 270.564 99.4638 269.76 99.8781 268.802C101.71 264.549 103.518 260.283 105.326 256.014C105.378 255.885 105.436 255.762 105.498 255.636C106.157 254.283 107.183 253.089 108.278 252.456C110.749 251.029 114.383 248.933 118.075 246.8C122.175 244.431 126.352 242.022 129.096 240.438C129.59 240.152 129.977 239.48 129.974 238.913C129.977 239.48 129.59 240.152 129.096 240.438C123.881 243.449 113.493 249.446 108.278 252.456C107.084 253.144 105.97 254.507 105.326 256.014C103.518 260.283 101.71 264.549 99.8781 268.802C99.4638 269.76 98.7916 270.564 98.0888 270.969C95.5476 272.439 92.9788 273.922 90.4345 275.389C90.4007 275.407 90.37 275.426 90.3363 275.444C90.1583 275.53 89.9926 275.573 89.8391 275.573C89.836 275.573 89.833 275.573 89.833 275.573V275.573ZM89.1332 266.304C89.1332 265.669 89.1332 265.037 89.1301 264.408C89.1301 264.386 89.1301 264.365 89.1301 264.343C89.1301 264.365 89.1301 264.386 89.1301 264.408C89.1332 265.037 89.1332 265.669 89.1332 266.304Z" fill="#895679"/>
<path d="M86.5118 302.986C85.7169 302.986 85.1983 302.332 85.232 301.209C85.6678 289.132 85.8673 277.221 85.8581 265.43C85.852 262.894 86.208 260.181 86.9292 257.346C90.2684 244.188 93.4019 231.151 96.3544 218.218C96.6644 216.907 97.5698 215.606 98.6072 215.007C107.299 209.989 121.165 201.985 129.857 196.964C130.256 196.734 130.639 196.627 130.983 196.627C131.799 196.627 132.392 197.244 132.432 198.315C133.239 217.469 133.091 236.991 133.091 256.824C133.091 258.742 132.386 260.068 130.584 261.108C130.299 261.274 124.839 264.426 124.529 264.604C120.22 267.093 116.073 271.009 112.501 276.027C109.266 280.523 105.872 286.097 104.064 291.351C103.616 292.652 102.695 293.932 101.682 294.518C96.6245 297.437 92.6868 299.711 87.6014 302.648C87.2054 302.876 86.8341 302.986 86.5118 302.986V302.986ZM130.679 197.517C130.437 197.517 130.167 197.593 129.884 197.756L98.6347 215.796C97.9074 216.217 97.2628 217.128 97.0296 218.098C94.0771 231.031 90.919 244.081 87.6044 257.226C86.9108 259.954 86.5518 262.578 86.561 265.024C86.5671 276.816 86.3676 288.727 85.9349 300.804C85.9164 301.599 86.297 302.062 86.8617 302.062C87.0888 302.062 87.3497 301.985 87.6259 301.826C92.7114 298.892 96.646 296.618 101.731 293.684C102.459 293.263 103.094 292.355 103.416 291.428C105.43 285.593 108.744 280.287 112.111 275.597C115.788 270.429 120.088 266.363 124.553 263.785C124.836 263.619 130.296 260.47 130.581 260.304C131.566 259.733 132.367 258.346 132.392 257.229C132.751 237.399 132.539 217.871 131.732 198.72C131.692 197.962 131.265 197.517 130.679 197.517" fill="#89181D"/>
<path d="M81.198 262.98L15.7803 225.209L27.5134 179.378C37.6782 185.974 48.506 192.634 59.9906 199.26C71.291 205.776 82.2998 211.723 92.9312 217.147L81.198 262.98ZM73.9396 148.494C72.8101 147.807 71.337 147.693 70.0265 148.451L30.6132 171.254C28.9743 172.203 27.5134 174.241 26.9702 176.337L15.6084 220.28C14.9301 222.898 14.5864 225.442 14.5864 227.802V278.654C14.5864 280.987 15.8294 283.141 17.8488 284.308L82.4993 321.634V267.013C82.4993 264.653 82.8461 262.109 83.5243 259.491L94.8861 215.548C95.4294 213.451 96.8872 211.413 98.5261 210.465L137.942 187.662C139.21 186.928 140.637 187.011 141.751 187.643L73.9396 148.494" fill="#E11D25"/>
<path d="M18.3746 225.611L15.7812 225.209C24.6233 231.593 34.561 238.173 45.6097 244.639C58.1531 251.984 70.1441 258.018 81.2143 262.99L81.6286 261.311C70.985 255.921 59.924 249.943 48.55 243.298C39.1984 237.835 30.3502 232.339 21.9992 226.885C20.8821 226.237 19.6514 225.808 18.3746 225.611" fill="#161413"/>
<path d="M56.0162 186.437C54.4969 186.437 53.2632 185.725 53.2632 184.844C53.2632 183.967 54.4969 183.255 56.0162 183.255C57.5384 183.255 58.7722 183.967 58.7722 184.844C58.7722 185.725 57.5384 186.437 56.0162 186.437Z" fill="#697983"/>
<path d="M56.0162 186.437C54.4969 186.437 53.2632 185.725 53.2632 184.844V185.523C53.2632 186.4 54.4969 187.112 56.0162 187.112C57.5384 187.112 58.7722 186.4 58.7722 185.523V184.844C58.7722 185.725 57.5384 186.437 56.0162 186.437Z" fill="#3F444D"/>
<path d="M56.017 183.255C55.1638 183.255 54.4702 182.856 54.4702 182.361C54.4702 181.867 55.1638 181.468 56.017 181.468C56.8733 181.468 57.567 181.867 57.567 182.361C57.567 182.856 56.8733 183.255 56.017 183.255Z" fill="#FAD013"/>
<path d="M56.0168 183.255C55.1636 183.255 54.47 182.856 54.47 182.361L54.0342 184.844C54.0342 185.477 54.9211 185.989 56.0168 185.989C57.1125 185.989 58.0025 185.477 58.0025 184.844L57.5667 182.361C57.5667 182.856 56.8731 183.255 56.0168 183.255" fill="#F89B0F"/>
<path d="M75.3962 197.624C73.8739 197.624 72.6401 196.912 72.6401 196.031C72.6401 195.153 73.8739 194.441 75.3962 194.441C76.9184 194.441 78.1522 195.153 78.1522 196.034C78.1522 196.912 76.9184 197.624 75.3962 197.624Z" fill="#697983"/>
<path d="M75.3962 197.624C73.8739 197.624 72.6401 196.912 72.6401 196.031V196.709C72.6401 197.587 73.8739 198.299 75.3962 198.299C76.9184 198.299 78.1522 197.587 78.1522 196.709V196.034C78.1522 196.912 76.9184 197.624 75.3962 197.624Z" fill="#3F444D"/>
<path d="M75.395 194.441C74.5418 194.441 73.8481 194.042 73.8481 193.548C73.8481 193.054 74.5418 192.655 75.395 192.655C76.2482 192.655 76.9418 193.054 76.9418 193.548C76.9418 194.042 76.2482 194.441 75.395 194.441Z" fill="#FAD013"/>
<path d="M75.3957 194.441C74.5425 194.441 73.8489 194.042 73.8489 193.548L73.4131 196.031C73.4131 196.667 74.3 197.179 75.3957 197.179C76.4914 197.179 77.3783 196.667 77.3783 196.031L76.9425 193.548C76.9425 194.042 76.2489 194.441 75.3957 194.441Z" fill="#F89B0F"/>
<path d="M65.7071 192.029C64.1848 192.029 62.9541 191.317 62.9541 190.439C62.9541 189.562 64.1848 188.85 65.7071 188.85C67.2293 188.85 68.4632 189.562 68.4632 190.439C68.4632 191.317 67.2293 192.029 65.7071 192.029Z" fill="#697983"/>
<path d="M65.7071 192.029C64.1848 192.029 62.9541 191.317 62.9541 190.439V191.118C62.9541 191.995 64.1848 192.707 65.7071 192.707C67.2293 192.707 68.4632 191.995 68.4632 191.118V190.439C68.4632 191.317 67.2293 192.029 65.7071 192.029Z" fill="#3F444D"/>
<path d="M65.7055 188.85C64.8522 188.85 64.1587 188.447 64.1587 187.953C64.1587 187.462 64.8522 187.063 65.7055 187.063C66.5617 187.063 67.2523 187.462 67.2523 187.953C67.2523 188.447 66.5617 188.85 65.7055 188.85Z" fill="#FAD013"/>
<path d="M65.7053 188.85C64.8521 188.85 64.1585 188.448 64.1585 187.953L63.7227 190.439C63.7227 191.072 64.6096 191.584 65.7053 191.584C66.8009 191.584 67.691 191.072 67.691 190.439L67.2521 187.953C67.2521 188.448 66.5616 188.85 65.7053 188.85Z" fill="#F89B0F"/>
<path d="M12.7855 236.592C13.7001 237.123 15.2991 237.056 16.358 236.445L18.6751 235.107L15.3574 233.195L13.0402 234.53C12.4633 234.864 12.1686 235.291 12.1655 235.696C12.1655 236.034 12.3712 236.353 12.7855 236.592Z" fill="#373132"/>
<path d="M16.358 236.445C15.2991 237.056 13.7001 237.123 12.7855 236.592C12.3712 236.353 12.1655 236.034 12.1655 235.696C12.1655 235.696 12.1655 237.937 12.1655 238.342C12.1686 238.676 12.3712 238.995 12.7855 239.235C13.7001 239.766 15.2991 239.698 16.358 239.087L18.6751 237.749V235.107L16.358 236.445Z" fill="#1B1817"/>
<path d="M76.1296 273.167C75.7183 272.927 75.5127 272.608 75.5127 272.274C75.5127 271.865 75.8073 271.439 76.3873 271.104L78.7045 269.766L82.0192 271.678L79.702 273.016C78.6462 273.627 77.0472 273.695 76.1296 273.167Z" fill="#373132"/>
<path d="M79.702 273.016C78.6462 273.627 77.0472 273.695 76.1296 273.167C75.7183 272.927 75.5127 272.608 75.5127 272.274C75.5127 272.274 75.5127 274.508 75.5127 274.913C75.5127 275.248 75.7153 275.57 76.1296 275.806C77.0472 276.337 78.6462 276.27 79.702 275.659L82.0192 274.321V271.678L79.702 273.016Z" fill="#1B1817"/>
<path d="M85.6981 277.393C85.2193 277.393 84.7037 277.239 84.1789 276.936L80.0448 274.588L79.833 273.808L80.6126 273.599L84.7497 275.95C85.2929 276.263 85.7932 276.334 86.1308 276.144C86.4623 275.95 86.6525 275.481 86.6525 274.852V270.632C86.6525 270.319 86.9073 270.064 87.2234 270.064C87.5395 270.064 87.7912 270.319 87.7912 270.632V274.852C87.7912 275.914 87.4045 276.724 86.6986 277.132C86.3948 277.304 86.0572 277.393 85.6981 277.393Z" fill="#262424"/>
<path d="M70.6874 295.875L81.3126 302.01V292.674L70.6874 286.539C70.1442 286.226 69.647 286.204 69.2664 286.425C68.8061 286.692 68.5176 287.306 68.5176 288.181V291.729C68.5176 293.328 69.4874 295.184 70.6874 295.875Z" fill="#CCDED3"/>
<path d="M70.4539 285.741C70.8345 285.52 71.3316 285.541 71.8748 285.854L82.5001 291.989L81.3123 292.674L70.6871 286.539C70.1439 286.226 69.6467 286.204 69.2661 286.425C69.2661 286.425 69.9935 286.005 70.4539 285.741Z" fill="#DDEFE4"/>
<path d="M82.4998 291.989V301.326L81.312 302.01V292.674L82.4998 291.989Z" fill="#B0C0BB"/>
<path d="M78.1363 295.111V292.634L74.9844 290.814V293.291L78.1363 295.111Z" fill="#F7D508"/>
<path d="M79.7599 299.318L78.1363 295.111L74.9844 293.291L70.0708 293.727L79.7599 299.318Z" fill="#F3FBF7"/>
<path d="M74.9844 290.814V293.291L70.0708 293.727V287.978L74.9844 290.814Z" fill="#DDEFE4"/>
<path d="M78.1357 292.634V295.111L79.7593 299.318V293.573L78.1357 292.634Z" fill="#DDEFE4"/>
<path d="M75.2788 290.986L79.7596 293.57L78.1361 293.021V292.634L75.2788 290.986" fill="#B0C0BB"/>
<path d="M74.9844 290.814V291.204L70.0708 287.978L74.9844 290.814Z" fill="#B0C0BB"/>
<path d="M24.0209 268.934L13.3926 262.799V253.46L24.0209 259.598C25.2178 260.289 26.1907 262.146 26.1907 263.745V267.292C26.1907 268.167 25.8991 268.781 25.4388 269.048C25.0582 269.269 24.5641 269.248 24.0209 268.934" fill="#CCDED3"/>
<path d="M26.1907 267.293V263.745C26.1907 262.146 25.2178 260.289 24.0209 259.598L13.3926 253.46L14.5804 252.776L25.2086 258.911C26.4055 259.601 27.3785 261.458 27.3785 263.057V266.608C27.3785 267.48 27.0869 268.097 26.6265 268.361C26.246 268.582 25.4388 269.048 25.4388 269.048C25.8991 268.781 26.1907 268.167 26.1907 267.293Z" fill="#DDEFE4"/>
<path d="M23.0112 263.287V260.811L19.8623 258.991V261.467L23.0112 263.287Z" fill="#F7D508"/>
<path d="M24.6354 267.495L23.0119 263.287L19.863 261.467L14.9463 261.9L24.6354 267.495Z" fill="#F3FBF7"/>
<path d="M19.863 258.991V261.467L14.9463 261.9V256.152L19.863 258.991Z" fill="#DDEFE4"/>
<path d="M23.0112 260.811V263.287L24.6379 267.495V261.747L23.0112 260.811Z" fill="#DDEFE4"/>
<path d="M20.1577 259.159L24.6355 261.747L23.012 261.197V260.811L20.1577 259.159Z" fill="#B0C0BB"/>
<path d="M19.863 258.991V259.377L14.9463 256.152L19.863 258.991Z" fill="#B0C0BB"/>
<path d="M81.3126 302.01L70.6874 295.875C69.4874 295.184 68.5176 293.328 68.5176 291.729V288.181C68.5176 287.306 68.8061 286.692 69.2664 286.425C69.4321 286.33 69.6225 286.278 69.825 286.278C70.089 286.278 70.3805 286.364 70.6874 286.539L81.3126 292.674V302.01ZM78.1361 293.021V295.111L79.7596 299.318V293.573L79.7566 293.57H79.7596L78.4614 292.821L78.1361 292.634L75.2788 290.986L76.7213 291.818L74.9842 290.814L70.0706 287.978V293.727L79.7596 299.318L78.1361 295.111V293.021" fill="#E2ECE6"/>
<path d="M78.1363 295.111L74.9844 293.291V291.204L78.1363 293.021V292.634V293.021V295.111ZM78.1363 292.634L74.9844 290.814L76.7215 291.818L78.1363 292.634Z" fill="#F9E84A"/>
<path d="M78.1363 293.021L74.9844 291.204V290.814L78.1363 292.634V293.021Z" fill="#EADB4C"/>
<path d="M79.7599 299.318L70.0708 293.727L74.9844 293.291L78.1363 295.111L79.7599 299.318Z" fill="#F9FDFC"/>
<path d="M70.0708 293.727V287.978L74.9844 290.814L70.0708 287.978L74.9844 291.204V293.291L70.0708 293.727Z" fill="#ECF6F1"/>
<path d="M79.7593 299.318L78.1357 295.111V293.021L79.7562 293.57L79.7593 293.573V299.318V299.318ZM78.4611 292.821L78.1357 292.634L78.4611 292.821Z" fill="#ECF6F1"/>
<path d="M79.7596 293.57H79.7566L78.1361 293.021V292.634L76.7213 291.818L75.2788 290.986L78.1361 292.634L78.4614 292.821L79.7596 293.57" fill="#D2DCD9"/>
<path d="M74.9844 291.204L70.0708 287.978L74.9844 290.814V291.204Z" fill="#D2DCD9"/>
<path d="M24.8802 269.195C24.6163 269.195 24.3247 269.109 24.0209 268.934L13.3926 262.799V253.46L24.0209 259.598C25.2178 260.289 26.1907 262.146 26.1907 263.745V267.292C26.1907 268.167 25.8991 268.781 25.4388 269.048C25.273 269.143 25.0859 269.195 24.8802 269.195ZM23.0111 261.197V263.287L24.6378 267.495V261.747L23.0111 260.811L21.9001 260.166L19.8622 258.991L14.9456 256.152V261.9L24.6347 267.495L23.0111 263.287L19.8622 261.467L23.0111 263.287V261.197V260.811V261.197" fill="#E2ECE6"/>
<path d="M25.439 269.048C25.8993 268.781 26.1909 268.167 26.1909 267.293V263.745V267.293C26.1909 268.167 25.8993 268.781 25.439 269.048Z" fill="#ECF6F1"/>
<path d="M23.0112 263.287L19.8623 261.467V259.377L23.0112 261.197V263.287Z" fill="#F9E84A"/>
<path d="M23.0112 261.197L19.8623 259.377V258.991L21.9001 260.166L20.1569 259.159L23.0112 260.811V261.197Z" fill="#EADB4C"/>
<path d="M24.6354 267.495L14.9463 261.9L19.863 261.467L23.0119 263.287L24.6354 267.495Z" fill="#F9FDFC"/>
<path d="M14.9463 261.9V256.152L19.863 258.991L14.9463 256.152L19.863 259.377V261.467L14.9463 261.9Z" fill="#ECF6F1"/>
<path d="M24.6379 267.495L23.0112 263.287V261.197L24.6348 261.747L23.0112 260.811L24.6379 261.747V267.495Z" fill="#ECF6F1"/>
<path d="M24.6355 261.747L23.012 261.197V260.811L20.1577 259.159L21.9009 260.166L23.012 260.811L24.6355 261.747" fill="#D2DCD9"/>
<path d="M19.863 259.377L14.9463 256.152L19.863 258.991V259.377Z" fill="#D2DCD9"/>
<path d="M95.6973 200.184L124.921 183.31C125.382 183.046 126.13 183.046 126.591 183.31L128.951 184.673L129.298 185.157L128.951 185.639L99.73 202.51C99.2666 202.777 98.5208 202.777 98.0574 202.51L95.6973 201.147L95.3535 200.666L95.6973 200.184Z" fill="#EA1C24"/>
<path d="M98.8953 203.351C98.5914 203.351 98.2876 203.283 98.0574 203.151L95.6973 201.789L95.3535 201.304V200.666L95.6973 201.147L98.0574 202.51C98.2876 202.645 98.5914 202.71 98.8953 202.71C99.196 202.71 99.4999 202.645 99.73 202.51L128.951 185.639L129.298 185.157V185.796L128.951 186.278L99.73 203.151C99.4999 203.283 99.196 203.351 98.8953 203.351Z" fill="#D11E25"/>
<path d="M42.3136 169.361L71.5344 152.49C71.9978 152.223 72.7437 152.223 73.2071 152.49L75.5672 153.853L75.914 154.335L75.5672 154.816L46.3433 171.687C45.883 171.954 45.1341 171.954 44.6738 171.687L42.3136 170.324L41.9668 169.843L42.3136 169.361" fill="#EA1C24"/>
<path d="M45.5085 172.528C45.2047 172.528 44.9039 172.461 44.6738 172.329L42.3136 170.966L41.9668 170.484V169.843L42.3136 170.325L44.6738 171.687C44.9039 171.822 45.2047 171.887 45.5085 171.887C45.8093 171.887 46.1131 171.822 46.3433 171.687L75.5672 154.816L75.914 154.335V154.973L75.5672 155.455L46.3433 172.329C46.1131 172.461 45.8093 172.528 45.5085 172.528" fill="#D11E25"/>
<path d="M45.5089 171.887C45.2051 171.887 44.9043 171.822 44.6742 171.687L42.314 170.324L44.6742 171.687C44.9043 171.822 45.2051 171.887 45.5089 171.887C45.8097 171.887 46.1135 171.822 46.3437 171.687C46.1135 171.822 45.8097 171.887 45.5089 171.887Z" fill="#E11D25"/>
<path d="M52.9908 175.527L82.2116 158.653C82.672 158.386 83.4209 158.386 83.8843 158.653L86.2445 160.015L86.5912 160.497L86.2445 160.982L57.0206 177.853C56.5602 178.12 55.8113 178.12 55.3509 177.853L52.9908 176.49L52.644 176.008L52.9908 175.527Z" fill="#EA1C24"/>
<path d="M56.1858 178.691C55.8819 178.691 55.5811 178.626 55.3509 178.491L52.9908 177.129L52.644 176.647V176.008L52.9908 176.49L55.3509 177.853C55.5811 177.985 55.8819 178.052 56.1858 178.052C56.4866 178.052 56.7904 177.985 57.0206 177.853L86.2445 160.982L86.5912 160.497V161.139L86.2445 161.621L57.0206 178.491C56.7904 178.626 56.4866 178.691 56.1858 178.691Z" fill="#D11E25"/>
<path d="M63.6681 181.689L92.8889 164.819C93.3492 164.552 94.0981 164.552 94.5615 164.819L96.9217 166.181L97.2654 166.663L96.9217 167.145L67.6977 184.016C67.2374 184.283 66.4885 184.283 66.0251 184.016L63.6681 182.653L63.3213 182.174L63.6681 181.689" fill="#EA1C24"/>
<path d="M66.863 184.857C66.5591 184.857 66.2584 184.789 66.0251 184.657L63.6681 183.294L63.3213 182.813V182.174L63.6681 182.653L66.0251 184.016C66.2584 184.151 66.5591 184.218 66.863 184.218C67.1637 184.218 67.4676 184.151 67.6977 184.016L96.9217 167.145L97.2654 166.663V167.301L96.9217 167.783L67.6977 184.657C67.4676 184.789 67.1637 184.857 66.863 184.857Z" fill="#D11E25"/>
<path d="M74.3459 187.855L103.567 170.981C104.027 170.717 104.776 170.717 105.239 170.981L107.599 172.344L107.943 172.829L107.599 173.311L78.3756 190.182C77.9152 190.449 77.1663 190.449 76.7029 190.182L74.3459 188.819L73.999 188.337L74.3459 187.855" fill="#EA1C24"/>
<path d="M77.5408 191.019C77.2369 191.019 76.9362 190.955 76.7029 190.82L74.3428 189.457L73.999 188.975V188.337L74.3428 188.819L76.7029 190.182C76.9362 190.313 77.2369 190.381 77.5408 190.381C77.8415 190.381 78.1454 190.313 78.3756 190.182L107.599 173.311L107.943 172.829V173.467L107.599 173.949L78.3756 190.82C78.1454 190.955 77.8415 191.019 77.5408 191.019Z" fill="#D11E25"/>
<path d="M85.02 194.018L114.244 177.147C114.704 176.88 115.453 176.88 115.917 177.147L118.277 178.51L118.62 178.992L118.277 179.473L89.0528 196.347C88.5924 196.611 87.8436 196.611 87.3802 196.347L85.02 194.985L84.6763 194.503L85.02 194.018Z" fill="#EA1C24"/>
<path d="M88.218 197.185C87.9142 197.185 87.6134 197.118 87.3802 196.986L85.02 195.623L84.6763 195.141V194.503L85.02 194.985L87.3802 196.347C87.6134 196.479 87.9142 196.547 88.218 196.547C88.5188 196.547 88.8226 196.479 89.0528 196.347L118.277 179.473L118.62 178.992V179.63L118.277 180.115L89.0528 196.986C88.8226 197.118 88.5188 197.185 88.218 197.185Z" fill="#D11E25"/>
<path d="M89.0527 196.347L118.277 179.473L118.62 178.992L118.277 179.473L89.0527 196.347Z" fill="#E11D25"/>
<path d="M153.279 286.275V285.072C153.703 272.657 144.492 266.129 133.625 271.651C133.68 272.335 133.71 273.044 133.71 273.774V274.95C133.71 275.447 133.974 275.907 134.407 276.156L153.939 287.429C153.552 287.202 153.279 286.787 153.279 286.275Z" fill="#100F0D"/>
<path d="M111.366 286.922C114.398 281.671 118.375 277.626 122.362 275.324C124.857 273.882 127.352 273.127 129.621 273.188C130.422 273.21 131.223 273.231 132.024 273.253H132.033H132.036C133.466 273.293 134.81 273.639 136.017 274.327L143.656 278.768C140.433 276.936 136.222 277.519 132.014 279.949C127.81 282.377 123.608 286.649 120.41 292.189C114.011 303.271 114.045 315.229 120.484 318.899L112.848 314.458C110.113 312.887 108.806 309.775 108.576 309.394C105.55 304.401 106.476 295.393 111.366 286.922Z" fill="#1B1918"/>
<path d="M120.41 292.189C123.608 286.649 127.81 282.377 132.014 279.949C136.222 277.519 140.433 276.936 143.656 278.768C145.819 280.011 147.593 283.261 148.274 286.284C148.698 288.168 127.506 319.461 127.506 319.461C125.078 319.967 121.684 319.596 120.484 318.899C113.925 315.087 114.011 303.271 120.41 292.189Z" fill="#262424"/>
<path d="M122.199 318.577C128.282 322.091 138.143 316.398 144.226 305.862C150.309 295.326 150.309 283.939 144.226 280.425C138.143 276.914 128.282 282.607 122.199 293.143C116.116 303.68 116.116 315.066 122.199 318.577Z" fill="#1B1918"/>
<path d="M126.317 311.444C130.126 313.642 136.298 310.079 140.107 303.483C143.916 296.888 143.916 289.758 140.107 287.561C136.298 285.363 130.126 288.926 126.317 295.522C122.509 302.117 122.509 309.247 126.317 311.444Z" fill="#100F0D"/>
<path d="M123.473 304.6L128.033 303.68C128.113 304.1 128.242 304.487 128.42 304.824L125.6 310.935C124.074 309.618 123.365 307.329 123.473 304.6V304.6ZM129.767 312.028L132.591 305.914C133.002 305.733 133.423 305.49 133.834 305.196L136.658 308.05C134.442 310.293 131.983 311.711 129.767 312.028ZM140.825 302.142L138.005 299.291C138.183 298.748 138.309 298.214 138.392 297.701L142.952 293.355C143.06 295.958 142.351 299.07 140.825 302.142V302.142ZM141.362 288.61L136.796 292.959C136.486 292.806 136.145 292.72 135.789 292.695V287.156C137.373 286.741 138.864 286.843 140.107 287.561C140.586 287.837 141.003 288.19 141.362 288.61V288.61ZM126.318 295.522C127.561 293.37 129.052 291.541 130.636 290.13V295.669C130.277 296.105 129.939 296.584 129.629 297.099L125.062 298.02C125.422 297.185 125.839 296.351 126.318 295.522ZM125.778 312.38C129.884 314.75 136.541 310.907 140.647 303.796C144.754 296.682 144.754 288.997 140.647 286.625C136.541 284.255 129.884 288.098 125.778 295.209C121.671 302.323 121.671 310.008 125.778 312.38Z" fill="#D0CFB2"/>
<path d="M129.276 294.884V291.474C129.718 290.992 130.173 290.544 130.636 290.13V295.669C130.277 296.105 129.939 296.584 129.629 297.1L125.062 298.02C125.231 297.63 125.412 297.241 125.606 296.851L128.27 296.314C128.58 295.798 128.92 295.323 129.276 294.884" fill="#A9A891"/>
<path d="M126.988 303.891L128.034 303.68C128.114 304.1 128.243 304.487 128.421 304.824L125.6 310.935C125.168 310.561 124.799 310.109 124.499 309.591L127.061 304.042L126.988 303.891Z" fill="#A9A891"/>
<path d="M142.952 293.355C143.059 295.958 142.35 299.07 140.825 302.142L139.656 300.96C140.665 298.83 141.282 296.694 141.506 294.733L142.952 293.355" fill="#A9A891"/>
<path d="M135.294 307.264L133.484 305.432L133.834 305.196L136.657 308.05C134.441 310.294 131.983 311.711 129.767 312.028L130.381 310.699C132.026 310.036 133.723 308.86 135.294 307.264Z" fill="#A9A891"/>
<path d="M139.393 287.226L140.108 287.561C140.587 287.837 141.004 288.19 141.363 288.61L136.796 292.959C136.486 292.806 136.146 292.72 135.79 292.695V291.839L140.003 287.828L139.393 287.226" fill="#A9A891"/>
<path d="M132.284 301.111C132.796 301.405 133.628 300.927 134.141 300.04C134.653 299.15 134.653 298.192 134.141 297.894C133.628 297.6 132.796 298.079 132.284 298.969C131.771 299.856 131.771 300.813 132.284 301.111Z" fill="#201F1E"/>
<path d="M132.677 296.526C132.971 296.697 133.453 296.421 133.748 295.909C134.042 295.396 134.042 294.841 133.748 294.672C133.453 294.5 132.971 294.776 132.677 295.289C132.382 295.801 132.382 296.357 132.677 296.526Z" fill="#201F1E"/>
<path d="M135.318 300.583C134.904 300.746 134.514 301.295 134.45 301.807C134.385 302.323 134.668 302.608 135.079 302.446C135.493 302.283 135.88 301.734 135.947 301.218C136.012 300.703 135.729 300.417 135.318 300.583Z" fill="#201F1E"/>
<path d="M131.973 303.241C131.906 302.799 131.519 302.697 131.105 303.014C130.693 303.327 130.411 303.937 130.475 304.376C130.54 304.815 130.93 304.92 131.344 304.603C131.755 304.29 132.038 303.68 131.973 303.241Z" fill="#201F1E"/>
<path d="M130.341 300.733C130.713 300.301 130.863 299.687 130.673 299.368C130.483 299.045 130.025 299.137 129.654 299.573C129.279 300.006 129.132 300.62 129.322 300.939C129.513 301.261 129.967 301.169 130.341 300.733Z" fill="#201F1E"/>
<path d="M135.753 296.433C135.563 296.974 135.713 297.412 136.084 297.419C136.456 297.422 136.913 296.986 137.103 296.446C137.294 295.909 137.146 295.467 136.772 295.461C136.4 295.457 135.943 295.893 135.753 296.433Z" fill="#201F1E"/>
<path d="M106.291 312.715V310.521C106.291 304.02 108.179 296.931 111.355 290.286C115.925 280.726 123.156 272.074 131.255 267.4L132.931 266.433C141.03 261.756 148.264 262.054 152.831 266.341C155.903 269.22 157.769 273.903 157.889 280.088C157.757 271.092 154.792 265.93 151.33 262.683C146.22 257.892 138.465 257.929 130.058 262.781L128.383 263.748C119.973 268.603 112.221 277.522 107.111 288.211C103.566 295.629 101.694 303.21 101.694 309.855C101.694 316.502 106.35 315.692 108.897 314.222C107.286 315.152 106.291 314.578 106.291 312.715" fill="#414042"/>
<path d="M152.831 266.341C148.264 262.054 141.031 261.756 132.931 266.433L131.256 267.4C123.156 272.077 115.925 280.726 111.356 290.286C108.179 296.931 106.292 304.02 106.292 310.521V312.715C106.292 314.578 107.286 315.152 108.897 314.222C109.348 313.961 109.858 313.338 110.251 312.654C110.634 311.982 110.907 311.248 110.907 310.739V309.535C110.907 296.286 120.532 279.326 132.093 272.439C143.658 265.976 153.279 271.826 153.279 285.072V286.275C153.279 286.787 153.552 287.202 153.939 287.429C154.332 287.662 154.838 287.696 155.29 287.435C156.904 286.505 157.898 284.783 157.898 282.92V280.726C157.898 274.226 156.008 269.318 152.831 266.341" fill="#262424"/>
<path d="M13.5866 267.983C13.3963 268.305 13.4116 268.624 13.6234 268.885L13.8229 269.112L14.5871 269.929V267.216C14.5871 267.216 13.7769 267.661 13.5866 267.983" fill="#100F0D"/>
<path d="M80.3117 318.648V314.532C80.3117 312.605 81.2908 310.238 82.9604 309.278L109.843 293.754C109.843 293.754 106.967 294.304 104.834 293.607L85.3512 304.852C83.9394 305.582 82.2299 305.994 80.5665 306.061C79.5291 306.104 78.5194 306 77.5956 305.779C67.9985 303.707 57.7324 298.115 44.6274 290.55C31.6728 283.071 20.1729 276.138 13.823 269.112L13.6234 268.885C13.4116 268.628 13.3963 268.305 13.5866 267.983C13.7769 267.661 14.5872 267.216 14.5872 267.216V264.14L11.3247 266.031C8.93385 267.412 6.98193 270.794 6.98193 273.553V278.179C6.98193 280.842 7.72157 282.877 8.96456 284.172L8.95841 284.185C16.4439 292.628 28.6497 300.426 44.2131 309.413C59.7765 318.396 72.8385 323.589 84.2371 326.047L84.2494 326.026C83.8443 325.912 83.4514 325.765 83.0924 325.562C81.1404 324.448 80.3117 322.054 80.3117 318.648" fill="#333232"/>
<path d="M112.718 292.097L82.96 309.278C81.2905 310.238 79.9277 312.605 79.9277 314.532V318.648C79.9277 322.054 81.14 324.448 83.092 325.559C84.7953 326.532 87.0664 326.52 89.5831 325.347C90.0741 325.117 108.897 314.222 108.897 314.222L112.718 292.097" fill="#262424"/>
<path d="M73.8735 312.147C73.7169 312.147 73.5482 312.117 73.3732 312.052C63.2637 308.314 53.0343 303.459 42.8051 297.554C32.5788 291.649 22.3557 284.694 12.2553 276.767C11.3376 276.042 10.598 274.588 10.6011 273.523C10.6011 272.863 10.8926 272.507 11.3315 272.507C11.5218 272.507 11.7397 272.574 11.976 272.709L12.2676 272.909C22.3649 280.843 32.5911 287.797 42.8173 293.702C53.0436 299.604 63.2759 304.459 73.3855 308.194L73.6771 308.332C74.4566 308.784 75.0459 309.781 75.0428 310.729C75.0397 311.592 74.5487 312.147 73.8735 312.147" fill="#424143"/>
<path d="M52.9541 312.292L53.528 311.96V305.714L32.6888 293.681L32.1118 294.012L52.9541 306.046V312.292" fill="#262424"/>
<path d="M32.1118 300.258L52.9541 312.292V306.046L32.1118 294.012V300.258Z" fill="#414042"/>
<path d="M52.3132 306.414L32.7539 295.123V299.889L52.3132 311.18V306.414Z" fill="white"/>
<path d="M66.4515 290.541C60.5006 287.809 54.5158 284.709 48.5372 281.257C42.5617 277.807 36.5892 274.008 30.6475 269.87C30.8132 271.074 30.979 272.274 31.1447 273.477C31.4976 276.119 33.1457 278.998 35.0516 280.269C39.5325 283.246 44.0226 286.035 48.5157 288.629C53.0058 291.222 57.499 293.619 61.9829 295.817C63.8888 296.746 65.5461 295.78 65.9359 293.564C66.1078 292.554 66.2797 291.547 66.4515 290.541" fill="#262221"/>
<path d="M67.8784 282.199C61.4548 279.308 55.0066 275.993 48.5615 272.274C42.1134 268.551 35.6683 264.423 29.2539 259.899C29.4718 261.443 29.6866 262.98 29.9014 264.518C36.0949 268.861 42.3221 272.841 48.5493 276.435C54.7795 280.032 61.0098 283.246 67.2093 286.057C67.2001 286.134 67.6451 283.565 67.8784 282.199" fill="#262221"/>
<path d="M67.2099 286.057C61.0103 283.246 54.7801 280.032 48.5498 276.435C42.3226 272.841 36.0954 268.861 29.902 264.518L29.8989 264.515L30.6478 269.871C36.5895 274.008 42.562 277.807 48.5375 281.257C54.5161 284.71 60.5009 287.809 66.4518 290.541L67.2099 286.057" fill="#E11D25"/>
<path d="M127.677 252.162L119.879 256.661C119.072 257.128 118.418 256.634 118.418 255.559V254.921C118.418 253.847 119.072 252.598 119.879 252.131L127.677 247.629C128.482 247.165 129.135 247.659 129.135 248.734V249.369C129.135 250.446 128.482 251.695 127.677 252.162Z" fill="#262424"/>
<path d="M118.418 255.559V254.921C118.418 253.847 119.071 252.598 119.879 252.131L127.677 247.629C128.156 247.353 128.58 247.417 128.843 247.739L128.804 247.687C128.457 247.337 128.058 247.092 127.699 247.092V247.095L127.094 247.267C124.501 248.764 121.88 250.277 119.286 251.775C118.455 252.257 117.81 253.494 117.81 254.568L117.789 255.209C117.789 255.691 117.924 256.063 118.141 256.281V256.284C118.359 256.501 118.734 256.836 119.292 256.836H119.302C118.78 256.839 118.418 256.36 118.418 255.559" fill="#414042"/>
<path d="M125.72 251.023L121.834 253.27C121.312 253.571 120.886 254.304 120.886 254.906V256.081L126.668 252.742V251.57C126.668 250.968 126.244 250.722 125.72 251.023" fill="#191716"/>
<path d="M105.15 311.616L90.2344 320.228C89.4978 320.652 88.9514 320.173 89.108 319.252C89.8722 314.777 93.4262 309.677 97.6923 307.212C101.958 304.748 105.512 305.748 106.277 309.342C106.433 310.082 105.884 311.193 105.15 311.616" fill="#100F0D"/>
<path d="M103.591 309.796C101.464 308.59 98.8063 308.615 96.7868 309.993C93.2267 312.42 89.7156 315.689 89.108 319.252C88.9514 320.173 89.4978 320.652 90.2344 320.228L105.15 311.616L105.779 311.033L103.591 309.796" fill="#414042"/>
<path d="M29.6467 231.802C27.9832 230.749 26.3383 229.696 24.7116 228.646C23.2998 227.278 21.9156 225.89 20.5223 224.479C20.4578 224.408 20.3934 224.338 20.332 224.267C20.4333 221.913 20.8169 219.433 21.4799 216.873L30.2268 183.037C38.8325 188.543 47.4935 193.843 56.2066 198.938L55.8691 203.056C55.8691 203.618 55.4731 204.306 54.9851 204.585L39.3941 213.586C38.1941 214.28 37.0893 215.615 36.4417 217.156L31.0739 229.893C30.7455 230.666 30.2298 231.353 29.6467 231.802" fill="#B1DEF2"/>
<path d="M20.3322 224.267C18.8989 222.588 18.46 220.326 19.1721 217.552C21.9588 206.675 25.2274 194.058 28.008 183.209C28.1461 182.665 28.5144 182.349 28.9164 182.349C29.0576 182.349 29.2018 182.389 29.343 182.469L29.4167 182.515C29.6868 182.69 29.9569 182.862 30.227 183.037L21.48 216.873C20.8171 219.433 20.4335 221.913 20.3322 224.267" fill="#2E546F"/>
<path d="M40.0021 238.213C36.4757 236.074 33.023 233.938 29.647 231.802C30.2301 231.353 30.7458 230.666 31.0741 229.893L36.442 217.156C37.0896 215.615 38.1944 214.28 39.3944 213.586L54.9854 204.585C55.4734 204.306 55.8694 203.618 55.8694 203.056L56.2069 198.938C57.3302 199.591 58.4504 200.245 59.5737 200.893C61.0346 201.737 62.4986 202.575 63.9625 203.406C63.5513 205.272 63.2904 206.93 63.1308 208.354C62.9528 209.922 62.6735 211.53 62.2776 213.166L61.4428 216.622C59.853 217.282 58.2755 217.883 56.8515 218.466C53.9113 219.666 51.2166 221.314 48.3132 223.803C47.1285 224.816 46.2446 226.415 45.9899 227.895C43.3965 230.85 41.285 234.49 40.0021 238.213V238.213ZM40.7602 219.789C40.7848 220.102 40.9044 220.348 41.1224 220.474L45.195 222.831C45.5633 223.042 45.9868 223.15 46.4472 223.15C47.1101 223.15 47.8467 222.929 48.6017 222.493L58.5701 216.738C59.3957 216.26 60.0648 215.1 60.0648 214.148C60.0648 213.672 59.8991 213.341 59.6321 213.181L57.5174 211.96C57.4039 211.895 57.2719 211.862 57.1276 211.862C56.9251 211.862 56.698 211.926 56.4586 212.064L46.5669 217.776C45.993 218.107 45.4344 218.276 44.9311 218.276C44.615 218.276 44.3234 218.209 44.0626 218.077L42.9331 217.423L40.8216 216.204C40.7172 216.146 40.6006 216.115 40.4747 216.115C40.0082 216.115 39.4313 216.505 39.0384 217.159C38.5197 218.021 38.5105 218.967 39.0108 219.255L41.1193 220.474C40.9044 220.348 40.7848 220.102 40.7602 219.789V219.789ZM88.3035 229.613L80.9285 225.353L81.619 222.726L83.8257 214.286C85.9341 215.397 88.0457 216.499 90.1603 217.589L90.2371 217.628C90.8018 217.954 91.0841 218.785 90.8969 219.519C90.0682 222.757 89.1935 226.151 88.3035 229.613V229.613ZM47.0396 219.494C47.0365 219.494 47.0365 219.494 47.0334 219.494C47.0365 219.494 47.0365 219.494 47.0396 219.494ZM47.0519 219.494C47.5521 219.491 48.1076 219.323 48.6753 218.994C48.1076 219.323 47.5521 219.491 47.0519 219.494ZM46.1833 219.301C46.1649 219.292 46.1434 219.283 46.125 219.27C46.1434 219.283 46.1649 219.292 46.1833 219.301ZM41.1499 218.377C41.153 218.371 41.1561 218.365 41.1591 218.359C41.1561 218.365 41.153 218.371 41.1499 218.377ZM41.285 218.169C41.6564 217.659 42.1351 217.355 42.5402 217.337C42.1351 217.355 41.6564 217.659 41.285 218.169ZM42.5955 217.334C42.5925 217.334 42.5863 217.334 42.5832 217.334C42.5863 217.334 42.5925 217.334 42.5955 217.334ZM58.61 213.261C58.6162 213.258 58.6223 213.252 58.6315 213.249C58.6223 213.252 58.6162 213.258 58.61 213.261ZM58.6591 213.234C58.8525 213.135 59.0335 213.086 59.1993 213.08C59.0335 213.086 58.8525 213.135 58.6591 213.234ZM59.5891 213.157C59.5799 213.154 59.5676 213.148 59.5584 213.145C59.5676 213.148 59.5799 213.154 59.5891 213.157ZM59.2515 213.08C59.2454 213.08 59.2423 213.08 59.2361 213.08C59.2423 213.08 59.2454 213.08 59.2515 213.08Z" fill="#2E546F"/>
<path d="M46.4486 223.15C45.9882 223.15 45.5647 223.042 45.1964 222.831L41.1237 220.473C40.9058 220.348 40.7862 220.102 40.7616 219.789C40.7278 219.381 40.8567 218.865 41.1513 218.377C41.1544 218.371 41.1575 218.365 41.1605 218.359C41.2035 218.291 41.2434 218.23 41.2864 218.169C41.6578 217.659 42.1365 217.355 42.5416 217.337C42.557 217.334 42.5693 217.334 42.5846 217.334C42.5877 217.334 42.5938 217.334 42.5969 217.334C42.7197 217.337 42.8332 217.364 42.9345 217.423L44.0639 218.077C44.0363 218.064 44.0087 218.049 43.9811 218.034L46.0926 219.252C46.1018 219.258 46.1141 219.264 46.1264 219.27C46.1448 219.283 46.1662 219.292 46.1847 219.301C46.4394 219.43 46.7279 219.491 47.0348 219.494C47.0379 219.494 47.0379 219.494 47.041 219.494C47.0471 219.494 47.0502 219.494 47.0532 219.494C47.5535 219.491 48.1089 219.323 48.6767 218.994L58.5715 213.283C58.5838 213.276 58.5961 213.267 58.6114 213.261C58.6176 213.258 58.6237 213.252 58.6329 213.249C58.6421 213.246 58.6513 213.24 58.6605 213.233C58.8538 213.135 59.0349 213.086 59.2007 213.08C59.2129 213.08 59.2252 213.08 59.2375 213.08C59.2437 213.08 59.2467 213.08 59.2529 213.08C59.3634 213.08 59.4677 213.102 59.5598 213.145C59.569 213.148 59.5812 213.154 59.5904 213.157C59.6058 213.166 59.6212 213.172 59.6334 213.181C59.9005 213.341 60.0662 213.672 60.0662 214.148C60.0662 215.099 59.3971 216.26 58.5715 216.738L48.6031 222.493C47.8481 222.929 47.1115 223.15 46.4486 223.15" fill="#355C77"/>
<path d="M47.0394 219.494C47.0363 219.494 47.0363 219.494 47.0332 219.494C46.7263 219.491 46.4378 219.43 46.1831 219.301C46.1647 219.292 46.1432 219.283 46.1248 219.27C46.1125 219.264 46.1002 219.258 46.091 219.252L43.9795 218.034C44.0071 218.049 44.0347 218.064 44.0624 218.076C44.3232 218.208 44.6147 218.276 44.9309 218.276C45.4342 218.276 45.9928 218.107 46.5667 217.776L56.4584 212.064C56.6978 211.926 56.9249 211.862 57.1274 211.862C57.2717 211.862 57.4037 211.895 57.5172 211.96L59.6319 213.181C59.6196 213.172 59.6042 213.166 59.5889 213.157C59.5796 213.154 59.5674 213.148 59.5582 213.144C59.4661 213.102 59.3618 213.08 59.2513 213.08C59.2452 213.08 59.2421 213.08 59.2359 213.08C59.2237 213.08 59.2113 213.08 59.1991 213.08C59.0333 213.086 58.8523 213.135 58.6589 213.233C58.6497 213.24 58.6405 213.246 58.6313 213.249C58.6221 213.252 58.616 213.258 58.6098 213.261C58.5945 213.267 58.5822 213.276 58.5699 213.283L48.6751 218.994C48.1074 219.323 47.5519 219.491 47.0517 219.494C47.0486 219.494 47.0455 219.494 47.0394 219.494" fill="#3B637E"/>
<path d="M41.12 220.474L39.0115 219.255C38.5112 218.967 38.5204 218.021 39.0391 217.159C39.432 216.505 40.0089 216.115 40.4754 216.115C40.6013 216.115 40.7179 216.146 40.8223 216.204L42.9338 217.423C42.8325 217.365 42.719 217.337 42.5962 217.334C42.5932 217.334 42.587 217.334 42.5839 217.334C42.5686 217.334 42.5563 217.334 42.5409 217.337C42.1358 217.355 41.6571 217.659 41.2857 218.169C41.2427 218.23 41.2028 218.291 41.1598 218.359C41.1568 218.365 41.1537 218.371 41.1506 218.377C40.856 218.865 40.7272 219.381 40.7609 219.789C40.7855 220.102 40.9051 220.348 41.12 220.474" fill="#3B637E"/>
<path d="M78.5876 257.699C78.3881 257.699 78.1794 257.68 77.9677 257.643C77.1114 257.465 76.2091 257.257 75.2668 257.017C74.9876 255.888 74.5395 254.924 73.9656 254.105L75.5032 251.309L70.0217 248.58L69.0458 250.351L70.0217 248.58L75.5032 251.309L72.7379 249.713L75.5707 244.563L75.543 244.547C75.6597 244.609 75.7763 244.67 75.8899 244.729C75.7886 245.146 75.7364 245.56 75.7364 245.953V247.62C75.7364 248.169 75.9267 248.553 76.2367 248.731C76.3748 248.81 79.2597 250.477 82.4577 252.321C80.518 251.201 78.6919 250.149 77.5257 249.476L77.4889 249.455C77.584 250.437 77.8602 251.207 78.4096 251.484L82.1231 253.626C82.1017 253.706 82.0833 253.782 82.0618 253.859C81.4019 256.44 80.2204 257.699 78.5876 257.699ZM70.12 251.168C69.9205 251.128 69.721 251.109 69.5215 251.109C69.721 251.109 69.9205 251.128 70.12 251.168ZM69.4969 251.109C69.5031 251.109 69.5092 251.109 69.5154 251.109C69.5092 251.109 69.5031 251.109 69.4969 251.109ZM64.835 247.917C63.1102 246.923 61.3639 245.913 60.081 245.174L60.038 245.152C59.5162 244.851 58.9699 244.716 58.439 244.716C57.0426 244.716 55.7382 245.662 55.1397 247.092C52.9545 245.852 50.7601 244.587 48.5504 243.298C45.6532 241.604 42.805 239.91 40.0029 238.213C41.2858 234.49 43.3973 230.85 45.9907 227.895C45.9416 228.18 45.914 228.462 45.914 228.736V230.402C45.914 230.951 46.1074 231.335 46.4174 231.513C46.4696 231.547 46.9483 231.82 47.7002 232.256L47.6696 232.24C47.7617 233.219 48.0409 233.99 48.5872 234.266H48.5903L63.3987 242.817C63.4355 242.841 63.4692 242.863 63.5091 242.881C64.3224 241.638 65.2217 240.456 66.1823 239.373C66.4769 239.545 66.7869 239.726 67.1184 239.916C68.4688 240.696 69.9757 241.54 71.5226 242.387L68.6683 247.574L65.8079 246.15L64.835 247.917V247.917ZM77.5594 241.586C74.5303 239.916 71.2801 238.204 68.6775 236.902C69.6719 236.049 70.7092 235.3 71.7803 234.68L79.6709 230.123L80.9293 225.353L88.3043 229.613C87.7887 231.608 87.27 233.631 86.7483 235.65C86.7237 235.662 86.6961 235.672 86.6716 235.684C83.7314 236.884 81.0398 238.532 78.1364 241.021C77.9338 241.193 77.7405 241.383 77.5594 241.586V241.586ZM61.7843 240.242C61.6186 240.242 61.4651 240.205 61.3362 240.128C61.0262 239.95 60.8329 239.563 60.8329 239.017C60.8329 239.563 61.0262 239.95 61.3362 240.128C61.4651 240.205 61.6186 240.242 61.7843 240.242C62.0145 240.242 62.2754 240.168 62.5516 240.008C62.2754 240.168 62.0145 240.242 61.7843 240.242ZM61.33 240.125C61.33 240.125 61.3301 240.125 61.3271 240.125C61.3301 240.125 61.33 240.125 61.33 240.125ZM61.3117 240.113C61.3086 240.113 61.3086 240.113 61.3055 240.11C61.3086 240.113 61.3086 240.113 61.3117 240.113ZM61.2595 240.085C60.75 239.79 57.727 238.044 54.5413 236.206C57.73 238.044 60.7531 239.79 61.2595 240.085ZM54.4737 236.166C54.4707 236.166 54.4707 236.163 54.4676 236.163C54.4676 236.163 54.4707 236.166 54.4737 236.166Z" fill="#507B95"/>
<path d="M61.7835 240.242C61.6177 240.242 61.4642 240.205 61.3353 240.128C61.0254 239.95 60.832 239.563 60.832 239.017V237.35C60.832 235.672 61.8203 233.628 63.2321 232.415C66.1354 229.929 68.8301 228.278 71.7702 227.078C74.6337 225.909 78.1049 224.663 81.0758 223.033C81.1003 223.018 81.1249 223.005 81.1494 222.993C81.1525 222.99 81.1556 222.99 81.1586 222.987C81.1801 222.975 81.2016 222.963 81.2231 222.95C81.2292 222.95 81.2323 222.947 81.2384 222.944C81.2568 222.932 81.2752 222.923 81.2967 222.91C81.3029 222.907 81.309 222.904 81.3152 222.898C81.3336 222.889 81.352 222.88 81.3704 222.867C81.3796 222.864 81.3857 222.861 81.3919 222.855C81.4103 222.846 81.4287 222.837 81.444 222.827C81.4532 222.821 81.4625 222.818 81.4686 222.812C81.487 222.803 81.5054 222.794 81.5238 222.781C81.53 222.778 81.5392 222.775 81.5453 222.769C81.5699 222.757 81.5944 222.742 81.619 222.726L80.9284 225.353L79.6701 230.123L71.7795 234.68C71.7856 234.677 71.7918 234.671 71.7979 234.668L68.2746 236.703C67.4183 236.279 66.6418 235.905 65.9789 235.598C64.7789 235.046 64.0975 234.782 63.9042 234.782C63.8735 234.782 63.852 234.788 63.849 234.803L62.6551 237.019C62.5967 237.126 63.3824 237.682 64.9384 238.63L62.5508 240.008C62.2745 240.168 62.0137 240.242 61.7835 240.242V240.242ZM66.5866 236.684C66.3533 236.546 66.1354 236.414 65.9328 236.289C66.1354 236.414 66.3533 236.546 66.5866 236.684ZM66.829 236.279C66.8229 236.276 66.8168 236.273 66.8106 236.27H66.8075C66.8137 236.273 66.8229 236.276 66.829 236.279ZM65.9114 236.276C65.9114 236.276 65.9083 236.276 65.9083 236.273C65.9083 236.276 65.9114 236.276 65.9114 236.276ZM66.7983 236.267L66.4608 236.206V236.209C66.4638 236.196 66.4792 236.193 66.5037 236.193C66.5559 236.193 66.6541 236.218 66.7983 236.267ZM65.8899 236.264C65.8868 236.261 65.8868 236.261 65.8837 236.261C65.8868 236.261 65.8868 236.261 65.8899 236.264Z" fill="#507995"/>
<path d="M61.3348 240.128C61.3317 240.128 61.3317 240.125 61.3286 240.125C61.3286 240.125 61.3287 240.125 61.3256 240.125C61.3226 240.122 61.3195 240.119 61.3134 240.116C61.3103 240.116 61.3103 240.113 61.3103 240.113C61.3072 240.113 61.3072 240.113 61.3041 240.11C61.2919 240.103 61.2765 240.094 61.2581 240.085C60.7517 239.79 57.7286 238.044 54.5398 236.206C54.5184 236.193 54.4938 236.178 54.4723 236.166C54.4693 236.166 54.4662 236.163 54.4662 236.163C51.8974 234.677 49.2334 233.14 47.7019 232.259L47.6988 232.256C46.9469 231.82 46.4681 231.547 46.416 231.513C46.106 231.335 45.9126 230.951 45.9126 230.402V228.735C45.9126 228.462 45.9402 228.18 45.9893 227.895C46.2441 226.415 47.128 224.816 48.3126 223.803C51.216 221.314 53.9107 219.666 56.8509 218.466C58.2749 217.883 59.8524 217.282 61.4453 216.622L76.3642 225.237C77.9663 224.571 79.5836 223.849 81.0752 223.033C78.1043 224.663 74.6332 225.909 71.7697 227.078C68.8295 228.278 66.1349 229.929 63.2315 232.415C61.8198 233.628 60.8315 235.672 60.8315 237.35V239.017C60.8315 239.563 61.0248 239.95 61.3348 240.128V240.128ZM81.0752 223.033C81.0998 223.018 81.1243 223.005 81.1489 222.993C81.1243 223.005 81.0998 223.018 81.0752 223.033ZM81.1581 222.987C81.1796 222.975 81.201 222.962 81.2225 222.95C81.201 222.962 81.1796 222.975 81.1581 222.987ZM81.2379 222.944C81.2563 222.932 81.2747 222.923 81.2962 222.91C81.2747 222.923 81.2563 222.932 81.2379 222.944ZM81.3146 222.898C81.333 222.889 81.3514 222.88 81.3698 222.867C81.3514 222.88 81.333 222.889 81.3146 222.898ZM81.3913 222.855C81.4097 222.846 81.4281 222.837 81.4435 222.827C81.4281 222.837 81.4097 222.846 81.3913 222.855ZM81.4681 222.812C81.4865 222.803 81.5049 222.794 81.5233 222.781C81.5049 222.794 81.4865 222.803 81.4681 222.812ZM81.5448 222.769C81.5693 222.754 81.5939 222.742 81.6184 222.726C81.5939 222.742 81.5693 222.757 81.5448 222.769Z" fill="#476F8B"/>
<path d="M63.3976 242.816L48.5892 234.266H48.5861C48.0398 233.99 47.7605 233.219 47.6685 232.24L47.6991 232.256L47.7022 232.259C49.2337 233.14 51.8976 234.677 54.4665 236.163C54.4695 236.163 54.4695 236.166 54.4726 236.166C54.4941 236.178 54.5186 236.193 54.5401 236.206C57.7258 238.044 60.7489 239.79 61.2583 240.085C61.2767 240.094 61.2921 240.103 61.3044 240.11C61.3075 240.113 61.3075 240.113 61.3106 240.113C61.3106 240.113 61.3106 240.116 61.3136 240.116C61.3198 240.119 61.3228 240.122 61.3259 240.125C61.329 240.125 61.3289 240.125 61.3289 240.125C61.332 240.125 61.332 240.128 61.3351 240.128C61.464 240.205 61.6175 240.242 61.7832 240.242C62.0134 240.242 62.2743 240.168 62.5505 240.008C62.5505 241.303 62.7837 242.405 63.3976 242.816" fill="#3B637E"/>
<path d="M76.3647 225.237L77.1995 221.781C77.5924 220.142 77.8717 218.537 78.0497 216.969C78.2215 215.462 78.5008 213.694 78.955 211.693C80.5786 212.564 82.199 213.43 83.8257 214.286L81.619 222.726C81.5944 222.742 81.5699 222.754 81.5453 222.769C81.5392 222.775 81.53 222.778 81.5238 222.781C81.5054 222.794 81.487 222.803 81.4686 222.812C81.4625 222.818 81.4532 222.821 81.444 222.827C81.4287 222.837 81.4103 222.846 81.3919 222.855C81.3857 222.861 81.3796 222.864 81.3704 222.867C81.352 222.88 81.3336 222.889 81.3152 222.898C81.309 222.904 81.3029 222.907 81.2967 222.91C81.2752 222.923 81.2568 222.932 81.2384 222.944C81.2323 222.947 81.2292 222.95 81.2231 222.95C81.2016 222.962 81.1801 222.975 81.1586 222.987C81.1556 222.99 81.1525 222.99 81.1494 222.993C81.1249 223.005 81.1003 223.018 81.0758 223.033C79.5842 223.849 77.9668 224.571 76.3647 225.237" fill="#507995"/>
<path d="M76.3653 225.237L61.4434 216.622L62.2781 213.166C62.6741 211.53 62.9534 209.922 63.1314 208.354C63.291 206.93 63.5518 205.272 63.9631 203.406C68.9442 206.236 73.9438 208.998 78.9556 211.693C78.5014 213.694 78.2221 215.462 78.0503 216.969C77.8722 218.537 77.593 220.142 77.2001 221.781L76.3653 225.237" fill="#426A86"/>
<path d="M63.5088 242.881C63.4689 242.863 63.4352 242.841 63.3983 242.816C62.7845 242.405 62.5513 241.303 62.5513 240.008L64.939 238.63C65.3103 238.854 65.7247 239.103 66.182 239.373C65.2213 240.456 64.3221 241.638 63.5088 242.881ZM68.6772 236.902C68.5421 236.835 68.4071 236.767 68.2751 236.703L71.7984 234.668C71.7923 234.671 71.7861 234.677 71.78 234.68C70.7089 235.3 69.6716 236.049 68.6772 236.902" fill="#406782"/>
<path d="M82.4566 252.321C79.2586 250.477 76.3737 248.81 76.2356 248.731C75.9256 248.553 75.7354 248.169 75.7354 247.62V245.953C75.7354 245.56 75.7875 245.146 75.8888 244.728C78.4362 246.067 80.8024 247.257 82.4628 248.025C82.8433 248.2 83.1687 248.344 83.4479 248.464C83.1103 249.768 82.782 251.054 82.4566 252.321ZM84.0802 245.999C83.9482 245.938 83.807 245.873 83.6566 245.806C83.807 245.873 83.9482 245.938 84.0802 245.999ZM84.2244 245.437C83.5001 244.983 82.5303 244.4 81.3242 243.706C80.161 243.031 78.8812 242.313 77.5584 241.586C77.7395 241.383 77.9328 241.193 78.1353 241.021C81.0387 238.532 83.7303 236.884 86.6705 235.684C86.695 235.672 86.7227 235.662 86.7472 235.65C85.9032 238.931 85.0531 242.218 84.2244 245.437V245.437ZM83.1748 245.198C83.2362 245.085 82.0546 244.308 79.7743 242.991C82.0607 244.308 83.2393 245.088 83.1748 245.198Z" fill="#476F8B"/>
<path d="M82.1231 253.626L78.4095 251.484C77.8601 251.207 77.5839 250.437 77.4888 249.455L77.5256 249.476C78.6918 250.149 80.5179 251.201 82.4576 252.321C82.3441 252.76 82.2335 253.193 82.1231 253.626Z" fill="#3B637E"/>
<path d="M75.5036 251.309L70.0222 248.58L69.0462 250.351C67.8861 249.679 66.3669 248.801 64.8354 247.917L65.8083 246.15L68.6687 247.574L68.6349 247.632C68.6165 247.66 68.902 247.847 69.4606 248.169C70.3598 248.688 71.6274 249.36 72.2903 249.664L72.6831 249.814L72.7384 249.713L75.5036 251.309" fill="#406782"/>
<path d="M73.9652 254.105C73.2071 253.021 72.2342 252.189 71.1538 251.566C71.1538 251.566 71.1538 251.566 71.1508 251.566L71.114 251.545C71.1109 251.542 71.1078 251.542 71.1048 251.539C70.9083 251.425 70.1319 250.977 69.0454 250.351L70.0214 248.58L75.5028 251.309L73.9652 254.105V254.105ZM71.0771 251.523C71.0495 251.508 71.0249 251.496 70.9973 251.481C71.0249 251.496 71.0495 251.508 71.0771 251.523ZM70.9882 251.474C70.6997 251.327 70.4112 251.226 70.1196 251.167C70.4112 251.226 70.6997 251.327 70.9882 251.474Z" fill="#3B637E"/>
<path d="M75.2656 257.017C73.9336 256.68 72.5218 256.281 71.0487 255.829C69.4742 254.995 67.8906 254.144 66.3008 253.285C66.933 251.972 68.1698 251.115 69.4957 251.109C69.5018 251.109 69.508 251.109 69.5141 251.109C69.5141 251.109 69.5172 251.109 69.5203 251.109C69.7197 251.109 69.9192 251.128 70.1187 251.167C70.4103 251.226 70.6988 251.327 70.9873 251.474C70.9904 251.477 70.9934 251.48 70.9964 251.48C71.0241 251.496 71.0486 251.508 71.0762 251.523C71.0854 251.53 71.0947 251.533 71.1039 251.539C71.1315 251.554 71.1468 251.563 71.1499 251.566H71.153C72.2333 252.189 73.2062 253.021 73.9643 254.105C74.5382 254.924 74.9863 255.888 75.2656 257.017V257.017ZM71.1499 251.566L71.1131 251.545C71.11 251.542 71.107 251.542 71.1039 251.539C71.107 251.542 71.11 251.542 71.1131 251.545L71.1499 251.566Z" fill="#3F6783"/>
<path d="M66.3015 253.285C62.6216 251.293 58.8988 249.228 55.1392 247.092C55.7376 245.662 57.042 244.716 58.4384 244.716C58.9694 244.716 59.5157 244.851 60.0374 245.152L60.0804 245.174C61.3633 245.913 63.1096 246.923 64.8344 247.917C66.3659 248.801 67.8851 249.679 69.0452 250.351C70.1317 250.977 70.9082 251.425 71.1046 251.539C71.0954 251.533 71.0861 251.53 71.0769 251.523C71.0493 251.508 71.0248 251.496 70.9971 251.48C70.9941 251.48 70.9911 251.477 70.988 251.474C70.6995 251.327 70.411 251.226 70.1194 251.167C69.9199 251.128 69.7205 251.109 69.521 251.109C69.5179 251.109 69.5148 251.109 69.5148 251.109C69.5087 251.109 69.5025 251.109 69.4964 251.109C68.1705 251.115 66.9337 251.972 66.3015 253.285V253.285ZM71.1537 251.566H71.1506C71.1537 251.566 71.1537 251.566 71.1537 251.566ZM71.1506 251.566C71.1475 251.563 71.1322 251.554 71.1046 251.539C71.1077 251.542 71.1107 251.542 71.1138 251.545L71.1506 251.566Z" fill="#46708B"/>
<path d="M72.6823 249.814L72.2895 249.664C71.6266 249.36 70.359 248.688 69.4598 248.169C68.9012 247.847 68.6157 247.659 68.6341 247.632L68.6679 247.574L71.5222 242.387C72.8573 243.117 74.2199 243.851 75.5427 244.547L75.5703 244.563L72.7376 249.713L72.6823 249.814" fill="#5C859F"/>
<path d="M83.1322 245.213C82.9849 245.213 82.4663 245.011 81.5517 244.59L81.4934 244.563L81.4381 244.538L81.3921 244.517L81.4442 244.541L81.5026 244.566L81.5517 244.59L81.7604 244.686L77.5895 242.276L77.6232 242.212C77.6478 242.175 77.2519 241.914 76.4815 241.469C75.3337 240.806 73.7531 239.968 72.7925 239.508L68.3086 236.918L68.0845 236.813C70.816 238.075 76.0611 240.846 79.7747 242.991C82.055 244.308 83.2366 245.085 83.1753 245.198C83.1691 245.207 83.1568 245.213 83.1322 245.213ZM81.3492 244.495L81.2694 244.458C81.0177 244.339 80.7476 244.21 80.4621 244.072C80.7476 244.21 81.0177 244.339 81.2724 244.458L81.3492 244.495V244.495ZM80.1246 243.906H80.1215H80.1246ZM80.0908 243.891C79.8974 243.795 79.698 243.697 79.4954 243.596C79.698 243.697 79.8974 243.795 80.0908 243.891Z" fill="#507A94"/>
<path d="M77.5904 242.276L77.2773 242.095C77.4646 242.178 77.575 242.218 77.6118 242.218C77.618 242.218 77.6241 242.215 77.6241 242.212L77.5904 242.276" fill="#2E546F"/>
<path d="M79.495 243.596C76.6469 242.172 72.7798 240.1 69.8581 238.412C68.2284 237.47 67.1603 236.804 66.7061 236.46L66.8105 236.27L79.495 243.596ZM68.3112 237.697C67.6698 237.326 67.0928 236.988 66.5864 236.684C67.0928 236.988 67.6698 237.326 68.3112 237.697Z" fill="#59839D"/>
<path d="M66.7071 236.46C66.5322 236.325 66.4494 236.242 66.4616 236.209V236.206L66.7992 236.267C66.8023 236.27 66.8053 236.27 66.8084 236.27H66.8115L66.7071 236.46Z" fill="#47708C"/>
<path d="M81.7606 244.686L81.5519 244.59L81.5028 244.566L81.4444 244.541L81.3923 244.517L81.3831 244.511L81.3494 244.495L81.2726 244.458C81.0179 244.339 80.7478 244.21 80.4624 244.072C80.3519 244.02 80.2384 243.964 80.1248 243.906H80.1217C80.1094 243.9 80.1002 243.894 80.091 243.891C79.8977 243.796 79.6982 243.697 79.4956 243.596L66.811 236.27C66.8172 236.273 66.8233 236.276 66.8295 236.279C67.0811 236.368 67.4617 236.528 67.9773 236.764L68.0325 236.789L68.0847 236.813L68.3088 236.918L72.7927 239.508C73.7533 239.968 75.3339 240.806 76.4817 241.469C77.2521 241.914 77.648 242.175 77.6234 242.212C77.6234 242.215 77.6173 242.218 77.6112 242.218C77.5743 242.218 77.4639 242.178 77.2767 242.095L77.5897 242.276L81.7606 244.686" fill="#446D88"/>
<path d="M83.449 248.464C83.1697 248.344 82.8444 248.2 82.4638 248.025C80.8034 247.257 78.4372 246.067 75.8898 244.728C75.7763 244.67 75.6596 244.609 75.543 244.547C74.2202 243.851 72.8576 243.117 71.5225 242.387C69.9757 241.54 68.4687 240.696 67.1183 239.916C66.7869 239.726 66.4769 239.545 66.1822 239.373C65.7249 239.103 65.3106 238.854 64.9392 238.63C63.3832 237.682 62.5975 237.126 62.6559 237.019L63.8498 234.803C63.8037 234.907 64.5004 235.411 65.8845 236.261C65.8876 236.261 65.8876 236.261 65.8907 236.264C65.8968 236.267 65.903 236.27 65.9091 236.273C65.9091 236.276 65.9122 236.276 65.9122 236.276C65.9183 236.282 65.9275 236.285 65.9336 236.288C66.1362 236.414 66.3541 236.546 66.5874 236.684C67.0938 236.988 67.6707 237.326 68.3122 237.697C68.8186 237.992 69.3496 238.293 69.8959 238.603L68.7235 240.831C71.1818 242.221 73.9594 243.725 76.5129 245.054L77.6852 242.826C79.9993 244.035 82.1292 245.1 83.6576 245.806C83.808 245.873 83.9492 245.938 84.0812 245.999C83.8694 246.825 83.6577 247.647 83.449 248.464Z" fill="#58819C"/>
<path d="M76.5125 245.054C73.9591 243.725 71.1815 242.221 68.7231 240.831L69.8956 238.603C72.3539 239.99 75.1345 241.494 77.6849 242.826L76.5125 245.054Z" fill="#75A1B8"/>
<path d="M84.0798 245.999C83.9478 245.938 83.8066 245.873 83.6562 245.806C82.1278 245.1 79.9978 244.035 77.6838 242.826C75.1333 241.494 72.3528 239.99 69.8944 238.603C69.3481 238.293 68.8171 237.992 68.3107 237.697C67.6693 237.326 67.0923 236.988 66.5859 236.684C66.3527 236.546 66.1347 236.414 65.9322 236.288C65.926 236.285 65.9169 236.282 65.9108 236.276C65.9108 236.276 65.9077 236.276 65.9077 236.273C65.9015 236.27 65.8954 236.267 65.8892 236.264C65.8862 236.261 65.8862 236.261 65.8831 236.261C64.4989 235.411 63.8023 234.907 63.8483 234.803C63.8514 234.788 63.8729 234.782 63.9036 234.782C64.0969 234.782 64.7783 235.045 65.9783 235.598C66.6412 235.905 67.4177 236.279 68.2739 236.703C68.4059 236.767 68.541 236.835 68.676 236.902C71.2786 238.204 74.5288 239.916 77.5579 241.586C78.8807 242.313 80.1605 243.031 81.3237 243.706C82.5299 244.4 83.4997 244.983 84.224 245.437C84.178 245.625 84.1289 245.812 84.0798 245.999V245.999ZM81.3912 244.517L81.4372 244.538L81.4925 244.563L81.5508 244.59C82.4654 245.011 82.9841 245.213 83.1314 245.213C83.1559 245.213 83.1683 245.207 83.1744 245.198C83.2389 245.088 82.0603 244.308 79.7738 242.991C76.0602 240.846 70.8151 238.075 68.0836 236.813L68.0315 236.789L67.9762 236.764C67.4606 236.528 67.0801 236.368 66.8284 236.279C66.8223 236.276 66.813 236.273 66.8069 236.27C66.8038 236.27 66.8008 236.27 66.7977 236.267C66.6534 236.218 66.5552 236.193 66.5031 236.193C66.4785 236.193 66.4632 236.196 66.4601 236.209C66.4479 236.242 66.5307 236.325 66.7056 236.46C67.1598 236.804 68.2279 237.47 69.8576 238.412C72.7793 240.1 76.6464 242.172 79.4946 243.596C79.6971 243.697 79.8966 243.795 80.0899 243.891C80.0992 243.894 80.1084 243.9 80.1207 243.906H80.1237C80.2373 243.964 80.3508 244.019 80.4613 244.072C80.7467 244.21 81.0168 244.339 81.2685 244.458L81.3483 244.495L81.382 244.511L81.3912 244.517" fill="#446D88"/>
<path d="M45.6093 244.64C45.4252 244.532 45.241 244.425 45.063 244.317C45.2441 244.425 45.4252 244.532 45.6093 244.64Z" fill="#97517A"/>
<path d="M71.05 255.829C63.586 253.534 54.5291 249.793 46.1873 244.974L45.6103 244.64C45.4261 244.532 45.2451 244.425 45.064 244.317C36.2925 239.143 30.271 234.03 24.7129 228.646C26.3395 229.696 27.9845 230.749 29.6479 231.801C33.0239 233.938 36.4767 236.074 40.0031 238.213C42.8051 239.91 45.6533 241.604 48.5505 243.298C50.7603 244.587 52.9546 245.852 55.1398 247.092C58.8995 249.228 62.6223 251.293 66.3022 253.285C67.892 254.144 69.4756 254.995 71.05 255.829" fill="#355C78"/>
<path d="M19.1728 217.552C21.9595 206.675 25.2281 194.058 28.0087 183.209C28.1959 182.475 28.7974 182.156 29.3437 182.472L29.4174 182.515C39.395 188.92 49.4494 195.046 59.5743 200.893C69.6992 206.739 79.8979 212.304 90.164 217.589L90.2376 217.628C90.8024 217.954 91.0847 218.785 90.8975 219.519C88.1199 230.368 84.8483 242.985 82.0615 253.859C81.3219 256.756 79.9224 257.987 77.9674 257.643C69.7668 255.931 57.34 251.413 46.1869 244.974L45.6099 244.639C34.2788 238.035 27.4992 231.55 20.5232 224.479C18.9395 222.781 18.4301 220.446 19.1728 217.552V217.552ZM92.9752 217.174C81.905 211.533 70.9054 205.561 59.9917 199.26C49.078 192.959 38.2502 186.33 27.5146 179.378C23.7764 193.96 19.538 210.557 15.7814 225.209L15.7538 225.347C15.0816 228.422 17.715 232.111 20.3114 234.232C28.0394 240.548 37.5751 247.543 48.498 253.85C59.4209 260.157 67.2163 263.278 74.9934 266.197C77.596 267.173 80.4411 265.832 81.2145 262.99C81.2145 262.99 89.1604 232.065 92.9752 217.174" fill="#2D2C30"/>
<path d="M87.8613 273.194L91.2925 275.174C92.2193 275.708 92.9713 275.14 92.9713 273.903V262.02C92.9713 260.783 92.2193 259.35 91.2925 258.816L85.4029 255.412C84.476 254.878 83.7241 255.446 83.7241 256.683V265.285C83.7241 268.333 85.5778 271.875 87.8613 273.194Z" fill="#C8C7C0"/>
<path d="M92.9726 273.903V262.02C92.9726 260.783 92.2207 259.35 91.2938 258.816L85.4042 255.412C84.5081 254.896 83.7746 255.409 83.7285 256.56C83.8022 254.7 85.5914 253.236 86.9265 253.218L87.617 253.42L93.5066 256.821C94.4335 257.355 95.1854 258.791 95.1854 260.025V272.627C95.1854 272.921 95.1425 273.176 95.0657 273.388C94.5348 275.024 92.8958 275.588 91.7971 275.361C92.4784 275.469 92.9726 274.907 92.9726 273.903Z" fill="#8C8984"/>
<defs>
<linearGradient id="paint0_linear_14_82896" x1="169.241" y1="242.23" x2="184.204" y2="268.146" gradientUnits="userSpaceOnUse">
<stop stop-color="#BDB9A7"/>
<stop offset="0.461052" stop-color="#F1EEE2"/>
<stop offset="0.915106" stop-color="#F1EEE2"/>
<stop offset="1" stop-color="#D4CFBD"/>
</linearGradient>
</defs>
</svg>
